<svg width="35" height="35" viewBox="0 0 35 35" fill="none" xmlns="http://www.w3.org/2000/svg">
<g clip-path="url(#clip0_1_143)">
<path d="M27.8103 7.18893L25.7467 9.25247C27.8613 11.3598 29.1665 14.2764 29.1665 17.4993C29.1665 23.9452 23.9457 29.166 17.4998 29.166C11.054 29.166 5.83317 23.9452 5.83317 17.4993C5.83317 11.5493 10.2884 6.64935 16.0415 5.93477V8.8806C11.9071 9.57331 8.74984 13.1681 8.74984 17.4993C8.74984 22.3337 12.6655 26.2493 17.4998 26.2493C22.3342 26.2493 26.2498 22.3337 26.2498 17.4993C26.2498 15.0858 25.2728 12.8983 23.6905 11.3087L21.6269 13.3723C22.6769 14.4296 23.3332 15.8879 23.3332 17.4993C23.3332 20.7223 20.7228 23.3327 17.4998 23.3327C14.2769 23.3327 11.6665 20.7223 11.6665 17.4993C11.6665 14.7868 13.5332 12.5191 16.0415 11.8702V14.9837C15.1738 15.4868 14.5832 16.4202 14.5832 17.4993C14.5832 19.1108 15.8884 20.416 17.4998 20.416C19.1113 20.416 20.4165 19.1108 20.4165 17.4993C20.4165 16.4202 19.8259 15.4941 18.9582 14.9837V2.91602H17.4998C9.44254 2.91602 2.9165 9.44206 2.9165 17.4993C2.9165 25.5493 9.44254 32.0827 17.4998 32.0827C25.5498 32.0827 32.0832 25.5493 32.0832 17.4993C32.0832 13.4743 30.4498 9.82852 27.8103 7.18893Z" fill="white"/>
</g>
<defs>
<clipPath id="clip0_1_143">
<rect width="35" height="35" fill="white"/>
</clipPath>
</defs>
</svg>
