<svg width="35" height="35" viewBox="0 0 35 35" fill="none" xmlns="http://www.w3.org/2000/svg">
<path d="M9.70567 15.8495C9.7298 15.8822 9.76127 15.9088 9.79755 15.9272C9.80849 15.9332 9.82052 15.9354 9.832 15.9397C9.85716 15.949 9.88177 15.9561 9.90856 15.9578C9.91513 15.9583 9.92059 15.9622 9.92716 15.9622C9.93317 15.9622 9.93864 15.9567 9.94466 15.9567C9.99587 15.9552 10.0456 15.9391 10.0879 15.9102L11.6367 14.7853L12.2793 15.6701L10.9515 16.6348L10.7907 16.4133C10.7702 16.3828 10.7437 16.3567 10.7129 16.3367C10.6821 16.3166 10.6475 16.303 10.6113 16.2966C10.5751 16.2902 10.538 16.2912 10.5022 16.2994C10.4664 16.3077 10.4326 16.3231 10.4028 16.3448C10.3731 16.3664 10.3481 16.3938 10.3292 16.4254C10.3103 16.4569 10.2979 16.4919 10.2929 16.5283C10.2878 16.5648 10.2902 16.6018 10.2998 16.6373C10.3094 16.6728 10.3261 16.706 10.3488 16.7349L10.6704 17.1779C10.7132 17.2362 10.7774 17.2752 10.8488 17.2865C10.9203 17.2977 10.9934 17.2803 11.0521 17.238L12.8218 15.9518C12.8803 15.9091 12.9195 15.8449 12.9308 15.7734C12.9421 15.7018 12.9245 15.6287 12.8819 15.57L11.9178 14.2428C11.8751 14.1842 11.8109 14.145 11.7394 14.1337C11.6678 14.1224 11.5947 14.14 11.5361 14.1826L9.98731 15.3075L9.34419 14.4227L10.672 13.458L10.8328 13.6795C10.8533 13.71 10.8797 13.7361 10.9106 13.7561C10.9414 13.7762 10.9759 13.7898 11.0121 13.7962C11.0483 13.8026 11.0855 13.8017 11.1213 13.7934C11.1571 13.7851 11.1909 13.7697 11.2206 13.7481C11.2503 13.7264 11.2754 13.699 11.2943 13.6675C11.3132 13.6359 11.3255 13.6009 11.3306 13.5645C11.3356 13.5281 11.3333 13.491 11.3237 13.4555C11.3141 13.42 11.2974 13.3868 11.2747 13.3579L10.9531 12.915C10.9102 12.8567 10.8461 12.8176 10.7746 12.8064C10.7031 12.7951 10.6301 12.8125 10.5714 12.8548L8.80169 14.1411C8.74337 14.1839 8.70434 14.2481 8.69308 14.3195C8.68181 14.391 8.69922 14.4641 8.74153 14.5228L9.70567 15.8495ZM7.57231 19.4266C7.59641 19.4588 7.62743 19.4852 7.66309 19.5037C7.67513 19.5103 7.6877 19.513 7.70028 19.5174C7.71724 19.524 7.73255 19.5332 7.75059 19.536C7.82224 19.547 7.89535 19.5293 7.95403 19.4868L9.72427 18.2011C9.75354 18.1799 9.77827 18.1532 9.797 18.1223C9.80955 18.0991 9.81876 18.0743 9.82434 18.0485C9.82653 18.0397 9.83255 18.0321 9.83364 18.0228C9.83583 18.0086 9.832 17.9943 9.832 17.9796C9.832 17.9588 9.83419 17.938 9.82927 17.9172C9.82115 17.8819 9.80589 17.8486 9.78442 17.8193L8.81974 16.4915C8.77688 16.4332 8.71274 16.3942 8.64125 16.3829C8.56977 16.3717 8.49673 16.3891 8.43802 16.4314L7.55317 17.0745C7.52266 17.095 7.49659 17.1215 7.47654 17.1523C7.45648 17.1831 7.44284 17.2176 7.43644 17.2538C7.43004 17.29 7.43101 17.3272 7.43929 17.363C7.44756 17.3988 7.46298 17.4326 7.48461 17.4623C7.50625 17.4921 7.53366 17.5171 7.5652 17.536C7.59674 17.5549 7.63177 17.5672 7.66819 17.5723C7.70461 17.5773 7.74167 17.575 7.77716 17.5654C7.81265 17.5558 7.84583 17.5391 7.87474 17.5164L8.53864 17.034L9.18177 17.9194L7.85395 18.8836L7.69317 18.6626L7.69208 18.6615L6.24669 16.6709L7.5745 15.7068L7.73528 15.9277C7.75579 15.9582 7.78225 15.9843 7.81306 16.0043C7.84388 16.0244 7.87842 16.038 7.91462 16.0444C7.95083 16.0508 7.98795 16.0499 8.02378 16.0416C8.0596 16.0333 8.09339 16.0179 8.12312 15.9963C8.15284 15.9746 8.1779 15.9472 8.1968 15.9157C8.21569 15.8841 8.22803 15.8491 8.23307 15.8127C8.23812 15.7763 8.23577 15.7392 8.22616 15.7037C8.21655 15.6682 8.19989 15.635 8.17716 15.6061L7.85559 15.1637C7.81292 15.1052 7.74875 15.0659 7.67718 15.0547C7.60561 15.0434 7.53249 15.061 7.47388 15.1036L5.70419 16.3893C5.64563 16.4319 5.60641 16.4961 5.59513 16.5677C5.58385 16.6393 5.60144 16.7124 5.64403 16.771L7.57231 19.4266ZM12.16 12.7154C12.1811 12.7445 12.2077 12.7691 12.2383 12.7879C12.2689 12.8067 12.3029 12.8193 12.3384 12.8249C12.3739 12.8305 12.4101 12.829 12.445 12.8205C12.4799 12.812 12.5128 12.7967 12.5418 12.7755C12.6003 12.7328 12.6395 12.6687 12.6508 12.5971C12.6621 12.5255 12.6445 12.4524 12.6019 12.3938L12.4411 12.1723L12.8836 11.8508L14.6516 14.2849C14.6726 14.314 14.6992 14.3387 14.7298 14.3575C14.7605 14.3763 14.7945 14.3888 14.83 14.3944C14.8654 14.4 14.9017 14.3985 14.9366 14.39C14.9715 14.3816 15.0044 14.3663 15.0333 14.345C15.0919 14.3024 15.1311 14.2382 15.1424 14.1666C15.1537 14.0951 15.1361 14.0219 15.0935 13.9633L13.326 11.5297L13.7684 11.2082L13.9292 11.4291C13.9497 11.4596 13.9762 11.4857 14.007 11.5057C14.0378 11.5258 14.0723 11.5394 14.1085 11.5458C14.1447 11.5522 14.1819 11.5513 14.2177 11.543C14.2535 11.5347 14.2873 11.5193 14.317 11.4977C14.3468 11.476 14.3718 11.4486 14.3907 11.4171C14.4096 11.3855 14.4219 11.3505 14.427 11.3141C14.432 11.2777 14.4297 11.2406 14.4201 11.2051C14.4105 11.1696 14.3938 11.1364 14.3711 11.1075L14.0495 10.6651C14.0068 10.6066 13.9427 10.5673 13.8711 10.5561C13.7995 10.5448 13.7264 10.5624 13.6678 10.605L12.784 11.247L12.7829 11.2475L12.7824 11.2481L11.8981 11.8901C11.8395 11.9328 11.8003 11.997 11.789 12.0685C11.7778 12.1401 11.7953 12.2132 11.8379 12.2718L12.16 12.7154Z" fill="white"/>
<path d="M31.4453 28.4375H30.0781V11.7059C29.9622 11.7682 29.832 11.807 29.6915 11.8076H29.6909C29.4735 11.8076 29.2649 11.7212 29.1111 11.5675C28.9573 11.4138 28.8708 11.2053 28.8706 10.9878V10.8866L19.2719 17.9271C18.9257 18.1825 18.4352 18.124 18.1568 17.7909L16.4041 15.6762L5.46875 23.6813V28.4375H4.92188V23.4035L16.4965 14.9308L18.5762 17.4404C18.6692 17.5514 18.8327 17.5716 18.9487 17.4863L29.4164 9.80711L29.4175 10.9873C29.4175 11.0598 29.4463 11.1293 29.4976 11.1806C29.5489 11.2319 29.6184 11.2607 29.6909 11.2607C29.7635 11.2607 29.833 11.2319 29.8843 11.1806C29.9356 11.1293 29.9644 11.0598 29.9644 10.9873L29.9633 9.2668C29.9633 9.25859 29.9595 9.25148 29.9589 9.24328C29.9574 9.22151 29.9532 9.20001 29.9463 9.1793C29.9414 9.16508 29.9348 9.15305 29.9283 9.13992C29.9223 9.12844 29.9201 9.11586 29.9119 9.10492C29.907 9.09781 29.8993 9.09453 29.8933 9.08797C29.8895 9.08359 29.8878 9.07758 29.8834 9.0732C29.8769 9.06664 29.8676 9.06336 29.8599 9.05734C29.8444 9.04406 29.8273 9.03268 29.8091 9.02344C29.7954 9.01688 29.7817 9.01305 29.767 9.00867C29.7484 9.00296 29.7294 8.99911 29.7101 8.99719C29.7035 8.99664 29.6975 8.99336 29.6904 8.99336L27.9699 8.99445C27.8974 8.99445 27.8279 9.02326 27.7766 9.07454C27.7253 9.12582 27.6965 9.19537 27.6965 9.26789C27.6965 9.34041 27.7253 9.40996 27.7766 9.46124C27.8279 9.51252 27.8974 9.54133 27.9699 9.54133L28.8553 9.54078L18.8327 16.893L16.7535 14.3834C16.709 14.3298 16.6458 14.2952 16.5767 14.2867C16.5076 14.2781 16.4378 14.2963 16.3816 14.3374L4.92188 22.7265V5.74219C4.92188 5.66967 4.89307 5.60012 4.84179 5.54884C4.79051 5.49756 4.72096 5.46875 4.64844 5.46875C4.57592 5.46875 4.50637 5.49756 4.45509 5.54884C4.40381 5.60012 4.375 5.66967 4.375 5.74219V28.4375H3.55469C3.48217 28.4375 3.41262 28.4663 3.36134 28.5176C3.31006 28.5689 3.28125 28.6384 3.28125 28.7109C3.28125 28.7835 3.31006 28.853 3.36134 28.9043C3.41262 28.9556 3.48217 28.9844 3.55469 28.9844H4.375V29.8047C4.375 29.8772 4.40381 29.9468 4.45509 29.998C4.50637 30.0493 4.57592 30.0781 4.64844 30.0781C4.72096 30.0781 4.79051 30.0493 4.84179 29.998C4.89307 29.9468 4.92188 29.8772 4.92188 29.8047V28.9844H31.4453C31.5178 28.9844 31.5874 28.9556 31.6387 28.9043C31.6899 28.853 31.7188 28.7835 31.7188 28.7109C31.7188 28.6384 31.6899 28.5689 31.6387 28.5176C31.5874 28.4663 31.5178 28.4375 31.4453 28.4375ZM28.4375 12.022C28.4375 11.9494 28.4663 11.8799 28.5176 11.8286C28.5689 11.7773 28.6384 11.7485 28.7109 11.7485C28.7835 11.7485 28.853 11.7773 28.9043 11.8286C28.9556 11.8799 28.9844 11.9494 28.9844 12.022V28.4282C28.9844 28.4315 28.9827 28.4342 28.9827 28.4375H28.4397C28.4397 28.4342 28.438 28.4315 28.438 28.4282V12.022H28.4375ZM26.25 13.6626C26.25 13.5901 26.2788 13.5205 26.3301 13.4692C26.3814 13.4179 26.4509 13.3891 26.5234 13.3891C26.596 13.3891 26.6655 13.4179 26.7168 13.4692C26.7681 13.5205 26.7969 13.5901 26.7969 13.6626V28.4282C26.7969 28.4315 26.7952 28.4342 26.7952 28.4375H26.2522C26.2522 28.4342 26.2505 28.4315 26.2505 28.4282V13.6626H26.25ZM24.0625 15.3032C24.0625 15.2307 24.0913 15.1611 24.1426 15.1099C24.1939 15.0586 24.2634 15.0298 24.3359 15.0298C24.4085 15.0298 24.478 15.0586 24.5293 15.1099C24.5806 15.1611 24.6094 15.2307 24.6094 15.3032V28.4282C24.6094 28.4315 24.6077 28.4342 24.6077 28.4375H24.0647C24.0647 28.4342 24.063 28.4315 24.063 28.4282V15.3032H24.0625ZM21.875 16.9438C21.875 16.8713 21.9038 16.8018 21.9551 16.7505C22.0064 16.6992 22.0759 16.6704 22.1484 16.6704C22.221 16.6704 22.2905 16.6992 22.3418 16.7505C22.3931 16.8018 22.4219 16.8713 22.4219 16.9438V28.4282C22.4219 28.4315 22.4202 28.4342 22.4202 28.4375H21.8772C21.8772 28.4342 21.8755 28.4315 21.8755 28.4282V16.9438H21.875ZM19.6875 18.5845C19.6875 18.5119 19.7163 18.4424 19.7676 18.3911C19.8189 18.3398 19.8884 18.311 19.9609 18.311C20.0335 18.311 20.103 18.3398 20.1543 18.3911C20.2056 18.4424 20.2344 18.5119 20.2344 18.5845V28.4282C20.2344 28.4315 20.2327 28.4342 20.2327 28.4375H19.6897C19.6897 28.4342 19.688 28.4315 19.688 28.4282V18.5845H19.6875ZM17.5 18.5845C17.5 18.5119 17.5288 18.4424 17.5801 18.3911C17.6314 18.3398 17.7009 18.311 17.7734 18.311C17.846 18.311 17.9155 18.3398 17.9668 18.3911C18.0181 18.4424 18.0469 18.5119 18.0469 18.5845V28.4282C18.0469 28.4315 18.0452 28.4342 18.0452 28.4375H17.5022C17.5022 28.4342 17.5005 28.4315 17.5005 28.4282V18.5845H17.5ZM15.3125 17.4907C15.3125 17.4182 15.3413 17.3486 15.3926 17.2974C15.4439 17.2461 15.5134 17.2173 15.5859 17.2173C15.6585 17.2173 15.728 17.2461 15.7793 17.2974C15.8306 17.3486 15.8594 17.4182 15.8594 17.4907V28.4282C15.8594 28.4315 15.8577 28.4342 15.8577 28.4375H15.3147C15.3147 28.4342 15.313 28.4315 15.313 28.4282V17.4907H15.3125ZM13.125 19.1313C13.125 19.0588 13.1538 18.9893 13.2051 18.938C13.2564 18.8867 13.3259 18.8579 13.3984 18.8579C13.471 18.8579 13.5405 18.8867 13.5918 18.938C13.6431 18.9893 13.6719 19.0588 13.6719 19.1313V28.4282C13.6719 28.4315 13.6702 28.4342 13.6702 28.4375H13.1272C13.1272 28.4342 13.1255 28.4315 13.1255 28.4282V19.1313H13.125ZM10.9375 20.772C10.9375 20.6994 10.9663 20.6299 11.0176 20.5786C11.0689 20.5273 11.1384 20.4985 11.2109 20.4985C11.2835 20.4985 11.353 20.5273 11.4043 20.5786C11.4556 20.6299 11.4844 20.6994 11.4844 20.772V28.4282C11.4844 28.4315 11.4827 28.4342 11.4827 28.4375H10.9397C10.9397 28.4342 10.938 28.4315 10.938 28.4282V20.772H10.9375ZM8.75 22.4126C8.75 22.3401 8.77881 22.2705 8.83009 22.2192C8.88137 22.1679 8.95092 22.1391 9.02344 22.1391C9.09596 22.1391 9.16551 22.1679 9.21679 22.2192C9.26807 22.2705 9.29688 22.3401 9.29688 22.4126V28.4282C9.29688 28.4315 9.29523 28.4342 9.29523 28.4375H8.75219C8.75219 28.4342 8.75055 28.4315 8.75055 28.4282V22.4126H8.75ZM6.5625 28.4282V24.0625C6.5625 23.99 6.59131 23.9204 6.64259 23.8692C6.69387 23.8179 6.76342 23.7891 6.83594 23.7891C6.90846 23.7891 6.97801 23.8179 7.02929 23.8692C7.08057 23.9204 7.10938 23.99 7.10938 24.0625V28.4282C7.10938 28.4315 7.10773 28.4342 7.10773 28.4375H6.56469C6.56414 28.4342 6.5625 28.4315 6.5625 28.4282Z" fill="white"/>
</svg>
