<svg width="35" height="35" viewBox="0 0 35 35" fill="none" xmlns="http://www.w3.org/2000/svg">
<path d="M13.1248 17.4954H10.2082C9.82141 17.4954 9.45048 17.649 9.17699 17.9225C8.90349 18.196 8.74985 18.5669 8.74985 18.9537C8.74985 19.3405 8.90349 19.7114 9.17699 19.9849C9.45048 20.2584 9.82141 20.412 10.2082 20.412H13.1248C13.5116 20.412 13.8826 20.2584 14.156 19.9849C14.4295 19.7114 14.5832 19.3405 14.5832 18.9537C14.5832 18.5669 14.4295 18.196 14.156 17.9225C13.8826 17.649 13.5116 17.4954 13.1248 17.4954ZM11.6665 14.5787H17.4998C17.8866 14.5787 18.2576 14.4251 18.531 14.1516C18.8045 13.8781 18.9582 13.5072 18.9582 13.1204C18.9582 12.7336 18.8045 12.3627 18.531 12.0892C18.2576 11.8157 17.8866 11.662 17.4998 11.662H11.6665C11.2797 11.662 10.9088 11.8157 10.6353 12.0892C10.3618 12.3627 10.2082 12.7336 10.2082 13.1204C10.2082 13.5072 10.3618 13.8781 10.6353 14.1516C10.9088 14.4251 11.2797 14.5787 11.6665 14.5787ZM13.1248 23.3287H10.2082C9.82141 23.3287 9.45048 23.4824 9.17699 23.7558C8.90349 24.0293 8.74985 24.4003 8.74985 24.787C8.74985 25.1738 8.90349 25.5448 9.17699 25.8182C9.45048 26.0917 9.82141 26.2454 10.2082 26.2454H13.1248C13.5116 26.2454 13.8826 26.0917 14.156 25.8182C14.4295 25.5448 14.5832 25.1738 14.5832 24.787C14.5832 24.4003 14.4295 24.0293 14.156 23.7558C13.8826 23.4824 13.5116 23.3287 13.1248 23.3287ZM30.6248 17.4954H26.2498V4.37038C26.2509 4.11341 26.184 3.86073 26.0559 3.63793C25.9279 3.41512 25.7432 3.23012 25.5207 3.10163C25.299 2.97363 25.0475 2.90625 24.7915 2.90625C24.5355 2.90625 24.284 2.97363 24.0623 3.10163L19.6873 5.60996L15.3123 3.10163C15.0907 2.97363 14.8392 2.90625 14.5832 2.90625C14.3272 2.90625 14.0757 2.97363 13.854 3.10163L9.47902 5.60996L5.10402 3.10163C4.88232 2.97363 4.63084 2.90625 4.37485 2.90625C4.11886 2.90625 3.86738 2.97363 3.64568 3.10163C3.42313 3.23012 3.23849 3.41512 3.11044 3.63793C2.9824 3.86073 2.9155 4.11341 2.91652 4.37038V27.7037C2.91652 28.864 3.37745 29.9768 4.19792 30.7973C5.0184 31.6178 6.13119 32.0787 7.29152 32.0787H27.7082C28.8685 32.0787 29.9813 31.6178 30.8018 30.7973C31.6222 29.9768 32.0832 28.864 32.0832 27.7037V18.9537C32.0832 18.5669 31.9295 18.196 31.656 17.9225C31.3826 17.649 31.0116 17.4954 30.6248 17.4954ZM7.29152 29.162C6.90474 29.162 6.53381 29.0084 6.26032 28.7349C5.98683 28.4614 5.83318 28.0905 5.83318 27.7037V6.8933L8.74985 8.5558C8.97493 8.67335 9.22509 8.73475 9.47902 8.73475C9.73294 8.73475 9.98311 8.67335 10.2082 8.5558L14.5832 6.04746L18.9582 8.5558C19.1833 8.67335 19.4334 8.73475 19.6873 8.73475C19.9413 8.73475 20.1914 8.67335 20.4165 8.5558L23.3332 6.8933V27.7037C23.3371 28.2012 23.4259 28.6944 23.5957 29.162H7.29152ZM29.1665 27.7037C29.1665 28.0905 29.0129 28.4614 28.7394 28.7349C28.4659 29.0084 28.095 29.162 27.7082 29.162C27.3214 29.162 26.9505 29.0084 26.677 28.7349C26.4035 28.4614 26.2498 28.0905 26.2498 27.7037V20.412H29.1665V27.7037ZM19.7748 23.5766C19.6936 23.5214 19.6053 23.4773 19.5123 23.4454C19.4255 23.401 19.3319 23.3714 19.2353 23.3579C19.001 23.311 18.7588 23.3223 18.5299 23.391C18.301 23.4597 18.0925 23.5835 17.9228 23.7516C17.6563 24.0311 17.5052 24.4009 17.4998 24.787C17.4975 24.9766 17.5322 25.1649 17.6019 25.3412C17.6812 25.5184 17.7897 25.6811 17.9228 25.8225C18.0645 25.9513 18.2273 26.0549 18.404 26.1287C18.5786 26.2059 18.7673 26.2457 18.9582 26.2457C19.149 26.2457 19.3378 26.2059 19.5123 26.1287C19.6891 26.0549 19.8518 25.9513 19.9936 25.8225C20.1288 25.6862 20.2357 25.5246 20.3083 25.3469C20.3808 25.1692 20.4176 24.979 20.4165 24.787C20.4111 24.4009 20.2601 24.0311 19.9936 23.7516C19.9243 23.6889 19.8512 23.6305 19.7748 23.5766ZM19.979 17.9183C19.8087 17.7525 19.6005 17.6308 19.3724 17.5638C19.1444 17.4968 18.9034 17.4866 18.6705 17.5341C18.4376 17.5815 18.2198 17.6852 18.0361 17.836C17.8524 17.9869 17.7084 18.1803 17.6165 18.3995C17.5257 18.6205 17.4906 18.8603 17.5143 19.098C17.5379 19.3357 17.6195 19.5639 17.752 19.7627C17.8845 19.9614 18.0638 20.1246 18.2741 20.2378C18.4844 20.351 18.7193 20.4109 18.9582 20.412C19.345 20.412 19.7159 20.2584 19.9894 19.9849C20.2629 19.7114 20.4165 19.3405 20.4165 18.9537C20.4142 18.7631 20.3746 18.5749 20.2998 18.3995C20.2296 18.2175 20.12 18.0532 19.979 17.9183Z" fill="white"/>
</svg>
