<svg width="35" height="35" viewBox="0 0 35 35" fill="none" xmlns="http://www.w3.org/2000/svg">
<path d="M24.5064 0H10.4924C9.56599 0 8.67753 0.368011 8.02247 1.02308C7.3674 1.67814 6.99939 2.5666 6.99939 3.493V31.5053C6.99939 33.4355 8.56389 35 10.4924 35H24.5046C25.4312 35 26.3198 34.632 26.9752 33.977C27.6305 33.322 27.9989 32.4336 27.9994 31.507V3.493C27.9994 2.5666 27.6314 1.67814 26.9763 1.02308C26.3212 0.368011 25.4328 0 24.5064 0V0ZM17.4994 33.25C16.2919 33.25 15.3119 32.4678 15.3119 31.5C15.3119 30.5322 16.2919 29.75 17.4994 29.75C18.7069 29.75 19.6869 30.5322 19.6869 31.5C19.6869 32.4678 18.7069 33.25 17.4994 33.25ZM24.4994 28H10.4994V3.5H24.4994V28Z" fill="white"/>
</svg>
