<svg width="35" height="35" viewBox="0 0 35 35" fill="none" xmlns="http://www.w3.org/2000/svg">
<path fill-rule="evenodd" clip-rule="evenodd" d="M17.5001 14V17.5H21.0001C21.0001 16.5717 20.6314 15.6818 19.975 15.0254C19.3186 14.369 18.4284 14 17.5001 14ZM17.5001 7V10.5C21.3606 10.5 24.5001 13.6395 24.5001 17.5H28.0001C28.0001 14.7152 26.8939 12.0444 24.9247 10.0753C22.9556 8.10619 20.2849 7 17.5001 7ZM17.5001 0V3.5C25.2194 3.5 31.5001 9.78075 31.5001 17.5H35.0001C35.0001 7.83475 27.1654 0 17.5001 0ZM25.6411 31.9093C25.6201 31.9723 25.6219 31.9636 25.6411 31.9093V31.9093ZM24.7049 27.2617C23.4886 26.6072 22.2584 25.8614 20.9861 25.3417C18.5274 24.3389 18.6936 27.3033 16.9384 28.264C15.7974 28.8888 14.1874 27.7566 13.1916 27.1301C11.4349 26.0083 9.89031 24.5849 8.62937 22.9252C7.97312 22.0729 6.52412 20.47 6.70262 19.2748C6.98612 17.3778 9.22961 17.2827 8.58736 14.9622C8.24436 13.7197 7.63012 12.4968 7.16987 11.2998C6.55387 9.69506 6.30011 8.66763 4.50286 8.75513C3.20436 8.81813 2.34337 9.3733 1.54537 10.4146C-0.614126 13.2268 -0.288629 17.0184 1.16212 20.1036C3.21662 24.4699 6.73762 28.5862 10.4984 31.2462C13.0569 33.0557 16.4274 34.6987 19.5249 34.9769C21.7929 35.1817 24.9656 33.9554 25.7776 31.4932L25.6411 31.9093L25.7776 31.4932L25.9194 31.0642L25.7794 31.488C26.4934 29.318 26.5809 28.2715 24.7049 27.2617ZM25.9194 31.0642C25.9334 31.0187 25.9334 31.0222 25.9194 31.0642V31.0642Z" fill="white"/>
</svg>
