<svg width="102" height="103" viewBox="0 0 102 103" fill="none" xmlns="http://www.w3.org/2000/svg">
<ellipse cx="50.7658" cy="51.5073" rx="50.3243" ry="50.6203" fill="white"/>
<path d="M45.1808 41.9791C44.9575 41.8302 44.6597 41.6813 44.3619 41.6813C44.2131 41.6813 43.9897 41.7558 43.7664 41.8302L27.3893 48.3811C26.7937 48.6044 26.4215 49.1255 26.4215 49.7955V78.3066C26.4215 79.1255 27.0915 79.7955 27.9103 79.7955H44.2875C45.1064 79.7955 45.7763 79.1255 45.7763 78.3066V43.2446C45.8508 42.7235 45.6275 42.2769 45.1808 41.9791ZM33.9401 71.6069C33.9401 72.4257 33.2701 73.0957 32.4513 73.0957C31.6324 73.0957 30.9625 72.4257 30.9625 71.6069V70.1181C30.9625 69.2992 31.6324 68.6292 32.4513 68.6292C33.2701 68.6292 33.9401 69.2992 33.9401 70.1181V71.6069ZM33.9401 62.6739C33.9401 63.4927 33.2701 64.1627 32.4513 64.1627C31.6324 64.1627 30.9625 63.4927 30.9625 62.6739V61.1851C30.9625 60.3662 31.6324 59.6962 32.4513 59.6962C33.2701 59.6962 33.9401 60.3662 33.9401 61.1851V62.6739ZM33.9401 53.7409C33.9401 54.5597 33.2701 55.2297 32.4513 55.2297C31.6324 55.2297 30.9625 54.5597 30.9625 53.7409V52.2521C30.9625 51.4332 31.6324 50.7632 32.4513 50.7632C33.2701 50.7632 33.9401 51.4332 33.9401 52.2521V53.7409ZM41.3843 71.6069C41.3843 72.4257 40.7143 73.0957 39.8955 73.0957C39.0766 73.0957 38.4066 72.4257 38.4066 71.6069V70.1181C38.4066 69.2992 39.0766 68.6292 39.8955 68.6292C40.7143 68.6292 41.3843 69.2992 41.3843 70.1181V71.6069ZM41.3843 62.6739C41.3843 63.4927 40.7143 64.1627 39.8955 64.1627C39.0766 64.1627 38.4066 63.4927 38.4066 62.6739V61.1851C38.4066 60.3662 39.0766 59.6962 39.8955 59.6962C40.7143 59.6962 41.3843 60.3662 41.3843 61.1851V62.6739ZM41.3843 53.7409C41.3843 54.5597 40.7143 55.2297 39.8955 55.2297C39.0766 55.2297 38.4066 54.5597 38.4066 53.7409V52.2521C38.4066 51.4332 39.0766 50.7632 39.8955 50.7632C40.7143 50.7632 41.3843 51.4332 41.3843 52.2521V53.7409ZM56.2726 78.3066C56.2726 79.1255 56.9426 79.7955 57.7614 79.7955H74.1386C74.9575 79.7955 75.6274 79.1255 75.6274 78.3066V39.597H56.2726V78.3066ZM68.1833 45.5523C68.1833 44.7334 68.8533 44.0635 69.6721 44.0635C70.491 44.0635 71.1609 44.7334 71.1609 45.5523V47.0411C71.1609 47.86 70.491 48.53 69.6721 48.53C68.8533 48.53 68.1833 47.86 68.1833 47.0411V45.5523ZM68.1833 54.4853C68.1833 53.6664 68.8533 52.9965 69.6721 52.9965C70.491 52.9965 71.1609 53.6664 71.1609 54.4853V55.9741C71.1609 56.793 70.491 57.463 69.6721 57.463C68.8533 57.463 68.1833 56.793 68.1833 55.9741V54.4853ZM68.1833 63.4183C68.1833 62.5994 68.8533 61.9295 69.6721 61.9295C70.491 61.9295 71.1609 62.5994 71.1609 63.4183V64.9071C71.1609 65.726 70.491 66.396 69.6721 66.396C68.8533 66.396 68.1833 65.726 68.1833 64.9071V63.4183ZM60.7391 45.5523C60.7391 44.7334 61.4091 44.0635 62.2279 44.0635C63.0468 44.0635 63.7168 44.7334 63.7168 45.5523V47.0411C63.7168 47.86 63.0468 48.53 62.2279 48.53C61.4091 48.53 60.7391 47.86 60.7391 47.0411V45.5523ZM60.7391 54.4853C60.7391 53.6664 61.4091 52.9965 62.2279 52.9965C63.0468 52.9965 63.7168 53.6664 63.7168 54.4853V55.9741C63.7168 56.793 63.0468 57.463 62.2279 57.463C61.4091 57.463 60.7391 56.793 60.7391 55.9741V54.4853ZM60.7391 63.4183C60.7391 62.5994 61.4091 61.9295 62.2279 61.9295C63.0468 61.9295 63.7168 62.5994 63.7168 63.4183V64.9071C63.7168 65.726 63.0468 66.396 62.2279 66.396C61.4091 66.396 60.7391 65.726 60.7391 64.9071V63.4183ZM67.4389 20.2421H64.4612V17.2645C64.4612 16.4456 65.1312 15.7756 65.95 15.7756C66.7689 15.7756 67.4389 16.4456 67.4389 17.2645V20.2421ZM71.7565 29.1751H60.1436L62.6746 24.0387C62.8979 23.5176 63.419 23.2198 64.0145 23.2198H67.8111C68.4066 23.2198 68.8533 23.5176 69.151 24.0387L71.7565 29.1751ZM75.6274 33.6416V36.6193H56.2726V33.6416C56.2726 32.8228 56.9426 32.1528 57.7614 32.1528H74.1386C74.9575 32.1528 75.6274 32.8228 75.6274 33.6416Z" fill="#1D498D"/>
</svg>
