<svg width="75" height="76" viewBox="0 0 75 76" fill="none" xmlns="http://www.w3.org/2000/svg">
<path d="M52.0434 19.027C51.7223 18.4474 50.6625 17.3059 50.0113 17.0896C49.1419 16.9557 49.6626 17.7312 49.6626 18.0637C49.4383 18.232 49.0896 18.4205 48.9208 18.6453C48.8192 18.7325 49.1686 19.5326 49.8422 19.2756C50.5158 19.0185 50.1277 19.5372 50.593 20.5645C51.0582 21.5919 51.9898 21.6124 52.4089 21.3012C52.9404 20.9069 52.3358 19.5547 52.0434 19.027ZM54.7368 25.5806L54.7361 25.5831C54.7361 25.5848 54.7364 25.5848 54.7368 25.5806ZM63.286 29.4335C63.0243 29.3754 63.3442 29.4335 63.286 29.4335V29.4335Z" fill="#1D498D"/>
<path d="M37.3178 5.42773C19.3326 5.42773 4.7496 20.0107 4.7496 37.996C4.7496 55.9813 19.3326 70.5642 37.3178 70.5642C55.3032 70.5642 69.8861 55.9813 69.8861 37.996C69.8861 20.0107 55.3032 5.42773 37.3178 5.42773ZM25.3082 63.2108C24.5063 62.7552 23.9452 62.1116 23.7145 60.8948C23.1406 57.8694 23.6704 56.2324 26.3261 54.4618C27.577 53.6278 27.7832 52.6194 28.7832 51.6194C29.0282 51.3082 29.6863 50.1111 30.1208 50.0491C30.6496 49.9359 32.114 49.6817 32.4035 49.1041C32.9546 48.3559 34.1667 45.1206 34.7007 44.8001C35.5727 44.2294 36.7972 42.4796 35.9075 41.4415C34.8867 40.1849 33.465 40.167 32.1418 39.5076C30.9765 38.9249 30.459 36.2681 29.5683 35.3492C27.8364 33.5847 25.2067 32.5578 23.0256 31.4672C21.8456 30.9947 21.9578 30.8484 21.0337 31.7725C19.847 32.9592 18.1123 31.472 17.9368 30.2459C17.9237 29.8385 17.4576 27.5974 17.7333 27.4252C20.344 25.7932 16.5224 26.169 16.2066 25.4188C15.4281 23.2389 18.0979 21.5135 19.8996 21.3332C21.9184 21.0805 22.3399 24.5166 23.1129 24.2266C23.4845 24.0411 23.4859 22.4246 23.5345 22.0748C23.7187 20.9074 24.0562 20.7265 25.192 20.3046C26.5148 19.8133 27.5274 19.1971 28.9286 18.9633C30.5288 18.4988 31.8826 18.7404 33.1159 17.7129C33.6812 17.2891 34.0907 17.9427 34.628 18.0619C35.791 18.2944 36.0384 16.448 36.0384 15.7501C36.0334 15.0719 36.2223 14.4954 35.355 13.7728C34.2201 12.8904 32.5883 13.6464 31.6765 14.5579C30.5753 15.5807 29.2983 15.5102 29.6701 13.7437C29.7623 13.0992 31.1544 12.3498 31.7056 11.999C32.2436 11.6759 32.564 12.3656 33.2177 12.2025C34.1743 11.9898 34.5312 12.8909 35.6603 12.9004C36.1304 12.7941 37.8116 11.8999 36.9128 10.0847C37.0478 10.0834 37.1826 10.0803 37.3178 10.0803C37.5875 10.0803 37.8568 10.0853 38.1255 10.0928C38.5333 11.3841 37.2582 12.4836 37.8994 14.1077C39.1774 17.2301 40.2245 14.546 41.4906 13.09C41.9049 12.6758 42.1642 12.7685 42.8428 12.6393C43.2639 12.569 43.8686 11.2915 44.0631 10.8972C46.9783 11.6171 49.7564 12.8082 52.2876 14.4237C51.2048 14.5388 50.9284 14.2207 50.945 15.4963C50.9511 15.9785 50.9882 17.4328 51.7118 17.5536C52.9153 17.6953 52.6977 18.5469 53.8274 18.6949C54.9096 18.8368 54.2369 19.7931 54.6782 20.7377C55.1715 22.2247 51.7985 22.6717 51.1448 22.8895C49.1616 23.5517 52.0666 26.4386 53.3548 26.1318C53.7644 26.0295 55.1308 25.8553 55.2256 25.3951C55.224 25.3481 54.9586 23.794 55.0995 23.6165C55.3224 23.3353 55.8444 23.1882 56.6663 23.6536C58.6108 24.7547 59.5954 27.3902 61.8855 27.9129C62.1975 27.984 62.7375 27.8911 63.1204 28.2085C63.4448 28.6468 64.272 29.4321 63.2849 29.4321C61.9739 29.1409 61.2814 29.557 60.2028 28.7235C59.0785 27.8545 58.3792 27.14 56.8951 27.1131C55.6171 27.09 54.4699 26.5578 53.153 26.7714C52.4187 26.8905 51.6935 27.1801 50.9849 27.3966C50.3136 27.6202 50.1837 28.8164 49.5018 28.9523C46.6715 29.6184 47.283 32.3209 46.7724 34.4646C46.5759 35.2879 45.8964 37.5183 46.6377 38.2575C47.9637 39.5448 49.5141 41.3159 51.4613 41.5962C52.509 41.747 54.7987 40.9309 55.5066 41.9941C55.8064 42.5908 56.5894 41.5536 56.8006 42.0815C57.3332 43.6791 56.1808 44.7257 56.17 46.2327C56.154 48.4431 57.5045 49.2234 55.6956 51.1976C53.7122 53.176 55.0656 55.674 53.9654 58.0311C53.3778 59.2432 53.2664 60.9236 52.3847 61.4881C50.4457 62.7301 48.3595 63.7256 46.1744 64.4518C42.303 65.7368 38.1552 66.1489 34.1042 65.6813C31.9764 65.4365 29.8842 64.9454 27.8697 64.2179C27.3217 64.0197 26.8112 63.8537 26.3471 63.6794C25.9977 63.5302 25.6513 63.374 25.3082 63.2108ZM19.2452 59.2713C19.1772 59.2136 19.1093 59.1556 19.0418 59.0971C18.5385 58.6602 18.0506 58.2058 17.5792 57.7346C17.089 57.2446 16.6169 56.7368 16.1639 56.2122L16.1486 56.1943C16.056 56.087 15.9659 55.9783 15.875 55.8695C8.36031 46.7881 7.25896 33.4893 13.5605 23.3257C14.4442 24.2094 12.9642 25.9463 14.6509 27.106C15.3959 27.6303 16.1079 27.4199 15.9595 28.3854C15.8151 29.3231 16.7381 29.3065 16.8755 30.1302C17.2887 31.9373 19.668 32.8406 18.3149 34.87C16.9892 36.7056 15.8443 38.7562 16.8464 41.0928C17.1741 41.9449 17.9977 42.8169 18.6234 43.4546C19.7593 44.6128 19.6959 43.9181 19.6959 45.382C19.6733 46.0178 20.4609 46.6755 20.3793 47.0831C20.2338 48.2478 19.9571 49.3992 19.8123 50.558C19.5517 54.7218 19.7935 58.7963 22.9092 61.9133C21.7505 61.2145 20.6358 60.4231 19.5697 59.5448C19.4609 59.4544 19.3527 59.3633 19.2452 59.2713Z" fill="url(#paint0_linear_1_63)"/>
<defs>
<linearGradient id="paint0_linear_1_63" x1="4.7496" y1="40.7257" x2="72.0799" y2="40.7257" gradientUnits="userSpaceOnUse">
<stop stop-color="#2C2E7B"/>
<stop offset="1" stop-color="#1D498D" stop-opacity="0.68"/>
</linearGradient>
</defs>
</svg>
