<svg width="102" height="102" viewBox="0 0 102 102" fill="none" xmlns="http://www.w3.org/2000/svg">
<ellipse cx="50.7656" cy="50.7413" rx="50.3243" ry="50.6203" fill="white"/>
<g clip-path="url(#clip0_1_41)">
<path d="M46.1755 22.8256V24.6866H42.4534H38.7313V35.7831V46.8912L39.7549 47.5542C40.9995 48.3567 42.7791 50.1247 43.6166 51.3693C45.6753 54.4517 46.443 58.0342 45.7568 61.384C45.1054 64.5013 43.0699 69.0841 39.7084 74.958L38.7313 76.6562V78.3544V80.0526H48.3273H57.9233V74.4113V68.7584L59.7611 68.7933L61.5872 68.8282L61.6221 74.4346L61.6454 80.0526H71.0669H80.4884V52.3696V24.6866L76.8013 24.6634L73.1024 24.6285L73.0675 22.7907L73.0326 20.9645H59.6099H46.1755V22.8256ZM57.9233 31.6655V33.7592H59.7844H61.6454V31.6655V29.5719H63.4483H65.2512V35.6784V41.7849H63.4483H61.6454V39.6331V37.4813H59.7844H57.9233V39.6331V41.7849H56.0623H54.2012V35.6784V29.5719H56.0623H57.9233V31.6655ZM54.2012 48.4731V50.2759H52.3983H50.5955V48.4731V46.6702H52.3983H54.2012V48.4731ZM61.6454 48.4731V50.2759H59.7844H57.9233V48.4731V46.6702H59.7844H61.6454V48.4731ZM68.9732 48.4731V50.2759H67.1122H65.2512V48.4731V46.6702H67.1122H68.9732V48.4731ZM54.2012 55.6846V57.4875H52.3983H50.5955V55.6846V53.8817H52.3983H54.2012V55.6846ZM61.6454 55.6846V57.4875H59.7844H57.9233V55.6846V53.8817H59.7844H61.6454V55.6846ZM68.9732 55.6846V57.4875H67.1122H65.2512V55.6846V53.8817H67.1122H68.9732V55.6846ZM54.2012 63.0124V64.8153H52.3983H50.5955V63.0124V61.2096H52.3983H54.2012V63.0124ZM61.6454 63.0124V64.8153H59.7844H57.9233V63.0124V61.2096H59.7844H61.6454V63.0124ZM68.9732 63.0124V64.8153H67.1122H65.2512V63.0124V61.2096H67.1122H68.9732V63.0124Z" fill="url(#paint0_linear_1_41)"/>
<path d="M30.706 48.9491C27.8447 49.4726 25.7277 50.6473 24.1226 52.5782C22.0289 55.1022 21.2612 58.266 22.0289 61.2437C22.7617 64.0934 25.0764 68.9553 28.4146 74.6432C29.4382 76.3762 32.0087 80.5287 32.0436 80.4938C32.16 80.3426 33.7884 77.7139 34.8701 75.9226C38.4177 70.0371 40.9185 64.9657 41.9421 61.6159C42.2212 60.7086 42.2677 60.3597 42.2677 59.0569C42.2794 57.3587 42.1631 56.7423 41.5466 55.2767C40.302 52.3106 37.9292 50.1937 34.8119 49.2748C34.021 49.0422 33.4627 48.9724 32.3926 48.9375C31.6249 48.9142 30.8689 48.9142 30.706 48.9491ZM34.1489 52.7643C36.8823 53.6366 38.8481 56.3352 38.8481 59.2314C38.8481 62.023 36.9521 64.6633 34.242 65.652C33.2882 66.0009 31.4039 66.0707 30.3571 65.8032C28.4379 65.303 26.7862 63.9654 25.9604 62.244C25.4137 61.1041 25.2392 60.3597 25.2392 59.1965C25.2508 56.4166 26.9374 53.9391 29.5545 52.8806C30.9852 52.299 32.5438 52.2641 34.1489 52.7643Z" fill="#1D498D"/>
<path d="M31.1711 56.1957C30.6011 56.3702 30.1591 56.661 29.7288 57.1379C29.1472 57.7892 28.9378 58.3243 28.9262 59.1734C28.9146 61.6044 31.4386 63.1048 33.5439 61.9301C35.3584 60.9065 35.6841 58.4988 34.2185 56.9867C33.5206 56.2655 32.1365 55.9049 31.1711 56.1957Z" fill="#1D498D"/>
</g>
<defs>
<linearGradient id="paint0_linear_1_41" x1="38.7313" y1="48.0323" x2="81.8948" y2="48.0323" gradientUnits="userSpaceOnUse">
<stop stop-color="#2C2E7B"/>
<stop offset="1" stop-color="#1D498D" stop-opacity="0.68"/>
</linearGradient>
<clipPath id="clip0_1_41">
<rect width="59.5533" height="59.5533" fill="white" transform="translate(21.285 20.9647)"/>
</clipPath>
</defs>
</svg>
