<svg width="90" height="90" viewBox="0 0 90 90" fill="none" xmlns="http://www.w3.org/2000/svg">
<g filter="url(#filter0_d_1_99)">
<circle cx="45.1601" cy="43.1601" r="37.1601" fill="white"/>
</g>
<g clip-path="url(#clip0_1_99)">
<path d="M30.926 41.4126C30.4049 41.4126 29.9824 40.9901 29.9824 40.469C29.9824 39.9479 30.4049 39.5254 30.926 39.5254C31.4472 39.5254 31.8696 39.9479 31.8696 40.469C31.8696 40.9901 31.4472 41.4126 30.926 41.4126Z" fill="#1D498D"/>
<path d="M21.3458 42.5577H24.8462C26.1158 38.8017 28.9673 35.7718 32.5853 34.1777L32.5975 34.1737C32.6461 32.2024 32.0905 30.0932 31.4173 27.7285C34.2728 28.6573 36.2805 30.6489 37.6149 32.9366H38.9212C39.2537 34.1575 39.854 35.3014 40.6856 36.2788L40.9248 36.5627C40.8923 36.5627 40.872 36.5627 40.872 36.5627C40.6489 36.5627 40.4664 36.7454 40.4664 36.9683C40.4664 37.1954 40.6489 37.3739 40.872 37.3739H53.7543C53.9814 37.3739 54.1599 37.1954 54.1599 36.9683C54.1599 36.7454 53.9814 36.5627 53.7543 36.5627C53.7543 36.5627 53.734 36.5627 53.6975 36.5627L53.9408 36.2748C54.5655 35.5365 55.0643 34.705 55.4092 33.8127C57.3196 34.5226 59.0353 35.6379 60.4509 37.0535C62.9901 39.5967 64.568 43.1133 64.568 46.999C64.568 53.0103 60.7958 58.1413 55.4862 60.149V63.4223C55.4862 63.9781 55.0361 64.4283 54.4803 64.4283H49.321C48.7653 64.4283 48.3151 63.9781 48.3151 63.4223V61.0577H40.7057V63.4223C40.7057 63.9781 40.2555 64.4283 39.6998 64.4283H34.7391C34.1834 64.4283 33.7332 63.9781 33.7332 63.4223V60.3397C31.6321 59.6501 29.7541 58.4698 28.225 56.9406C26.7242 55.4398 25.5601 53.6024 24.8583 51.546H23.163C22.5019 51.546 21.9137 51.108 21.7068 50.4753L19.8896 44.5169C19.5895 43.5434 20.3197 42.5577 21.3458 42.5577ZM30.9268 42.2199C31.8945 42.2199 32.6815 41.4327 32.6815 40.4652C32.6815 39.4975 31.8944 38.7105 30.9268 38.7105C29.9592 38.7105 29.1721 39.4976 29.1721 40.4652C29.1721 41.4327 29.9592 42.2199 30.9268 42.2199Z" fill="#1D498D"/>
<path d="M41.3065 36.5651L40.9293 36.5691L40.9252 36.5651C40.9942 36.5651 41.124 36.5611 41.3065 36.5651ZM48.8282 29.3091C48.6 29.7581 48.1932 30.0722 47.7196 30.1894V26.9043C48.7954 27.1658 49.3069 28.3546 48.8282 29.3091Z" fill="#1D498D"/>
<path d="M47.7038 35.753C47.7091 35.7266 47.7197 35.702 47.7197 35.674V35.2173C48.4825 35.0907 49.1782 34.6183 49.5527 33.8762C49.6538 33.6762 49.5734 33.4326 49.3732 33.3316C49.1736 33.2298 48.9297 33.311 48.8287 33.5111C48.5972 33.9696 48.1829 34.2711 47.7197 34.3864V31.0184C48.5045 30.8891 49.1844 30.4006 49.5523 29.6765C50.3088 28.1703 49.3893 26.3468 47.7197 26.0758V25.6236C47.7197 25.3994 47.5382 25.218 47.3141 25.218C47.0899 25.218 46.9085 25.3994 46.9085 25.6236V26.0798C46.1449 26.2065 45.4495 26.6797 45.0761 27.4206C44.9751 27.6206 45.0554 27.8646 45.2556 27.9652C45.456 28.0663 45.6996 27.9855 45.8002 27.7857C46.031 27.328 46.4453 27.0275 46.9085 26.9121V30.2806C46.1232 30.4094 45.4434 30.8969 45.0765 31.6209C44.3278 33.1065 45.2128 34.9415 46.9085 35.2184V35.6741C46.9085 35.7019 46.919 35.7265 46.9243 35.7526C45.8205 35.752 45.0229 35.7515 44.9977 35.7515C42.8763 35.7515 41.8298 35.7515 41.3025 35.7555C40.1304 34.3806 39.4245 32.5958 39.4245 30.6448C39.4245 26.2926 42.9574 22.7598 47.3096 22.7598C51.674 22.7598 55.1987 26.2926 55.1987 30.6448C55.1987 32.5959 54.493 34.3806 53.3248 35.7555C52.3152 35.7555 49.729 35.7541 47.7038 35.753Z" fill="#1D498D"/>
<path d="M45.7045 33.2661C45.5627 32.8363 45.5964 32.3769 45.7999 31.9727C46.0277 31.5237 46.4343 31.2102 46.9081 31.0935V34.3774C46.3151 34.2312 45.8821 33.8037 45.7045 33.2661ZM62.8851 39.4854C63.169 39.7045 63.4693 39.9032 63.7816 40.0656C64.4833 40.4224 65.1971 40.5361 65.8015 40.3861C64.8671 39.6694 64.1779 38.4553 64.8158 37.5345C65.3106 36.8207 66.349 36.8045 67.002 37.2384C67.9962 37.906 68.2367 39.2728 67.3874 40.3049C67.6307 40.378 67.8822 40.4225 68.1377 40.4387C69.0503 40.4954 69.9873 40.1547 70.6566 39.5261C70.8188 39.3719 71.0744 39.3801 71.2286 39.5423C71.3827 39.7086 71.3745 39.9641 71.2124 40.1182C70.3849 40.897 69.2087 41.3229 68.0892 41.2499C67.6025 41.2174 67.1239 41.0998 66.6736 40.901C65.7519 41.4278 64.644 41.3336 63.676 40.9051C63.4407 40.4142 63.177 39.9398 62.8851 39.4854ZM66.6046 39.952C67.3171 39.2884 67.2122 38.3534 66.5517 37.9157C66.242 37.7064 65.6929 37.6888 65.4851 37.9968C65.0784 38.5746 65.8762 39.5186 66.6046 39.952Z" fill="#1D498D"/>
</g>
<defs>
<filter id="filter0_d_1_99" x="0.399072" y="0.0881668" width="89.522" height="89.522" filterUnits="userSpaceOnUse" color-interpolation-filters="sRGB">
<feFlood flood-opacity="0" result="BackgroundImageFix"/>
<feColorMatrix in="SourceAlpha" type="matrix" values="0 0 0 0 0 0 0 0 0 0 0 0 0 0 0 0 0 0 127 0" result="hardAlpha"/>
<feOffset dy="1.6891"/>
<feGaussianBlur stdDeviation="3.80046"/>
<feComposite in2="hardAlpha" operator="out"/>
<feColorMatrix type="matrix" values="0 0 0 0 0 0 0 0 0 0 0 0 0 0 0 0 0 0 0.15 0"/>
<feBlend mode="normal" in2="BackgroundImageFix" result="effect1_dropShadow_1_99"/>
<feBlend mode="normal" in="SourceGraphic" in2="effect1_dropShadow_1_99" result="shape"/>
</filter>
<clipPath id="clip0_1_99">
<rect width="51.5174" height="51.5174" fill="white" transform="matrix(-1 0 0 1 71.3398 17.8281)"/>
</clipPath>
</defs>
</svg>
