<svg width="90" height="90" viewBox="0 0 90 90" fill="none" xmlns="http://www.w3.org/2000/svg">
<g filter="url(#filter0_d_1_83)">
<circle cx="45.1601" cy="43.1601" r="37.1601" fill="white"/>
</g>
<path d="M59.4896 29.5612L45.5836 25.1484L31.6776 29.6047C30.3812 30.0154 29.27 30.868 28.5379 32.014C27.8057 33.16 27.499 34.5266 27.6713 35.8755C28.9922 45.6736 33.0566 62.0908 45.4094 62.0908C57.7623 62.0908 61.9573 45.7026 63.4669 35.9626C63.6737 34.5969 63.3869 33.2022 62.658 32.0289C61.929 30.8557 60.8056 29.9807 59.4896 29.5612ZM55.7446 35.8465L46.7594 50.5508C46.5458 50.8977 46.2468 51.1839 45.891 51.3821C45.5352 51.5803 45.1345 51.684 44.7272 51.6831C44.3168 51.6824 43.9137 51.5749 43.5575 51.3713C43.2012 51.1677 42.904 50.875 42.695 50.5218L37.9629 42.5237C37.796 42.2544 37.6849 41.9542 37.6361 41.6411C37.5874 41.3281 37.6021 41.0084 37.6792 40.701C37.7564 40.3937 37.8945 40.105 38.0854 39.8521C38.2762 39.5992 38.5159 39.3872 38.7903 39.2286C39.3339 38.9086 39.9819 38.816 40.5934 38.971C41.2049 39.1259 41.7306 39.5158 42.0563 40.056L44.7562 44.643L51.6947 33.4224C51.8291 33.1111 52.0285 32.8322 52.2794 32.6043C52.5303 32.3763 52.8271 32.2046 53.1497 32.1005C53.4724 31.9965 53.8135 31.9626 54.1504 32.0011C54.4872 32.0396 54.8119 32.1496 55.1028 32.3237C55.3937 32.4978 55.644 32.732 55.8371 33.0107C56.0301 33.2894 56.1614 33.6061 56.2222 33.9396C56.2829 34.2731 56.2718 34.6158 56.1894 34.9446C56.107 35.2735 55.9554 35.581 55.7446 35.8465Z" fill="#1D498D"/>
<path d="M60.3741 26.8003L46.0762 22.2424C45.7898 22.1405 45.4771 22.1405 45.1907 22.2424L30.7912 26.8294C28.8327 27.4504 27.1568 28.7438 26.0598 30.481C24.9628 32.2182 24.5152 34.2873 24.7962 36.3226C26.2478 47.0497 30.8493 65.0491 45.4085 65.0491C59.9677 65.0491 64.6853 47.0642 66.34 36.3226C66.63 34.2865 66.1901 32.2135 65.0981 30.4707C64.0062 28.7278 62.3328 27.4276 60.3741 26.8003ZM64.903 36.1629C63.4514 45.8594 58.8355 63.5395 45.4085 63.5395C31.9815 63.5395 27.5397 45.7433 26.2333 36.0613C26.0135 34.3747 26.3931 32.6645 27.3057 31.2292C28.2184 29.7939 29.6061 28.7248 31.2267 28.2084L45.5827 23.6214L59.8806 28.1793C61.5316 28.6936 62.9447 29.7804 63.8654 31.2441C64.7862 32.7077 65.1542 34.4521 64.903 36.1629Z" fill="#1D498D"/>
<path d="M59.9246 28.181L45.5831 23.623L31.2271 28.21C29.6065 28.7264 28.2188 29.7956 27.3061 31.2309C26.3935 32.6661 26.0139 34.3764 26.2337 36.063C27.5401 45.7449 31.7932 63.5411 45.4089 63.5411C59.0246 63.5411 63.4083 45.861 64.9034 36.1646C65.1569 34.4593 64.7952 32.7195 63.8829 31.2567C62.9706 29.7939 61.5674 28.7036 59.9246 28.181ZM63.4664 35.9468C62.0148 45.7014 57.6601 62.075 45.4089 62.075C33.1577 62.075 28.9917 45.6723 27.6708 35.8743C27.4985 34.5253 27.8052 33.1587 28.5373 32.0127C29.2695 30.8667 30.3807 30.0141 31.6771 29.6035L45.5831 25.1472L59.431 29.5019C60.7663 29.9112 61.9093 30.7881 62.6505 31.9719C63.3917 33.1556 63.6813 34.5669 63.4664 35.9468Z" fill="#1D498D"/>
<defs>
<filter id="filter0_d_1_83" x="0.399072" y="0.0881668" width="89.522" height="89.522" filterUnits="userSpaceOnUse" color-interpolation-filters="sRGB">
<feFlood flood-opacity="0" result="BackgroundImageFix"/>
<feColorMatrix in="SourceAlpha" type="matrix" values="0 0 0 0 0 0 0 0 0 0 0 0 0 0 0 0 0 0 127 0" result="hardAlpha"/>
<feOffset dy="1.6891"/>
<feGaussianBlur stdDeviation="3.80046"/>
<feComposite in2="hardAlpha" operator="out"/>
<feColorMatrix type="matrix" values="0 0 0 0 0 0 0 0 0 0 0 0 0 0 0 0 0 0 0.15 0"/>
<feBlend mode="normal" in2="BackgroundImageFix" result="effect1_dropShadow_1_83"/>
<feBlend mode="normal" in="SourceGraphic" in2="effect1_dropShadow_1_83" result="shape"/>
</filter>
</defs>
</svg>
