<svg width="253" height="253" viewBox="0 0 253 253" fill="none" xmlns="http://www.w3.org/2000/svg">
<path d="M115.368 26.8888C178.112 21.3228 178.233 56.7074 206.514 89.6935C234.794 122.68 240.856 137.632 230.19 175.668C219.523 213.704 183.607 243.507 139.15 226.617C94.6929 209.727 69.2512 225.949 41.2188 210.931C13.1864 195.913 2.79315 166.98 23.3114 132.815C43.8297 98.6497 37.9854 33.7805 115.368 26.8888Z" fill="url(#paint0_linear_1_335)"/>
<path opacity="0.7" d="M115.368 26.8888C178.112 21.3228 178.233 56.7074 206.514 89.6935C234.794 122.68 240.856 137.632 230.19 175.668C219.523 213.704 183.607 243.507 139.15 226.617C94.6929 209.727 69.2512 225.949 41.2188 210.931C13.1864 195.913 2.79315 166.98 23.3114 132.815C43.8297 98.6497 37.9854 33.7805 115.368 26.8888Z" fill="white"/>
<path opacity="0.2" d="M141.908 205.365L140.977 205.264C140.545 205.237 140.138 205.057 139.827 204.757C139.516 204.456 139.323 204.055 139.282 203.625C138.776 198.276 134.161 194.517 128.15 193.833C122.74 193.226 116.512 195.615 112.423 199.703C111.914 200.243 111.293 200.664 110.603 200.937C109.913 201.21 109.171 201.327 108.431 201.282L103.826 200.776C103.193 200.724 102.593 200.471 102.115 200.053C101.637 199.635 101.305 199.074 101.17 198.453C100.087 193.778 95.8971 190.221 90.4829 189.613C84.4767 188.94 77.7165 191.43 73.7191 196.272C73.4024 196.664 72.996 196.973 72.5345 197.173C72.073 197.374 71.5698 197.461 71.0677 197.426L70.1417 197.32C69.9229 197.307 69.7059 197.366 69.5234 197.487C69.3409 197.609 69.2028 197.786 69.1297 197.993L68.3656 200.224C68.3031 200.372 68.3015 200.538 68.3612 200.687C68.421 200.836 68.5372 200.955 68.6844 201.019L69.7369 201.525C70.143 201.728 70.4659 202.067 70.6504 202.482C70.835 202.897 70.8698 203.364 70.7489 203.802C69.0741 211.042 73.2789 217.317 80.712 218.147C87.8669 218.951 95.6036 214.423 99.0394 207.764C99.3266 207.225 99.7426 206.767 100.25 206.429C100.758 206.09 101.342 205.883 101.949 205.826C103.589 205.688 105.24 205.86 106.817 206.332C107.321 206.481 107.751 206.815 108.02 207.267C108.29 207.719 108.378 208.256 108.269 208.771C107.034 215.693 111.209 221.572 118.389 222.377C125.812 223.212 133.852 218.329 137.086 211.245C137.319 210.763 137.661 210.342 138.084 210.014C138.507 209.686 139 209.459 139.524 209.352L140.845 209.094C141.029 209.066 141.202 208.99 141.346 208.872C141.49 208.755 141.6 208.601 141.665 208.426L142.429 206.195C142.465 206.106 142.48 206.01 142.472 205.915C142.464 205.819 142.433 205.727 142.382 205.646C142.331 205.565 142.261 205.497 142.179 205.448C142.096 205.399 142.003 205.371 141.908 205.365ZM81.3445 216.275C74.4478 215.5 70.7439 209.312 73.0866 202.476C75.4294 195.64 82.9435 190.716 89.8403 191.491C96.7371 192.265 100.466 198.453 98.1033 205.284C95.7403 212.115 88.2413 217.074 81.3445 216.275ZM100.395 204.166C100.492 203.771 100.573 203.377 100.633 202.987C100.67 202.826 100.763 202.683 100.896 202.583C101.028 202.484 101.192 202.435 101.357 202.446L109.615 203.372C109.688 203.379 109.758 203.404 109.818 203.446C109.878 203.489 109.926 203.545 109.958 203.612C109.989 203.678 110.003 203.751 109.998 203.824C109.993 203.898 109.969 203.968 109.928 204.029C109.731 204.399 109.549 204.773 109.377 205.158C106.047 203.508 102.374 203.807 100.395 204.166ZM119.016 220.505C112.119 219.731 108.39 213.542 110.753 206.706C113.116 199.87 120.615 194.947 127.512 195.721C134.409 196.495 138.113 202.683 135.77 209.514C133.427 216.345 125.913 221.279 119.016 220.505Z" fill="black" fill-opacity="0.7"/>
<path d="M135.795 205.77L82.2402 203.518C80.9759 203.466 79.7146 203.679 78.538 204.144C77.3613 204.61 76.2954 205.317 75.4092 206.22L65.7952 216.016C65.7067 216.108 65.64 216.218 65.5998 216.339C65.5596 216.46 65.5471 216.588 65.5631 216.714C65.5791 216.841 65.6233 216.962 65.6924 217.069C65.7615 217.175 65.8537 217.266 65.9622 217.332C66.4399 217.614 66.998 217.728 67.548 217.657C68.098 217.585 68.6084 217.332 68.9982 216.937L77.924 207.89C78.4545 207.352 79.0908 206.929 79.7927 206.649C80.4946 206.368 81.247 206.236 82.0024 206.261L135.638 208.032L135.795 205.77Z" fill="#263238"/>
<path d="M64.4189 197.77L117.357 206.159C118.607 206.359 119.801 206.818 120.862 207.508C121.924 208.197 122.829 209.101 123.52 210.162L131.008 221.668C131.079 221.774 131.124 221.895 131.141 222.021C131.157 222.147 131.145 222.275 131.104 222.396C131.064 222.517 130.996 222.626 130.907 222.717C130.817 222.807 130.709 222.876 130.589 222.918C130.063 223.106 129.49 223.111 128.961 222.933C128.432 222.755 127.979 222.404 127.674 221.937L120.752 211.311C120.339 210.678 119.8 210.137 119.167 209.723C118.535 209.31 117.824 209.032 117.078 208.907L64.1659 200.022L64.4189 197.77Z" fill="#263238"/>
<path d="M95.8213 206.746C96.4487 206.979 95.6442 211.402 93.9086 212.662C92.173 213.922 91.3077 209.985 91.92 208.745C92.5323 207.506 93.8529 206.003 95.8213 206.746Z" fill="#757575" stroke="#263238" stroke-linecap="round" stroke-linejoin="round"/>
<path d="M105.091 207.784C104.428 207.875 104.236 212.363 105.648 213.977C107.059 215.591 108.78 211.953 108.456 210.602C108.132 209.251 107.176 207.495 105.091 207.784Z" fill="#757575" stroke="#263238" stroke-linecap="round" stroke-linejoin="round"/>
<path opacity="0.4" d="M74.1189 192.219C77.2915 190.342 83.8442 187.346 89.5721 192.295C95.3001 197.244 96.7826 201.783 94.4803 207.192C92.178 212.601 86.8246 219.412 77.5648 216.436C68.305 213.461 64.262 198.048 74.1189 192.219Z" fill="white"/>
<path opacity="0.4" d="M111.755 196.945C114.933 195.068 121.48 192.073 127.208 197.021C132.936 201.97 134.424 206.504 132.117 211.918C129.809 217.332 124.476 224.158 115.201 221.157C105.926 218.157 101.893 202.774 111.755 196.945Z" fill="white"/>
<path d="M137.03 205.153L136.099 205.046C135.638 204.998 135.2 204.816 134.841 204.523C134.481 204.23 134.215 203.839 134.075 203.397C132.405 197.998 127.067 194.203 121.061 193.53C115.651 192.918 110.101 195.336 107.024 199.47C106.624 200.022 106.087 200.46 105.466 200.739C104.844 201.019 104.16 201.131 103.482 201.064L98.8724 200.558C98.1957 200.473 97.5532 200.212 97.009 199.801C96.4647 199.389 96.0378 198.843 95.7706 198.215C94.6358 195.802 92.9041 193.717 90.7393 192.159C88.5745 190.6 86.0482 189.62 83.3989 189.31C77.3927 188.632 71.346 191.152 68.5225 196.045C68.2888 196.444 67.9437 196.767 67.5294 196.974C67.1152 197.18 66.6497 197.262 66.1899 197.208L65.2639 197.102C65.0613 197.079 64.8579 197.138 64.6985 197.265C64.5391 197.392 64.4367 197.578 64.4138 197.78L64.1608 200.032C64.1428 200.203 64.1829 200.376 64.2747 200.522C64.3664 200.668 64.5045 200.778 64.6668 200.836L65.8104 201.368C66.2525 201.568 66.6279 201.891 66.8916 202.298C67.1554 202.705 67.2965 203.18 67.298 203.665C67.2835 207.175 68.5423 210.571 70.841 213.223C73.1396 215.875 76.3222 217.604 79.7983 218.088C83.2744 218.572 86.8083 217.78 89.7445 215.857C92.6807 213.934 94.82 211.012 95.7656 207.632C95.919 207.099 96.2321 206.625 96.6627 206.275C97.0933 205.925 97.6207 205.715 98.1741 205.674C99.8107 205.541 101.458 205.712 103.032 206.18C103.57 206.341 104.045 206.663 104.394 207.103C104.743 207.542 104.95 208.079 104.985 208.639C105.151 212.147 106.584 215.476 109.018 218.007C111.453 220.539 114.723 222.1 118.222 222.403C121.721 222.705 125.211 221.727 128.044 219.651C130.877 217.575 132.86 214.541 133.624 211.113C133.733 210.64 133.975 210.208 134.323 209.869C134.67 209.53 135.107 209.298 135.583 209.201L136.817 208.937C136.985 208.912 137.139 208.833 137.257 208.711C137.375 208.589 137.45 208.433 137.47 208.265L137.723 206.013C137.736 205.911 137.728 205.807 137.699 205.708C137.671 205.609 137.623 205.516 137.559 205.436C137.494 205.356 137.414 205.289 137.323 205.241C137.232 205.192 137.132 205.162 137.03 205.153ZM80.3579 216.219C77.8835 215.941 75.5471 214.936 73.644 213.33C71.7409 211.725 70.3567 209.591 69.6664 207.198C68.9761 204.806 69.0106 202.263 69.7657 199.89C70.5208 197.518 71.9626 195.422 73.9086 193.869C75.8546 192.316 78.2175 191.374 80.6985 191.164C83.1796 190.953 85.6672 191.484 87.847 192.687C90.0267 193.89 91.8007 195.713 92.9445 197.925C94.0883 200.137 94.5506 202.638 94.2729 205.112C93.8965 208.425 92.2231 211.453 89.619 213.535C87.0149 215.616 83.6922 216.581 80.3781 216.219H80.3579ZM96.2615 203.979C96.2615 203.579 96.2615 203.184 96.2362 202.79C96.2289 202.712 96.2395 202.635 96.267 202.562C96.2946 202.49 96.3384 202.425 96.3951 202.372C96.4519 202.319 96.5199 202.28 96.5941 202.258C96.6683 202.235 96.7467 202.23 96.8231 202.243L105.076 203.169C105.154 203.174 105.23 203.196 105.297 203.234C105.365 203.273 105.423 203.327 105.467 203.391C105.51 203.456 105.538 203.53 105.549 203.607C105.559 203.685 105.551 203.763 105.526 203.837C105.415 204.206 105.319 204.586 105.238 204.97C102.426 203.726 99.298 203.38 96.2817 203.979H96.2615ZM118.019 220.449C115.545 220.171 113.209 219.166 111.306 217.56C109.402 215.955 108.018 213.821 107.328 211.429C106.638 209.036 106.672 206.493 107.427 204.12C108.182 201.748 109.624 199.652 111.57 198.099C113.516 196.546 115.879 195.604 118.36 195.394C120.841 195.184 123.329 195.714 125.509 196.917C127.688 198.121 129.462 199.943 130.606 202.155C131.75 204.367 132.212 206.868 131.934 209.342C131.558 212.653 129.886 215.68 127.284 217.761C124.682 219.842 121.362 220.809 118.05 220.449H118.019Z" fill="url(#paint1_linear_1_335)" stroke="#263238" stroke-linecap="round" stroke-linejoin="round"/>
<path opacity="0.5" d="M72.0038 210.228C72.0038 210.228 68.4922 203.387 72.9501 196.935C76.9626 191.136 83.8898 191.612 86.86 193.53L77.6812 204.54C78.8595 201.66 80.3456 198.915 82.1137 196.353C82.1137 196.353 74.8172 201.53 72.0038 210.228Z" fill="white"/>
<path opacity="0.5" d="M109.645 214.089C109.645 214.089 106.139 207.247 110.596 200.801C114.604 194.997 121.536 195.473 124.506 197.391L115.323 208.401C116.623 204.09 119.755 200.214 119.755 200.214C119.755 200.214 112.459 205.39 109.645 214.089Z" fill="white"/>
<path opacity="0.2" d="M75.647 160.447C75.647 160.447 65.4106 173.153 64.6971 173.953C63.9837 174.752 64.1911 187.615 62.4404 193.408C60.6896 199.202 54.648 205.153 41.1428 234.48L39.3212 177.343L49.2742 137.546L75.647 160.447Z" fill="black" fill-opacity="0.7"/>
<path d="M83.1611 159.896C83.1611 159.896 76.4009 128.848 71.0576 124.982C67.9609 122.746 63.2905 121.946 59.2121 122.336C56.2621 122.614 53.6158 123.52 52.1281 124.962C48.5456 128.398 43.3591 130.406 40.8393 132.638C38.3194 134.869 38.7545 142.252 37.4238 148.567C36.093 154.882 33.649 155.236 33.4517 161.495C33.2543 167.754 32.1108 186.962 28.3208 192.493C24.5309 198.023 24.6776 202.177 23.2962 207.673C21.9149 213.168 10.6462 233.357 10.6462 233.357L41.2845 237.82C41.2845 237.82 43.516 225.291 46.127 215.05C47.3616 210.187 48.657 205.831 49.8461 203.564C52.1067 199.189 54.0202 194.643 55.5689 189.968C58.7871 186.178 60.1887 178.112 60.3456 171.119L68.1835 166.115C74.3112 164.04 83.1611 159.896 83.1611 159.896Z" fill="white"/>
<path opacity="0.4" d="M83.1611 159.896C83.1611 159.896 76.4009 128.848 71.0575 124.982C67.9608 122.746 63.2904 121.946 59.2121 122.336C49.6689 125.336 47.3818 130.887 46.1472 132.268C44.5027 134.115 42.8329 144.863 44.4571 150.99C46.0814 157.118 45.3123 159.431 44.4571 162.507C42.5444 169.328 49.7904 172.511 50.6657 174.995C51.5411 177.48 52.1129 191.642 49.2338 196.429C47.7158 198.959 44.113 211.852 46.132 215.075C47.3666 210.213 48.662 205.856 49.8511 203.589C52.1117 199.214 54.0252 194.668 55.5739 189.993C58.7921 186.203 60.1937 178.137 60.3506 171.144L68.1885 166.14C74.3111 164.04 83.1611 159.896 83.1611 159.896Z" fill="url(#paint2_linear_1_335)"/>
<path d="M46.2939 164.303C46.2939 164.303 44.4672 162.396 42.9594 162.482" stroke="#263238" stroke-linecap="round" stroke-linejoin="round"/>
<path d="M49.6133 157.295C49.6133 157.295 47.5437 153.5 44.5533 152.822" stroke="#263238" stroke-linecap="round" stroke-linejoin="round"/>
<path d="M45.034 134.596C45.034 134.596 49.2895 136.144 50.1294 139.15" stroke="#263238" stroke-linecap="round" stroke-linejoin="round"/>
<path d="M68.1835 166.11C68.1835 166.11 67.0652 164.85 67.0045 163.812" stroke="#263238" stroke-linecap="round" stroke-linejoin="round"/>
<path d="M41.2845 237.82C41.2845 237.82 46.1826 210.633 49.846 203.589C52.1067 199.214 54.0202 194.668 55.5689 189.993C58.7871 186.203 60.1887 178.132 60.3455 171.139L68.1835 166.135C74.3111 164.065 83.1611 159.941 83.1611 159.941C83.1611 159.941 76.4009 128.893 71.0576 125.027C65.7142 121.162 55.7005 121.577 52.1079 125.027C48.5153 128.478 43.3389 130.442 40.819 132.673C38.2991 134.905 38.7343 142.287 37.4035 148.602C36.0727 154.917 33.6287 155.271 33.4314 161.53C33.2341 167.79 32.0905 186.997 28.3006 192.528C24.5106 198.058 24.6574 202.213 23.276 207.708C21.8946 213.203 10.626 233.392 10.626 233.392" stroke="#263238" stroke-linecap="round" stroke-linejoin="round"/>
<path d="M35.775 64.7761L34.8669 56.6293C34.852 56.4959 34.8908 56.3621 34.9746 56.2573C35.0584 56.1525 35.1804 56.0852 35.3137 56.0704L38.7585 55.6864L39.7781 64.8339L36.3333 65.2179C36.2008 65.2326 36.0678 65.1945 35.9633 65.1118C35.8587 65.0291 35.791 64.9084 35.775 64.7761Z" fill="url(#paint3_linear_1_335)" stroke="#263238" stroke-linecap="round" stroke-linejoin="round"/>
<path d="M51.4188 43.1526L59.5656 42.2445C59.699 42.2297 59.8328 42.2684 59.9376 42.3522C60.0424 42.436 60.1097 42.558 60.1245 42.6914L60.5085 46.1361L51.356 47.1563L50.9714 43.7065C50.958 43.5738 50.9975 43.4412 51.0812 43.3375C51.165 43.2338 51.2863 43.1673 51.4188 43.1526Z" fill="url(#paint4_linear_1_335)" stroke="#263238" stroke-linecap="round" stroke-linejoin="round"/>
<path d="M62.3005 41.9548L70.4472 41.0467C70.5806 41.0319 70.7144 41.0706 70.8192 41.1544C70.9241 41.2382 70.9913 41.3602 71.0062 41.4936L71.3901 44.9383L62.2426 45.9579L61.8587 42.5131C61.8438 42.3798 61.8825 42.2459 61.9663 42.1411C62.0501 42.0363 62.1721 41.9691 62.3055 41.9542L62.3005 41.9548Z" fill="url(#paint5_linear_1_335)" stroke="#263238" stroke-linecap="round" stroke-linejoin="round"/>
<path d="M47.8625 164.921L35.7742 56.3886C35.4656 53.6219 36.2673 50.8458 38.0033 48.6696C39.7393 46.4934 42.2679 45.0949 45.034 44.781L202.906 27.1924C204.28 27.0362 205.672 27.1526 207.001 27.5349C208.33 27.9172 209.57 28.558 210.651 29.4205C211.732 30.283 212.633 31.3503 213.301 32.5612C213.969 33.7722 214.391 35.103 214.544 36.4775L226.632 145.009C226.941 147.781 226.136 150.561 224.394 152.739C222.653 154.916 220.118 156.313 217.347 156.622L59.4752 174.206C58.103 174.359 56.7139 174.24 55.3875 173.857C54.0611 173.473 52.8233 172.832 51.7448 171.969C50.6664 171.107 49.7684 170.041 49.1023 168.831C48.4361 167.622 48.0148 166.293 47.8625 164.921Z" fill="url(#paint6_linear_1_335)" stroke="#263238" stroke-linecap="round" stroke-linejoin="round"/>
<path d="M217.347 155.246L59.1716 172.865C56.8011 173.128 54.4233 172.438 52.5607 170.949C50.6981 169.459 49.5033 167.291 49.2388 164.921L37.0948 56.09C36.8305 53.7188 37.519 51.3396 39.0088 49.4759C40.4986 47.6122 42.6678 46.4166 45.039 46.1522L203.235 28.5383C205.605 28.274 207.983 28.962 209.845 30.4508C211.708 31.9397 212.903 34.1075 213.168 36.4775L225.312 145.308C225.442 146.484 225.339 147.673 225.009 148.809C224.679 149.945 224.128 151.004 223.389 151.927C222.649 152.85 221.735 153.618 220.698 154.188C219.662 154.757 218.523 155.117 217.347 155.246Z" fill="#757575" stroke="#263238" stroke-linecap="round" stroke-linejoin="round"/>
<path d="M45.7829 110.212C45.7973 110.293 45.795 110.376 45.776 110.456C45.7571 110.536 45.722 110.611 45.6729 110.677C45.6238 110.743 45.5616 110.798 45.4904 110.839C45.4191 110.88 45.3402 110.906 45.2585 110.916C45.1768 110.925 45.0941 110.918 45.0154 110.894C44.9367 110.87 44.8637 110.83 44.801 110.777C44.7382 110.724 44.687 110.658 44.6505 110.585C44.614 110.511 44.593 110.431 44.5887 110.349C44.5743 110.268 44.5766 110.185 44.5956 110.104C44.6145 110.024 44.6496 109.949 44.6987 109.883C44.7478 109.817 44.81 109.762 44.8812 109.721C44.9525 109.68 45.0314 109.654 45.1131 109.645C45.1948 109.635 45.2775 109.643 45.3562 109.667C45.4349 109.691 45.5079 109.73 45.5706 109.783C45.6334 109.837 45.6846 109.902 45.7211 109.976C45.7576 110.049 45.7786 110.13 45.7829 110.212Z" fill="#999999" stroke="#263238" stroke-linecap="round" stroke-linejoin="round"/>
<path d="M46.9365 115.591C46.9621 115.816 46.9202 116.045 46.816 116.247C46.7119 116.449 46.5502 116.615 46.3514 116.725C46.1526 116.835 45.9256 116.884 45.6992 116.865C45.4728 116.846 45.2571 116.76 45.0794 116.618C44.9017 116.477 44.77 116.286 44.701 116.069C44.6319 115.853 44.6286 115.621 44.6914 115.402C44.7543 115.184 44.8804 114.989 45.054 114.843C45.2276 114.696 45.4407 114.604 45.6665 114.579C45.9691 114.545 46.2729 114.632 46.511 114.822C46.7492 115.011 46.9022 115.288 46.9365 115.591Z" fill="#263238"/>
<path d="M45.4539 102.298C45.4795 102.524 45.4376 102.752 45.3334 102.954C45.2293 103.156 45.0676 103.322 44.8688 103.432C44.67 103.542 44.443 103.591 44.2166 103.572C43.9902 103.553 43.7745 103.467 43.5968 103.326C43.4191 103.184 43.2874 102.993 43.2184 102.777C43.1493 102.56 43.146 102.328 43.2088 102.11C43.2716 101.891 43.3978 101.697 43.5714 101.55C43.745 101.403 43.9581 101.311 44.1839 101.286C44.4862 101.253 44.7893 101.341 45.0271 101.531C45.265 101.72 45.4184 101.996 45.4539 102.298Z" fill="#263238"/>
<path d="M47.058 119.416C47.0821 119.637 47.0176 119.858 46.8786 120.031C46.7395 120.204 46.5374 120.315 46.3167 120.339C46.0959 120.364 45.8746 120.299 45.7014 120.16C45.5282 120.021 45.4174 119.819 45.3932 119.598C45.3813 119.489 45.3909 119.378 45.4217 119.273C45.4525 119.167 45.5038 119.069 45.5726 118.983C45.7116 118.81 45.9137 118.699 46.1345 118.675C46.3553 118.65 46.5766 118.715 46.7498 118.854C46.9229 118.993 47.0338 119.195 47.058 119.416Z" fill="#263238"/>
<path d="M55.154 165.462L42.9037 55.746C42.7744 54.576 43.1148 53.4024 43.85 52.4831C44.5853 51.5638 45.6554 50.9739 46.8252 50.8429L205.896 33.1329C207.067 33.0035 208.241 33.3437 209.161 34.0789C210.081 34.814 210.672 35.8841 210.805 37.0544L223.025 146.786C223.089 147.365 223.039 147.952 222.877 148.512C222.715 149.072 222.444 149.594 222.08 150.05C221.716 150.505 221.265 150.884 220.755 151.165C220.244 151.447 219.683 151.624 219.103 151.689L60.0318 169.399C58.863 169.523 57.6924 169.179 56.7777 168.44C55.8629 167.702 55.2789 166.631 55.154 165.462Z" fill="white"/>
<path opacity="0.3" d="M206.165 33.0975L46.552 50.8732C46.007 50.933 45.4792 51.0998 44.9989 51.3641C44.5185 51.6283 44.0951 51.9848 43.7528 52.4131C43.4106 52.8413 43.1563 53.333 43.0045 53.8598C42.8527 54.3866 42.8064 54.9382 42.8683 55.4829L55.154 165.74C55.2138 166.285 55.3805 166.813 55.6448 167.293C55.909 167.774 56.2655 168.197 56.6938 168.539C57.1221 168.882 57.6137 169.136 58.1405 169.288C58.6673 169.44 59.2189 169.486 59.7636 169.424L219.366 151.648C219.911 151.588 220.439 151.421 220.919 151.156C221.399 150.892 221.823 150.535 222.165 150.107C222.508 149.679 222.763 149.188 222.915 148.661C223.068 148.135 223.115 147.583 223.055 147.039L210.774 36.7811C210.651 35.6816 210.096 34.676 209.232 33.9853C208.367 33.2946 207.264 32.9752 206.165 33.0975Z" fill="url(#paint7_linear_1_335)"/>
<path d="M150.5 149.548L123.125 152.584C122.049 152.705 120.959 152.612 119.919 152.311C118.879 152.01 117.908 151.507 117.062 150.831C116.216 150.155 115.512 149.318 114.99 148.37C114.467 147.421 114.137 146.379 114.017 145.303C113.897 144.227 113.989 143.138 114.29 142.098C114.59 141.058 115.093 140.088 115.769 139.242C116.444 138.396 117.28 137.692 118.228 137.169C119.176 136.646 120.217 136.315 121.293 136.195L148.673 133.159C149.749 133.038 150.839 133.13 151.879 133.431C152.92 133.732 153.891 134.234 154.737 134.911C155.583 135.587 156.287 136.424 156.81 137.372C157.332 138.321 157.662 139.364 157.781 140.44C157.902 141.517 157.809 142.606 157.509 143.647C157.208 144.687 156.705 145.658 156.029 146.504C155.353 147.35 154.516 148.055 153.567 148.577C152.619 149.099 151.576 149.429 150.5 149.548Z" fill="url(#paint8_linear_1_335)" stroke="#263238" stroke-linecap="round" stroke-linejoin="round"/>
<path d="M130.548 147.246L129.318 147.383L128.954 146.001L127.461 146.168L127.406 147.595L126.287 147.722L126.667 139.838L128.448 139.636L130.548 147.246ZM127.512 145.101L128.686 144.969L127.674 141.113L127.512 145.101Z" fill="#263238"/>
<path d="M134.09 140.941L134.201 141.953C134.343 143.193 133.817 143.932 132.602 144.068L132.025 144.129L132.349 147.044L131.135 147.18L130.27 139.433L132.066 139.231C133.26 139.089 133.933 139.701 134.09 140.941ZM131.611 140.4L131.904 143.021L132.481 142.955C132.865 142.915 133.058 142.712 132.987 142.161L132.86 140.997C132.8 140.445 132.567 140.288 132.182 140.334L131.611 140.4Z" fill="#263238"/>
<path d="M138.244 140.476L138.356 141.488C138.492 142.727 137.971 143.466 136.752 143.603L136.18 143.669L136.504 146.578L135.284 146.715L134.424 138.968L136.215 138.765C137.435 138.644 138.103 139.236 138.244 140.476ZM135.765 139.934L136.053 142.555L136.63 142.49C137.02 142.449 137.207 142.247 137.136 141.695L137.01 140.531C136.944 139.98 136.716 139.828 136.327 139.869L135.765 139.934Z" fill="#263238"/>
<path d="M138.593 138.497L139.813 138.361L140.552 144.999L142.576 144.777L142.697 145.885L139.479 146.244L138.593 138.497Z" fill="#263238"/>
<path d="M143.375 143.198L141.26 138.189L142.535 138.047L143.846 141.478L144.352 137.845L145.515 137.718L144.554 143.066L144.837 145.637L143.623 145.768L143.375 143.198Z" fill="#263238"/>
<path d="M154.114 156.753L121.206 160.421L121.319 161.437L154.228 157.769L154.114 156.753Z" fill="#999999" stroke="#263238" stroke-linecap="round" stroke-linejoin="round"/>
<path d="M201.459 121.663L70.5415 136.24C70.5415 136.24 64.854 124.015 68.2948 116.081C71.7356 108.147 82.1542 112.671 86.5665 105.309C90.9788 97.9464 85.8682 93.0685 90.7258 82.984C95.5834 72.8994 109.503 67.5206 119.897 71.943C130.29 76.3655 133.807 83.0346 140.415 81.1674C147.023 79.3003 150.788 70.7185 163.883 71.346C176.979 71.9734 179.792 90.3108 179.033 99.3581C178.274 108.405 204.384 100.33 201.459 121.663Z" fill="white"/>
<path d="M162.335 82.0529L162.213 80.96L154.016 81.8758L154.259 84.0921L154.699 88.0288L162.897 87.118L162.335 82.0529Z" fill="white"/>
<mask id="mask0_1_335" style="mask-type:luminance" maskUnits="userSpaceOnUse" x="154" y="80" width="9" height="9">
<path d="M162.335 82.0529L162.213 80.96L154.016 81.8758L154.259 84.0921L154.699 88.0288L162.897 87.118L162.335 82.0529Z" fill="white"/>
</mask>
<g mask="url(#mask0_1_335)">
<path opacity="0.2" d="M154.707 87.9548L159.872 87.3792L159.194 81.3043L154.03 81.8799L154.707 87.9548Z" fill="black"/>
</g>
<path d="M162.335 82.0529L162.213 80.96L154.016 81.8758L154.259 84.0921L154.699 88.0288L162.897 87.118L162.335 82.0529Z" stroke="#263238" stroke-linecap="round" stroke-linejoin="round"/>
<path d="M159.203 81.2939L159.263 81.8354" stroke="#263238" stroke-linecap="round" stroke-linejoin="round"/>
<path d="M155.17 94.6827L154.234 86.273L158.621 82.9537L162.967 82.4679L164.202 93.5898L155.17 94.6827Z" fill="#263238"/>
<mask id="mask1_1_335" style="mask-type:luminance" maskUnits="userSpaceOnUse" x="154" y="82" width="11" height="13">
<path d="M155.17 94.6827L154.234 86.273L158.621 82.9537L162.967 82.4679L164.202 93.5898L155.17 94.6827Z" fill="white"/>
</mask>
<g mask="url(#mask1_1_335)">
<path opacity="0.2" d="M155.17 94.6828L160.053 94.1414L158.803 82.9335L154.234 86.2731L155.17 94.6828Z" fill="black"/>
</g>
<path d="M155.17 94.6827L154.234 86.273L158.621 82.9537L162.967 82.4679L164.202 93.5898L155.17 94.6827Z" stroke="#263238" stroke-linecap="round" stroke-linejoin="round"/>
<path opacity="0.2" d="M159.01 84.7954L159.269 87.1382" stroke="white" stroke-linecap="round" stroke-linejoin="round"/>
<path opacity="0.2" d="M159.425 88.5348L159.977 93.4835" stroke="white" stroke-linecap="round" stroke-linejoin="round"/>
<path d="M121.575 119.774L119.976 119.953C119.733 119.98 119.49 119.909 119.299 119.757C119.108 119.604 118.986 119.382 118.959 119.139L118.573 115.675L121.997 115.293L122.385 118.768C122.409 119.008 122.338 119.248 122.186 119.437C122.035 119.625 121.815 119.746 121.575 119.774Z" fill="#999999" stroke="#263238" stroke-linecap="round" stroke-linejoin="round"/>
<path d="M120.256 124.925L122.398 124.686L121.848 119.752L119.706 119.991L120.256 124.925Z" fill="#757575" stroke="#263238" stroke-linecap="round" stroke-linejoin="round"/>
<path d="M118.151 115.722L122.558 115.226L123.768 113.202L116.522 114.012L118.151 115.722Z" fill="#757575" stroke="#263238" stroke-linecap="round" stroke-linejoin="round"/>
<path d="M130.548 107.824L124.476 108.497L122.452 102.126H121.592L123.616 108.76C123.447 108.78 123.294 108.866 123.188 108.998C123.082 109.131 123.032 109.299 123.049 109.468L123.196 110.763C123.248 111.187 123.464 111.573 123.799 111.838C124.133 112.103 124.558 112.226 124.982 112.18L130.184 111.603C130.384 111.579 130.568 111.477 130.693 111.319C130.819 111.161 130.878 110.959 130.857 110.758L130.548 107.824Z" fill="#999999" stroke="#263238" stroke-linecap="round" stroke-linejoin="round"/>
<path d="M131.054 111.011L130.745 111.042C130.535 111.066 130.323 111.013 130.148 110.893C129.973 110.773 129.848 110.594 129.794 110.389L128.018 103.396C127.932 103.068 127.742 102.778 127.477 102.568C127.211 102.358 126.884 102.24 126.546 102.232L121.572 102.106C121.387 102.1 121.211 102.027 121.075 101.902C120.939 101.776 120.853 101.606 120.833 101.423C120.81 101.221 120.868 101.019 120.994 100.861C121.121 100.702 121.304 100.6 121.506 100.578L122.128 100.512L127.062 100.719C127.65 100.743 128.215 100.957 128.671 101.329C129.128 101.701 129.451 102.212 129.592 102.784L131.469 110.414C131.482 110.481 131.482 110.549 131.468 110.616C131.454 110.682 131.427 110.745 131.388 110.801C131.349 110.856 131.3 110.904 131.242 110.94C131.185 110.976 131.121 111 131.054 111.011Z" fill="#BFBFBF" stroke="#263238" stroke-linecap="round" stroke-linejoin="round"/>
<path d="M101.003 88.9295L107.935 111.578L123.504 109.842L123.838 107.373L120.033 94.8193L117.503 86.3843C117.341 85.854 117.001 85.396 116.54 85.088C116.079 84.78 115.525 84.6409 114.973 84.6943L102.895 86.02C102.534 86.058 102.187 86.1839 101.885 86.3867C101.583 86.5896 101.336 86.8633 101.165 87.1838C101.024 87.4497 100.937 87.7409 100.909 88.0405C100.882 88.3401 100.913 88.6422 101.003 88.9295Z" fill="url(#paint9_linear_1_335)"/>
<mask id="mask2_1_335" style="mask-type:luminance" maskUnits="userSpaceOnUse" x="100" y="84" width="24" height="28">
<path d="M101.003 88.9295L107.935 111.578L123.504 109.842L123.838 107.373L120.033 94.8193L117.503 86.3843C117.341 85.854 117.001 85.396 116.54 85.088C116.079 84.78 115.525 84.6409 114.973 84.6943L102.895 86.02C102.534 86.058 102.187 86.1839 101.885 86.3867C101.583 86.5896 101.336 86.8633 101.165 87.1838C101.024 87.4497 100.937 87.7409 100.909 88.0405C100.882 88.3401 100.913 88.6422 101.003 88.9295Z" fill="white"/>
</mask>
<g mask="url(#mask2_1_335)">
<path opacity="0.2" d="M101.003 88.9295L107.935 111.578L123.504 109.842L123.838 107.373L120.033 94.8193L107.039 96.2665L104.59 88.2767C104.47 87.8846 104.218 87.5462 103.877 87.3192C103.536 87.0922 103.126 86.9907 102.718 87.032L101.2 87.1989C100.908 87.727 100.837 88.3492 101.003 88.9295Z" fill="black"/>
</g>
<path d="M101.003 88.9295L107.935 111.578L123.504 109.842L123.838 107.373L120.033 94.8193L117.503 86.3843C117.341 85.854 117.001 85.396 116.54 85.088C116.079 84.78 115.525 84.6409 114.973 84.6943L102.895 86.02C102.534 86.058 102.187 86.1839 101.885 86.3867C101.583 86.5896 101.336 86.8633 101.165 87.1838C101.024 87.4497 100.937 87.7409 100.909 88.0405C100.882 88.3401 100.913 88.6422 101.003 88.9295Z" stroke="#263238" stroke-linecap="round" stroke-linejoin="round"/>
<path d="M113.293 129.202C116.486 127.077 126.389 125.974 129.991 127.345L131.509 126.733C127.679 124.754 122.401 124.673 122.401 124.673L120.079 124.931C120.079 124.931 114.973 126.166 111.669 128.939L113.293 129.202Z" fill="#999999" stroke="#263238" stroke-linecap="round" stroke-linejoin="round"/>
<path d="M129.88 128.271C129.92 128.627 130.099 128.953 130.379 129.177C130.659 129.401 131.016 129.505 131.373 129.465C131.729 129.426 132.055 129.246 132.279 128.966C132.503 128.686 132.606 128.329 132.567 127.972C132.547 127.796 132.493 127.625 132.408 127.47C132.322 127.314 132.206 127.177 132.068 127.066C131.929 126.955 131.77 126.873 131.6 126.823C131.429 126.774 131.251 126.759 131.074 126.778C130.898 126.798 130.727 126.852 130.571 126.938C130.416 127.023 130.279 127.139 130.168 127.277C130.057 127.416 129.975 127.575 129.925 127.746C129.876 127.916 129.86 128.095 129.88 128.271Z" fill="#BFBFBF" stroke="#263238" stroke-linecap="round" stroke-linejoin="round"/>
<path d="M110.9 130.386C110.934 130.65 111.046 130.897 111.22 131.098C111.395 131.299 111.625 131.443 111.881 131.514C112.138 131.584 112.409 131.578 112.662 131.495C112.915 131.411 113.137 131.256 113.301 131.047C113.466 130.838 113.565 130.585 113.586 130.32C113.608 130.054 113.55 129.789 113.421 129.556C113.292 129.324 113.098 129.134 112.862 129.012C112.626 128.889 112.359 128.839 112.094 128.868C111.916 128.888 111.743 128.943 111.586 129.031C111.429 129.118 111.291 129.236 111.179 129.377C111.068 129.519 110.986 129.68 110.938 129.854C110.89 130.027 110.877 130.208 110.9 130.386Z" fill="#BFBFBF" stroke="#263238" stroke-linecap="round" stroke-linejoin="round"/>
<path d="M113.551 115.009L128.787 113.314C129.441 113.241 130.074 113.04 130.65 112.722C131.226 112.404 131.733 111.976 132.143 111.462C132.554 110.947 132.859 110.357 133.041 109.725C133.223 109.093 133.278 108.432 133.205 107.778C133.184 107.583 133.126 107.394 133.032 107.222C132.938 107.05 132.811 106.898 132.658 106.776C132.505 106.653 132.329 106.563 132.14 106.509C131.952 106.455 131.755 106.439 131.56 106.462L109.296 108.942C109.104 108.963 108.917 109.022 108.748 109.116C108.578 109.209 108.429 109.335 108.308 109.487C108.187 109.638 108.097 109.812 108.044 109.998C107.99 110.184 107.974 110.379 107.996 110.571C108.065 111.229 108.265 111.866 108.583 112.446C108.901 113.026 109.33 113.537 109.847 113.95C110.364 114.363 110.957 114.669 111.593 114.851C112.229 115.032 112.895 115.086 113.551 115.009Z" fill="url(#paint10_linear_1_335)"/>
<mask id="mask3_1_335" style="mask-type:luminance" maskUnits="userSpaceOnUse" x="107" y="106" width="27" height="10">
<path d="M113.551 115.009L128.787 113.314C129.441 113.241 130.074 113.04 130.65 112.722C131.226 112.404 131.733 111.976 132.143 111.462C132.554 110.947 132.859 110.357 133.041 109.725C133.223 109.093 133.278 108.432 133.205 107.778C133.184 107.583 133.126 107.394 133.032 107.222C132.938 107.05 132.811 106.898 132.658 106.776C132.505 106.653 132.329 106.563 132.14 106.509C131.952 106.455 131.755 106.439 131.56 106.462L109.296 108.942C109.104 108.963 108.917 109.022 108.748 109.116C108.578 109.209 108.429 109.335 108.308 109.487C108.187 109.638 108.097 109.812 108.044 109.998C107.99 110.184 107.974 110.379 107.996 110.571C108.065 111.229 108.265 111.866 108.583 112.446C108.901 113.026 109.33 113.537 109.847 113.95C110.364 114.363 110.957 114.669 111.593 114.851C112.229 115.032 112.895 115.086 113.551 115.009Z" fill="white"/>
</mask>
<g mask="url(#mask3_1_335)">
<path opacity="0.2" d="M108.011 110.485L108.056 110.895C108.195 112.133 108.82 113.266 109.793 114.044C110.767 114.822 112.009 115.182 113.248 115.044L129.086 113.278C129.699 113.211 130.293 113.023 130.834 112.726C131.374 112.429 131.851 112.028 132.236 111.546C132.622 111.064 132.908 110.511 133.08 109.918C133.251 109.326 133.304 108.705 133.235 108.092L133.189 107.677C133.162 107.413 133.058 107.163 132.891 106.958C132.724 106.752 132.501 106.599 132.248 106.518L132.334 107.282C132.383 107.724 132.254 108.167 131.976 108.515C131.698 108.862 131.294 109.084 130.852 109.134L116.8 110.703C116.357 110.751 115.914 110.622 115.566 110.344C115.218 110.067 114.994 109.662 114.943 109.22L114.847 108.324L109.24 108.947C108.874 108.989 108.539 109.174 108.308 109.462C108.078 109.751 107.971 110.118 108.011 110.485Z" fill="black"/>
</g>
<path d="M113.551 115.009L128.787 113.314C129.441 113.241 130.074 113.04 130.65 112.722C131.226 112.404 131.733 111.976 132.143 111.462C132.554 110.947 132.859 110.357 133.041 109.725C133.223 109.093 133.278 108.432 133.205 107.778C133.184 107.583 133.126 107.394 133.032 107.222C132.938 107.05 132.811 106.898 132.658 106.776C132.505 106.653 132.329 106.563 132.14 106.509C131.952 106.455 131.755 106.439 131.56 106.462L109.296 108.942C109.104 108.963 108.917 109.022 108.748 109.116C108.578 109.209 108.429 109.335 108.308 109.487C108.187 109.638 108.097 109.812 108.044 109.998C107.99 110.184 107.974 110.379 107.996 110.571C108.065 111.229 108.265 111.866 108.583 112.446C108.901 113.026 109.33 113.537 109.847 113.95C110.364 114.363 110.957 114.669 111.593 114.851C112.229 115.032 112.895 115.086 113.551 115.009Z" stroke="#263238" stroke-linecap="round" stroke-linejoin="round"/>
<path d="M113.511 109.721L107.469 110.394L105.415 104.023L104.56 103.998L106.584 110.637C106.5 110.646 106.419 110.671 106.344 110.712C106.27 110.752 106.205 110.807 106.152 110.873C106.1 110.939 106.061 111.014 106.037 111.095C106.014 111.177 106.007 111.261 106.017 111.345L106.159 112.641C106.208 113.069 106.425 113.46 106.761 113.729C107.098 113.998 107.527 114.123 107.955 114.078L113.157 113.496C113.256 113.485 113.353 113.455 113.44 113.407C113.528 113.359 113.605 113.294 113.668 113.216C113.73 113.138 113.777 113.048 113.805 112.952C113.832 112.856 113.841 112.755 113.83 112.656L113.511 109.721Z" fill="#999999" stroke="#263238" stroke-linecap="round" stroke-linejoin="round"/>
<path d="M114.042 112.904L113.729 112.939C113.518 112.963 113.306 112.909 113.132 112.788C112.958 112.667 112.834 112.487 112.782 112.281L111.006 105.294C110.919 104.966 110.729 104.676 110.464 104.465C110.199 104.254 109.872 104.135 109.534 104.125L104.56 103.998C104.375 103.993 104.198 103.922 104.062 103.798C103.925 103.673 103.838 103.504 103.816 103.32C103.795 103.118 103.854 102.916 103.981 102.758C104.108 102.6 104.292 102.498 104.494 102.475L105.111 102.404L110.05 102.612C110.639 102.636 111.204 102.851 111.66 103.225C112.116 103.598 112.439 104.109 112.58 104.681L114.452 112.332C114.469 112.398 114.472 112.467 114.46 112.534C114.448 112.602 114.422 112.666 114.383 112.722C114.344 112.778 114.293 112.825 114.235 112.86C114.176 112.895 114.11 112.917 114.042 112.924" fill="#BFBFBF"/>
<path d="M114.042 112.904L113.729 112.939C113.518 112.963 113.306 112.909 113.132 112.788C112.958 112.667 112.834 112.487 112.782 112.281L111.006 105.294C110.919 104.966 110.729 104.676 110.464 104.465C110.199 104.254 109.872 104.135 109.534 104.125L104.56 103.998C104.375 103.993 104.198 103.922 104.062 103.798C103.925 103.673 103.838 103.504 103.816 103.32C103.795 103.118 103.854 102.916 103.981 102.758C104.108 102.6 104.292 102.498 104.494 102.475L105.111 102.404L110.05 102.612C110.639 102.636 111.204 102.851 111.66 103.225C112.116 103.598 112.439 104.109 112.58 104.681L114.452 112.332C114.469 112.398 114.472 112.467 114.46 112.534C114.448 112.602 114.422 112.666 114.383 112.722C114.344 112.778 114.293 112.825 114.235 112.86C114.176 112.895 114.11 112.917 114.042 112.924" stroke="#263238" stroke-linecap="round" stroke-linejoin="round"/>
<path d="M124.855 97.0508L119.224 97.658L119.259 97.9616C119.265 98.0356 119.285 98.1076 119.319 98.1734C119.353 98.2392 119.401 98.2975 119.458 98.3447C119.515 98.392 119.581 98.4272 119.652 98.4483C119.723 98.4694 119.798 98.476 119.871 98.4676H120.018L138.411 96.4183C138.459 96.4133 138.504 96.3989 138.546 96.376C138.588 96.3532 138.624 96.3222 138.654 96.2851C138.684 96.2479 138.706 96.2052 138.719 96.1594C138.732 96.1137 138.736 96.0658 138.73 96.0186L138.674 95.5126L124.855 97.0508Z" fill="#999999" stroke="#263238" stroke-linecap="round" stroke-linejoin="round"/>
<path d="M141.963 85.6455L141.047 94.7535C141.029 94.9436 140.945 95.1214 140.81 95.2569C140.676 95.3924 140.499 95.4773 140.309 95.4973L126.115 97.0811C126.031 97.09 125.946 97.0798 125.866 97.0513C125.786 97.0229 125.714 96.9768 125.654 96.9166C125.594 96.8564 125.549 96.7836 125.521 96.7034C125.493 96.6233 125.483 96.538 125.493 96.4537L126.505 87.3457C126.526 87.1582 126.61 86.9834 126.743 86.85C126.876 86.7167 127.051 86.6327 127.239 86.612L141.341 85.008C141.426 84.9978 141.513 85.0074 141.594 85.0361C141.676 85.0648 141.749 85.1117 141.809 85.1733C141.869 85.235 141.915 85.3096 141.941 85.3915C141.968 85.4734 141.976 85.5603 141.963 85.6455Z" fill="#BFBFBF" stroke="#263238" stroke-linecap="round" stroke-linejoin="round"/>
<path d="M134.161 89.9819L135.259 89.8605L135.679 90.8118L135.001 91.8794L133.903 92.0009L133.483 91.0546L134.161 89.9819Z" fill="white" stroke="#263238" stroke-linecap="round" stroke-linejoin="round"/>
<path d="M156 82.9132L155.878 81.8152L147.681 82.7361L147.929 84.9524L148.364 88.8891L156.561 87.9732L156 82.9132Z" fill="white"/>
<mask id="mask4_1_335" style="mask-type:luminance" maskUnits="userSpaceOnUse" x="147" y="81" width="10" height="8">
<path d="M156 82.9132L155.878 81.8152L147.681 82.7361L147.929 84.9524L148.364 88.8891L156.561 87.9732L156 82.9132Z" fill="white"/>
</mask>
<g mask="url(#mask4_1_335)">
<path opacity="0.2" d="M148.318 88.5212L153.508 87.9427L152.864 82.1646L147.674 82.743L148.318 88.5212Z" fill="black"/>
</g>
<path d="M156 82.9132L155.878 81.8152L147.681 82.7361L147.929 84.9524L148.364 88.8891L156.561 87.9732L156 82.9132Z" stroke="#263238" stroke-linecap="round" stroke-linejoin="round"/>
<path d="M152.868 82.149L152.928 82.6955" stroke="#263238" stroke-linecap="round" stroke-linejoin="round"/>
<path d="M148.835 95.5428L147.899 87.1281L152.286 83.8087L156.632 83.328L157.872 94.4499L148.835 95.5428Z" fill="url(#paint11_linear_1_335)"/>
<mask id="mask5_1_335" style="mask-type:luminance" maskUnits="userSpaceOnUse" x="147" y="83" width="11" height="13">
<path d="M148.835 95.5428L147.899 87.1281L152.286 83.8087L156.632 83.328L157.872 94.4499L148.835 95.5428Z" fill="white"/>
</mask>
<g mask="url(#mask5_1_335)">
<path opacity="0.2" d="M152.286 83.8087L153.525 94.9761L148.83 95.4973L147.899 87.1281L152.286 83.8087Z" fill="black"/>
</g>
<path d="M148.835 95.5428L147.899 87.1281L152.286 83.8087L156.632 83.328L157.872 94.4499L148.835 95.5428Z" stroke="#263238" stroke-linecap="round" stroke-linejoin="round"/>
<path d="M152.675 85.6506L152.938 87.9934" stroke="#263238" stroke-linecap="round" stroke-linejoin="round"/>
<path d="M153.09 89.395L153.642 94.3437" stroke="#263238" stroke-linecap="round" stroke-linejoin="round"/>
<path d="M146.79 97.1843L144.632 97.4248L147.997 127.608L150.154 127.368L146.79 97.1843Z" fill="url(#paint12_linear_1_335)"/>
<mask id="mask6_1_335" style="mask-type:luminance" maskUnits="userSpaceOnUse" x="144" y="97" width="7" height="31">
<path d="M146.79 97.1843L144.632 97.4248L147.997 127.608L150.154 127.368L146.79 97.1843Z" fill="white"/>
</mask>
<g mask="url(#mask6_1_335)">
<path opacity="0.2" d="M146.79 97.1843L144.632 97.4248L147.997 127.608L150.154 127.368L146.79 97.1843Z" fill="black"/>
</g>
<path d="M146.79 97.1843L144.632 97.4248L147.997 127.608L150.154 127.368L146.79 97.1843Z" stroke="#263238" stroke-linecap="round" stroke-linejoin="round"/>
<path d="M133.549 98.67L165.609 95.0977L168.969 125.281L166.813 125.518L163.651 97.1065L133.746 100.441L133.549 98.67Z" fill="url(#paint13_linear_1_335)" stroke="#263238" stroke-linecap="round" stroke-linejoin="round"/>
<path d="M159.289 94.1008L112.337 99.3329L112.519 100.998L166.514 94.9863L166.327 93.3165L162.386 93.7567L159.289 94.1008Z" fill="url(#paint14_linear_1_335)"/>
<mask id="mask7_1_335" style="mask-type:luminance" maskUnits="userSpaceOnUse" x="112" y="93" width="55" height="8">
<path d="M159.289 94.1008L112.337 99.3329L112.519 100.998L166.514 94.9863L166.327 93.3165L162.386 93.7567L159.289 94.1008Z" fill="white"/>
</mask>
<g mask="url(#mask7_1_335)">
<path opacity="0.6" d="M159.289 94.1008L112.337 99.3329L112.519 100.998L166.514 94.9863L166.327 93.3165L162.386 93.7567L159.289 94.1008Z" fill="white"/>
</g>
<path d="M159.289 94.1008L112.337 99.3329L112.519 100.998L166.514 94.9863L166.327 93.3165L162.386 93.7567L159.289 94.1008Z" stroke="#263238" stroke-linecap="round" stroke-linejoin="round"/>
<path d="M116.795 131.089L113.43 100.907L134.884 98.5182L138.249 128.701L136.089 128.939L132.926 100.532L115.783 102.44L118.95 130.852L116.795 131.089Z" fill="url(#paint15_linear_1_335)"/>
<mask id="mask8_1_335" style="mask-type:luminance" maskUnits="userSpaceOnUse" x="113" y="98" width="26" height="34">
<path d="M116.795 131.089L113.43 100.907L134.884 98.5182L138.249 128.701L136.089 128.939L132.926 100.532L115.783 102.44L118.95 130.852L116.795 131.089Z" fill="white"/>
</mask>
<g mask="url(#mask8_1_335)">
<path opacity="0.2" d="M116.795 131.089L113.43 100.907L134.884 98.5182L138.249 128.701L136.089 128.939L132.926 100.532L115.783 102.44L118.95 130.852L116.795 131.089Z" fill="white"/>
</g>
<path d="M116.795 131.089L113.43 100.907L134.884 98.5182L138.249 128.701L136.089 128.939L132.926 100.532L115.783 102.44L118.95 130.852L116.795 131.089Z" stroke="#263238" stroke-linecap="round" stroke-linejoin="round"/>
<path d="M167.845 102.966C166.122 101.589 164.035 100.742 161.84 100.529C159.644 100.316 157.434 100.746 155.478 101.767C153.522 102.787 151.905 104.354 150.823 106.276C149.742 108.199 149.242 110.394 149.385 112.596C149.529 114.797 150.309 116.909 151.631 118.675C152.953 120.441 154.759 121.785 156.831 122.543C158.903 123.301 161.15 123.441 163.299 122.945C165.449 122.449 167.408 121.339 168.938 119.75L170.654 121.121L171.959 119.487L170.244 118.116C171.804 115.746 172.422 112.879 171.979 110.076C171.535 107.274 170.061 104.738 167.845 102.966ZM168.498 118.075C167.264 119.61 165.602 120.745 163.723 121.336C161.844 121.927 159.832 121.947 157.941 121.394C156.051 120.842 154.366 119.74 153.102 118.23C151.837 116.72 151.049 114.869 150.836 112.91C150.624 110.952 150.997 108.975 151.909 107.229C152.82 105.482 154.229 104.046 155.957 103.1C157.685 102.155 159.655 101.743 161.617 101.918C163.579 102.092 165.445 102.844 166.98 104.079C167.999 104.898 168.847 105.91 169.475 107.056C170.104 108.203 170.499 109.463 170.64 110.762C170.781 112.062 170.665 113.377 170.297 114.632C169.93 115.887 169.318 117.057 168.498 118.075Z" fill="#757575" stroke="#263238" stroke-linecap="round" stroke-linejoin="round"/>
<path d="M184.978 131.236C184.848 131.401 184.686 131.538 184.502 131.64C184.319 131.742 184.116 131.806 183.908 131.83C183.699 131.853 183.488 131.835 183.286 131.777C183.084 131.719 182.896 131.621 182.732 131.489L170.264 121.521C170.229 121.493 170.199 121.458 170.178 121.419C170.156 121.379 170.143 121.336 170.138 121.291C170.133 121.247 170.137 121.201 170.15 121.158C170.163 121.115 170.185 121.075 170.213 121.04L171.782 119.077C171.839 119.006 171.921 118.961 172.011 118.95C172.101 118.94 172.191 118.965 172.263 119.021L184.73 128.99C185.061 129.255 185.273 129.64 185.319 130.062C185.366 130.483 185.243 130.905 184.978 131.236Z" fill="#999999" stroke="#263238" stroke-linecap="round" stroke-linejoin="round"/>
<path d="M101.24 132.825L99.7781 132.987L93.1951 107.368L94.6068 107.004L101.24 132.825Z" fill="#999999" stroke="#263238" stroke-linecap="round" stroke-linejoin="round"/>
<path d="M100.311 95.5487L82.8197 100.043L85.6366 111.006L103.128 106.512L100.311 95.5487Z" fill="#263238"/>
<path d="M88.6916 105.88L88.803 106.311C88.8477 106.413 88.8682 106.525 88.8628 106.637C88.8575 106.748 88.8264 106.857 88.7721 106.955C88.7178 107.053 88.6416 107.137 88.5496 107.201C88.4575 107.265 88.352 107.306 88.2413 107.323L87.9933 107.383L88.3121 108.623L87.8061 108.76L86.9561 105.46L87.7201 105.263C87.8246 105.226 87.9364 105.213 88.0468 105.225C88.1571 105.237 88.2633 105.274 88.357 105.334C88.4507 105.394 88.5296 105.474 88.5876 105.568C88.6456 105.663 88.6812 105.77 88.6916 105.88ZM87.5886 105.8L87.8719 106.913L88.1198 106.852C88.2818 106.806 88.3526 106.71 88.2919 106.472L88.1654 105.966C88.1047 105.729 87.9984 105.678 87.8314 105.719L87.5886 105.8Z" fill="url(#paint16_linear_1_335)"/>
<path d="M88.884 105.805C88.8481 105.698 88.8346 105.586 88.8442 105.474C88.8537 105.363 88.8863 105.254 88.9396 105.156C88.993 105.057 89.0662 104.971 89.1545 104.902C89.2428 104.833 89.3444 104.783 89.4529 104.755C89.5614 104.727 89.6745 104.722 89.7851 104.74C89.8957 104.757 90.0015 104.798 90.0958 104.858C90.1901 104.919 90.2709 104.998 90.3332 105.091C90.3954 105.185 90.4378 105.29 90.4576 105.4L90.8978 107.115C90.9337 107.221 90.9472 107.334 90.9377 107.445C90.9281 107.557 90.8956 107.665 90.8422 107.764C90.7888 107.862 90.7156 107.949 90.6273 108.018C90.539 108.087 90.4374 108.137 90.3289 108.165C90.2204 108.193 90.1073 108.198 89.9967 108.18C89.8861 108.162 89.7803 108.122 89.686 108.061C89.5917 108.001 89.5109 107.921 89.4487 107.828C89.3864 107.735 89.344 107.63 89.3242 107.52L88.884 105.805ZM89.8504 107.419C89.9112 107.657 90.0377 107.717 90.2046 107.677C90.3716 107.636 90.4475 107.515 90.3918 107.282L89.9314 105.501C89.8707 105.263 89.7442 105.202 89.5772 105.243C89.4102 105.283 89.3343 105.405 89.395 105.638L89.8504 107.419Z" fill="url(#paint17_linear_1_335)"/>
<path d="M91.2773 104.307C91.3833 104.27 91.4962 104.258 91.6075 104.272C91.7188 104.285 91.8255 104.324 91.9196 104.385C92.0138 104.446 92.0928 104.528 92.1507 104.624C92.2086 104.72 92.2439 104.828 92.2539 104.939L92.2792 105.041L91.7732 105.167L91.7377 105.03C91.677 104.798 91.5556 104.732 91.3937 104.772C91.2317 104.813 91.1558 104.929 91.2166 105.167C91.2773 105.405 91.4291 105.557 91.844 105.764C92.35 106.037 92.5828 106.27 92.6789 106.655C92.7303 106.761 92.7575 106.878 92.7585 106.996C92.7594 107.114 92.7342 107.231 92.6846 107.338C92.635 107.445 92.5623 107.54 92.4716 107.616C92.3809 107.692 92.2745 107.746 92.1602 107.776C92.0458 107.806 91.9263 107.81 91.8102 107.788C91.6941 107.766 91.5843 107.718 91.4888 107.649C91.3932 107.579 91.3142 107.49 91.2575 107.386C91.2008 107.282 91.1678 107.167 91.1609 107.049L91.1052 106.847L91.6112 106.72L91.672 106.958C91.7327 107.191 91.8592 107.252 92.0262 107.206C92.1931 107.161 92.269 107.054 92.2083 106.817C92.1476 106.579 92.0009 106.427 91.5859 106.214C91.0546 105.946 90.8472 105.708 90.751 105.329C90.7065 105.228 90.685 105.119 90.6883 105.008C90.6916 104.898 90.7195 104.79 90.7699 104.692C90.8204 104.594 90.8922 104.509 90.9799 104.442C91.0677 104.375 91.1693 104.329 91.2773 104.307Z" fill="url(#paint18_linear_1_335)"/>
<path d="M92.3551 104.069L92.8611 103.938L93.7112 107.237L93.2052 107.368L92.3551 104.069Z" fill="url(#paint19_linear_1_335)"/>
<path d="M93.104 103.877L94.703 103.467L94.8244 103.937L94.283 104.079L95.0116 106.903L94.5056 107.039L93.7618 104.236L93.2204 104.373L93.104 103.877Z" fill="url(#paint20_linear_1_335)"/>
<path d="M94.9256 103.406L95.4316 103.275L96.2766 106.574L95.7706 106.705L94.9256 103.406Z" fill="url(#paint21_linear_1_335)"/>
<path d="M95.9831 103.978C95.9473 103.872 95.9337 103.759 95.9433 103.648C95.9529 103.536 95.9854 103.428 96.0388 103.329C96.0922 103.231 96.1653 103.144 96.2536 103.075C96.3419 103.006 96.4435 102.956 96.552 102.928C96.6605 102.9 96.7736 102.895 96.8842 102.913C96.9949 102.931 97.1006 102.971 97.1949 103.032C97.2892 103.092 97.37 103.172 97.4323 103.265C97.4945 103.358 97.5369 103.463 97.5568 103.573L97.997 105.288C98.0328 105.395 98.0464 105.507 98.0368 105.619C98.0272 105.73 97.9947 105.839 97.9413 105.937C97.8879 106.036 97.8148 106.122 97.7265 106.191C97.6381 106.26 97.5366 106.31 97.428 106.338C97.3195 106.366 97.2064 106.371 97.0958 106.353C96.9852 106.336 96.8794 106.295 96.7851 106.235C96.6908 106.174 96.61 106.095 96.5478 106.002C96.4855 105.909 96.4432 105.804 96.4233 105.693L95.9831 103.978ZM96.9496 105.597C97.0103 105.83 97.1368 105.891 97.3038 105.85C97.4707 105.81 97.5466 105.693 97.4859 105.455L97.0305 103.674C96.9698 103.442 96.8433 103.376 96.6763 103.421C96.5093 103.467 96.4334 103.578 96.4941 103.816L96.9496 105.597Z" fill="url(#paint22_linear_1_335)"/>
<path d="M98.3917 103.487L99.0039 105.875L98.5384 105.997L97.6833 102.718L98.336 102.551L99.348 104.393L98.842 102.419L99.3025 102.303L100.153 105.602L99.6162 105.739L98.3917 103.487Z" fill="url(#paint23_linear_1_335)"/>
<path d="M90.8472 102.536L91.0294 102.49C91.1913 102.45 91.3077 102.354 91.2419 102.101L90.5942 99.5707L91.1002 99.4341L91.7378 101.913C91.9048 102.571 91.5961 102.834 91.2065 102.925L90.9535 102.981L90.8472 102.536Z" fill="url(#paint24_linear_1_335)"/>
<path d="M91.6315 100.188C91.5957 100.082 91.5821 99.9694 91.5917 99.8578C91.6013 99.7462 91.6338 99.6377 91.6872 99.5392C91.7406 99.4407 91.8137 99.3543 91.902 99.2853C91.9904 99.2164 92.0919 99.1664 92.2005 99.1385C92.309 99.1106 92.4221 99.1053 92.5327 99.1231C92.6433 99.1409 92.7491 99.1813 92.8434 99.2418C92.9377 99.3023 93.0185 99.3816 93.0807 99.4748C93.143 99.5679 93.1853 99.6729 93.2052 99.7832L93.6454 101.499C93.6812 101.605 93.6948 101.717 93.6852 101.829C93.6756 101.94 93.6431 102.049 93.5897 102.147C93.5363 102.246 93.4632 102.332 93.3749 102.401C93.2866 102.47 93.185 102.52 93.0765 102.548C92.968 102.576 92.8549 102.581 92.7443 102.563C92.6336 102.546 92.5279 102.505 92.4336 102.445C92.3393 102.384 92.2585 102.305 92.1962 102.212C92.134 102.119 92.0916 102.014 92.0718 101.903L91.6315 100.188ZM92.598 101.802C92.6587 102.04 92.7852 102.101 92.9471 102.06C93.1091 102.02 93.1951 101.898 93.1344 101.666L92.679 99.8844C92.6182 99.6466 92.4917 99.5859 92.3248 99.6263C92.1578 99.6668 92.0768 99.7882 92.1375 100.021L92.598 101.802Z" fill="url(#paint25_linear_1_335)"/>
<path d="M95.0824 99.2417L95.1128 99.3581C95.1649 99.4842 95.1768 99.6233 95.1469 99.7564C95.117 99.8895 95.0468 100.01 94.9458 100.102C95.2545 100.142 95.4518 100.355 95.5125 100.704L95.5834 100.972C95.6294 101.077 95.6502 101.19 95.644 101.304C95.6377 101.418 95.6046 101.529 95.5474 101.628C95.4901 101.726 95.4104 101.81 95.3147 101.872C95.2189 101.934 95.1099 101.972 94.9964 101.984L94.1817 102.192L93.3367 98.8976L94.116 98.6699C94.2164 98.6251 94.3261 98.605 94.4359 98.6112C94.5457 98.6175 94.6523 98.65 94.747 98.706C94.8416 98.762 94.9215 98.8399 94.9799 98.9331C95.0382 99.0263 95.0734 99.1321 95.0824 99.2417ZM93.9743 99.2417L94.1969 100.117L94.3993 100.061C94.5967 100.016 94.6928 99.8995 94.622 99.6364L94.5764 99.4492C94.5157 99.2164 94.4095 99.1304 94.2222 99.181L93.9743 99.2417ZM94.3184 100.588L94.5815 101.6L94.875 101.524C95.0521 101.478 95.1229 101.372 95.0622 101.129L94.9863 100.841C94.9104 100.537 94.7839 100.466 94.5511 100.527L94.3184 100.588Z" fill="url(#paint26_linear_1_335)"/>
<path d="M169.925 78.9765C169.87 78.8555 169.839 78.7249 169.834 78.5919L169.778 78.0859C169.748 77.7874 169.636 77.6912 169.409 77.7165H169.237L169.378 79.0119L168.872 79.0676L168.518 75.8798L169.272 75.7988C169.371 75.7696 169.475 75.7644 169.575 75.7836C169.676 75.8028 169.771 75.846 169.852 75.9094C169.933 75.9729 169.997 76.0547 170.04 76.1482C170.082 76.2416 170.102 76.3439 170.097 76.4465L170.127 76.6995C170.159 76.8253 170.151 76.9579 170.105 77.0792C170.059 77.2005 169.977 77.3046 169.869 77.3775C170.132 77.4534 170.239 77.6811 170.279 78.01L170.33 78.516C170.337 78.6498 170.371 78.7807 170.431 78.9006L169.925 78.9765ZM169.075 76.3048L169.186 77.2864L169.378 77.2611C169.566 77.2611 169.672 77.1498 169.642 76.8918L169.606 76.578C169.581 76.3503 169.495 76.2593 169.318 76.2795L169.075 76.3048Z" fill="#263238"/>
<path d="M171.028 76.9929L171.716 76.9119L171.767 77.3673L171.079 77.4432L171.18 78.3793L172.045 78.2832L172.096 78.7386L170.729 78.8904L170.375 75.7026L171.741 75.5508L171.792 76.0062L170.927 76.1023L171.028 76.9929Z" fill="#263238"/>
<path d="M172.07 76.2846C172.056 76.183 172.061 76.0795 172.087 75.9803C172.113 75.881 172.159 75.788 172.222 75.7068C172.285 75.6256 172.363 75.5579 172.453 75.5077C172.542 75.4575 172.641 75.4258 172.743 75.4146C172.845 75.4034 172.948 75.4128 173.046 75.4424C173.145 75.4719 173.236 75.521 173.315 75.5866C173.394 75.6522 173.459 75.733 173.506 75.8242C173.553 75.9155 173.581 76.0152 173.588 76.1176L173.776 77.7722C173.794 77.9259 173.776 78.0817 173.725 78.2276C173.755 78.2883 173.796 78.2934 173.877 78.2833H173.922L173.973 78.7285H173.902C173.818 78.7484 173.73 78.7431 173.649 78.7134C173.568 78.6837 173.498 78.6309 173.447 78.5616C173.338 78.6121 173.222 78.6446 173.103 78.6577C172.998 78.6781 172.89 78.6749 172.787 78.6483C172.684 78.6217 172.589 78.5724 172.507 78.504C172.426 78.4356 172.361 78.3498 172.316 78.2529C172.272 78.1561 172.251 78.0506 172.253 77.9442L172.07 76.2846ZM172.759 77.9189C172.784 78.1466 172.895 78.2225 173.052 78.2023C173.209 78.1821 173.3 78.091 173.275 77.8633L173.082 76.1429C173.057 75.9152 172.951 75.8393 172.789 75.8545C172.627 75.8696 172.541 75.9708 172.566 76.1985L172.759 77.9189Z" fill="#263238"/>
<path d="M174.302 75.2624L174.575 77.7216C174.6 77.9493 174.712 78.0201 174.869 77.9999C175.025 77.9797 175.122 77.8886 175.096 77.6659L174.823 75.2068L175.294 75.1511L175.567 77.5799C175.578 77.6796 175.569 77.7805 175.541 77.8767C175.513 77.973 175.466 78.0628 175.404 78.1411C175.341 78.2193 175.263 78.2844 175.175 78.3327C175.088 78.381 174.991 78.4114 174.891 78.4224C174.792 78.4334 174.691 78.4246 174.594 78.3966C174.498 78.3686 174.408 78.3219 174.33 78.2591C174.252 78.1964 174.187 78.1189 174.139 78.031C174.09 77.9431 174.06 77.8466 174.049 77.7469L173.776 75.3181L174.302 75.2624Z" fill="#263238"/>
<path d="M175.633 75.1157L176.139 75.0601L176.493 78.2428L175.987 78.2985L175.633 75.1157Z" fill="#263238"/>
<path d="M177.899 78.0859C177.844 77.9649 177.813 77.8342 177.808 77.7013L177.753 77.1953C177.722 76.9018 177.611 76.8006 177.383 76.8259H177.211L177.353 78.1213L176.847 78.1769L176.493 74.9942L177.247 74.9082C177.346 74.88 177.45 74.8757 177.55 74.8957C177.651 74.9156 177.746 74.9593 177.826 75.0231C177.907 75.0869 177.971 75.1689 178.014 75.2624C178.057 75.3559 178.076 75.4583 178.072 75.5609L178.102 75.8089C178.134 75.9347 178.127 76.0675 178.081 76.189C178.035 76.3104 177.952 76.4145 177.844 76.4869C178.107 76.5628 178.213 76.7905 178.254 77.1245L178.309 77.6305C178.312 77.7626 178.345 77.8923 178.405 78.01L177.899 78.0859ZM177.049 75.4192L177.161 76.3958H177.353C177.54 76.3958 177.646 76.2794 177.616 76.0264L177.581 75.7127C177.555 75.485 177.469 75.3939 177.292 75.4142L177.049 75.4192Z" fill="#263238"/>
<path d="M178.977 76.1023L179.665 76.0264L179.716 76.4818L179.028 76.5577L179.129 77.4888L179.994 77.3926L180.045 77.848L178.684 77.9998L178.325 74.8171L179.691 74.6653L179.741 75.1207L178.876 75.2168L178.977 76.1023Z" fill="#263238"/>
<path d="M181.305 76.7754L181.391 74.4781L182.089 74.4022L182.443 77.585L181.968 77.6406L181.715 75.3535L181.654 77.671L181.178 77.7266L180.566 75.5154L180.819 77.7671L180.379 77.8127L180.025 74.6299L180.723 74.554L181.305 76.7754Z" fill="#263238"/>
<path d="M183.111 75.6419L183.794 75.566L183.845 76.0214L183.162 76.0973L183.263 77.0283L184.128 76.9322L184.179 77.3876L182.813 77.5394L182.458 74.3566L183.825 74.2048L183.875 74.6602L183.01 74.7564L183.111 75.6419Z" fill="#263238"/>
<path d="M184.69 74.9942L184.948 77.3016L184.498 77.3471L184.143 74.1644L184.771 74.0936L185.489 75.9455L185.277 74.0379L185.722 73.9873L186.076 77.17L185.57 77.2308L184.69 74.9942Z" fill="#263238"/>
<path d="M185.93 73.9671L187.478 73.795L187.529 74.2504L187.023 74.3112L187.326 77.0385L186.82 77.0942L186.517 74.3668L186.011 74.4225L185.93 73.9671Z" fill="#263238"/>
<path d="M188.364 73.6635C188.87 73.6078 189.133 73.8709 189.188 74.382V74.4781L188.718 74.5338V74.4022C188.692 74.1745 188.591 74.0986 188.429 74.1138C188.267 74.129 188.191 74.2302 188.217 74.4579C188.242 74.6856 188.364 74.8475 188.723 75.1005C188.899 75.1929 189.051 75.326 189.165 75.4889C189.28 75.6517 189.353 75.8395 189.381 76.0366C189.407 76.1373 189.411 76.2426 189.391 76.3449C189.372 76.4471 189.33 76.5438 189.268 76.6277C189.207 76.7116 189.127 76.7807 189.035 76.8299C188.944 76.8791 188.842 76.9071 188.738 76.912C188.634 76.9309 188.527 76.9263 188.425 76.8986C188.324 76.871 188.229 76.8208 188.149 76.752C188.069 76.6831 188.005 76.5972 187.963 76.5006C187.92 76.4039 187.9 76.299 187.903 76.1935V75.9961L188.379 75.9455L188.404 76.1732C188.429 76.4009 188.536 76.4718 188.698 76.4515C188.859 76.4313 188.945 76.3402 188.92 76.1125C188.895 75.8848 188.773 75.7178 188.414 75.4699C188.238 75.3775 188.086 75.2443 187.972 75.0815C187.857 74.9187 187.784 74.7309 187.756 74.5338C187.655 74.0328 187.873 73.7141 188.364 73.6635Z" fill="#263238"/>
<path d="M63.9685 136.974L208.128 120.919" stroke="#263238" stroke-linecap="round" stroke-linejoin="round"/>
<path d="M65.0159 134.945C64.3703 134.65 63.6638 134.513 62.9547 134.544C62.2456 134.576 61.5542 134.776 60.9375 135.127C59.8712 135.769 59.0365 136.733 58.5543 137.88C56.8693 141.392 52.2293 149.432 51.4197 151.739C50.6101 154.047 48.8897 160.427 46.9821 163.19C45.0744 165.953 44.1586 170.016 44.1586 170.016L45.6766 208.573C46.4811 202.936 49.2186 196.429 49.2186 196.429C51.8486 194.862 54.0318 192.646 55.5588 189.993C56.0183 189.446 56.4249 188.856 56.7731 188.232C59.5764 183.278 60.5631 174.6 60.3151 167.926C60.0571 160.361 62.3088 156.794 65.8811 149.978C69.4535 143.163 67.6775 136.261 65.0159 134.945Z" fill="white"/>
<path opacity="0.4" d="M65.0159 134.945C64.3682 134.659 63.6629 134.526 62.9554 134.558C62.2478 134.589 61.5572 134.784 60.9376 135.127C63.1387 135.588 66.0482 136.534 65.4916 138.229C64.6212 140.906 61.3879 137.217 59.9559 138.558C58.524 139.899 53.4741 147.489 57.1375 150.474C60.801 153.46 60.0167 158.884 57.7346 160.529C55.4525 162.173 57.1982 165.68 58.2861 171.291C58.949 174.686 57.7801 182.534 56.7681 188.207C59.5714 183.253 60.5581 174.575 60.3101 167.901C60.0521 160.336 62.3038 156.769 65.8761 149.953C69.4485 143.137 67.6724 136.17 65.0159 134.945Z" fill="url(#paint27_linear_1_335)"/>
<path d="M45.6816 208.548C46.4862 202.916 49.2236 196.404 49.2236 196.404C51.8544 194.837 54.0391 192.62 55.5689 189.968C59.288 185.581 60.5833 175.461 60.3253 167.901C60.0672 160.341 62.3493 156.794 65.8913 149.948C69.4333 143.102 67.9608 136.342 65.0058 134.945C62.9464 133.974 60.2342 134.368 58.5442 137.88C56.8541 141.392 52.2192 149.432 51.4096 151.734C50.6 154.037 48.8796 160.427 46.9719 163.195C45.0643 165.963 44.1586 170.016 44.1586 170.016" stroke="#263238" stroke-linecap="round" stroke-linejoin="round"/>
<path d="M54.6479 152.225C54.6479 152.225 57.7497 152.321 59.2019 153.399" stroke="#263238" stroke-linecap="round" stroke-linejoin="round"/>
<path d="M42.9796 169.277C42.9796 169.277 42.2965 167.86 45.3629 166.272" stroke="#263238" stroke-linecap="round" stroke-linejoin="round"/>
<path opacity="0.2" d="M151.598 140.395C157.781 140.445 165.518 168.316 167.926 171.524C167.926 171.524 202.461 172.713 206.812 177.53C211.164 182.347 209.008 186.415 211.872 190.985C214.736 195.554 215.556 203.255 215.556 203.255L223.146 216.062L190.615 231.647C190.615 231.647 173.234 221.689 168.994 219.442C164.754 217.195 152.19 212.287 148.85 205.942C145.51 199.597 145.343 193.641 144.625 191.005C143.906 188.369 157.872 180.475 157.872 180.475L151.598 140.395Z" fill="black" fill-opacity="0.7"/>
<path d="M227.477 218.592C224.674 216.001 221.729 213.249 219.306 210.972C216.214 208.067 213.972 205.947 213.972 205.947C212.13 202.081 210.511 200.781 208.472 197.73C206.433 194.678 206.747 191.46 206.266 187.2C205.785 182.939 204.06 179.271 203.002 176.761C201.945 174.251 201.859 171.655 201.646 171.094C201.434 170.532 198.231 168.058 196.748 166.034C196.083 165.131 195.271 164.348 194.345 163.716C193.309 162.981 192.117 162.495 190.863 162.294C190.343 162.225 189.817 162.214 189.295 162.264C188.264 162.428 187.249 162.677 186.259 163.008C184.953 163.322 181.654 161.728 179.751 161.804C179.397 161.804 179.048 161.854 178.694 161.905C177.057 162.211 175.446 162.646 173.877 163.205C172.161 163.711 169.712 162.588 167.941 162.456H167.906C167.512 162.413 167.113 162.464 166.742 162.603C165.067 163.306 161.864 164.379 161.864 164.379C161.864 164.379 161.04 162.198 160.159 159.178C160.007 158.672 159.85 158.166 159.684 157.66C159.066 155.818 158.393 154.193 157.978 152.665C157.868 152.274 157.779 151.877 157.71 151.476C157.336 149.265 156.86 147.58 155.995 144.271L155.904 143.917C155.63 142.905 155.398 141.893 155.14 141.002C154.497 138.857 153.622 137.369 151.39 137.551C149.427 137.713 148.354 138.968 148.299 142.287C148.243 145.607 147.61 145.521 148.486 150.15C149.361 154.78 149.037 157.938 149.741 160.225C150.444 162.512 151.011 167.142 151.011 167.142C150.034 166.914 149.321 167.471 149.26 167.871C149.199 168.27 149.402 171.984 149.503 174.651C149.589 177.019 148.03 179.6 147.641 181.34C147.641 181.34 147.641 181.371 147.641 181.381C147.597 181.569 147.572 181.76 147.565 181.953C147.509 183.653 148.546 187.013 149.589 191.379C150.631 195.746 150.601 200.487 152.402 203.149C152.775 203.685 153.231 204.159 153.753 204.551C155.919 206.215 159.42 207.263 163.008 209.909C167.486 213.223 170.689 215.683 173.34 216.487C175.243 217.074 176.164 217.701 176.726 218.688C176.95 219.121 177.12 219.58 177.232 220.054C177.485 220.97 178.158 221.572 179.286 222.534C181.051 224.009 182.679 225.642 184.149 227.412C185.525 229.051 187.802 232.259 190.221 235.826L227.477 218.592Z" fill="white"/>
<path opacity="0.4" d="M157.69 151.461C157.759 151.862 157.848 152.259 157.958 152.65C155.054 152.792 150.019 155.443 150.328 157.098C150.712 159.122 151.598 163.904 152.858 164.759C154.117 165.614 156.486 165.801 156.486 165.801C156.329 165.851 156.175 165.91 156.025 165.978L155.975 166.003C155.315 166.319 154.767 166.827 154.401 167.461C152.802 170.148 153.864 175 155.119 177.156C160.336 186.122 157.452 194.896 155.565 194.36C153.677 193.823 151.547 185.56 151.587 183.491C151.621 182.279 151.49 181.069 151.198 179.893C150.398 179.822 148.926 180.556 147.6 181.34C147.6 181.34 147.6 181.315 147.6 181.3C147.99 179.559 149.548 176.979 149.462 174.61C149.361 171.944 149.154 168.23 149.219 167.83C149.285 167.43 149.994 166.874 150.97 167.101C150.97 167.101 150.398 162.477 149.7 160.184C149.002 157.892 149.321 154.745 148.445 150.11C147.57 145.475 148.202 145.556 148.258 142.247C148.314 138.937 149.386 137.693 151.35 137.511C153.591 137.328 154.457 138.816 155.099 140.961C154.796 140.79 154.482 140.64 154.158 140.511C153.347 140.144 152.428 140.095 151.582 140.375C150.611 140.754 149.973 141.968 149.675 143.168C149.24 144.893 149.508 146.593 150.5 145.758C151.623 144.817 154.305 144.397 155.959 144.24C156.86 147.565 157.315 149.27 157.69 151.461Z" fill="url(#paint28_linear_1_335)"/>
<path opacity="0.4" d="M177.227 220.064C177.116 219.591 176.946 219.134 176.721 218.703C176.159 217.717 175.238 217.089 173.335 216.502C170.684 215.677 167.481 213.218 163.003 209.924C159.415 207.278 155.919 206.23 153.748 204.566C156.126 205.203 158.849 203.933 160.179 205.522C162.112 207.814 169.211 210.289 169.211 210.289C176.594 214.777 177.227 220.064 177.227 220.064Z" fill="url(#paint29_linear_1_335)"/>
<path opacity="0.4" d="M167.891 162.426C167.152 162.426 166.373 167.633 166.58 169.358C167.142 173.816 172.576 186.689 169.616 187.068C168.397 187.23 165.513 181.3 164.728 178.406C162.355 169.601 161.829 165.831 161.829 165.831C161.829 165.831 160.023 161.075 159.648 157.629C159.815 158.135 159.972 158.641 160.124 159.147C161.004 162.183 161.829 164.349 161.829 164.349C161.829 164.349 165.032 163.276 166.707 162.573C167.084 162.43 167.49 162.38 167.891 162.426Z" fill="url(#paint30_linear_1_335)"/>
<path opacity="0.4" d="M178.679 161.92C177.161 162.426 175.972 164.313 174.772 164.885C173.305 165.589 169.637 162.785 167.926 162.472C169.697 162.603 172.146 163.747 173.862 163.22C175.431 162.661 177.041 162.226 178.679 161.92Z" fill="url(#paint31_linear_1_335)"/>
<path opacity="0.4" d="M189.285 162.249C188.748 163.391 188.388 164.607 188.217 165.857C187.933 170.178 192.771 185.125 190.15 183.111C186.76 180.495 186.8 168.609 183.875 164.774C182.939 163.544 180.263 161.864 179.751 161.788C181.654 161.712 184.953 163.306 186.259 162.993C187.245 162.663 188.257 162.414 189.285 162.249Z" fill="url(#paint32_linear_1_335)"/>
<path opacity="0.4" d="M219.295 210.951C216.71 209.14 214.038 207.46 212.459 206.954C208.583 205.77 207.116 203.918 205.998 200.543C204.879 197.168 205.775 197.031 205.998 193.373C206.22 189.715 203.296 185.945 203.66 186.825C204.024 187.706 203.933 194.415 202.83 194.997C201.727 195.579 200.3 191.43 199.329 187.989C198.357 184.548 196.379 167.936 195.093 164.9C194.914 164.457 194.665 164.045 194.355 163.681C195.281 164.312 196.093 165.096 196.758 165.998C198.241 168.022 201.444 170.487 201.656 171.058C201.869 171.63 201.95 174.216 203.012 176.726C204.075 179.235 205.795 182.899 206.276 187.164C206.757 191.43 206.453 194.648 208.482 197.694C210.511 200.74 212.141 202.046 213.982 205.912C213.962 205.942 216.204 208.047 219.295 210.951Z" fill="url(#paint33_linear_1_335)"/>
<path opacity="0.4" d="M177.388 171.296C178.355 171.924 181.386 182.428 182.448 184.958C183.511 187.488 183.653 194.066 182.423 192.346C181.194 190.625 173.447 168.741 177.388 171.296Z" fill="url(#paint34_linear_1_335)"/>
<path d="M189.3 234.48C187.225 231.47 185.343 228.849 184.144 227.422C182.674 225.652 181.046 224.019 179.281 222.544C178.153 221.572 177.48 220.98 177.227 220.064C177.116 219.591 176.946 219.134 176.721 218.703C176.159 217.717 175.238 217.089 173.335 216.502C170.684 215.677 167.481 213.218 163.003 209.924C159.415 207.278 155.919 206.23 153.748 204.566C153.226 204.174 152.769 203.701 152.397 203.164C150.611 200.523 150.626 195.751 149.584 191.394C148.541 187.038 147.504 183.668 147.56 181.968C147.567 181.775 147.592 181.584 147.636 181.396C147.636 181.396 147.636 181.371 147.636 181.355C148.025 179.615 149.584 177.034 149.498 174.666C149.397 172 149.189 168.285 149.255 167.886C149.321 167.486 150.029 166.929 151.006 167.157C151.006 167.157 150.434 162.532 149.736 160.24C149.037 157.948 149.356 154.801 148.481 150.166C147.605 145.531 148.238 145.612 148.293 142.302C148.349 138.993 149.422 137.748 151.385 137.566C153.627 137.384 154.492 138.872 155.135 141.017C155.403 141.903 155.641 142.899 155.899 143.932L155.99 144.286C156.855 147.595 157.331 149.28 157.705 151.491C157.774 151.892 157.863 152.289 157.973 152.68C158.388 154.198 159.061 155.833 159.678 157.675C159.845 158.181 160.002 158.687 160.154 159.193C161.035 162.229 161.859 164.394 161.859 164.394C161.859 164.394 165.062 163.322 166.737 162.618C167.108 162.479 167.507 162.429 167.901 162.472H167.936C169.707 162.603 172.156 163.747 173.872 163.22C175.441 162.661 177.051 162.226 178.689 161.92C179.043 161.869 179.392 161.834 179.746 161.819C181.649 161.743 184.948 163.337 186.254 163.023C187.243 162.692 188.259 162.444 189.29 162.279C189.812 162.23 190.338 162.24 190.858 162.31C192.112 162.51 193.304 162.997 194.339 163.731C195.265 164.363 196.078 165.147 196.743 166.049C198.226 168.073 201.429 170.537 201.641 171.109C201.854 171.681 201.935 174.266 202.997 176.776C204.06 179.286 205.78 182.949 206.261 187.215C206.742 191.481 206.438 194.699 208.467 197.745C210.496 200.791 212.125 202.096 213.967 205.962C213.967 205.962 216.209 208.082 219.3 210.987C221.451 213.011 224.011 215.399 226.516 217.722" stroke="#263238" stroke-linecap="round" stroke-linejoin="round"/>
<path d="M150.985 167.122C151.749 170.32 152.407 174.363 152.316 176.128C152.225 177.894 153.875 183.334 153.541 185.874" stroke="#263238" stroke-linecap="round" stroke-linejoin="round"/>
<path d="M153.237 169.247C153.237 169.247 154.861 166.211 156.511 165.801C158.16 165.391 160.053 166.079 161.849 165.857C163.645 165.634 165.148 163.914 166.747 163.205" stroke="#263238" stroke-linecap="round" stroke-linejoin="round"/>
<path d="M151.709 157.29C151.709 157.29 154.446 155.474 156.263 156.197" stroke="#263238" stroke-linecap="round" stroke-linejoin="round"/>
<path d="M153.647 155.342C154.4 155.03 155.236 154.982 156.02 155.205" stroke="#263238" stroke-linecap="round" stroke-linejoin="round"/>
<path d="M150.99 147.752C151.949 147.284 153 147.034 154.067 147.018" stroke="#263238" stroke-linecap="round" stroke-linejoin="round"/>
<path d="M147.62 181.32C148.383 180.675 149.209 180.109 150.085 179.63" stroke="#263238" stroke-linecap="round" stroke-linejoin="round"/>
<path d="M153.419 183.076C153.071 184.048 152.823 185.054 152.68 186.076" stroke="#263238" stroke-linecap="round" stroke-linejoin="round"/>
<path d="M149.113 139.914C149.113 139.914 149.533 143.724 150.075 143.962C150.616 144.2 154.279 143.633 154.416 142.925C154.553 142.216 153.961 139.494 153.961 139.494C153.961 139.494 150.935 136.301 149.113 139.914Z" stroke="#263238" stroke-linecap="round" stroke-linejoin="round"/>
<path d="M149.477 174.631C149.477 174.631 152.088 172.42 151.648 170.259C151.208 168.098 150.338 168.326 149.23 168.579" stroke="#263238" stroke-linecap="round" stroke-linejoin="round"/>
<path d="M196.981 168.422C197.892 171.787 199.283 181.902 199.511 183.379C199.738 184.857 200.745 188.551 200.745 188.551" stroke="#263238" stroke-linecap="round" stroke-linejoin="round"/>
<path d="M173.907 165.735C178.218 169.626 174.595 168.624 181.942 190.352" stroke="#263238" stroke-linecap="round" stroke-linejoin="round"/>
<path d="M213.962 205.942C213.962 205.942 210.602 204.424 209.818 203.275" stroke="#263238" stroke-linecap="round" stroke-linejoin="round"/>
<path d="M174.155 214.337C175.339 215.546 176.619 218.506 176.685 218.688" stroke="#263238" stroke-linecap="round" stroke-linejoin="round"/>
<defs>
<linearGradient id="paint0_linear_1_335" x1="7.90003" y1="147.402" x2="235.142" y2="147.867" gradientUnits="userSpaceOnUse">
<stop stop-color="#1D498D"/>
<stop offset="1" stop-color="#3C65A4"/>
</linearGradient>
<linearGradient id="paint1_linear_1_335" x1="62.6193" y1="208.831" x2="137.733" y2="209.144" gradientUnits="userSpaceOnUse">
<stop stop-color="#1D498D"/>
<stop offset="1" stop-color="#3C65A4"/>
</linearGradient>
<linearGradient id="paint2_linear_1_335" x1="42.9715" y1="177.039" x2="83.1641" y2="177.071" gradientUnits="userSpaceOnUse">
<stop stop-color="#1D498D"/>
<stop offset="1" stop-color="#3C65A4"/>
</linearGradient>
<linearGradient id="paint3_linear_1_335" x1="38.182" y1="65.2053" x2="37.1818" y2="55.8616" gradientUnits="userSpaceOnUse">
<stop stop-color="#1D498D"/>
<stop offset="1" stop-color="#3C65A4"/>
</linearGradient>
<linearGradient id="paint4_linear_1_335" x1="50.9844" y1="45.5601" x2="60.3333" y2="44.5595" gradientUnits="userSpaceOnUse">
<stop stop-color="#1D498D"/>
<stop offset="1" stop-color="#3C65A4"/>
</linearGradient>
<linearGradient id="paint5_linear_1_335" x1="61.8712" y1="44.3618" x2="71.2149" y2="43.3616" gradientUnits="userSpaceOnUse">
<stop stop-color="#1D498D"/>
<stop offset="1" stop-color="#3C65A4"/>
</linearGradient>
<linearGradient id="paint6_linear_1_335" x1="31.7186" y1="113.982" x2="226.711" y2="114.459" gradientUnits="userSpaceOnUse">
<stop stop-color="#1D498D"/>
<stop offset="1" stop-color="#3C65A4"/>
</linearGradient>
<linearGradient id="paint7_linear_1_335" x1="39.0755" y1="113.573" x2="223.093" y2="114.032" gradientUnits="userSpaceOnUse">
<stop stop-color="#1D498D"/>
<stop offset="1" stop-color="#3C65A4"/>
</linearGradient>
<linearGradient id="paint8_linear_1_335" x1="113.049" y1="144.634" x2="157.835" y2="144.824" gradientUnits="userSpaceOnUse">
<stop stop-color="#1D498D"/>
<stop offset="1" stop-color="#3C65A4"/>
</linearGradient>
<linearGradient id="paint9_linear_1_335" x1="100.42" y1="100.559" x2="123.84" y2="100.596" gradientUnits="userSpaceOnUse">
<stop stop-color="#1D498D"/>
<stop offset="1" stop-color="#3C65A4"/>
</linearGradient>
<linearGradient id="paint10_linear_1_335" x1="107.459" y1="111.523" x2="133.237" y2="111.666" gradientUnits="userSpaceOnUse">
<stop stop-color="#1D498D"/>
<stop offset="1" stop-color="#3C65A4"/>
</linearGradient>
<linearGradient id="paint11_linear_1_335" x1="147.69" y1="90.5382" x2="157.873" y2="90.5538" gradientUnits="userSpaceOnUse">
<stop stop-color="#1D498D"/>
<stop offset="1" stop-color="#3C65A4"/>
</linearGradient>
<linearGradient id="paint12_linear_1_335" x1="146.573" y1="115.246" x2="148.776" y2="115.001" gradientUnits="userSpaceOnUse">
<stop stop-color="#1D498D"/>
<stop offset="1" stop-color="#3C65A4"/>
</linearGradient>
<linearGradient id="paint13_linear_1_335" x1="132.808" y1="113.054" x2="168.971" y2="113.134" gradientUnits="userSpaceOnUse">
<stop stop-color="#1D498D"/>
<stop offset="1" stop-color="#3C65A4"/>
</linearGradient>
<linearGradient id="paint14_linear_1_335" x1="111.205" y1="97.8505" x2="166.509" y2="98.5859" gradientUnits="userSpaceOnUse">
<stop stop-color="#1D498D"/>
<stop offset="1" stop-color="#3C65A4"/>
</linearGradient>
<linearGradient id="paint15_linear_1_335" x1="112.911" y1="117.744" x2="138.251" y2="117.781" gradientUnits="userSpaceOnUse">
<stop stop-color="#1D498D"/>
<stop offset="1" stop-color="#3C65A4"/>
</linearGradient>
<linearGradient id="paint16_linear_1_335" x1="86.9162" y1="107.309" x2="88.8638" y2="107.311" gradientUnits="userSpaceOnUse">
<stop stop-color="#1D498D"/>
<stop offset="1" stop-color="#3C65A4"/>
</linearGradient>
<linearGradient id="paint17_linear_1_335" x1="88.7973" y1="106.772" x2="90.9408" y2="106.775" gradientUnits="userSpaceOnUse">
<stop stop-color="#1D498D"/>
<stop offset="1" stop-color="#3C65A4"/>
</linearGradient>
<linearGradient id="paint18_linear_1_335" x1="90.6447" y1="106.353" x2="92.7586" y2="106.356" gradientUnits="userSpaceOnUse">
<stop stop-color="#1D498D"/>
<stop offset="1" stop-color="#3C65A4"/>
</linearGradient>
<linearGradient id="paint19_linear_1_335" x1="92.3268" y1="105.963" x2="93.7113" y2="105.964" gradientUnits="userSpaceOnUse">
<stop stop-color="#1D498D"/>
<stop offset="1" stop-color="#3C65A4"/>
</linearGradient>
<linearGradient id="paint20_linear_1_335" x1="93.0641" y1="105.575" x2="95.0118" y2="105.577" gradientUnits="userSpaceOnUse">
<stop stop-color="#1D498D"/>
<stop offset="1" stop-color="#3C65A4"/>
</linearGradient>
<linearGradient id="paint21_linear_1_335" x1="94.8974" y1="105.3" x2="96.2767" y2="105.301" gradientUnits="userSpaceOnUse">
<stop stop-color="#1D498D"/>
<stop offset="1" stop-color="#3C65A4"/>
</linearGradient>
<linearGradient id="paint22_linear_1_335" x1="95.8964" y1="104.946" x2="98.0399" y2="104.948" gradientUnits="userSpaceOnUse">
<stop stop-color="#1D498D"/>
<stop offset="1" stop-color="#3C65A4"/>
</linearGradient>
<linearGradient id="paint23_linear_1_335" x1="97.6317" y1="104.483" x2="100.153" y2="104.487" gradientUnits="userSpaceOnUse">
<stop stop-color="#1D498D"/>
<stop offset="1" stop-color="#3C65A4"/>
</linearGradient>
<linearGradient id="paint24_linear_1_335" x1="90.5694" y1="101.528" x2="91.7843" y2="101.529" gradientUnits="userSpaceOnUse">
<stop stop-color="#1D498D"/>
<stop offset="1" stop-color="#3C65A4"/>
</linearGradient>
<linearGradient id="paint25_linear_1_335" x1="91.5449" y1="101.156" x2="93.6884" y2="101.158" gradientUnits="userSpaceOnUse">
<stop stop-color="#1D498D"/>
<stop offset="1" stop-color="#3C65A4"/>
</linearGradient>
<linearGradient id="paint26_linear_1_335" x1="93.2885" y1="100.724" x2="95.6452" y2="100.727" gradientUnits="userSpaceOnUse">
<stop stop-color="#1D498D"/>
<stop offset="1" stop-color="#3C65A4"/>
</linearGradient>
<linearGradient id="paint27_linear_1_335" x1="55.5784" y1="166.224" x2="67.8826" y2="166.229" gradientUnits="userSpaceOnUse">
<stop stop-color="#1D498D"/>
<stop offset="1" stop-color="#3C65A4"/>
</linearGradient>
<linearGradient id="paint28_linear_1_335" x1="147.381" y1="171.075" x2="158.08" y2="171.079" gradientUnits="userSpaceOnUse">
<stop stop-color="#1D498D"/>
<stop offset="1" stop-color="#3C65A4"/>
</linearGradient>
<linearGradient id="paint29_linear_1_335" x1="153.258" y1="213.714" x2="177.228" y2="213.783" gradientUnits="userSpaceOnUse">
<stop stop-color="#1D498D"/>
<stop offset="1" stop-color="#3C65A4"/>
</linearGradient>
<linearGradient id="paint30_linear_1_335" x1="159.421" y1="175.008" x2="170.494" y2="175.016" gradientUnits="userSpaceOnUse">
<stop stop-color="#1D498D"/>
<stop offset="1" stop-color="#3C65A4"/>
</linearGradient>
<linearGradient id="paint31_linear_1_335" x1="167.702" y1="163.737" x2="178.679" y2="163.809" gradientUnits="userSpaceOnUse">
<stop stop-color="#1D498D"/>
<stop offset="1" stop-color="#3C65A4"/>
</linearGradient>
<linearGradient id="paint32_linear_1_335" x1="179.518" y1="174.483" x2="190.932" y2="174.494" gradientUnits="userSpaceOnUse">
<stop stop-color="#1D498D"/>
<stop offset="1" stop-color="#3C65A4"/>
</linearGradient>
<linearGradient id="paint33_linear_1_335" x1="193.833" y1="191.584" x2="219.297" y2="191.609" gradientUnits="userSpaceOnUse">
<stop stop-color="#1D498D"/>
<stop offset="1" stop-color="#3C65A4"/>
</linearGradient>
<linearGradient id="paint34_linear_1_335" x1="176.134" y1="183.803" x2="183.296" y2="183.808" gradientUnits="userSpaceOnUse">
<stop stop-color="#1D498D"/>
<stop offset="1" stop-color="#3C65A4"/>
</linearGradient>
</defs>
</svg>
