<svg width="500" height="500" viewBox="0 0 500 500" fill="none" xmlns="http://www.w3.org/2000/svg">
<path d="M29.5901 136.681C32.5201 136.571 38.3701 133.581 38.3801 133.571C38.3901 133.561 35.2401 130.311 35.0101 130.131C32.4001 128.041 26.1301 125.541 23.0101 127.601C22.5009 127.958 22.0728 128.419 21.7537 128.954C21.4346 129.488 21.2316 130.083 21.158 130.701C21.0844 131.319 21.1419 131.946 21.3266 132.54C21.5113 133.135 21.8192 133.683 22.2301 134.151C23.8901 136.201 27.0901 136.771 29.5901 136.681Z" fill="#92B7E3"/>
<path d="M90.0909 109.09C90.1609 109.09 89.271 104.64 89.181 104.36C88.181 101.18 84.3009 95.6299 80.5609 95.6299C79.9415 95.6471 79.3326 95.794 78.7735 96.0613C78.2144 96.3285 77.7176 96.7101 77.3152 97.1813C76.9128 97.6525 76.6137 98.2029 76.4372 98.7969C76.2608 99.391 76.211 100.015 76.291 100.63C76.561 103.26 78.911 105.51 81.051 106.81C83.551 108.35 90.0809 109.09 90.0909 109.09Z" fill="#92B7E3"/>
<path d="M97.4096 79.1101C93.8796 80.3701 92.1096 86.8901 92.2096 90.2301C92.2096 90.5201 92.8796 95.0201 92.9396 94.9901L92.9996 95.0001C92.7196 96.0001 92.4196 97.1401 92.1196 98.3501C91.5896 100.59 90.9996 103.13 90.5596 105.94C90.0473 108.961 89.7134 112.01 89.5596 115.07C89.3657 118.496 89.4728 121.933 89.8796 125.34C89.8844 125.38 89.8844 125.42 89.8796 125.46C89.4196 124.46 88.0496 121.72 87.8796 121.52C86.0496 118.72 80.8796 114.39 77.2596 115.37C76.6621 115.552 76.1095 115.857 75.638 116.266C75.1666 116.676 74.7868 117.18 74.5235 117.746C74.2602 118.313 74.1193 118.928 74.11 119.553C74.1007 120.177 74.2232 120.796 74.4696 121.37C75.4696 123.83 78.2796 125.37 80.6896 126.07C83.3896 126.84 89.4296 125.95 89.9096 125.87C90.4377 129.293 91.1927 132.677 92.1696 136C92.7096 138 93.3296 139.91 93.9696 141.87C93.5396 141.02 93.1596 140.26 93.0896 140.16C91.2596 137.36 86.0896 133.03 82.4696 134.01C81.8721 134.192 81.3195 134.497 80.8481 134.906C80.3766 135.316 79.9968 135.82 79.7335 136.387C79.4702 136.953 79.3293 137.568 79.32 138.193C79.3107 138.817 79.4332 139.436 79.6796 140.01C80.6296 142.47 83.4996 144.01 85.8996 144.71C88.2996 145.41 93.4996 144.71 94.8996 144.55C95.1596 145.3 95.3996 146.05 95.6596 146.79C96.8896 150.37 98.1296 153.94 99.2396 157.48C99.6296 158.72 99.9696 159.96 100.32 161.2C99.9396 160.45 99.6096 159.82 99.5496 159.73C97.7296 156.93 92.5496 152.59 88.9396 153.58C88.3403 153.759 87.7856 154.063 87.3122 154.472C86.8387 154.88 86.4572 155.385 86.1927 155.952C85.9282 156.518 85.7867 157.135 85.7775 157.76C85.7684 158.386 85.8918 159.006 86.1396 159.58C87.1396 162.04 89.9596 163.58 92.3596 164.27C94.7596 164.96 99.4596 164.37 101.08 164.15C101.4 165.43 101.72 166.72 101.96 167.97C102.11 168.83 102.32 169.65 102.42 170.53C102.52 171.41 102.66 172.24 102.77 173.09C102.94 174.72 103.12 176.41 103.24 178.01C103.33 179.13 103.4 180.19 103.47 181.26C103.1 180.01 102.31 177.59 102.22 177.4C100.904 174.767 98.9345 172.515 96.4996 170.86C96.3635 170.557 96.1959 170.268 95.9996 170C95.6591 169.481 95.2132 169.039 94.6908 168.703C94.1684 168.367 93.5812 168.144 92.9673 168.05C92.3534 167.956 91.7266 167.992 91.1274 168.155C90.5283 168.319 89.9703 168.607 89.4896 169C86.6496 171.44 87.3396 178.16 88.6396 181.24C88.7196 181.43 89.7696 183.31 90.4496 184.48C89.9396 183.85 89.4496 183.23 88.9296 182.59C87.9296 181.32 86.8196 180.07 85.6696 178.73L83.9196 176.83C83.3496 176.18 82.6596 175.57 82.0296 174.93C80.5396 173.48 78.9496 172.08 77.3196 170.7C78.4396 169.79 82.3196 166.5 83.4796 164.26C84.6396 162.02 85.4196 158.88 84.2496 156.51C83.9953 155.942 83.624 155.435 83.16 155.02C82.696 154.606 82.1498 154.294 81.557 154.105C80.9642 153.916 80.3383 153.855 79.7201 153.925C79.1019 153.994 78.5054 154.194 77.9696 154.51C74.7896 156.51 74.4596 163.24 75.2796 166.51C75.2796 166.71 76.1696 168.97 76.6596 170.21C75.6596 169.39 74.6596 168.57 73.6596 167.77C70.6596 165.48 67.6596 163.25 64.5996 161.01L61.8196 158.94C62.2196 158.62 66.9596 154.8 68.2296 152.3C69.3496 150.07 70.1596 146.91 68.9996 144.54C68.7418 143.974 68.3682 143.469 67.9029 143.056C67.4377 142.643 66.8911 142.333 66.2984 142.144C65.7058 141.956 65.0802 141.894 64.4621 141.962C63.8439 142.03 63.2469 142.227 62.7096 142.54C59.5396 144.54 59.1996 151.27 60.0196 154.54C60.0796 154.79 61.2996 158.04 61.6496 158.85C59.6496 157.33 57.6496 155.79 55.6496 154.19C53.0352 152.05 50.5632 149.742 48.2496 147.28C48.4396 147.13 53.3996 143.18 54.6996 140.61C55.8196 138.38 56.6296 135.22 55.4696 132.85C55.2141 132.283 54.8421 131.777 54.378 131.363C53.9138 130.95 53.3678 130.639 52.7755 130.45C52.1831 130.261 51.5578 130.2 50.94 130.268C50.3221 130.337 49.7258 130.536 49.1896 130.85C46.0096 132.85 45.6796 139.57 46.4896 142.85C46.5396 143.07 47.4896 145.55 47.9396 146.72L47.7596 146.83C45.5025 144.287 43.4746 141.55 41.6996 138.65C40.6996 137.07 39.8396 135.5 39.0296 133.95C40.0296 133.31 44.5696 130.32 46.0296 128.14C47.4896 125.96 48.5496 123 47.6496 120.51C47.4577 119.921 47.1445 119.379 46.7302 118.919C46.3159 118.459 45.8098 118.091 45.2444 117.838C44.6791 117.586 44.0671 117.455 43.4479 117.453C42.8287 117.452 42.2161 117.58 41.6496 117.83C38.2696 119.45 37.1996 126.12 37.6496 129.43C37.6496 129.61 38.1296 131.43 38.4796 132.72C38.1296 132.02 37.7496 131.3 37.4796 130.62C36.2496 128.07 35.2796 125.62 34.4796 123.51C34.0096 122.29 33.6096 121.17 33.2496 120.13C33.8996 118.99 36.4796 114.35 36.7296 111.8C36.9796 109.25 36.5896 106.08 34.6496 104.29C34.2059 103.853 33.6754 103.515 33.0924 103.296C32.5094 103.078 31.8869 102.984 31.2655 103.022C30.644 103.06 30.0375 103.228 29.4851 103.515C28.9328 103.803 28.4471 104.203 28.0596 104.69C25.8196 107.69 27.9396 114.09 29.8696 116.82C30.0296 117.06 33.0596 120.45 33.0996 120.39V120.32C33.4296 121.32 33.7896 122.42 34.2096 123.6C34.9996 125.76 35.9196 128.2 37.0896 130.79C38.3275 133.595 39.7265 136.326 41.2796 138.97C43.003 141.934 44.9876 144.739 47.2096 147.35L47.2996 147.44C46.3696 146.86 43.6996 145.34 43.4896 145.24C40.4196 143.92 33.7096 143.16 31.2396 145.97C30.8444 146.452 30.5551 147.011 30.3904 147.612C30.2257 148.213 30.1893 148.842 30.2836 149.458C30.3779 150.074 30.6008 150.663 30.9378 151.187C31.2748 151.711 31.7184 152.159 32.2396 152.5C34.3896 154.03 37.6296 153.73 40.0096 152.99C42.6996 152.14 47.2396 148.06 47.5996 147.73C49.9045 150.282 52.3766 152.677 54.9996 154.9C56.5296 156.23 58.1296 157.53 59.7396 158.8C58.9096 158.33 58.1796 157.91 58.0696 157.87C54.9996 156.54 48.2896 155.78 45.8196 158.6C45.4246 159.081 45.1354 159.64 44.9708 160.24C44.8062 160.84 44.7698 161.468 44.8642 162.083C44.9585 162.698 45.1814 163.287 45.5183 163.81C45.8553 164.333 46.2986 164.78 46.8196 165.12C48.9696 166.65 52.2096 166.36 54.5896 165.61C56.9696 164.86 60.9596 161.45 61.9896 160.53L63.7996 162C66.7996 164.31 69.7996 166.6 72.6796 168.93C73.6796 169.75 74.6796 170.6 75.6796 171.45C74.9496 171.03 74.3296 170.68 74.2296 170.64C71.1596 169.31 64.4496 168.55 61.9796 171.37C61.5846 171.851 61.2954 172.41 61.1308 173.01C60.9662 173.61 60.9298 174.238 61.0242 174.853C61.1185 175.468 61.3414 176.057 61.6783 176.58C62.0153 177.103 62.4586 177.55 62.9796 177.89C65.1296 179.42 68.3696 179.13 70.7596 178.38C73.1496 177.63 76.7596 174.55 77.9596 173.47C78.9596 174.36 79.8996 175.26 80.7996 176.17C81.3996 176.8 82.0196 177.37 82.5896 178.05L84.2296 180C85.2296 181.27 86.3496 182.58 87.3396 183.85C88.0296 184.72 88.6696 185.57 89.3396 186.43C88.3396 185.6 86.3396 184.01 86.1696 183.9C83.3296 182.12 76.8196 180.35 73.9496 182.76C73.487 183.176 73.1172 183.685 72.864 184.254C72.6109 184.822 72.48 185.438 72.48 186.06C72.48 186.682 72.6109 187.298 72.864 187.866C73.1172 188.435 73.487 188.944 73.9496 189.36C75.8396 191.2 79.0896 191.36 81.5596 191.02C84.2796 190.6 89.1996 187.41 89.8196 187.02C90.8896 188.43 91.9096 189.82 92.8196 191.14C94.4396 193.39 95.8796 195.48 97.1396 197.36L99.3196 196.31C97.9496 194.36 96.3796 192.18 94.6096 189.83C93.5296 188.39 92.3396 186.83 91.1096 185.32C92.3832 183.927 93.5751 182.461 94.6796 180.93C97.3096 181.93 102.79 182.02 103.49 182.02C103.6 183.79 103.7 185.51 103.76 187.14C103.86 189.66 103.913 191.977 103.92 194.09L106.26 192.96C106.2 191.13 106.1 189.14 105.97 187.03C105.87 185.23 105.72 183.31 105.54 181.34C106.24 181.17 111.94 179.72 114.1 178C116.1 176.45 118.1 173.93 118.1 171.28C118.104 170.658 117.978 170.042 117.729 169.472C117.48 168.902 117.114 168.391 116.655 167.972C116.196 167.552 115.653 167.234 115.063 167.037C114.473 166.84 113.849 166.77 113.23 166.83C109.52 167.3 106.39 173.29 105.77 176.57C105.77 176.76 105.57 178.91 105.49 180.27C105.42 179.46 105.36 178.68 105.27 177.86C105.11 176.22 104.9 174.59 104.68 172.86C104.55 172.01 104.41 171.16 104.27 170.3C104.13 169.44 103.92 168.56 103.75 167.68C103.3 165.68 102.75 163.6 102.15 161.56C103.58 161.41 108.66 160.83 110.84 159.56C113.02 158.29 115.42 156.14 115.76 153.56C115.86 152.946 115.83 152.318 115.672 151.717C115.514 151.115 115.231 150.554 114.841 150.069C114.452 149.584 113.964 149.186 113.411 148.902C112.858 148.618 112.251 148.454 111.63 148.42C107.88 148.32 103.89 153.76 102.78 156.92C102.71 157.11 102.17 159.46 101.89 160.76C101.52 159.54 101.16 158.31 100.74 157.08C99.5496 153.54 98.2196 149.99 96.9196 146.44C96.5196 145.36 96.1296 144.27 95.7396 143.18C96.2496 143.18 102.31 142.57 104.74 141.18C106.9 139.94 109.32 137.75 109.66 135.13C109.759 134.516 109.727 133.887 109.568 133.286C109.409 132.684 109.124 132.123 108.734 131.638C108.344 131.154 107.856 130.756 107.302 130.473C106.748 130.189 106.141 130.024 105.52 129.99C101.78 129.89 97.7796 135.34 96.6696 138.49C96.5896 138.73 95.8096 142.11 95.6696 142.98C94.8096 140.59 93.9796 138.2 93.2496 135.8C92.2551 132.574 91.4701 129.287 90.8996 125.96C91.1396 125.96 97.4596 125.38 99.9596 123.96C102.12 122.72 104.54 120.54 104.88 117.96C104.979 117.346 104.947 116.718 104.788 116.117C104.628 115.516 104.344 114.956 103.954 114.472C103.563 113.988 103.075 113.592 102.521 113.309C101.968 113.026 101.361 112.863 100.74 112.83C96.9996 112.73 92.9996 118.17 91.8896 121.32C91.8196 121.53 91.2296 124.11 90.9796 125.32H90.6996C90.2086 121.903 90.0278 118.449 90.1596 115C90.1596 113.13 90.3496 111.35 90.5296 109.61C91.7196 109.61 97.1496 109.61 99.5296 108.61C101.91 107.61 104.46 105.71 105.08 103.15C105.247 102.551 105.286 101.923 105.194 101.307C105.103 100.692 104.884 100.102 104.55 99.5769C104.216 99.0517 103.775 98.6026 103.257 98.2586C102.738 97.9146 102.153 97.6834 101.54 97.5801C97.8296 97.0701 93.2596 102.04 91.8096 105.06C91.7296 105.22 91.1096 106.98 90.6796 108.26C90.7796 107.48 90.8596 106.67 90.9596 105.92C91.3496 103.12 91.8696 100.57 92.3596 98.3201C92.6396 97.0501 92.9296 95.9001 93.1996 94.8201C94.3796 94.2301 99.0796 91.8201 100.69 89.8201C102.3 87.8201 103.69 84.9701 103.1 82.4101C102.971 81.8036 102.717 81.2307 102.353 80.7286C101.989 80.2265 101.524 79.8064 100.988 79.4953C100.452 79.1843 99.8562 78.9893 99.2397 78.9229C98.6233 78.8566 97.9998 78.9203 97.4096 79.1101Z" fill="url(#paint0_linear_1_25667)"/>
<path d="M483.17 282.59C480.25 282.8 474.1 280.47 474.09 280.47C474.08 280.47 476.86 276.88 477.09 276.68C479.45 274.32 485.41 271.14 488.74 272.85C489.285 273.149 489.761 273.56 490.137 274.056C490.513 274.551 490.78 275.12 490.922 275.726C491.063 276.331 491.076 276.96 490.958 277.57C490.841 278.181 490.596 278.76 490.24 279.27C488.78 281.49 485.66 282.41 483.17 282.59Z" fill="#92B7E3"/>
<path d="M420 261.78C419.93 261.78 420.33 257.27 420.39 256.98C421.06 253.71 424.28 247.77 428 247.36C428.62 247.31 429.244 247.39 429.83 247.596C430.417 247.802 430.954 248.13 431.406 248.557C431.858 248.984 432.214 249.502 432.453 250.076C432.692 250.651 432.806 251.269 432.79 251.89C432.79 254.53 430.72 257.02 428.74 258.55C426.44 260.34 420 261.78 420 261.78Z" fill="#92B7E3"/>
<path d="M409.469 232.79C413.109 233.65 415.579 239.94 415.839 243.27C415.839 243.56 415.709 248.1 415.639 248.08H415.569C415.959 249.08 416.379 250.14 416.809 251.31C417.579 253.48 418.439 255.94 419.189 258.69C420.034 261.647 420.702 264.653 421.189 267.69C421.762 271.072 422.03 274.499 421.989 277.93C421.994 277.97 421.994 278.01 421.989 278.05C422.339 277.05 423.409 274.14 423.519 273.92C425.029 270.92 429.699 266.07 433.399 266.65C434.011 266.765 434.592 267.008 435.104 267.362C435.615 267.716 436.047 268.174 436.37 268.706C436.694 269.238 436.902 269.832 436.981 270.449C437.06 271.067 437.008 271.694 436.829 272.29C436.149 274.84 433.469 276.69 431.159 277.64C428.559 278.71 422.449 278.47 421.969 278.45C421.84 281.943 421.483 285.424 420.899 288.87C420.569 290.87 420.169 292.87 419.749 294.87C420.079 293.98 420.379 293.18 420.429 293.08C421.939 290.08 426.619 285.22 430.319 285.81C430.93 285.925 431.509 286.168 432.02 286.521C432.53 286.875 432.961 287.332 433.284 287.863C433.606 288.394 433.813 288.987 433.892 289.603C433.97 290.219 433.918 290.845 433.739 291.44C433.069 294 430.389 295.84 428.079 296.79C425.769 297.74 420.529 297.66 419.149 297.62C418.979 298.39 418.819 299.16 418.639 299.93C417.809 303.62 416.969 307.3 416.249 310.93C415.999 312.21 415.799 313.48 415.589 314.75C415.879 313.96 416.139 313.3 416.179 313.2C417.699 310.2 422.369 305.34 426.069 305.93C426.681 306.044 427.261 306.285 427.773 306.639C428.285 306.992 428.716 307.449 429.04 307.98C429.364 308.511 429.572 309.104 429.651 309.721C429.73 310.338 429.678 310.964 429.499 311.56C428.819 314.12 426.139 315.97 423.829 316.91C421.519 317.85 416.779 317.79 415.149 317.74C414.969 319.05 414.799 320.36 414.689 321.64C414.639 322.51 414.519 323.35 414.519 324.23C414.519 325.11 414.519 325.96 414.439 326.81C414.439 328.46 414.439 330.15 414.519 331.81C414.519 332.92 414.599 333.99 414.639 335.06C414.879 333.78 415.399 331.29 415.459 331.06C416.491 328.299 418.212 325.847 420.459 323.94C420.56 323.628 420.691 323.327 420.849 323.04C421.128 322.484 421.521 321.993 422.002 321.598C422.483 321.204 423.041 320.915 423.641 320.751C424.241 320.587 424.869 320.551 425.484 320.645C426.098 320.74 426.686 320.963 427.209 321.3C430.299 323.42 430.339 330.17 429.389 333.38C429.329 333.57 428.499 335.55 427.949 336.79C428.379 336.11 428.789 335.44 429.249 334.79C430.139 333.41 431.069 332.05 432.069 330.59L433.599 328.51C434.099 327.8 434.709 327.12 435.269 326.41C436.589 324.81 438.019 323.25 439.489 321.7C438.279 320.92 434.029 318.08 432.659 315.97C431.289 313.86 430.149 310.83 431.049 308.35C431.24 307.76 431.552 307.217 431.966 306.756C432.38 306.295 432.887 305.926 433.452 305.674C434.018 305.421 434.631 305.29 435.251 305.289C435.87 305.289 436.483 305.418 437.049 305.67C440.429 307.29 441.489 313.96 441.049 317.27C441.049 317.48 440.429 319.82 440.049 321.09C440.939 320.17 441.819 319.25 442.749 318.35C445.439 315.74 448.239 313.19 451.019 310.63C451.869 309.85 452.709 309.06 453.549 308.27C453.119 308 447.989 304.73 446.459 302.37C445.099 300.28 443.949 297.23 444.849 294.75C445.041 294.161 445.354 293.619 445.769 293.159C446.183 292.699 446.689 292.331 447.254 292.078C447.82 291.826 448.432 291.694 449.051 291.693C449.67 291.692 450.283 291.82 450.849 292.07C454.219 293.69 455.289 300.36 454.849 303.67C454.849 303.92 453.959 307.28 453.699 308.13C455.559 306.39 457.389 304.64 459.129 302.85C461.493 300.438 463.694 297.872 465.719 295.17C465.519 295.04 460.159 291.65 458.589 289.24C457.229 287.14 456.079 284.1 456.979 281.61C457.171 281.021 457.484 280.479 457.899 280.019C458.313 279.559 458.819 279.191 459.384 278.938C459.95 278.686 460.562 278.554 461.181 278.553C461.8 278.552 462.413 278.68 462.979 278.93C466.359 280.55 467.419 287.22 466.979 290.54C466.979 290.75 466.299 293.32 465.979 294.54L466.169 294.63C468.139 291.859 469.856 288.918 471.299 285.84C472.119 284.16 472.799 282.5 473.439 280.84C472.369 280.31 467.539 277.84 465.879 275.84C464.219 273.84 462.819 271.01 463.439 268.44C463.565 267.83 463.818 267.254 464.181 266.748C464.545 266.243 465.01 265.819 465.548 265.505C466.085 265.191 466.683 264.994 467.301 264.926C467.92 264.858 468.546 264.92 469.139 265.11C472.669 266.36 474.459 272.87 474.379 276.21C474.379 276.39 474.119 278.21 473.909 279.57C474.189 278.84 474.479 278.08 474.729 277.37C475.669 274.7 476.369 272.19 476.969 269.97C477.299 268.7 477.569 267.55 477.809 266.47C477.039 265.41 473.979 261.08 473.449 258.58C472.919 256.08 472.959 252.88 474.689 250.88C475.082 250.397 475.572 250.002 476.127 249.721C476.683 249.439 477.291 249.279 477.913 249.248C478.535 249.218 479.156 249.319 479.736 249.545C480.316 249.771 480.842 250.117 481.279 250.56C483.839 253.29 482.429 259.89 480.819 262.82C480.679 263.07 478.029 266.77 477.989 266.72V266.65C477.769 267.7 477.529 268.81 477.239 270.03C476.689 272.27 476.049 274.79 475.159 277.5C474.235 280.42 473.143 283.285 471.889 286.08C470.496 289.224 468.823 292.236 466.889 295.08C466.868 295.115 466.845 295.148 466.819 295.18C467.679 294.51 470.159 292.7 470.369 292.58C473.269 290.92 479.859 289.44 482.619 291.97C483.066 292.403 483.417 292.925 483.649 293.502C483.881 294.079 483.988 294.699 483.965 295.321C483.941 295.942 483.787 296.552 483.512 297.11C483.237 297.668 482.848 298.162 482.369 298.56C480.369 300.31 477.139 300.38 474.689 299.89C471.929 299.35 466.969 295.79 466.569 295.5C464.546 298.344 462.331 301.047 459.939 303.59C458.549 305.09 457.109 306.59 455.649 307.99C456.419 307.43 457.109 306.94 457.209 306.88C460.119 305.22 466.699 303.73 469.459 306.26C469.908 306.692 470.26 307.214 470.493 307.791C470.725 308.369 470.833 308.989 470.81 309.611C470.786 310.233 470.631 310.843 470.356 311.401C470.08 311.96 469.689 312.453 469.209 312.85C467.209 314.61 463.989 314.68 461.539 314.19C459.089 313.7 454.759 310.75 453.629 309.95C453.069 310.5 452.509 311.06 451.939 311.6C449.209 314.22 446.469 316.83 443.869 319.47C442.949 320.39 442.079 321.34 441.209 322.29C441.889 321.79 442.469 321.38 442.559 321.29C445.469 319.64 452.049 318.15 454.809 320.68C455.258 321.112 455.61 321.634 455.843 322.211C456.075 322.789 456.183 323.409 456.16 324.031C456.136 324.653 455.981 325.263 455.706 325.821C455.43 326.38 455.039 326.873 454.559 327.27C452.559 329.03 449.339 329.09 446.889 328.61C444.439 328.13 440.529 325.45 439.189 324.51C438.319 325.51 437.449 326.51 436.659 327.51C436.129 328.21 435.579 328.84 435.089 329.57L433.599 331.69C432.699 333.07 431.769 334.49 430.929 335.85C430.339 336.85 429.799 337.72 429.239 338.63C430.149 337.7 431.949 335.91 432.119 335.77C434.739 333.7 441.029 331.23 444.119 333.31C444.626 333.67 445.052 334.133 445.368 334.668C445.685 335.204 445.885 335.8 445.955 336.418C446.026 337.035 445.966 337.661 445.779 338.254C445.592 338.847 445.282 339.394 444.869 339.86C443.189 341.86 439.979 342.45 437.489 342.35C434.739 342.23 429.489 339.59 428.839 339.26C427.929 340.78 427.059 342.26 426.269 343.69C424.899 346.1 423.699 348.34 422.649 350.34L420.379 349.54C421.519 347.46 422.839 345.12 424.379 342.54C425.289 340.99 426.299 339.35 427.379 337.68C425.97 336.425 424.634 335.09 423.379 333.68C420.879 335 415.439 335.68 414.739 335.68C414.819 337.45 414.919 339.18 415.039 340.8C415.209 343.32 415.419 345.63 415.629 347.72L413.189 346.86C413.049 345.027 412.926 343.05 412.819 340.93C412.729 339.13 412.669 337.21 412.629 335.23C411.909 335.14 406.089 334.32 403.759 332.85C401.649 331.52 399.329 329.24 399.099 326.6C399.019 325.979 399.071 325.348 399.252 324.748C399.433 324.149 399.739 323.594 400.15 323.122C400.561 322.649 401.068 322.27 401.637 322.007C402.205 321.745 402.823 321.606 403.449 321.6C407.189 321.66 410.959 327.27 411.929 330.47C411.989 330.66 412.379 332.77 412.609 334.11C412.609 333.31 412.609 332.52 412.609 331.69C412.609 330.05 412.609 328.4 412.609 326.64C412.609 325.79 412.689 324.92 412.729 324.05C412.769 323.18 412.889 322.28 412.969 321.39C413.189 319.32 413.509 317.23 413.889 315.13C412.449 315.13 407.329 315.13 405.029 314.13C402.729 313.13 400.099 311.22 399.479 308.66C399.312 308.06 399.274 307.432 399.366 306.817C399.458 306.201 399.678 305.612 400.013 305.087C400.348 304.563 400.79 304.115 401.309 303.772C401.829 303.43 402.415 303.201 403.029 303.1C406.739 302.59 411.309 307.56 412.749 310.57C412.839 310.76 413.639 313.04 414.049 314.3C414.289 313.04 414.519 311.79 414.789 310.52C415.599 306.87 416.529 303.19 417.429 299.52C417.709 298.39 417.979 297.27 418.249 296.15C417.729 296.15 411.649 296.26 409.079 295.15C406.789 294.15 404.149 292.25 403.529 289.68C403.362 289.082 403.323 288.455 403.415 287.841C403.506 287.226 403.726 286.638 404.06 286.114C404.394 285.591 404.835 285.143 405.353 284.801C405.872 284.459 406.456 284.231 407.069 284.13C410.779 283.62 415.349 288.59 416.799 291.6C416.909 291.83 418.049 295.11 418.299 295.96C418.889 293.49 419.449 291.02 419.909 288.56C420.546 285.257 420.97 281.917 421.179 278.56C420.939 278.56 414.589 278.69 411.949 277.56C409.659 276.56 407.019 274.66 406.399 272.09C406.232 271.49 406.194 270.862 406.286 270.247C406.378 269.631 406.598 269.042 406.933 268.517C407.268 267.993 407.71 267.545 408.229 267.202C408.749 266.86 409.335 266.631 409.949 266.53C413.659 266.02 418.229 270.99 419.669 274C419.769 274.2 420.669 276.7 421.029 277.9H421.239C421.353 274.503 421.162 271.103 420.669 267.74C420.419 265.88 420.079 264.13 419.669 262.42C418.489 262.57 413.099 263.17 410.609 262.42C408.119 261.67 405.389 260.08 404.489 257.6C404.258 257.022 404.151 256.403 404.175 255.782C404.199 255.16 404.353 254.551 404.627 253.992C404.902 253.434 405.29 252.94 405.768 252.542C406.245 252.143 406.801 251.85 407.399 251.68C411.029 250.77 416.119 255.21 417.889 258.05C417.989 258.2 418.789 259.88 419.359 261.11C419.179 260.34 419.009 259.54 418.829 258.81C418.139 256.07 417.339 253.6 416.609 251.41C416.189 250.17 415.779 249.06 415.389 248.03C414.149 247.57 409.209 245.65 407.389 243.85C405.569 242.05 403.839 239.37 404.189 236.74C404.245 236.12 404.43 235.519 404.733 234.976C405.036 234.433 405.45 233.96 405.948 233.587C406.446 233.214 407.017 232.951 407.624 232.813C408.231 232.676 408.859 232.668 409.469 232.79Z" fill="url(#paint1_linear_1_25667)"/>
<path d="M458.86 418.42C457.26 419.22 453.25 419.33 453.25 419.33C453.25 419.33 453.97 416.66 454.04 416.5C454.83 414.62 457.46 411.44 459.73 411.63C460.108 411.67 460.473 411.79 460.802 411.981C461.13 412.172 461.415 412.431 461.637 412.739C461.859 413.048 462.013 413.4 462.089 413.772C462.165 414.145 462.162 414.529 462.08 414.9C461.78 416.49 460.23 417.74 458.86 418.42Z" fill="#92B7E3"/>
<path d="M418.36 421.36C418.36 421.36 417.5 418.73 417.46 418.56C417.08 416.56 417.52 412.45 419.52 411.35C419.858 411.176 420.23 411.076 420.61 411.056C420.99 411.035 421.37 411.096 421.725 411.233C422.08 411.369 422.402 411.58 422.67 411.85C422.938 412.12 423.146 412.444 423.28 412.8C423.91 414.28 423.28 416.18 422.54 417.5C421.65 419.05 418.36 421.36 418.36 421.36Z" fill="#92E3A9"/>
<path d="M431.241 464.59C431.731 465.7 432.241 466.77 432.681 467.76C433.121 468.75 433.461 469.4 433.831 470.15H435.421C434.941 469.23 434.421 468.24 433.901 467.15C433.461 466.26 433.001 465.31 432.541 464.33C434.147 463.482 435.628 462.415 436.941 461.16C437.979 461.663 439.048 462.101 440.141 462.47C439.941 463.66 439.751 464.82 439.591 465.91C439.371 467.44 439.191 468.85 439.041 470.13H440.491C440.611 468.9 440.751 467.55 440.931 466.13C441.051 465.13 441.201 464.13 441.361 463.03C441.801 463.03 445.361 463.34 446.961 462.76C448.561 462.18 450.071 461.18 450.551 459.64C450.676 459.281 450.724 458.9 450.691 458.522C450.659 458.143 450.547 457.776 450.363 457.444C450.179 457.112 449.927 456.822 449.623 456.594C449.319 456.366 448.971 456.204 448.601 456.12C446.361 455.67 443.381 458.52 442.391 460.3C442.321 460.42 441.721 461.85 441.391 462.59C441.481 461.94 441.581 461.3 441.691 460.59C441.851 459.59 442.051 458.59 442.231 457.59C442.341 457.08 442.461 456.59 442.581 456.05C442.701 455.51 442.851 455.05 442.981 454.52C443.201 453.77 443.461 453 443.721 452.24C445.45 452.689 447.238 452.864 449.021 452.76C450.511 452.47 452.341 451.67 453.021 450.22C453.198 449.884 453.303 449.514 453.328 449.135C453.353 448.757 453.298 448.377 453.167 448.02C453.036 447.664 452.832 447.339 452.567 447.067C452.302 446.794 451.983 446.581 451.631 446.44C449.481 445.66 446.111 448.03 444.851 449.64C444.851 449.69 444.581 450.06 444.311 450.5C444.591 449.76 444.861 449.02 445.161 448.28C446.021 446.19 446.951 444.08 447.891 441.97L448.461 440.64C449.281 440.83 452.391 441.5 453.911 441.2C455.431 440.9 457.231 440.11 457.911 438.65C458.088 438.314 458.193 437.944 458.218 437.565C458.243 437.187 458.188 436.807 458.057 436.45C457.926 436.094 457.722 435.769 457.457 435.497C457.192 435.224 456.873 435.011 456.521 434.87C454.371 434.09 451.001 436.46 449.741 438.07C449.741 438.13 449.421 438.57 449.121 439.07C449.611 437.92 450.121 436.76 450.521 435.59C451.277 433.597 451.899 431.556 452.381 429.48C452.671 429.55 456.301 430.4 457.991 430.07C459.491 429.77 461.311 428.98 461.991 427.53C462.168 427.193 462.272 426.823 462.296 426.444C462.321 426.064 462.265 425.684 462.133 425.328C462.001 424.971 461.796 424.646 461.53 424.374C461.264 424.103 460.944 423.89 460.591 423.75C458.451 422.96 455.071 425.34 453.821 426.95C453.731 427.06 452.751 428.66 452.421 429.24C452.417 429.216 452.417 429.193 452.421 429.17C452.84 427.118 453.08 425.033 453.141 422.94C453.2 421.068 453.15 419.195 452.991 417.33C452.861 415.6 452.641 414.02 452.431 412.63C452.311 411.88 452.181 411.19 452.061 410.55C452.061 410.55 452.731 407.87 452.751 407.69C452.981 405.69 452.241 401.61 450.161 400.69C449.811 400.542 449.434 400.469 449.054 400.477C448.674 400.485 448.3 400.573 447.956 400.735C447.613 400.898 447.307 401.131 447.06 401.419C446.812 401.708 446.629 402.045 446.521 402.41C446.001 403.94 446.741 405.78 447.601 407.04C448.461 408.3 451.221 410.04 451.901 410.49C452.021 411.15 452.131 411.87 452.241 412.66C452.421 414.05 452.611 415.66 452.701 417.36C452.701 417.82 452.701 418.31 452.751 418.79C452.551 417.99 452.271 416.89 452.231 416.79C451.501 414.88 448.971 411.62 446.691 411.74C446.312 411.769 445.944 411.879 445.611 412.06C445.277 412.242 444.986 412.492 444.756 412.794C444.525 413.096 444.361 413.443 444.274 413.813C444.187 414.183 444.179 414.567 444.251 414.94C444.491 416.54 446.001 417.83 447.351 418.56C448.701 419.29 452.061 419.56 452.781 419.63C452.781 420.7 452.781 421.79 452.731 422.93C452.626 425.004 452.341 427.065 451.881 429.09H451.751C451.661 428.33 451.431 426.73 451.391 426.6C450.881 424.6 448.721 421.1 446.441 420.97C446.061 420.96 445.684 421.03 445.333 421.176C444.982 421.321 444.665 421.538 444.403 421.813C444.142 422.088 443.94 422.415 443.812 422.773C443.684 423.13 443.633 423.511 443.661 423.89C443.731 425.5 445.091 426.95 446.351 427.82C447.801 428.82 451.611 429.48 451.761 429.51C451.24 431.506 450.592 433.466 449.821 435.38C449.261 436.8 448.631 438.21 447.981 439.62C447.981 439.09 447.631 436.99 447.601 436.84C447.081 434.84 444.931 431.34 442.601 431.21C442.222 431.2 441.845 431.27 441.494 431.416C441.144 431.561 440.828 431.778 440.567 432.054C440.306 432.329 440.105 432.656 439.978 433.014C439.852 433.371 439.801 433.751 439.831 434.13C439.901 435.74 441.261 437.19 442.511 438.06C443.921 439.06 447.581 439.69 447.891 439.74C447.591 440.38 447.301 441.02 447.001 441.67C446.001 443.76 445.001 445.85 444.131 447.95C443.811 448.67 443.531 449.4 443.241 450.13C443.141 449.32 442.931 447.86 442.901 447.74C442.391 445.74 440.231 442.24 437.951 442.11C437.571 442.1 437.194 442.17 436.843 442.316C436.492 442.461 436.175 442.678 435.914 442.953C435.652 443.228 435.45 443.555 435.322 443.913C435.194 444.27 435.143 444.651 435.171 445.03C435.241 446.64 436.601 448.09 437.861 448.96C439.121 449.83 442.181 450.45 443.051 450.61C442.571 451.82 442.131 453.03 441.761 454.25C441.611 454.78 441.421 455.31 441.301 455.82C441.181 456.33 441.051 456.82 440.921 457.35C440.701 458.41 440.491 459.35 440.311 460.35C440.211 460.85 440.141 461.35 440.051 461.81C440.051 460.98 440.051 459.66 440.051 459.54C439.841 457.54 438.241 453.71 436.051 453.23C435.677 453.161 435.293 453.172 434.924 453.262C434.555 453.351 434.209 453.517 433.908 453.749C433.607 453.981 433.359 454.274 433.178 454.608C432.998 454.942 432.89 455.311 432.861 455.69C432.846 455.889 432.846 456.09 432.861 456.29C432.042 457.89 431.646 459.673 431.711 461.47C431.711 461.6 432.011 463.13 432.181 463.9C431.901 463.31 431.631 462.72 431.351 462.1C430.941 461.2 430.551 460.25 430.161 459.32L429.591 457.84C429.391 457.35 429.261 456.84 429.091 456.34C428.861 455.6 428.651 454.82 428.441 454.04C430.13 453.458 431.719 452.618 433.151 451.55C434.241 450.48 435.321 448.81 435.151 447.21C435.114 446.831 434.998 446.464 434.81 446.133C434.621 445.802 434.366 445.515 434.059 445.289C433.753 445.064 433.402 444.906 433.03 444.825C432.658 444.744 432.273 444.742 431.901 444.82C429.681 445.35 428.171 449.19 428.011 451.23C428.011 451.3 428.011 451.73 428.011 452.23C427.831 451.47 427.651 450.7 427.491 449.92C427.051 447.7 426.671 445.43 426.281 443.15C426.201 442.67 426.111 442.2 426.031 441.72C426.821 441.43 429.781 440.27 430.881 439.18C431.981 438.09 433.051 436.44 432.831 434.84C432.794 434.462 432.678 434.097 432.49 433.767C432.303 433.437 432.048 433.151 431.742 432.926C431.436 432.702 431.087 432.544 430.716 432.464C430.346 432.383 429.962 432.382 429.591 432.46C427.361 432.99 425.861 436.83 425.701 438.86C425.701 438.94 425.701 439.45 425.701 440.03C425.471 438.8 425.221 437.57 424.941 436.36C424.473 434.278 423.865 432.23 423.121 430.23C423.401 430.13 426.901 428.84 428.121 427.63C429.341 426.42 430.281 424.89 430.071 423.29C430.021 422.937 429.901 422.598 429.72 422.292C429.538 421.986 429.298 421.719 429.012 421.506C428.727 421.293 428.402 421.139 428.057 421.052C427.712 420.965 427.353 420.947 427.001 421C424.781 421.53 423.281 425.37 423.121 427.4C423.121 427.55 423.171 429.4 423.221 430.09V430.02C422.446 428.073 421.498 426.199 420.391 424.42C419.405 422.83 418.33 421.298 417.171 419.83C416.101 418.45 415.051 417.26 414.101 416.22C413.591 415.65 413.101 415.15 412.651 414.68H412.701C412.701 414.68 411.781 412.07 411.701 411.92C410.771 410.1 407.921 407.12 405.701 407.48C405.327 407.549 404.973 407.696 404.66 407.912C404.347 408.128 404.084 408.408 403.887 408.732C403.689 409.057 403.563 409.42 403.515 409.796C403.468 410.173 403.5 410.556 403.611 410.92C404.021 412.48 405.661 413.61 407.071 414.19C408.481 414.77 411.751 414.71 412.561 414.69C413.021 415.18 413.561 415.69 414.031 416.31C414.951 417.38 415.981 418.59 417.031 419.98C417.301 420.35 417.581 420.76 417.861 421.15C417.261 420.59 416.411 419.83 416.321 419.76C414.661 418.57 410.761 417.25 408.921 418.61C408.624 418.843 408.379 419.137 408.203 419.471C408.026 419.805 407.922 420.173 407.897 420.55C407.871 420.927 407.925 421.305 408.055 421.66C408.185 422.014 408.388 422.338 408.651 422.61C409.731 423.8 411.711 424.05 413.231 423.91C414.751 423.77 417.721 422.17 418.351 421.81C418.961 422.69 419.561 423.6 420.131 424.59C421.191 426.375 422.088 428.253 422.811 430.2L422.701 430.26C422.201 429.68 421.131 428.47 421.031 428.38C419.511 427.01 415.781 425.27 413.801 426.38C413.472 426.579 413.189 426.846 412.971 427.163C412.753 427.48 412.606 427.84 412.539 428.219C412.472 428.597 412.486 428.986 412.581 429.359C412.677 429.731 412.85 430.08 413.091 430.38C414.091 431.69 415.971 432.15 417.501 432.18C419.251 432.18 422.811 430.66 422.941 430.6C423.614 432.561 424.155 434.566 424.561 436.6C424.881 438.09 425.131 439.6 425.371 441.16C425.031 440.73 423.631 439.16 423.511 439.04C421.991 437.68 418.261 435.93 416.281 437.04C415.953 437.24 415.671 437.507 415.455 437.824C415.238 438.142 415.091 438.501 415.024 438.879C414.957 439.258 414.971 439.646 415.065 440.018C415.159 440.391 415.332 440.739 415.571 441.04C416.521 442.34 418.451 442.81 419.981 442.83C421.691 442.83 425.111 441.4 425.391 441.27L425.721 443.36C426.061 445.65 426.391 447.94 426.781 450.19C426.921 450.97 427.091 451.73 427.251 452.5C426.721 451.88 425.741 450.78 425.651 450.69C424.131 449.33 420.391 447.58 418.411 448.69C418.083 448.89 417.801 449.157 417.585 449.474C417.368 449.792 417.221 450.151 417.154 450.53C417.087 450.908 417.101 451.296 417.195 451.668C417.289 452.041 417.462 452.389 417.701 452.69C418.651 453.99 420.591 454.45 422.111 454.48C423.631 454.51 426.541 453.34 427.351 453C427.621 454.27 427.931 455.52 428.281 456.74C428.451 457.27 428.581 457.81 428.771 458.31C428.961 458.81 429.131 459.31 429.301 459.79C429.701 460.79 430.061 461.73 430.461 462.66C430.651 463.12 430.851 463.56 431.041 464.02C430.601 463.31 429.891 462.21 429.811 462.11C428.521 460.54 425.091 458.24 422.961 459.11C422.611 459.258 422.296 459.478 422.038 459.756C421.779 460.035 421.581 460.364 421.459 460.724C421.336 461.083 421.291 461.465 421.325 461.843C421.36 462.222 421.475 462.588 421.661 462.92C422.401 464.36 424.241 465.11 425.741 465.37C427.341 465.59 430.821 464.7 431.241 464.59Z" fill="url(#paint2_linear_1_25667)"/>
<path d="M427.48 38.9502H103.15V423.07H427.48V38.9502Z" fill="#263238" stroke="#263238" stroke-miterlimit="10"/>
<path d="M396.05 43.3903C396.05 43.9065 395.897 44.4111 395.61 44.8403C395.323 45.2695 394.916 45.6041 394.439 45.8016C393.962 45.9991 393.437 46.0508 392.931 45.9501C392.425 45.8494 391.96 45.6008 391.595 45.2358C391.23 44.8708 390.981 44.4058 390.88 43.8995C390.78 43.3932 390.831 42.8684 391.029 42.3915C391.226 41.9146 391.561 41.5069 391.99 41.2201C392.419 40.9333 392.924 40.7803 393.44 40.7803C394.132 40.7803 394.796 41.0553 395.286 41.5447C395.775 42.0342 396.05 42.6981 396.05 43.3903Z" fill="#92E3A9" stroke="#263238" stroke-miterlimit="10"/>
<path d="M405.841 43.3903C405.841 43.9065 405.688 44.4111 405.401 44.8403C405.114 45.2695 404.707 45.6041 404.23 45.8016C403.753 45.9991 403.228 46.0508 402.722 45.9501C402.216 45.8494 401.751 45.6008 401.386 45.2358C401.021 44.8708 400.772 44.4058 400.671 43.8995C400.571 43.3932 400.622 42.8684 400.82 42.3915C401.017 41.9146 401.352 41.5069 401.781 41.2201C402.21 40.9333 402.715 40.7803 403.231 40.7803C403.923 40.7803 404.587 41.0553 405.077 41.5447C405.566 42.0342 405.841 42.6981 405.841 43.3903Z" fill="#92E3A9" stroke="#263238" stroke-miterlimit="10"/>
<path d="M415.63 43.3904C415.63 43.9057 415.478 44.4095 415.192 44.8383C414.906 45.2671 414.499 45.6016 414.024 45.7997C413.548 45.9978 413.024 46.0507 412.518 45.9516C412.013 45.8525 411.547 45.6059 411.182 45.2429C410.816 44.8798 410.566 44.4167 410.463 43.9117C410.36 43.4067 410.409 42.8826 410.603 42.4053C410.798 41.9281 411.129 41.5191 411.556 41.2299C411.982 40.9407 412.485 40.7843 413 40.7804C413.345 40.7777 413.686 40.8433 414.005 40.9733C414.324 41.1032 414.614 41.2951 414.859 41.5377C415.103 41.7803 415.297 42.0689 415.43 42.3869C415.562 42.7049 415.63 43.0459 415.63 43.3904Z" fill="#92E3A9" stroke="#263238" stroke-miterlimit="10"/>
<path d="M427.48 47.4307H103.15V431.551H427.48V47.4307Z" fill="url(#paint3_linear_1_25667)" stroke="#263238" stroke-miterlimit="10"/>
<path d="M193.7 69.5V62.5C193.7 60.7222 192.995 59.017 191.739 57.7589C190.482 56.5008 188.778 55.7927 187 55.79H118.38C116.601 55.79 114.894 56.497 113.636 57.7554C112.377 59.0137 111.67 60.7204 111.67 62.5V69.5H103.15V431.55H427.48V69.5H193.7Z" fill="#263238" stroke="#263238" stroke-miterlimit="10"/>
<path d="M281 69.5V62.5C281 60.7204 280.293 59.0137 279.035 57.7554C277.777 56.497 276.07 55.79 274.29 55.79H205.67C203.899 55.8032 202.204 56.5157 200.954 57.7723C199.705 59.029 199.003 60.7281 199 62.5V69.5H103.15V431.55H427.48V69.5H281Z" fill="#263238" stroke="#263238" stroke-miterlimit="10"/>
<path d="M374.66 69.5V62.5C374.66 60.7291 373.96 59.0299 372.713 57.7729C371.465 56.516 369.771 55.8032 368 55.79H299.34C297.56 55.79 295.852 56.4967 294.592 57.7547C293.332 59.0128 292.623 60.7195 292.62 62.5V69.5H103.15V431.55H427.48V69.5H374.66Z" fill="white" stroke="#263238" stroke-miterlimit="10"/>
<path d="M299.579 259.47H201.189V326.71H299.579V259.47Z" stroke="#263238" stroke-miterlimit="10"/>
<path d="M420.21 136.09H110.77V235.97H420.21V136.09Z" fill="url(#paint4_linear_1_25667)"/>
<path d="M190.09 244.78H110.77V413.21H190.09V244.78Z" fill="url(#paint5_linear_1_25667)"/>
<path d="M414.71 235.97H313.4V123.61L414.71 155.97V235.97Z" fill="white" stroke="#263238" stroke-miterlimit="10"/>
<path d="M414.71 235.971H313.4V215.681L414.71 221.531V235.971Z" fill="white" stroke="#263238" stroke-miterlimit="10"/>
<path d="M335.59 146.841L320.01 142.631V135.601L335.59 140.131V146.841Z" fill="#263238" stroke="#263238" stroke-miterlimit="10"/>
<path d="M338.27 152.381L317.02 146.941V139.851L338.27 145.721V152.381Z" fill="white" stroke="#263238" stroke-miterlimit="10"/>
<path d="M358.551 153.05L345.111 149.42V142.9L358.551 146.81V153.05Z" fill="#263238" stroke="#263238" stroke-miterlimit="10"/>
<path d="M360.871 158.16L342.541 153.47V146.9L360.871 151.96V158.16Z" fill="white" stroke="#263238" stroke-miterlimit="10"/>
<path d="M378.521 158.45L366.811 155.29V149.21L378.521 152.61V158.45Z" fill="#263238" stroke="#263238" stroke-miterlimit="10"/>
<path d="M380.55 163.19L364.57 159.1V152.98L380.55 157.39V163.19Z" fill="white" stroke="#263238" stroke-miterlimit="10"/>
<path d="M396.04 163.19L385.75 160.41V154.72L396.04 157.71V163.19Z" fill="#263238" stroke="#263238" stroke-miterlimit="10"/>
<path d="M397.831 167.61L383.791 164.02V158.29L397.831 162.16V167.61Z" fill="white" stroke="#263238" stroke-miterlimit="10"/>
<path d="M411.55 167.39L402.42 164.92V159.57L411.55 162.22V167.39Z" fill="#263238" stroke="#263238" stroke-miterlimit="10"/>
<path d="M413.139 171.52L400.689 168.34V162.95L413.139 166.39V171.52Z" fill="white" stroke="#263238" stroke-miterlimit="10"/>
<path d="M335.59 166.24L320.01 162.94V155.91L335.59 159.53V166.24Z" fill="#263238" stroke="#263238" stroke-miterlimit="10"/>
<path d="M338.27 171.62L317.02 167.43V160.34L338.27 164.96V171.62Z" fill="white" stroke="#263238" stroke-miterlimit="10"/>
<path d="M358.551 171.1L345.111 168.25V161.73L358.551 164.85V171.1Z" fill="#263238" stroke="#263238" stroke-miterlimit="10"/>
<path d="M360.871 176.06L342.541 172.46V165.88L360.871 169.87V176.06Z" fill="white" stroke="#263238" stroke-miterlimit="10"/>
<path d="M378.521 175.321L366.811 172.84V166.771L378.521 169.48V175.321Z" fill="#263238" stroke="#263238" stroke-miterlimit="10"/>
<path d="M380.55 179.94L364.57 176.79V170.67L380.55 174.14V179.94Z" fill="white" stroke="#263238" stroke-miterlimit="10"/>
<path d="M396.04 179.03L385.75 176.85V171.16L396.04 173.55V179.03Z" fill="#263238" stroke="#263238" stroke-miterlimit="10"/>
<path d="M397.831 183.34L383.791 180.58V174.84L397.831 177.9V183.34Z" fill="white" stroke="#263238" stroke-miterlimit="10"/>
<path d="M411.55 182.31L402.42 180.38V175.03L411.55 177.14V182.31Z" fill="#263238" stroke="#263238" stroke-miterlimit="10"/>
<path d="M413.139 186.351L400.689 183.9V178.521L413.139 181.221V186.351Z" fill="white" stroke="#263238" stroke-miterlimit="10"/>
<path d="M335.59 185.63L320.01 183.25V176.22L335.59 178.92V185.63Z" fill="#263238" stroke="#263238" stroke-miterlimit="10"/>
<path d="M338.27 190.85L317.02 187.92V180.83L338.27 184.19V190.85Z" fill="white" stroke="#263238" stroke-miterlimit="10"/>
<path d="M358.551 189.14L345.111 187.09V180.57L358.551 182.89V189.14Z" fill="#263238" stroke="#263238" stroke-miterlimit="10"/>
<path d="M360.871 193.97L342.541 191.44V184.87L360.871 187.77V193.97Z" fill="white" stroke="#263238" stroke-miterlimit="10"/>
<path d="M378.521 192.19L366.811 190.4V184.32L378.521 186.35V192.19Z" fill="#263238" stroke="#263238" stroke-miterlimit="10"/>
<path d="M380.55 196.69L364.57 194.48V188.36L380.55 190.89V196.69Z" fill="white" stroke="#263238" stroke-miterlimit="10"/>
<path d="M396.04 194.871L385.75 193.291V187.601L396.04 189.381V194.871Z" fill="#263238" stroke="#263238" stroke-miterlimit="10"/>
<path d="M397.831 199.07L383.791 197.13V191.4L397.831 193.63V199.07Z" fill="white" stroke="#263238" stroke-miterlimit="10"/>
<path d="M411.55 197.24L402.42 195.84V190.49L411.55 192.07V197.24Z" fill="#263238" stroke="#263238" stroke-miterlimit="10"/>
<path d="M413.139 201.19L400.689 199.47V194.08L413.139 196.05V201.19Z" fill="white" stroke="#263238" stroke-miterlimit="10"/>
<path d="M335.59 205.03L320.01 203.56V196.53L335.59 198.31V205.03Z" fill="#263238" stroke="#263238" stroke-miterlimit="10"/>
<path d="M338.27 210.091L317.02 208.411V201.311L338.27 203.431V210.091Z" fill="white" stroke="#263238" stroke-miterlimit="10"/>
<path d="M358.551 207.18L345.111 205.92V199.4L358.551 200.94V207.18Z" fill="#263238" stroke="#263238" stroke-miterlimit="10"/>
<path d="M360.871 211.881L342.541 210.431V203.851L360.871 205.681V211.881Z" fill="white" stroke="#263238" stroke-miterlimit="10"/>
<path d="M378.521 209.06L366.811 207.96V201.88L378.521 203.22V209.06Z" fill="#263238" stroke="#263238" stroke-miterlimit="10"/>
<path d="M380.55 213.44L364.57 212.17V206.05L380.55 207.64V213.44Z" fill="white" stroke="#263238" stroke-miterlimit="10"/>
<path d="M396.04 210.7L385.75 209.74V204.04L396.04 205.22V210.7Z" fill="#263238" stroke="#263238" stroke-miterlimit="10"/>
<path d="M397.831 214.8L383.791 213.69V207.96L397.831 209.36V214.8Z" fill="white" stroke="#263238" stroke-miterlimit="10"/>
<path d="M411.55 212.16L402.42 211.3V205.95L411.55 206.99V212.16Z" fill="#263238" stroke="#263238" stroke-miterlimit="10"/>
<path d="M413.139 216.021L400.689 215.031V209.641L413.139 210.881V216.021Z" fill="white" stroke="#263238" stroke-miterlimit="10"/>
<path d="M291.08 130.8H265.26V235.93H291.08V130.8Z" fill="#263238" stroke="#263238" stroke-miterlimit="10"/>
<path d="M314.211 124.141H288.391V235.931H314.211V124.141Z" fill="#263238" stroke="#263238" stroke-miterlimit="10"/>
<path d="M265.26 235.82L161.16 235.97V151.7L265.26 130.8V235.82Z" fill="white" stroke="#263238" stroke-miterlimit="10"/>
<path d="M265.26 235.82L161.16 235.97V220.75L265.26 216.86V235.82Z" fill="white" stroke="#263238" stroke-miterlimit="10"/>
<path d="M175.53 162.18L165.15 163.94V158.52L175.53 156.62V162.18Z" fill="#263238" stroke="#263238" stroke-miterlimit="10"/>
<path d="M177.471 165.88L163.311 168.16V162.76L177.471 160.3V165.88Z" fill="white" stroke="#263238" stroke-miterlimit="10"/>
<path d="M193.92 159.05L182.66 160.97V155.32L193.92 153.26V159.05Z" fill="#263238" stroke="#263238" stroke-miterlimit="10"/>
<path d="M196.03 162.89L180.67 165.37V159.74L196.03 157.07V162.89Z" fill="white" stroke="#263238" stroke-miterlimit="10"/>
<path d="M213.92 155.651L201.66 157.731V151.841L213.92 149.601V155.651Z" fill="#263238" stroke="#263238" stroke-miterlimit="10"/>
<path d="M216.22 159.64L199.5 162.33V156.47L216.22 153.57V159.64Z" fill="white" stroke="#263238" stroke-miterlimit="10"/>
<path d="M235.761 151.931L222.361 154.211V148.061L235.761 145.601V151.931Z" fill="#263238" stroke="#263238" stroke-miterlimit="10"/>
<path d="M238.28 156.09L220 159.03V152.91L238.28 149.73V156.09Z" fill="white" stroke="#263238" stroke-miterlimit="10"/>
<path d="M259.7 147.85L245 150.35V143.91L259.7 141.23V147.85Z" fill="#263238" stroke="#263238" stroke-miterlimit="10"/>
<path d="M262.47 152.19L242.42 155.42V149.01L262.47 145.53V152.19Z" fill="white" stroke="#263238" stroke-miterlimit="10"/>
<path d="M175.53 178.231L165.15 179.621V174.191L175.53 172.681V178.231Z" fill="#263238" stroke="#263238" stroke-miterlimit="10"/>
<path d="M177.471 182L163.311 183.76V178.36L177.471 176.42V182Z" fill="white" stroke="#263238" stroke-miterlimit="10"/>
<path d="M193.92 175.78L182.66 177.28V171.63L193.92 169.99V175.78Z" fill="#263238" stroke="#263238" stroke-miterlimit="10"/>
<path d="M196.03 179.7L180.67 181.61V175.98L196.03 173.88V179.7Z" fill="white" stroke="#263238" stroke-miterlimit="10"/>
<path d="M213.92 173.111L201.66 174.741V168.851L213.92 167.061V173.111Z" fill="#263238" stroke="#263238" stroke-miterlimit="10"/>
<path d="M216.22 177.19L199.5 179.27V173.4L216.22 171.11V177.19Z" fill="white" stroke="#263238" stroke-miterlimit="10"/>
<path d="M235.761 170.19L222.361 171.98V165.83L235.761 163.87V170.19Z" fill="#263238" stroke="#263238" stroke-miterlimit="10"/>
<path d="M238.28 174.45L220 176.72V170.59L238.28 168.09V174.45Z" fill="white" stroke="#263238" stroke-miterlimit="10"/>
<path d="M259.7 167L245 168.96V162.52L259.7 160.37V167Z" fill="#263238" stroke="#263238" stroke-miterlimit="10"/>
<path d="M262.47 171.44L242.42 173.93V167.52L262.47 164.78V171.44Z" fill="white" stroke="#263238" stroke-miterlimit="10"/>
<path d="M175.53 194.28L165.15 195.29V189.86L175.53 188.73V194.28Z" fill="#263238" stroke="#263238" stroke-miterlimit="10"/>
<path d="M177.471 198.13L163.311 199.37V193.97L177.471 192.55V198.13Z" fill="white" stroke="#263238" stroke-miterlimit="10"/>
<path d="M193.92 192.5L182.66 193.59V187.95L193.92 186.72V192.5Z" fill="#263238" stroke="#263238" stroke-miterlimit="10"/>
<path d="M196.03 196.5L180.67 197.85V192.23L196.03 190.69V196.5Z" fill="white" stroke="#263238" stroke-miterlimit="10"/>
<path d="M213.92 190.57L201.66 191.76V185.87L213.92 184.53V190.57Z" fill="#263238" stroke="#263238" stroke-miterlimit="10"/>
<path d="M216.22 194.73L199.5 196.2V190.34L216.22 188.66V194.73Z" fill="white" stroke="#263238" stroke-miterlimit="10"/>
<path d="M235.761 188.46L222.361 189.75V183.6L235.761 182.13V188.46Z" fill="#263238" stroke="#263238" stroke-miterlimit="10"/>
<path d="M238.28 192.8L220 194.4V188.28L238.28 186.45V192.8Z" fill="white" stroke="#263238" stroke-miterlimit="10"/>
<path d="M259.7 186.14L245 187.56V181.12L259.7 179.51V186.14Z" fill="#263238" stroke="#263238" stroke-miterlimit="10"/>
<path d="M262.47 190.691L242.42 192.441V186.031L262.47 184.021V190.691Z" fill="white" stroke="#263238" stroke-miterlimit="10"/>
<path d="M175.53 210.34L165.15 210.96V205.54L175.53 204.78V210.34Z" fill="#263238" stroke="#263238" stroke-miterlimit="10"/>
<path d="M177.471 214.25L163.311 214.97V209.57L177.471 208.67V214.25Z" fill="white" stroke="#263238" stroke-miterlimit="10"/>
<path d="M193.92 209.23L182.66 209.91V204.26L193.92 203.44V209.23Z" fill="#263238" stroke="#263238" stroke-miterlimit="10"/>
<path d="M196.03 213.31L180.67 214.09V208.47L196.03 207.49V213.31Z" fill="white" stroke="#263238" stroke-miterlimit="10"/>
<path d="M213.92 208.03L201.66 208.77V202.88L213.92 201.99V208.03Z" fill="#263238" stroke="#263238" stroke-miterlimit="10"/>
<path d="M216.22 212.28L199.5 213.13V207.27L216.22 206.21V212.28Z" fill="white" stroke="#263238" stroke-miterlimit="10"/>
<path d="M235.761 206.72L222.361 207.53V201.37L235.761 200.4V206.72Z" fill="#263238" stroke="#263238" stroke-miterlimit="10"/>
<path d="M238.28 211.161L220 212.091V205.971L238.28 204.811V211.161Z" fill="white" stroke="#263238" stroke-miterlimit="10"/>
<path d="M259.7 205.28L245 206.17V199.73L259.7 198.66V205.28Z" fill="#263238" stroke="#263238" stroke-miterlimit="10"/>
<path d="M262.47 209.93L242.42 210.951V204.54L262.47 203.271V209.93Z" fill="white" stroke="#263238" stroke-miterlimit="10"/>
<path d="M310.811 235.97H276.111L303.871 114.96L310.811 122.34V235.97Z" fill="white" stroke="#263238" stroke-miterlimit="10"/>
<path d="M303.87 235.97H269.18V122.41L303.87 114.96V235.97Z" fill="white" stroke="#263238" stroke-miterlimit="10"/>
<path d="M319.301 254.45C316.98 254.45 314.755 255.372 313.114 257.013C311.473 258.654 310.551 260.88 310.551 263.2C310.551 268.04 319.301 277.92 319.301 277.92C319.301 277.92 328.061 268.04 328.061 263.2C328.058 260.879 327.134 258.653 325.492 257.012C323.849 255.372 321.622 254.45 319.301 254.45ZM319.301 266.37C318.707 266.37 318.127 266.194 317.634 265.865C317.141 265.535 316.756 265.066 316.529 264.518C316.302 263.97 316.243 263.367 316.358 262.785C316.474 262.203 316.76 261.668 317.179 261.249C317.599 260.829 318.134 260.544 318.716 260.428C319.297 260.312 319.901 260.371 320.449 260.599C320.997 260.826 321.466 261.21 321.795 261.703C322.125 262.197 322.301 262.777 322.301 263.37C322.301 264.166 321.985 264.929 321.422 265.492C320.86 266.054 320.096 266.37 319.301 266.37Z" fill="#263238"/>
<path d="M354.17 265.19C353.57 264.78 344.71 259.37 344.17 258.97L344.36 258.76L346.36 256.7C346.427 256.612 346.521 256.549 346.627 256.52C346.734 256.491 346.848 256.498 346.95 256.54L350.05 257.54L354.73 259.08L358.21 260.25L358.72 260.39C358.84 260.27 358.96 260.17 359.06 260.06L363.55 255.39C363.898 255.001 364.354 254.723 364.86 254.59C365.324 254.485 365.81 254.524 366.252 254.703C366.693 254.881 367.07 255.191 367.33 255.59C367.593 255.991 367.721 256.465 367.696 256.943C367.67 257.422 367.493 257.88 367.19 258.25C366.837 258.653 366.463 259.037 366.07 259.4L362.18 263.13L362.07 263.24C361.975 263.302 361.908 263.397 361.88 263.506C361.852 263.616 361.866 263.731 361.92 263.83C362.27 264.83 362.59 265.83 362.92 266.83C363.32 268.02 363.72 269.22 364.11 270.41C364.623 271.937 365.13 273.46 365.63 274.98C365.634 275.014 365.634 275.047 365.63 275.08C365.75 275.52 365.87 275.51 365.43 275.94C364.82 276.53 364.23 277.13 363.63 277.73C363.52 277.84 363.4 277.93 363.31 278.02C363.22 278.11 363.11 277.9 363.06 277.81C362.213 276.477 361.37 275.11 360.53 273.71C359.53 272.07 358.53 270.42 357.48 268.77C357.39 268.63 357.31 268.47 357.21 268.33C357.145 268.243 357.071 268.163 356.99 268.09C356.68 268.37 356.39 268.64 356.11 268.92C354.81 270.16 353.513 271.404 352.22 272.65C351.71 273.13 351.71 273.14 351.83 273.86L352.13 275.7C352.13 275.92 352.2 276.14 352.23 276.37C351.882 276.781 351.508 277.169 351.11 277.53C350.76 277.921 350.383 278.285 349.98 278.62C349.736 278.115 349.536 277.59 349.38 277.05C349.19 276.54 349.01 276.05 348.83 275.49C348.65 274.93 348.46 274.49 348.27 273.91C346.7 273.33 345.12 272.8 343.51 272.21C343.544 272.142 343.588 272.078 343.64 272.02C344.26 271.4 344.89 270.78 345.5 270.15C345.573 270.065 345.669 270.001 345.777 269.968C345.885 269.934 346 269.931 346.11 269.96C346.65 270.06 347.2 270.14 347.74 270.23L348.74 270.39C348.83 270.421 348.927 270.423 349.019 270.397C349.11 270.37 349.191 270.315 349.25 270.24C349.329 270.146 349.416 270.059 349.51 269.98L353.81 265.49C354 265.45 354 265.34 354.17 265.19Z" fill="#263238"/>
<path d="M396.131 256.681H384.131C383.9 256.687 383.677 256.768 383.496 256.913C383.316 257.057 383.187 257.257 383.131 257.481L381.631 263.771H398.631L397.131 257.481C397.074 257.257 396.946 257.057 396.765 256.913C396.585 256.768 396.362 256.687 396.131 256.681Z" fill="#263238"/>
<path d="M395.32 257.86H384.97L383.68 263.25H396.61L395.32 257.86Z" fill="white"/>
<path d="M380.5 270.58H384.5V275.68C384.5 275.834 384.439 275.981 384.33 276.09C384.221 276.199 384.074 276.26 383.92 276.26H381.1C380.946 276.26 380.799 276.199 380.69 276.09C380.581 275.981 380.52 275.834 380.52 275.68V270.58H380.5Z" fill="#263238"/>
<path d="M396.201 270.58H400.201V275.68C400.201 275.834 400.14 275.981 400.031 276.09C399.923 276.199 399.775 276.26 399.621 276.26H396.801C396.647 276.26 396.5 276.199 396.391 276.09C396.282 275.981 396.221 275.834 396.221 275.68V270.58H396.201Z" fill="#263238"/>
<path d="M392.17 257.47H388.35V258.89H392.17V257.47Z" fill="#263238"/>
<path d="M400.18 262.63H380.67C379.792 262.63 379.08 263.342 379.08 264.22V270.68C379.08 271.558 379.792 272.27 380.67 272.27H400.18C401.058 272.27 401.77 271.558 401.77 270.68V264.22C401.77 263.342 401.058 262.63 400.18 262.63Z" fill="#263238"/>
<path d="M386.46 266.89C386.462 267.397 386.313 267.893 386.033 268.315C385.753 268.737 385.354 269.067 384.886 269.262C384.419 269.457 383.904 269.51 383.407 269.412C382.909 269.314 382.452 269.071 382.093 268.714C381.734 268.356 381.489 267.9 381.39 267.403C381.29 266.906 381.34 266.391 381.534 265.923C381.727 265.454 382.055 265.054 382.477 264.772C382.898 264.49 383.393 264.34 383.9 264.34C384.577 264.34 385.227 264.608 385.706 265.086C386.186 265.564 386.457 266.213 386.46 266.89Z" fill="white"/>
<path d="M399.69 266.89C399.69 267.394 399.54 267.887 399.26 268.307C398.98 268.726 398.582 269.053 398.116 269.246C397.65 269.439 397.137 269.489 396.642 269.391C396.148 269.292 395.693 269.05 395.337 268.693C394.98 268.336 394.737 267.882 394.639 267.387C394.54 266.893 394.591 266.38 394.784 265.914C394.977 265.448 395.304 265.05 395.723 264.77C396.142 264.489 396.636 264.34 397.14 264.34C397.816 264.34 398.465 264.609 398.943 265.087C399.421 265.565 399.69 266.214 399.69 266.89Z" fill="white"/>
<path d="M393.301 265.34H387.631V266.32H393.301V265.34Z" fill="white"/>
<path d="M393.301 267.061H387.631V268.041H393.301V267.061Z" fill="white"/>
<path d="M284.741 274.79H216.051V300.12H284.741V274.79Z" fill="white" stroke="#263238" stroke-miterlimit="10"/>
<path d="M220 296.22H280.73C281.791 296.22 282.808 296.641 283.558 297.391C284.309 298.141 284.73 299.159 284.73 300.22V318.16H216V300.2C216.005 299.142 216.429 298.13 217.179 297.384C217.928 296.638 218.943 296.22 220 296.22Z" fill="white" stroke="#263238" stroke-miterlimit="10"/>
<path d="M238.331 295.57L235.371 294.89H222.361L218.711 295.57L219.631 292.84V285.31L218.711 282.57L222.481 283.37H235.941L238.331 282.57L237.421 285.76V292.15L238.331 295.57Z" fill="url(#paint6_linear_1_25667)" stroke="#263238" stroke-miterlimit="10"/>
<path d="M259.321 295.57L256.361 294.89H243.351L239.701 295.57L240.621 292.84V285.31L239.701 282.57L243.471 283.37H256.931L259.321 282.57L258.411 285.76V292.15L259.321 295.57Z" fill="url(#paint7_linear_1_25667)" stroke="#263238" stroke-miterlimit="10"/>
<path d="M280.309 295.57L277.349 294.89H264.339L260.689 295.57L261.599 292.84V285.31L260.689 282.57L264.459 283.37H277.919L280.309 282.57L279.399 285.76V292.15L280.309 295.57Z" fill="url(#paint8_linear_1_25667)" stroke="#263238" stroke-miterlimit="10"/>
<path d="M200.91 318.15H299.45" stroke="#263238" stroke-miterlimit="10"/>
<path d="M210.55 290.101H209.02V296.731H210.55V290.101Z" stroke="#263238" stroke-miterlimit="10"/>
<path d="M214.889 278.11H204.689V290.86H214.889V278.11Z" fill="#263238"/>
<path d="M215.4 297.24H204.18V318.15H215.4V297.24Z" stroke="#263238" stroke-miterlimit="10"/>
<path d="M215.4 297.24H204.18V300.3H215.4V297.24Z" fill="#263238" stroke="#263238" stroke-miterlimit="10"/>
<path d="M213.361 302.34H205.711V307.18H213.361V302.34Z" stroke="#263238" stroke-miterlimit="10"/>
<path d="M213.361 309.48H205.711V314.32H213.361V309.48Z" stroke="#263238" stroke-miterlimit="10"/>
<path d="M292.151 290.101H290.621V296.731H292.151V290.101Z" stroke="#263238" stroke-miterlimit="10"/>
<path d="M296.481 278.11H286.281V290.86H296.481V278.11Z" fill="#263238"/>
<path d="M296.99 297.24H285.77V318.15H296.99V297.24Z" stroke="#263238" stroke-miterlimit="10"/>
<path d="M296.99 297.24H285.77V300.3H296.99V297.24Z" fill="#263238" stroke="#263238" stroke-miterlimit="10"/>
<path d="M294.951 302.34H287.301V307.18H294.951V302.34Z" stroke="#263238" stroke-miterlimit="10"/>
<path d="M294.951 309.48H287.301V314.32H294.951V309.48Z" stroke="#263238" stroke-miterlimit="10"/>
<path d="M215.4 383.43H204.18V404.34H215.4V383.43Z" stroke="#263238" stroke-miterlimit="10"/>
<path d="M215.4 383.43H204.18V386.49H215.4V383.43Z" fill="#263238" stroke="#263238" stroke-miterlimit="10"/>
<path d="M213.361 388.53H205.711V393.37H213.361V388.53Z" stroke="#263238" stroke-miterlimit="10"/>
<path d="M213.361 395.67H205.711V400.51H213.361V395.67Z" stroke="#263238" stroke-miterlimit="10"/>
<path d="M296.99 383.43H285.77V404.34H296.99V383.43Z" stroke="#263238" stroke-miterlimit="10"/>
<path d="M296.99 383.43H285.77V386.49H296.99V383.43Z" fill="#263238" stroke="#263238" stroke-miterlimit="10"/>
<path d="M294.951 388.53H287.301V393.37H294.951V388.53Z" stroke="#263238" stroke-miterlimit="10"/>
<path d="M294.951 395.67H287.301V400.51H294.951V395.67Z" stroke="#263238" stroke-miterlimit="10"/>
<path d="M299.579 345.67H201.189V412.91H299.579V345.67Z" stroke="#263238" stroke-miterlimit="10"/>
<path d="M284.741 360.98H216.051V386.31H284.741V360.98Z" fill="#263238" stroke="#263238" stroke-miterlimit="10"/>
<path d="M220 382.42H280.73C281.791 382.42 282.808 382.841 283.558 383.591C284.309 384.342 284.73 385.359 284.73 386.42V404.36H216V386.4C216.005 385.343 216.429 384.33 217.179 383.584C217.928 382.839 218.943 382.42 220 382.42Z" fill="white" stroke="#263238" stroke-miterlimit="10"/>
<path d="M200.91 404.34H299.45" stroke="#263238" stroke-miterlimit="10"/>
<path d="M119.2 91.2404V98.0604H117.51V82.9004H119.2V89.7204H122.92V82.9004H124.61V98.0604H122.92V91.2404H119.2Z" fill="#263238"/>
<path d="M126.221 86.5602C126.221 84.2402 127.361 82.7402 129.681 82.7402C132.001 82.7402 133.171 84.2402 133.171 86.5602V94.4002C133.171 96.7002 132.021 98.2102 129.681 98.2102C127.341 98.2102 126.221 96.7002 126.221 94.4002V86.5602ZM127.881 94.4902C127.881 95.8702 128.471 96.6702 129.681 96.6702C130.891 96.6702 131.481 95.8702 131.481 94.4902V86.4902C131.481 85.1202 130.921 84.3002 129.681 84.3002C128.441 84.3002 127.881 85.1202 127.881 86.4902V94.4902Z" fill="#263238"/>
<path d="M137.001 98.0604V84.4304H134.211V82.9004H141.491V84.4304H138.691V98.0604H137.001Z" fill="#263238"/>
<path d="M148 89.6104V91.1304H144.29V96.5204H148.84V98.0604H142.6V82.9004H148.84V84.4304H144.29V89.6104H148Z" fill="#263238"/>
<path d="M150.43 98.0604V82.9004H152.12V96.5204H156.45V98.0604H150.43Z" fill="#263238"/>
<path d="M164.491 82.9004C166.851 82.9004 167.781 84.0204 167.781 86.2504V87.0004C167.781 88.6004 167.331 89.6004 166.011 90.0004C167.481 90.4104 168.011 91.5804 168.011 93.2504V94.5304C168.011 96.8004 166.911 98.0804 164.551 98.0804H161.061V82.9004H164.491ZM164.081 89.3304C165.421 89.3304 166.081 88.9004 166.081 87.3304V86.4504C166.081 85.1004 165.631 84.4504 164.421 84.4504H162.751V89.3504L164.081 89.3304ZM164.581 96.5204C165.811 96.5204 166.371 95.8704 166.371 94.4604V93.1204C166.371 91.4304 165.701 90.8704 164.251 90.8704H162.781V96.5204H164.581Z" fill="#263238"/>
<path d="M169.451 86.5602C169.451 84.2402 170.601 82.7402 172.911 82.7402C175.221 82.7402 176.401 84.2402 176.401 86.5602V94.4002C176.401 96.7002 175.251 98.2102 172.911 98.2102C170.571 98.2102 169.451 96.7002 169.451 94.4002V86.5602ZM171.121 94.4902C171.121 95.8702 171.701 96.6702 172.911 96.6702C174.121 96.6702 174.711 95.8702 174.711 94.4902V86.4902C174.711 85.1202 174.151 84.3002 172.911 84.3002C171.671 84.3002 171.121 85.1202 171.121 86.4902V94.4902Z" fill="#263238"/>
<path d="M177.871 86.5602C177.871 84.2402 179.021 82.7402 181.341 82.7402C183.661 82.7402 184.831 84.2402 184.831 86.5602V94.4002C184.831 96.7002 183.681 98.2102 181.341 98.2102C179.001 98.2102 177.871 96.7002 177.871 94.4002V86.5602ZM179.541 94.4902C179.541 95.8702 180.131 96.6702 181.341 96.6702C182.551 96.6702 183.141 95.8702 183.141 94.4902V86.4902C183.141 85.1202 182.571 84.3002 181.341 84.3002C180.111 84.3002 179.541 85.1202 179.541 86.4902V94.4902Z" fill="#263238"/>
<path d="M189 91.4704L188.11 92.9704V98.0604H186.42V82.9004H188.11V90.2204L192.11 82.9004H193.82L190 89.8104L194 98.0604H192.27L189 91.4704Z" fill="#263238"/>
<path d="M197.001 82.9004V98.0604H195.311V82.9004H197.001Z" fill="#263238"/>
<path d="M200.209 98.0604H198.689V82.9004H200.829L204.339 93.9004V82.9004H205.839V98.0604H204.079L200.209 85.8004V98.0604Z" fill="#263238"/>
<path d="M214.259 86.5602V87.8602H212.659V86.4702C212.659 85.1002 212.119 84.2802 210.879 84.2802C209.639 84.2802 209.109 85.1002 209.109 86.4702V94.4702C209.109 95.8302 209.669 96.6502 210.879 96.6502C212.089 96.6502 212.659 95.8302 212.659 94.4702V91.4702H211.099V89.9402H214.259V94.4002C214.259 96.7002 213.179 98.2102 210.839 98.2102C208.499 98.2102 207.439 96.7002 207.439 94.4002V86.5602C207.439 84.2602 208.519 82.7402 210.839 82.7402C213.159 82.7402 214.259 84.2602 214.259 86.5602Z" fill="#263238"/>
<path d="M175.31 108.33H117.51V118.07H175.31V108.33Z" stroke="#263238" stroke-miterlimit="10"/>
<path d="M243.501 108.33H185.701V118.07H243.501V108.33Z" stroke="#263238" stroke-miterlimit="10"/>
<path d="M305.189 62.8701H361.689" stroke="#263238" stroke-miterlimit="10"/>
<path d="M405.81 320.03H389.58V329.77H405.81V320.03Z" stroke="#263238" stroke-miterlimit="10"/>
<path d="M386.33 320.03H370.1V329.77H386.33V320.03Z" stroke="#263238" stroke-miterlimit="10"/>
<path d="M314.25 292.76H407.11" stroke="#263238" stroke-miterlimit="10"/>
<path d="M314.25 299.9H407.11" stroke="#263238" stroke-miterlimit="10"/>
<path d="M314.25 307.04H407.11" stroke="#263238" stroke-miterlimit="10"/>
<path d="M314.25 314.19H407.11" stroke="#263238" stroke-miterlimit="10"/>
<path d="M319.301 340.311C316.98 340.311 314.755 341.232 313.114 342.873C311.473 344.514 310.551 346.74 310.551 349.061C310.551 353.901 319.301 363.781 319.301 363.781C319.301 363.781 328.061 353.901 328.061 349.061C328.058 346.739 327.134 344.513 325.492 342.873C323.849 341.232 321.622 340.311 319.301 340.311ZM319.301 352.231C318.707 352.231 318.127 352.055 317.634 351.725C317.141 351.395 316.756 350.927 316.529 350.379C316.302 349.83 316.243 349.227 316.358 348.645C316.474 348.063 316.76 347.529 317.179 347.109C317.599 346.69 318.134 346.404 318.716 346.288C319.297 346.172 319.901 346.232 320.449 346.459C320.997 346.686 321.466 347.07 321.795 347.564C322.125 348.057 322.301 348.637 322.301 349.231C322.301 350.026 321.985 350.789 321.422 351.352C320.86 351.914 320.096 352.231 319.301 352.231Z" fill="#263238"/>
<path d="M354.17 351.05C353.57 350.64 344.71 345.23 344.17 344.83C344.229 344.756 344.292 344.686 344.36 344.62L346.36 342.56C346.427 342.472 346.521 342.408 346.627 342.379C346.734 342.35 346.848 342.357 346.95 342.4L350.05 343.4L354.73 344.94L358.21 346.11L358.72 346.25C358.84 346.13 358.96 346.03 359.06 345.92C360.56 344.36 362.06 342.8 363.55 341.25C363.898 340.86 364.354 340.582 364.86 340.45C365.324 340.344 365.81 340.383 366.252 340.562C366.693 340.741 367.07 341.051 367.33 341.45C367.593 341.85 367.721 342.324 367.696 342.803C367.67 343.281 367.493 343.739 367.19 344.11C366.837 344.513 366.463 344.897 366.07 345.26L362.18 348.99L362.07 349.1C361.975 349.162 361.908 349.256 361.88 349.366C361.852 349.475 361.866 349.591 361.92 349.69C362.27 350.69 362.59 351.69 362.92 352.69C363.32 353.88 363.72 355.08 364.11 356.27C364.623 357.803 365.13 359.326 365.63 360.84C365.634 360.873 365.634 360.907 365.63 360.94C365.75 361.38 365.87 361.37 365.43 361.8C364.82 362.39 364.23 362.99 363.63 363.59C363.52 363.7 363.4 363.79 363.31 363.88C363.22 363.97 363.11 363.76 363.06 363.67C362.213 362.337 361.37 360.97 360.53 359.57C359.53 357.93 358.53 356.28 357.48 354.63C357.39 354.49 357.31 354.33 357.21 354.19C357.145 354.102 357.071 354.022 356.99 353.95C356.68 354.23 356.39 354.5 356.11 354.78C354.81 356.02 353.513 357.263 352.22 358.51C351.71 358.99 351.71 358.99 351.83 359.72L352.13 361.56C352.13 361.78 352.2 362 352.23 362.23C351.882 362.641 351.508 363.028 351.11 363.39C350.76 363.78 350.383 364.145 349.98 364.48C349.736 363.974 349.536 363.449 349.38 362.91C349.19 362.4 349.01 361.91 348.83 361.35C348.65 360.79 348.46 360.35 348.27 359.76C346.7 359.19 345.12 358.66 343.51 358.07C343.544 358.001 343.588 357.937 343.64 357.88C344.26 357.25 344.89 356.64 345.5 356.01C345.573 355.924 345.669 355.861 345.777 355.827C345.885 355.793 346 355.791 346.11 355.82C346.65 355.92 347.2 356 347.74 356.09L348.74 356.25C348.831 356.281 348.929 356.283 349.021 356.254C349.113 356.225 349.193 356.168 349.25 356.09C349.331 356.001 349.418 355.918 349.51 355.84L353.81 351.35C354 351.31 354 351.2 354.17 351.05Z" fill="#263238"/>
<path d="M396.131 342.54H384.131C383.9 342.546 383.677 342.628 383.496 342.772C383.316 342.916 383.187 343.116 383.131 343.34L381.631 349.63H398.631L397.131 343.34C397.074 343.116 396.946 342.916 396.765 342.772C396.585 342.628 396.362 342.546 396.131 342.54Z" fill="#263238"/>
<path d="M395.32 343.72H384.97L383.68 349.11H396.61L395.32 343.72Z" fill="white"/>
<path d="M380.5 356.44H384.5V361.54C384.5 361.694 384.439 361.842 384.33 361.951C384.221 362.059 384.074 362.12 383.92 362.12H381.1C380.946 362.12 380.799 362.059 380.69 361.951C380.581 361.842 380.52 361.694 380.52 361.54V356.44H380.5Z" fill="#263238"/>
<path d="M396.201 356.44H400.201V361.54C400.201 361.694 400.14 361.842 400.031 361.951C399.923 362.059 399.775 362.12 399.621 362.12H396.801C396.647 362.12 396.5 362.059 396.391 361.951C396.282 361.842 396.221 361.694 396.221 361.54V356.44H396.201Z" fill="#263238"/>
<path d="M392.17 343.33H388.35V344.75H392.17V343.33Z" fill="#263238"/>
<path d="M400.18 348.49H380.67C379.792 348.49 379.08 349.202 379.08 350.08V356.54C379.08 357.418 379.792 358.13 380.67 358.13H400.18C401.058 358.13 401.77 357.418 401.77 356.54V350.08C401.77 349.202 401.058 348.49 400.18 348.49Z" fill="#263238"/>
<path d="M386.46 352.75C386.462 353.257 386.313 353.753 386.033 354.175C385.753 354.597 385.354 354.927 384.886 355.122C384.419 355.318 383.904 355.37 383.407 355.272C382.909 355.175 382.452 354.932 382.093 354.574C381.734 354.216 381.489 353.76 381.39 353.263C381.29 352.766 381.34 352.251 381.534 351.783C381.727 351.314 382.055 350.914 382.477 350.632C382.898 350.351 383.393 350.2 383.9 350.2C384.577 350.2 385.227 350.469 385.706 350.946C386.186 351.424 386.457 352.073 386.46 352.75Z" fill="white"/>
<path d="M399.69 352.75C399.69 353.255 399.54 353.748 399.26 354.167C398.98 354.586 398.582 354.913 398.116 355.106C397.65 355.299 397.137 355.35 396.642 355.251C396.148 355.153 395.693 354.91 395.337 354.553C394.98 354.197 394.737 353.742 394.639 353.248C394.54 352.753 394.591 352.24 394.784 351.774C394.977 351.308 395.304 350.91 395.723 350.63C396.142 350.35 396.636 350.2 397.14 350.2C397.816 350.2 398.465 350.469 398.943 350.947C399.421 351.425 399.69 352.074 399.69 352.75Z" fill="white"/>
<path d="M393.301 351.2H387.631V352.18H393.301V351.2Z" fill="white"/>
<path d="M393.301 352.92H387.631V353.9H393.301V352.92Z" fill="white"/>
<path d="M405.81 405.891H389.58V415.631H405.81V405.891Z" stroke="#263238" stroke-miterlimit="10"/>
<path d="M386.33 405.891H370.1V415.631H386.33V405.891Z" stroke="#263238" stroke-miterlimit="10"/>
<path d="M314.25 378.62H407.11" stroke="#263238" stroke-miterlimit="10"/>
<path d="M314.25 385.76H407.11" stroke="#263238" stroke-miterlimit="10"/>
<path d="M314.25 392.9H407.11" stroke="#263238" stroke-miterlimit="10"/>
<path d="M314.25 400.05H407.11" stroke="#263238" stroke-miterlimit="10"/>
<path d="M212.33 62.8701H268.82" stroke="white" stroke-miterlimit="10"/>
<path d="M125.311 62.8701H181.801" stroke="white" stroke-miterlimit="10"/>
<path d="M229.488 362.893L220.621 371.76L229.488 380.627L238.355 371.76L229.488 362.893Z" fill="url(#paint9_linear_1_25667)" stroke="#263238" stroke-miterlimit="10"/>
<path d="M250.248 362.894L241.381 371.761L250.248 380.628L259.115 371.761L250.248 362.894Z" fill="url(#paint10_linear_1_25667)" stroke="#263238" stroke-miterlimit="10"/>
<path d="M271 362.891L262.133 371.758L271 380.625L279.867 371.758L271 362.891Z" fill="url(#paint11_linear_1_25667)" stroke="#263238" stroke-miterlimit="10"/>
<path d="M283.29 347.88H217.49V355.39H283.29V347.88Z" stroke="#263238" stroke-miterlimit="10"/>
<path d="M276.55 353.51H224.23V355.39H276.55V353.51Z" stroke="#263238" stroke-miterlimit="10"/>
<path d="M420.201 244.46H412.371V416.8H420.201V244.46Z" fill="#D9D9D9"/>
<path d="M420.201 295.22H412.371V336.16H420.201V295.22Z" fill="#EDEDED"/>
<path d="M154.14 170.1C154.14 170.1 155.22 176.35 153.86 179.61C152.5 182.87 150.6 183.68 150.06 185.04C149.52 186.4 150.6 189.66 150.88 191.04C151.16 192.42 151.69 193.76 149.52 194.04C148.525 194.182 147.524 194.272 146.52 194.31C146.52 194.31 141.36 200.83 137.83 200.83C134.3 200.83 131.32 195.37 127 188C122.68 180.63 125.64 176.32 130.8 172.79C135.96 169.26 154.14 170.1 154.14 170.1Z" fill="white" stroke="#263238" stroke-miterlimit="10"/>
<path d="M146.739 185.07C146.299 186.19 145.599 186.96 145.179 186.79C144.759 186.62 144.779 185.59 145.179 184.47C145.579 183.35 146.319 182.59 146.739 182.75C147.159 182.91 147.189 184 146.739 185.07Z" fill="#263238"/>
<path d="M146 180.15C146 180.15 148.71 177.98 150.07 181.24" stroke="#263238" stroke-miterlimit="10"/>
<path d="M140.279 172L139.469 238.29C139.469 238.29 134.299 238.56 127.779 238.29C121.259 238.02 112.029 235.29 101.429 228.51C90.8288 221.73 95.1788 200 95.1788 200L111.479 180.17L140.279 172Z" fill="#263238" stroke="#263238" stroke-miterlimit="10"/>
<path d="M117.999 151.361C117.999 151.361 112.299 158.421 109.849 164.671C107.399 170.921 110.399 177.441 110.399 177.441L153.859 162.771C153.859 162.771 153.859 159.231 148.159 154.341C142.459 149.451 125.609 147.551 121.809 148.101C118.009 148.651 117.999 151.361 117.999 151.361Z" fill="#7D7D7D" stroke="#263238" stroke-miterlimit="10"/>
<path d="M120.719 134.51C120.719 134.51 109.039 138.05 106.869 143.51C104.699 148.97 110.669 154.37 114.739 155.73C118.809 157.09 131.039 152.73 132.949 148.67C134.859 144.61 133.999 140 130.499 136.42C126.999 132.84 122.079 134 120.719 134.51Z" fill="white" stroke="#263238" stroke-miterlimit="10"/>
<path d="M117.73 171.19C117.73 171.19 110.67 173.9 108.73 174.99C106.79 176.08 107.64 178.25 108.46 179.88C109.28 181.51 109 183.14 110.36 183.14C111.72 183.14 137.52 174.72 146.49 172.55C155.46 170.38 156.27 172.55 156.81 169.83C157.35 167.11 157.9 161.41 156 160.05C154.1 158.69 132.13 164.94 117.73 171.19Z" fill="#7D7D7D" stroke="#263238" stroke-miterlimit="10"/>
<path d="M75.8983 313.68L82.1383 367.45C82.1383 367.45 73.7183 380.76 71.5483 390.54C69.3783 400.32 58.2383 423.41 58.2383 423.41L68.2883 428.84C68.2883 428.84 86.7583 401.4 92.7383 391.89C98.7183 382.38 101.738 378.31 101.738 374.78C101.738 371.25 109.348 319.66 109.348 319.66L75.8983 313.68Z" fill="#263238" stroke="#263238" stroke-miterlimit="10"/>
<path d="M74.2691 428.55C74.2691 428.55 78.0991 430.19 77.1891 432.75C76.2791 435.31 65.6991 439.32 65.3291 439.86C64.9591 440.4 74.2691 428.55 74.2691 428.55Z" fill="#7D7D7D" stroke="#263238" stroke-miterlimit="10"/>
<path d="M53.6488 417.42C54.1988 417.97 75.3688 427.82 75.3688 427.82C75.3688 427.82 66.7888 441 64.9988 443.88C63.2088 446.76 67.7288 453.37 68.9988 455.74C70.2688 458.11 77.7588 462.31 79.2188 463.04C80.6788 463.77 79.5788 464.68 79.2188 467.23C78.8588 469.78 78.1188 470.33 76.2988 470.33C74.4788 470.33 62.6088 469.06 58.7788 466.87C54.9488 464.68 54.0388 460.87 52.3988 459.39C50.7588 457.91 50.2088 457.93 50.2088 457.93L48.5588 460.3C48.5588 460.3 46.3788 460.48 42.7288 458.11C40.5456 456.692 38.8303 454.66 37.7988 452.27C37.7988 452.27 41.6288 445.34 44.1888 443.51C46.7488 441.68 48.9288 437.86 49.6588 435.51C50.3888 433.16 53.6488 417.42 53.6488 417.42Z" fill="#7D7D7D" stroke="#263238" stroke-miterlimit="10"/>
<path d="M68.3398 439.17C68.3398 439.17 72.8498 433.9 74.8098 436.17C76.7698 438.44 68.3398 439.17 68.3398 439.17Z" stroke="#263238" stroke-miterlimit="10"/>
<path d="M68.3398 439.17C68.3398 439.17 77.9798 441.73 75.7198 442.48C73.4598 443.23 68.3398 439.17 68.3398 439.17Z" stroke="#263238" stroke-miterlimit="10"/>
<path d="M68.4894 446.55C67.7692 444.149 67.7173 441.598 68.3394 439.17C69.48 442.951 70.2371 446.837 70.5994 450.77" stroke="#263238" stroke-miterlimit="10"/>
<path d="M72.8086 467.23C68.2486 466.87 58.5786 464.13 55.1086 458.47C52.1886 453.71 50.1886 455.92 45.1086 452.82C43.0683 451.676 41.4884 449.859 40.6386 447.68C39.0786 449.98 37.8086 452.27 37.8086 452.27C38.8401 454.66 40.5553 456.692 42.7386 458.11C46.3886 460.48 48.5686 460.3 48.5686 460.3L50.2186 457.93C50.2186 457.93 50.7586 457.93 52.4086 459.39C54.0586 460.85 54.9586 464.68 58.7886 466.87C62.6186 469.06 74.4786 470.33 76.3086 470.33C78.1386 470.33 78.8286 469.8 79.1986 467.33C77.4186 467.41 75.0886 467.41 72.8086 467.23Z" fill="white" stroke="#263238" stroke-miterlimit="10"/>
<path d="M84.3184 316.67L110.938 373.15C110.938 373.15 108.768 385.65 111.478 394.88C114.188 404.11 127.478 429.38 127.478 429.38L128.838 433.46L140.248 427.75C140.248 427.75 133.188 405.21 131.558 396.24C129.928 387.27 131.288 375.05 128.558 366.63C125.828 358.21 117.148 316.13 117.148 316.13L84.3184 316.67Z" fill="#263238" stroke="#263238" stroke-miterlimit="10"/>
<path d="M85.3496 323.15L101.02 357.4" stroke="#858585" stroke-miterlimit="10"/>
<path d="M145 431.211C145 431.211 146.51 422.021 147.71 422.021C148.91 422.021 153.71 422.921 151.78 425.941C149.85 428.961 145.78 436.631 145.78 436.631L145 431.211Z" fill="#7D7D7D" stroke="#263238" stroke-miterlimit="10"/>
<path d="M144.08 423.141L122.35 433.191L135.66 455.191C136.127 458.087 136.949 460.915 138.11 463.611C139.74 466.871 140.55 468.231 140.55 468.231L152.23 464.431C152.23 464.431 152.23 462.531 153.59 462.261C154.288 462.167 154.997 462.187 155.69 462.321C156.855 462.515 158.052 462.336 159.11 461.811C163.46 459.651 174.53 454.141 176.48 453.051C178.93 451.691 179.13 448.131 178.31 446.771C177.49 445.411 174.78 443.771 172.06 443.771C169.34 443.771 159.06 445.131 155.22 444.041C151.38 442.951 150.6 443.501 148.97 441.601C147.34 439.701 144.08 423.141 144.08 423.141Z" fill="#7D7D7D" stroke="#263238" stroke-miterlimit="10"/>
<path d="M145.75 436.63C145.75 436.63 150.27 431.36 152.23 433.63C154.19 435.9 145.75 436.63 145.75 436.63Z" stroke="#263238" stroke-miterlimit="10"/>
<path d="M145.75 436.63C145.75 436.63 155.39 439.19 153.13 439.95C150.87 440.71 145.75 436.63 145.75 436.63Z" stroke="#263238" stroke-miterlimit="10"/>
<path d="M145.899 444C145.185 441.599 145.133 439.049 145.749 436.62C146.893 440.4 147.651 444.287 148.009 448.22" stroke="#263238" stroke-miterlimit="10"/>
<path d="M176.479 453.051C178.679 451.121 179.139 447.801 178.189 446.601C172.332 451.163 165.954 455.013 159.189 458.071C146.189 463.961 141.069 463.961 138.459 464.281C139.859 467.041 139.459 468.091 140.569 468.281C149.569 469.401 152.249 464.481 152.249 464.481C152.249 464.481 152.249 462.581 153.609 462.311C154.271 462.2 154.947 462.2 155.609 462.311C156.919 462.511 159.609 462.911 160.769 462.311C165.269 460.061 171.999 457.001 176.479 453.051Z" fill="white" stroke="#263238" stroke-miterlimit="10"/>
<path d="M119.91 223.62C119.91 223.62 131.91 288.42 136.21 301.46C138.742 308.847 140.471 316.484 141.37 324.24L121.26 326.14L119.91 223.62Z" fill="#7D7D7D" stroke="#263238" stroke-miterlimit="10"/>
<path d="M96.5394 196.45C96.5394 196.45 87.5394 205.69 80.7894 224.16C74.0394 242.63 69.6494 292.22 68.0194 301.16C66.3894 310.1 65.5694 322.96 67.1994 323.5C68.8294 324.04 93.8294 331.38 107.949 331.38C122.069 331.38 130.229 331.65 130.229 329.75C130.229 327.85 127.229 244.51 124.519 230.38C121.809 216.25 117.729 214.9 113.389 206.47C109.049 198.04 96.5394 196.45 96.5394 196.45Z" fill="#7D7D7D" stroke="#263238" stroke-miterlimit="10"/>
<path d="M119.359 213C116.958 207.938 113.935 203.194 110.359 198.88C104.649 192.09 100.579 185.29 97.0493 187.47C93.5193 189.65 89.9793 194.26 90.7993 197.25C91.6193 200.24 107.999 207.86 111.479 210C114.959 212.14 118.549 216.28 119.359 213Z" fill="white" stroke="#263238" stroke-miterlimit="10"/>
<path d="M120 218.54C120 218.54 110.31 212.82 103.1 215.54C98.429 217.472 94.2626 220.448 90.9197 224.24L88.4297 214.29C88.4297 214.29 98.3697 206.59 105.58 206.59C112.79 206.59 118.23 210.83 120 218.54Z" fill="#263238" stroke="#263238" stroke-miterlimit="10"/>
<path d="M160.839 233.44L159.529 232.44L171.999 210.91C172.058 210.809 172.137 210.721 172.232 210.653C172.327 210.585 172.435 210.538 172.55 210.516C172.664 210.493 172.783 210.495 172.896 210.522C173.01 210.548 173.117 210.599 173.209 210.67C173.369 210.79 173.478 210.964 173.517 211.16C173.556 211.355 173.521 211.558 173.419 211.73L160.839 233.44Z" fill="#263238" stroke="#263238" stroke-miterlimit="10"/>
<path d="M147.189 239.93C148.989 238.501 150.269 236.519 150.829 234.29C151.529 230.83 152.299 225.72 153.629 224.6C154.959 223.48 160.629 221.6 161.529 221.22C162.429 220.84 164.239 221.22 163.169 223.8C162.099 226.38 158.359 227.23 158.359 227.23L162.889 229.54C162.889 229.54 165.619 224.27 166.419 224.44C167.219 224.61 167.529 225.77 168.059 228.65C168.589 231.53 167.509 232.65 166.009 234.65C164.509 236.65 164.769 238 163.539 239.97C162.309 241.94 152.999 248 151.839 248.36C150.679 248.72 147.189 239.93 147.189 239.93Z" fill="white" stroke="#263238" stroke-miterlimit="10"/>
<path d="M101.16 220.09C101.16 220.09 96.8099 226.61 101.16 238.02C105.51 249.43 115.02 279.58 118.28 279.02C121.54 278.46 154.41 253.75 154.95 251.31C155.49 248.87 148.43 240.17 147.62 239.31C146.81 238.45 140.82 243.38 136.75 245.01C132.68 246.64 126.43 250 126.43 250C126.43 250 123.17 222 118.28 217.13C113.39 212.26 108.22 215.23 107.41 215.5" fill="#7D7D7D"/>
<path d="M101.16 220.09C101.16 220.09 96.8099 226.61 101.16 238.02C105.51 249.43 115.02 279.58 118.28 279.02C121.54 278.46 154.41 253.75 154.95 251.31C155.49 248.87 148.43 240.17 147.62 239.31C146.81 238.45 140.82 243.38 136.75 245.01C132.68 246.64 126.43 250 126.43 250C126.43 250 123.17 222 118.28 217.13C113.39 212.26 108.22 215.23 107.41 215.5" stroke="#263238" stroke-miterlimit="10"/>
<path d="M145.99 258.94L142.18 252.96L145.71 250.24L149.25 256.49L145.99 258.94Z" fill="white" stroke="#263238" stroke-miterlimit="10"/>
<path d="M89.5899 212.78C89.8799 213.86 89.8599 233.11 89.0499 252.36C88.2399 271.61 84.1699 293 82.2699 301.44C80.3699 309.88 75.4899 310.92 67.0899 310.38C58.6899 309.84 46.7499 307.67 41.3299 303.33C35.9099 298.99 36.4499 289.51 39.4299 281.64C42.4099 273.77 46.9999 248.84 46.9999 238.27C46.9999 230.55 47.8099 222.42 50.4199 215.12C54.7999 202.94 64.6799 203 75.9999 203.36C82.4899 203.57 87.7899 206.15 89.5899 212.78Z" fill="url(#paint12_linear_1_25667)" stroke="#263238" stroke-miterlimit="10"/>
<path d="M88.8893 210.811C86.6393 205.641 81.7993 203.551 76.0193 203.361C64.6793 202.991 54.7993 202.941 50.4393 215.121C47.8293 222.421 47.0193 230.551 47.0193 238.271C47.0193 248.841 42.4093 273.781 39.4293 281.641C36.6193 289.051 35.9793 297.891 40.4293 302.521C39.4893 298.521 41.3693 290.091 47.0093 276.761C53.7893 260.761 53.2493 233.661 53.2493 233.661C53.2493 233.661 53.2493 215.491 55.4193 211.151C57.5893 206.811 65.9893 207.361 78.7293 208.711C82.1809 209.047 85.5868 209.751 88.8893 210.811Z" fill="url(#paint13_linear_1_25667)" stroke="#263238" stroke-miterlimit="10"/>
<path d="M89.3183 217.391L89.7383 217.021C89.7618 215.606 89.7118 214.19 89.5883 212.781C87.7883 206.151 82.4883 203.571 76.0183 203.361C64.6783 202.991 54.7983 202.941 50.4383 215.121C47.8283 222.421 47.0183 230.551 47.0183 238.271C46.9539 241.686 46.6934 245.095 46.2383 248.481C47.9583 249.631 50.4883 250.831 51.3583 248.571C52.7183 245.041 54.3583 222.571 55.1583 216.031C55.9583 209.491 64.3683 209.801 74.4083 211.151C84.4483 212.501 89.3183 217.391 89.3183 217.391Z" fill="#263238" stroke="#263238" stroke-miterlimit="10"/>
<path d="M65.7301 277.85L63.8301 247.75L79.0101 249.11L77.1201 279.2L65.7301 277.85Z" fill="white" stroke="#263238" stroke-miterlimit="10"/>
<path d="M55.9688 274.6L56.2388 256.97L70.8787 259.41L68.9788 278.93L55.9688 274.6Z" fill="white" stroke="#263238" stroke-miterlimit="10"/>
<path d="M83.6199 273C63.0199 275.17 51.8999 269.74 51.8999 269.74C51.8999 269.74 45.6699 286.83 43.7699 293.33C41.8699 299.83 45.6699 301.19 54.3399 304.18C63.0099 307.17 76.0299 309.87 78.4699 305.26C80.9099 300.65 83.6199 273 83.6199 273Z" fill="#263238" stroke="#263238" stroke-miterlimit="10"/>
<path d="M461 470.33H468.33" stroke="#263238" stroke-miterlimit="10"/>
<path d="M29 470.33H451" stroke="#263238" stroke-miterlimit="10"/>
<defs>
<linearGradient id="paint0_linear_1_25667" x1="25.1961" y1="148.823" x2="118.107" y2="148.958" gradientUnits="userSpaceOnUse">
<stop stop-color="#1D498D"/>
<stop offset="1" stop-color="#3C65A4"/>
</linearGradient>
<linearGradient id="paint1_linear_1_25667" x1="397.288" y1="302.142" x2="483.975" y2="302.26" gradientUnits="userSpaceOnUse">
<stop stop-color="#1D498D"/>
<stop offset="1" stop-color="#3C65A4"/>
</linearGradient>
<linearGradient id="paint2_linear_1_25667" x1="402.265" y1="441.603" x2="462.307" y2="441.699" gradientUnits="userSpaceOnUse">
<stop stop-color="#1D498D"/>
<stop offset="1" stop-color="#3C65A4"/>
</linearGradient>
<linearGradient id="paint3_linear_1_25667" x1="96.3733" y1="274.168" x2="427.505" y2="274.695" gradientUnits="userSpaceOnUse">
<stop stop-color="#1D498D"/>
<stop offset="1" stop-color="#3C65A4"/>
</linearGradient>
<linearGradient id="paint4_linear_1_25667" x1="104.304" y1="195.047" x2="420.223" y2="196.892" gradientUnits="userSpaceOnUse">
<stop stop-color="#1D498D"/>
<stop offset="1" stop-color="#3C65A4"/>
</linearGradient>
<linearGradient id="paint5_linear_1_25667" x1="109.112" y1="344.201" x2="190.096" y2="344.273" gradientUnits="userSpaceOnUse">
<stop stop-color="#1D498D"/>
<stop offset="1" stop-color="#3C65A4"/>
</linearGradient>
<linearGradient id="paint6_linear_1_25667" x1="218.301" y1="290.244" x2="238.332" y2="290.301" gradientUnits="userSpaceOnUse">
<stop stop-color="#1D498D"/>
<stop offset="1" stop-color="#3C65A4"/>
</linearGradient>
<linearGradient id="paint7_linear_1_25667" x1="239.291" y1="290.244" x2="259.323" y2="290.301" gradientUnits="userSpaceOnUse">
<stop stop-color="#1D498D"/>
<stop offset="1" stop-color="#3C65A4"/>
</linearGradient>
<linearGradient id="paint8_linear_1_25667" x1="260.279" y1="290.244" x2="280.311" y2="290.301" gradientUnits="userSpaceOnUse">
<stop stop-color="#1D498D"/>
<stop offset="1" stop-color="#3C65A4"/>
</linearGradient>
<linearGradient id="paint9_linear_1_25667" x1="225.67" y1="377.179" x2="234.74" y2="368.143" gradientUnits="userSpaceOnUse">
<stop stop-color="#1D498D"/>
<stop offset="1" stop-color="#3C65A4"/>
</linearGradient>
<linearGradient id="paint10_linear_1_25667" x1="246.43" y1="377.18" x2="255.5" y2="368.144" gradientUnits="userSpaceOnUse">
<stop stop-color="#1D498D"/>
<stop offset="1" stop-color="#3C65A4"/>
</linearGradient>
<linearGradient id="paint11_linear_1_25667" x1="267.182" y1="377.177" x2="276.252" y2="368.141" gradientUnits="userSpaceOnUse">
<stop stop-color="#1D498D"/>
<stop offset="1" stop-color="#3C65A4"/>
</linearGradient>
<linearGradient id="paint12_linear_1_25667" x1="36.1109" y1="266.56" x2="89.7643" y2="266.609" gradientUnits="userSpaceOnUse">
<stop stop-color="#1D498D"/>
<stop offset="1" stop-color="#3C65A4"/>
</linearGradient>
<linearGradient id="paint13_linear_1_25667" x1="36.1251" y1="261.85" x2="88.8933" y2="261.901" gradientUnits="userSpaceOnUse">
<stop stop-color="#1D498D"/>
<stop offset="1" stop-color="#3C65A4"/>
</linearGradient>
</defs>
</svg>
