<svg width="216" height="216" viewBox="0 0 216 216" fill="none" xmlns="http://www.w3.org/2000/svg">
<path opacity="0.7" d="M29.3458 72.1829C29.3458 72.1829 17.3016 103.287 34.2274 134.607C51.1531 165.927 86.0155 182.473 113.918 196.621C141.821 210.769 170.796 203.878 184.563 180.706C198.331 157.533 179.448 140.992 179.423 107.948C179.397 74.9045 184.369 66.1565 166.463 38.2407C148.556 10.3248 104.661 4.14292 71.4658 24.8487C38.2709 45.5544 29.3458 72.1829 29.3458 72.1829Z" fill="white"/>
<path d="M33.2942 71.9064C45.7445 48.9845 77.0645 22.2264 120.031 33.372C162.998 44.5176 192.028 68.0961 187.272 109.119C182.516 150.142 157.52 184.226 103.68 185.224C49.8398 186.222 5.99184 122.17 33.2942 71.9064Z" fill="url(#paint0_linear_1_518)"/>
<path opacity="0.7" d="M33.2942 71.9064C45.7445 48.9845 77.0645 22.2264 120.031 33.372C162.998 44.5176 192.028 68.0961 187.272 109.119C182.516 150.142 157.52 184.226 103.68 185.224C49.8398 186.222 5.99184 122.17 33.2942 71.9064Z" fill="white"/>
<path d="M189.695 102.906L161.672 107.245C160.602 107.41 159.868 108.412 160.034 109.483L162.676 126.551C162.842 127.621 163.844 128.355 164.915 128.189L192.937 123.851C194.008 123.685 194.741 122.683 194.575 121.613L191.933 104.545C191.767 103.474 190.765 102.741 189.695 102.906Z" stroke="#263238" stroke-linecap="round" stroke-linejoin="round"/>
<path d="M160.462 112.238L192.361 107.3" stroke="#263238" stroke-linecap="round" stroke-linejoin="round"/>
<path d="M189.867 112.899L184.714 113.697L185.863 121.117L191.015 120.319L189.867 112.899Z" stroke="#263238" stroke-linecap="round" stroke-linejoin="round"/>
<path d="M186.805 114.912C187.894 113.616 189.683 114.48 189.263 118.502L190.858 119.292L191.013 120.303L185.864 121.103L185.652 119.75L187.596 118.994C187.596 118.994 185.782 116.135 186.805 114.912Z" stroke="#263238" stroke-linecap="round" stroke-linejoin="round"/>
<path d="M175.63 123.984C175.63 123.984 179.353 124.014 178.286 123.271C177.219 122.528 177.059 121.776 177.967 121.763C178.874 121.751 180.395 123.492 180.274 122.429C180.153 121.366 180.809 122.057 180.935 122.126C181.06 122.196 182.136 121.764 182.187 121.889C182.239 122.014 182.166 122.364 185.669 121.824" stroke="#263238" stroke-linecap="round" stroke-linejoin="round"/>
<path d="M163.166 115.551L178.787 113.132" stroke="#263238" stroke-linecap="round" stroke-linejoin="round"/>
<path d="M163.443 117.323L172.644 115.897" stroke="#263238" stroke-linecap="round" stroke-linejoin="round"/>
<path d="M163.927 120.446L176.761 118.459" stroke="#263238" stroke-linecap="round" stroke-linejoin="round"/>
<path d="M167.91 108.765L183.574 106.337" stroke="#263238" stroke-linecap="round" stroke-linejoin="round"/>
<path d="M18.7272 97.8221L53.7494 90.828L65.9793 149.545L28.7539 157.529L18.7272 97.8221Z" stroke="#263238" stroke-linecap="round" stroke-linejoin="round"/>
<path d="M27.3456 149.152L64.4976 142.426" stroke="#263238" stroke-linecap="round" stroke-linejoin="round"/>
<path d="M60.0955 137.432L42.3532 140.707" stroke="#263238" stroke-linecap="round" stroke-linejoin="round"/>
<path d="M57.4646 134.486L52.2806 135.251" stroke="#263238" stroke-linecap="round" stroke-linejoin="round"/>
<path d="M58.2552 128.49L31.7736 133.458" stroke="#263238" stroke-linecap="round" stroke-linejoin="round"/>
<path d="M23.3064 125.099L59.5555 118.701" stroke="#263238" stroke-linecap="round" stroke-linejoin="round" stroke-dasharray="1 2"/>
<path d="M61.8235 147.645L39.8044 152.258" stroke="#263238" stroke-linecap="round" stroke-linejoin="round"/>
<path d="M61.1669 145.787L50.8161 147.645" stroke="#263238" stroke-linecap="round" stroke-linejoin="round"/>
<path d="M55.5681 114.83L37.4112 118.429" stroke="#263238" stroke-linecap="round" stroke-linejoin="round"/>
<path d="M54.1339 110.799L48.3494 111.935" stroke="#263238" stroke-linecap="round" stroke-linejoin="round"/>
<path d="M53.7926 108L27.3456 113.098" stroke="#263238" stroke-linecap="round" stroke-linejoin="round"/>
<path d="M51.3907 94.3748L44.2497 95.8522" stroke="#263238" stroke-linecap="round" stroke-linejoin="round"/>
<path d="M27.3456 99.4507L21.1852 100.647" stroke="#263238" stroke-linecap="round" stroke-linejoin="round"/>
<path d="M23.4273 104.043C23.5558 103.605 23.7764 103.199 24.0745 102.854C24.3725 102.508 24.741 102.23 25.1553 102.038" stroke="#263238" stroke-linecap="round" stroke-linejoin="round"/>
<path d="M26.1662 108C25.4013 107.909 24.6942 107.547 24.1734 106.98C23.6526 106.412 23.3526 105.677 23.328 104.907" stroke="#263238" stroke-linecap="round" stroke-linejoin="round"/>
<path d="M28.5682 107.266C28.1296 107.66 27.5839 107.916 27 108" stroke="#263238" stroke-linecap="round" stroke-linejoin="round"/>
<path d="M26.4686 101.745C27.0248 101.763 27.5669 101.925 28.0419 102.215C28.517 102.505 28.9089 102.913 29.1794 103.399C29.45 103.885 29.59 104.433 29.5858 104.99C29.5817 105.546 29.4335 106.092 29.1557 106.574" stroke="#263238" stroke-linecap="round" stroke-linejoin="round"/>
<path d="M32.7672 102.557C32.1926 102.375 31.6224 102.168 31.0392 102.038" stroke="#263238" stroke-linecap="round" stroke-linejoin="round"/>
<path d="M37.6661 102.971C37.1779 104.134 34.4477 103.075 33.6528 102.833" stroke="#263238" stroke-linecap="round" stroke-linejoin="round"/>
<path d="M32.9918 99.8871L38.0981 101.088C38.016 101.429 37.9512 101.775 37.8864 102.116" stroke="#263238" stroke-linecap="round" stroke-linejoin="round"/>
<path d="M30.4646 101.088C31.0089 99.792 30.7929 99.36 32.1494 99.6754" stroke="#263238" stroke-linecap="round" stroke-linejoin="round"/>
<path d="M92.772 192.789L99.5328 194.862L94.5086 188.944C97.2628 185.882 98.8398 181.941 98.9582 177.824" stroke="#263238" stroke-linecap="round" stroke-linejoin="round"/>
<path d="M84.5683 195.398C86.8344 194.675 88.9729 193.6 90.9057 192.214" stroke="#263238" stroke-linecap="round" stroke-linejoin="round"/>
<path d="M58.4798 182.827C60.4713 192.421 71.0726 198.331 82.1621 196.033" stroke="#263238" stroke-linecap="round" stroke-linejoin="round"/>
<path d="M60.0955 172.009C59.6699 172.818 59.3088 173.658 59.0155 174.524" stroke="#263238" stroke-linecap="round" stroke-linejoin="round"/>
<path d="M98.6342 174.498C96.647 164.903 86.0414 158.993 74.9563 161.296C69.9226 162.284 65.3862 164.984 62.1173 168.938" stroke="#263238" stroke-linecap="round" stroke-linejoin="round"/>
<path d="M86.8709 170.981C83.6784 167.504 79.3282 169.914 77.5181 173.444C74.5286 170.852 69.5909 170.217 67.9234 174.636C65.1067 182.079 74.7403 186.62 79.1986 188.261C79.704 188.451 80.1187 188.611 80.4643 188.728C80.7451 188.49 81.0734 188.188 81.4709 187.825C84.996 184.641 92.2536 176.848 86.8709 170.981Z" stroke="#263238" stroke-linecap="round" stroke-linejoin="round"/>
<path d="M113.417 29.376L106.89 26.6587L111.318 33.035C108.291 35.8172 106.35 39.583 105.84 43.6622" stroke="#263238" stroke-linecap="round" stroke-linejoin="round"/>
<path d="M121.824 27.5573C119.5 28.0611 117.269 28.9239 115.21 30.1147" stroke="#263238" stroke-linecap="round" stroke-linejoin="round"/>
<path d="M146.591 42.5822C145.532 32.832 135.549 25.92 124.291 27.1598" stroke="#263238" stroke-linecap="round" stroke-linejoin="round"/>
<path d="M143.942 53.1922C144.436 52.4279 144.869 51.6263 145.238 50.7946" stroke="#263238" stroke-linecap="round" stroke-linejoin="round"/>
<path d="M105.84 47.0059C106.898 56.7475 116.882 63.6508 128.14 62.4283C133.244 61.9267 138.018 59.6755 141.653 56.0563" stroke="#263238" stroke-linecap="round" stroke-linejoin="round"/>
<path d="M130.95 52.9675C135.941 50.2956 137.822 44.0831 135.15 39.0916C132.478 34.1001 126.265 32.2197 121.274 34.8916C116.282 37.5636 114.402 43.776 117.074 48.7676C119.746 53.7591 125.958 55.6395 130.95 52.9675Z" stroke="#263238" stroke-linecap="round" stroke-linejoin="round"/>
<path d="M122.217 45.2261L125.284 48.1205L130.399 39.312" stroke="#263238" stroke-linecap="round" stroke-linejoin="round"/>
<path opacity="0.2" d="M138.927 141.571C138.927 141.571 137.389 160.181 139.614 164.696C141.839 169.21 142.953 200.055 141.955 203.934C141.955 203.934 149.118 205.74 151.952 203.174C154.786 200.608 159.144 203.079 166.324 200.582C173.504 198.085 168.324 142.664 168.324 142.664L168.545 122.502L156.704 111.953L138.927 141.571Z" fill="black" fill-opacity="0.7"/>
<path d="M148.474 150.522C148.429 150.655 148.357 150.777 148.262 150.88C146.733 152.327 140.206 153.934 134.598 155.092C129.954 156.056 125.958 156.708 125.958 156.708C125.958 156.708 122.882 131.146 122.882 128.459C122.882 125.772 117.923 82.27 117.923 82.27L129.812 81.7559L145.584 81.0734C145.584 81.0734 145.679 82.2354 145.839 84.2658C146.88 97.1999 150.457 145.42 148.474 150.522Z" fill="url(#paint1_linear_1_518)"/>
<mask id="mask0_1_518" style="mask-type:luminance" maskUnits="userSpaceOnUse" x="117" y="81" width="33" height="76">
<path d="M148.474 150.522C148.429 150.655 148.357 150.777 148.262 150.88C146.733 152.327 140.206 153.934 134.598 155.092C129.954 156.056 125.958 156.708 125.958 156.708C125.958 156.708 122.882 131.146 122.882 128.459C122.882 125.772 117.923 82.27 117.923 82.27L129.812 81.7559L145.584 81.0734C145.584 81.0734 145.679 82.2354 145.839 84.2658C146.88 97.1999 150.457 145.42 148.474 150.522Z" fill="white"/>
</mask>
<g mask="url(#mask0_1_518)">
<path opacity="0.2" d="M148.474 150.522L134.598 153.36L129.358 154.436C127.937 153.04 126.852 153.014 126.852 153.014L126.42 149.105L125.742 142.707L119.772 86.4172C121.068 85.523 121.707 83.566 121.707 83.566L129.699 83.2766L143.545 82.7711L145.83 84.2486C146.88 97.1999 150.457 145.42 148.474 150.522Z" fill="black" fill-opacity="0.7"/>
<path d="M148.474 150.522L134.598 153.36L129.358 154.436C127.937 153.04 126.852 153.014 126.852 153.014L126.42 149.105L125.742 142.707L119.772 86.4172C121.068 85.523 121.707 83.566 121.707 83.566L129.699 83.2766L143.545 82.7711L145.83 84.2486C146.88 97.1999 150.457 145.42 148.474 150.522Z" stroke="#263238" stroke-linecap="round" stroke-linejoin="round"/>
<path d="M127.587 133.95L132.218 133.942L132.222 135.389L130.935 135.847L127.967 136.171L127.587 133.95Z" fill="url(#paint2_linear_1_518)" stroke="#263238" stroke-linecap="round" stroke-linejoin="round"/>
<path d="M127.872 136.931L131.276 136.814L132.149 137.229L132.106 139.151L128.131 139.195L127.872 136.931Z" fill="url(#paint3_linear_1_518)" stroke="#263238" stroke-linecap="round" stroke-linejoin="round"/>
<path d="M128.416 140.002L132.304 139.722L132.261 141.178L130.382 141.843L128.395 141.73L128.416 140.002Z" fill="url(#paint4_linear_1_518)" stroke="#263238" stroke-linecap="round" stroke-linejoin="round"/>
<path d="M128.65 142.456L131.79 142.616L132.075 143.42L131.617 144.305L128.809 144.487L128.326 143.117L128.65 142.456Z" fill="url(#paint5_linear_1_518)" stroke="#263238" stroke-linecap="round" stroke-linejoin="round"/>
<path d="M132.27 145.269L132.702 146.526C132.771 146.659 132.807 146.807 132.807 146.958C132.807 147.108 132.771 147.256 132.702 147.39C132.621 147.482 132.519 147.551 132.404 147.592C132.289 147.633 132.165 147.644 132.045 147.623C131.803 147.601 131.566 147.519 131.324 147.506C130.594 147.476 129.924 148.077 129.207 147.938C128.926 147.161 128.218 146.02 129.177 145.67C129.354 145.614 132.373 145.554 132.27 145.269Z" fill="url(#paint6_linear_1_518)" stroke="#263238" stroke-linecap="round" stroke-linejoin="round"/>
<path d="M132.257 148.807C132.325 149.106 132.374 149.409 132.404 149.714C132.448 149.907 132.441 150.108 132.385 150.298C132.329 150.488 132.226 150.66 132.084 150.798C131.9 150.899 131.694 150.954 131.484 150.958L128.987 151.183C128.95 150.711 128.943 150.238 128.965 149.766C129.112 149.204 129.008 149.252 129.54 149.023C130.382 148.664 131.393 149.234 132.257 148.807Z" fill="url(#paint7_linear_1_518)" stroke="#263238" stroke-linecap="round" stroke-linejoin="round"/>
<path d="M123.176 87.6959C123.176 87.6959 124.118 96.7982 124.161 98.5996" stroke="#263238" stroke-linecap="round" stroke-linejoin="round"/>
<path d="M125.207 87.7953L125.647 92.8108" stroke="#263238" stroke-linecap="round" stroke-linejoin="round"/>
<path d="M132.244 85.8988L132.814 91.7783L133.613 91.8561L133.354 85.955L132.244 85.8988Z" fill="url(#paint8_linear_1_518)" stroke="#263238" stroke-linecap="round" stroke-linejoin="round"/>
<path opacity="0.2" d="M148.474 150.522C148.429 150.655 148.357 150.777 148.262 150.88C146.733 152.327 140.206 153.934 134.598 155.092V151.204L126.438 149.113L125.207 148.798L125.76 142.715L127.872 119.474L129.717 83.2938L129.794 81.7559L145.584 81.0734C145.584 81.0734 145.679 82.2354 145.839 84.2658C146.88 97.1999 150.457 145.42 148.474 150.522Z" fill="black" fill-opacity="0.7"/>
</g>
<path d="M148.474 150.522C148.429 150.655 148.357 150.777 148.262 150.88C146.733 152.327 140.206 153.934 134.598 155.092C129.954 156.056 125.958 156.708 125.958 156.708C125.958 156.708 122.882 131.146 122.882 128.459C122.882 125.772 117.923 82.27 117.923 82.27L129.812 81.7559L145.584 81.0734C145.584 81.0734 145.679 82.2354 145.839 84.2658C146.88 97.1999 150.457 145.42 148.474 150.522Z" stroke="#263238" stroke-linecap="round" stroke-linejoin="round"/>
<path d="M156.842 208.526C156.941 207.615 155.507 194.538 155.481 193.117C155.412 189.229 154.31 184.127 154.31 184.127C152.772 180.196 151.576 171.137 147.472 165.326C143.368 159.516 143.372 152.682 142.69 146.88C142.007 141.078 142.176 141.579 142.348 136.43C142.473 132.562 142.301 128.69 141.834 124.848C141.493 121.427 140.81 115.409 141.834 112.605C142.858 109.801 145.536 109.149 148.47 111.957C151.403 114.765 152.6 126.278 152.6 127.699C152.6 129.12 152.6 133.561 153.628 135.272C153.628 135.272 159.438 132.3 159.438 131.479C159.438 130.658 159.265 123.405 160.121 123.016L156.704 111.957L163.184 109.655C164.403 110.749 165.457 112.015 166.311 113.413C167.043 114.571 167.655 115.799 168.139 117.081C170.873 124.334 175.267 129.393 176.174 131.479C177.081 133.566 176.174 150.137 176.174 153.217C176.174 156.298 174.187 170.497 174.239 172.886C174.277 174.614 175.444 181.043 176.606 185.972C177.038 187.872 179.66 201.645 180.062 202.738L156.842 208.526Z" fill="white"/>
<path opacity="0.4" d="M161.957 122.286C161.914 123.215 163.024 130.619 163.024 130.619C163.793 132.464 159.594 138.754 159.594 138.754C158.687 139.264 158.298 142.426 158.298 142.426C155.455 141.795 148.945 135.251 148.945 135.251C148.945 135.251 148.176 137.933 147.312 144.573C146.448 151.213 151.926 166.985 154.259 177.876C156.591 188.767 155.481 193.104 155.481 193.104C155.412 189.216 154.31 184.114 154.31 184.114C152.772 180.183 151.576 171.124 147.472 165.313C143.368 159.503 143.372 152.682 142.69 146.88C142.007 141.078 142.176 141.579 142.348 136.43C142.473 132.562 142.301 128.69 141.834 124.848C141.493 121.427 140.81 115.409 141.834 112.605C142.858 109.801 145.536 109.149 148.47 111.957C151.403 114.765 152.6 126.278 152.6 127.699C152.6 129.12 152.6 133.561 153.628 135.272C153.628 135.272 159.438 132.3 159.438 131.479C159.438 130.658 159.265 123.405 160.121 123.016L156.704 111.957L163.184 109.655C164.403 110.749 165.457 112.015 166.311 113.413C164.216 117.603 162 121.707 161.957 122.286Z" fill="url(#paint9_linear_1_518)"/>
<path opacity="0.4" d="M172.852 174.031C173.137 171.439 173.988 165.279 174.528 161.434C173.867 164.436 172.8 165.957 172.8 165.957C172.8 165.957 174.64 143.925 174.822 142.582C175.003 141.238 176.861 135.199 176.178 131.458C177.085 133.54 176.178 150.116 176.178 153.196C176.178 156.276 174.191 170.476 174.243 172.865C174.282 174.593 176.135 185.604 177.297 190.534C174.8 186.905 172.567 176.636 172.852 174.031Z" fill="url(#paint10_linear_1_518)"/>
<path d="M180.053 202.716C178.688 198.785 174.303 175.241 174.251 172.865C174.2 170.489 176.187 156.272 176.187 153.196C176.187 150.12 177.094 133.54 176.187 131.458C175.28 129.375 170.886 124.312 168.152 117.059C167.118 114.223 165.419 111.676 163.197 109.633L156.717 111.935L160.134 122.995C159.27 123.383 159.451 130.637 159.451 131.458C159.451 132.278 153.641 135.251 153.641 135.251C152.613 133.523 152.613 129.099 152.613 127.678C152.613 126.256 151.416 114.739 148.483 111.935C145.549 109.132 142.867 109.775 141.847 112.583C140.828 115.391 141.506 121.405 141.847 124.826C142.315 128.673 142.487 132.549 142.361 136.421C142.188 141.571 142.016 141.061 142.703 146.871C143.389 152.682 143.385 159.516 147.485 165.326C151.584 171.137 152.785 180.196 154.323 184.127C154.323 184.127 157.226 205.109 156.855 208.526" stroke="#263238" stroke-linecap="round" stroke-linejoin="round"/>
<path d="M153.628 135.25C153.628 135.25 154.652 140.033 156.959 142.426" stroke="#263238" stroke-linecap="round" stroke-linejoin="round"/>
<path d="M154.25 137.432C154.25 137.432 158.57 138.754 160.376 138.836" stroke="#263238" stroke-linecap="round" stroke-linejoin="round"/>
<path d="M159.438 131.458C159.438 131.458 162.514 130.036 164.48 130.892" stroke="#263238" stroke-linecap="round" stroke-linejoin="round"/>
<path d="M160.121 122.995C160.121 122.995 162.514 122.774 163.024 121.578" stroke="#263238" stroke-linecap="round" stroke-linejoin="round"/>
<path d="M148.262 166.545C148.262 166.545 152.859 172.251 154.224 175.154" stroke="#263238" stroke-linecap="round" stroke-linejoin="round"/>
<path d="M174.99 141.571C174.221 146.102 173.193 158.492 172.852 160.713" stroke="#263238" stroke-linecap="round" stroke-linejoin="round"/>
<path d="M176.459 133.026C176.589 137.13 175.595 139.264 175.595 139.264" stroke="#263238" stroke-linecap="round" stroke-linejoin="round"/>
<path d="M141.126 75.6L172.8 83.9549C172.8 83.9549 161.667 117.742 159.408 121.932L155.632 151.386C155.632 151.386 135.397 150.496 126.092 147.683C126.092 147.683 131.976 117.012 132.291 112.92C132.607 108.829 141.126 75.6 141.126 75.6Z" fill="url(#paint11_linear_1_518)"/>
<mask id="mask1_1_518" style="mask-type:luminance" maskUnits="userSpaceOnUse" x="126" y="75" width="47" height="77">
<path d="M141.126 75.6L172.8 83.9549C172.8 83.9549 161.667 117.742 159.408 121.932L155.632 151.386C155.632 151.386 135.397 150.496 126.092 147.683C126.092 147.683 131.976 117.012 132.291 112.92C132.607 108.829 141.126 75.6 141.126 75.6Z" fill="white"/>
</mask>
<g mask="url(#mask1_1_518)">
<path opacity="0.2" d="M134.313 111.106L141.294 81.2592C141.294 81.2592 144.297 79.7688 145.459 78.408L168.152 84.862C168.152 84.862 168.221 87.0868 169.521 88.5124L158.069 121.513L155.291 145.839C155.291 145.839 151.597 146.133 151.243 148.863C151.243 148.863 139.268 149.511 131.237 147.394C131.237 147.394 130.291 144.443 128.844 142.577L134.313 111.106Z" fill="black" fill-opacity="0.7"/>
<path d="M134.313 111.106L141.294 81.2592C141.294 81.2592 144.297 79.7688 145.459 78.408L168.152 84.862C168.152 84.862 168.221 87.0868 169.521 88.5124L158.069 121.513L155.291 145.839C155.291 145.839 151.597 146.133 151.243 148.863C151.243 148.863 139.268 149.511 131.237 147.394C131.237 147.394 130.291 144.443 128.844 142.577L134.313 111.106Z" stroke="#263238" stroke-linecap="round" stroke-linejoin="round"/>
<path d="M140.124 112.657C140.124 112.657 142.184 104.881 149.442 106.276C156.699 107.672 152.6 117.253 152.6 117.253C152.6 117.253 152.643 124.986 146.755 123.919C141.648 122.995 138.927 120.191 140.124 112.657Z" fill="url(#paint12_linear_1_518)" stroke="#263238" stroke-linecap="round" stroke-linejoin="round"/>
<path d="M144.055 84.0974C144.055 84.0974 141.86 92.9837 141.294 94.6944" stroke="#263238" stroke-linecap="round" stroke-linejoin="round"/>
<path d="M145.934 84.8663L144.655 89.7393" stroke="#263238" stroke-linecap="round" stroke-linejoin="round"/>
<path d="M161.957 88.2834L166.324 89.8214L165.845 91.1908H164.48L161.572 90.5082L161.957 88.2834Z" fill="url(#paint13_linear_1_518)" stroke="#263238" stroke-linecap="round" stroke-linejoin="round"/>
<path d="M161.231 91.1908L164.48 92.2146L165.162 92.8972L164.48 94.6943L160.717 93.4113L161.231 91.1908Z" fill="url(#paint14_linear_1_518)" stroke="#263238" stroke-linecap="round" stroke-linejoin="round"/>
<path d="M160.717 94.2667L164.48 95.3035L163.948 96.66H161.957L160.121 95.891L160.717 94.2667Z" fill="url(#paint15_linear_1_518)" stroke="#263238" stroke-linecap="round" stroke-linejoin="round"/>
<path d="M160.121 96.6599L163.024 97.8566V98.7076L162.298 99.3945L159.594 98.6255V97.1697L160.121 96.6599Z" fill="url(#paint16_linear_1_518)" stroke="#263238" stroke-linecap="round" stroke-linejoin="round"/>
<path d="M162.596 100.518V101.848C162.619 101.995 162.606 102.145 162.561 102.286C162.515 102.427 162.437 102.555 162.333 102.66C162.225 102.719 162.105 102.75 161.983 102.75C161.86 102.75 161.74 102.719 161.633 102.66C161.412 102.557 161.201 102.401 160.993 102.311C160.315 102.038 159.481 102.38 158.833 102.017C158.833 101.192 158.544 99.8827 159.564 99.8568C159.732 99.8698 162.596 100.82 162.596 100.518Z" fill="url(#paint17_linear_1_518)" stroke="#263238" stroke-linecap="round" stroke-linejoin="round"/>
<path d="M161.4 103.848C161.367 104.153 161.312 104.455 161.235 104.751C161.14 105.136 160.955 105.563 160.57 105.667C160.363 105.702 160.151 105.684 159.952 105.615L157.524 104.976C157.642 104.521 157.786 104.074 157.956 103.637C158.285 103.157 158.172 103.166 158.747 103.127C159.68 103.088 160.44 103.965 161.4 103.848Z" fill="url(#paint18_linear_1_518)" stroke="#263238" stroke-linecap="round" stroke-linejoin="round"/>
<path d="M153.2 85.4668L151.744 91.1908L152.47 91.5321L154.224 85.8902L153.2 85.4668Z" fill="url(#paint19_linear_1_518)" stroke="#263238" stroke-linecap="round" stroke-linejoin="round"/>
<path d="M134.957 123.906L139.441 125.068L139.078 126.468L137.717 126.589L134.762 126.153L134.957 123.906Z" fill="url(#paint20_linear_1_518)" stroke="#263238" stroke-linecap="round" stroke-linejoin="round"/>
<path d="M134.482 126.865L137.804 127.608L138.547 128.23L138.02 130.079L134.162 129.12L134.482 126.865Z" fill="url(#paint21_linear_1_518)" stroke="#263238" stroke-linecap="round" stroke-linejoin="round"/>
<path d="M134.235 129.976L138.072 130.684L137.657 132.08L135.674 132.252L133.777 131.643L134.235 129.976Z" fill="url(#paint22_linear_1_518)" stroke="#263238" stroke-linecap="round" stroke-linejoin="round"/>
<path d="M133.842 132.408L136.84 133.354L136.914 134.205L136.248 134.948L133.488 134.412L133.363 132.965L133.842 132.408Z" fill="url(#paint23_linear_1_518)" stroke="#263238" stroke-linecap="round" stroke-linejoin="round"/>
<path d="M136.637 136.041L136.754 137.367C136.789 137.512 136.79 137.663 136.756 137.807C136.723 137.952 136.655 138.087 136.56 138.201C136.458 138.268 136.341 138.309 136.219 138.319C136.097 138.329 135.975 138.307 135.864 138.257C135.635 138.175 135.432 138.037 135.194 137.968C134.499 137.752 133.695 138.162 133.034 137.855C132.957 137.035 132.564 135.756 133.574 135.657C133.73 135.648 136.663 136.343 136.637 136.041Z" fill="url(#paint24_linear_1_518)" stroke="#263238" stroke-linecap="round" stroke-linejoin="round"/>
<path d="M135.734 139.463C135.728 139.777 135.699 140.09 135.648 140.4C135.583 140.789 135.436 141.234 135.065 141.368C134.861 141.42 134.647 141.42 134.443 141.368L131.972 140.936C132.055 140.471 132.166 140.013 132.304 139.562C132.589 139.056 132.477 139.074 133.047 138.987C133.955 138.853 134.784 139.661 135.734 139.463Z" fill="url(#paint25_linear_1_518)" stroke="#263238" stroke-linecap="round" stroke-linejoin="round"/>
<path d="M153.628 143.657C153.628 143.657 154.656 132.192 154.656 131.039" stroke="#263238" stroke-linecap="round" stroke-linejoin="round"/>
<path d="M151.576 143.143C151.576 143.143 152.008 137.182 152.086 136.145" stroke="#263238" stroke-linecap="round" stroke-linejoin="round"/>
<path d="M143.562 138.836L142.176 145.623H143.562L144.569 138.836H143.562Z" fill="url(#paint26_linear_1_518)" stroke="#263238" stroke-linecap="round" stroke-linejoin="round"/>
<path opacity="0.2" d="M159.481 121.763C156.483 121.137 153.809 120.217 151.831 118.891C151.831 118.891 153.265 123.012 158.35 130.036L155.615 151.386C155.615 151.386 142.409 150.807 132.43 149.1C135.497 140.46 141.07 124.088 140.409 120.843C139.514 116.389 142.672 111.132 142.672 111.132C152.656 109.335 162.337 101.788 168.981 95.4071C165.599 105.408 160.98 118.8 159.481 121.763Z" fill="black" fill-opacity="0.7"/>
</g>
<path d="M141.126 75.6L172.8 83.9549C172.8 83.9549 161.667 117.742 159.408 121.932L155.632 151.386C155.632 151.386 135.397 150.496 126.092 147.683C126.092 147.683 131.976 117.012 132.291 112.92C132.607 108.829 141.126 75.6 141.126 75.6Z" stroke="#263238" stroke-linecap="round" stroke-linejoin="round"/>
<path d="M158.687 142.858L154.224 175.154C153.23 173.042 150.522 169.439 149.122 167.638C148.604 166.964 148.258 166.545 148.258 166.545L147.468 165.326C143.368 159.516 143.368 152.682 142.685 146.871C142.003 141.061 142.171 141.571 142.344 136.421C142.47 132.556 142.299 128.687 141.834 124.848C141.493 121.427 140.81 115.409 141.834 112.605C142.335 111.231 143.238 110.376 144.37 110.195C145.502 110.013 146.962 110.531 148.47 111.957C151.403 114.761 152.6 126.278 152.6 127.699C152.6 129.12 152.6 133.561 153.628 135.272C153.628 135.251 156.384 140.465 158.687 142.858Z" fill="white"/>
<path opacity="0.4" d="M147.131 163.024C148.064 164.216 148.699 165.936 149.122 167.638C148.604 166.964 148.258 166.545 148.258 166.545L147.468 165.326C143.368 159.516 143.368 152.682 142.685 146.871C142.003 141.061 142.171 141.571 142.344 136.421C142.47 132.556 142.299 128.687 141.834 124.848C141.493 121.427 140.81 115.409 141.834 112.605C142.335 111.231 143.238 110.376 144.37 110.195C146.53 110.808 148.69 113.007 149.442 116.77C150.738 123.085 144.893 117.984 143.541 123.336C142.188 128.688 144.154 130.131 144.962 131.479C145.77 132.827 144.737 135.799 143.541 139.791C142.344 143.783 144.569 159.745 147.131 163.024Z" fill="url(#paint27_linear_1_518)"/>
<path d="M158.687 142.858C156.38 140.465 153.628 135.25 153.628 135.25C152.6 133.522 152.6 129.099 152.6 127.678C152.6 126.256 151.403 114.739 148.47 111.935C145.536 109.132 142.854 109.775 141.834 112.583C140.815 115.391 141.493 121.405 141.834 124.826C142.302 128.672 142.474 132.549 142.348 136.421C142.176 141.571 142.003 141.061 142.69 146.871C143.376 152.682 143.372 159.516 147.472 165.326L148.262 166.545C148.262 166.545 152.859 172.251 154.224 175.154" stroke="#263238" stroke-linecap="round" stroke-linejoin="round"/>
<path d="M143.562 129.19C143.562 129.19 147.48 127.163 149.442 127.336" stroke="#263238" stroke-linecap="round" stroke-linejoin="round"/>
<path opacity="0.2" d="M83.7259 73.7899C83.7259 73.7899 73.8158 62.8776 73.1333 62.208C72.4507 61.5384 71.9366 49.9003 70.0531 44.7768C68.1696 39.6533 67.2581 9.5688 67.2581 9.5688C67.2581 9.5688 65.4653 7.34832 60.4109 8.54496C55.3565 9.7416 50.4014 7.5168 44.7638 10.7654C39.1262 14.0141 50.0601 60.48 50.0601 60.48L61.1582 95.8478L83.7259 73.7899Z" fill="black" fill-opacity="0.7"/>
<path d="M90.5342 73.872C90.5342 73.872 86.0932 102.241 81.4622 106C78.7881 108.16 74.6193 109.153 70.9214 109.024C68.243 108.929 65.8065 108.255 64.3723 107.032C60.9552 104.125 56.1643 102.587 53.7796 100.708C51.395 98.8286 51.3864 92.1628 49.8484 86.5209C48.3105 80.879 46.0857 80.7105 45.576 75.0729C45.0662 69.4353 43.0099 52.1769 39.2947 47.386C35.5795 42.5952 35.4931 38.8411 33.9552 33.9681C32.4172 29.0952 21.168 11.4652 21.168 11.4652L48.5913 5.84924C48.5913 5.84924 51.287 17.0078 54.1728 26.11C55.5422 30.43 56.9548 34.2921 58.1385 36.2707C60.4114 40.0977 62.3802 44.0974 64.0267 48.2328C67.1284 51.4814 68.8262 58.6785 69.3403 64.9814L76.6843 69.0768C82.3305 70.619 90.5342 73.872 90.5342 73.872Z" fill="white"/>
<path opacity="0.4" d="M90.5342 73.8719C90.5342 73.8719 86.0932 102.241 81.4622 106C78.7881 108.16 74.6193 109.153 70.9214 109.024C62.1518 106.864 59.7931 101.974 58.6051 100.79C57.024 99.2131 54.946 89.6054 56.0865 84.0153C57.227 78.4252 56.4062 76.3559 55.4644 73.6257C53.3779 67.5777 59.7412 64.3204 60.3979 62.0308C61.0545 59.7412 60.8299 46.9367 57.9657 42.7723C56.4451 40.5561 52.5268 29.134 54.1771 26.1187C55.5465 30.4387 56.9592 34.3007 58.1428 36.2793C60.4157 40.1064 62.3845 44.106 64.031 48.2414C67.1328 51.49 68.8305 58.6871 69.3446 64.99L76.6886 69.0854C82.3305 70.619 90.5342 73.8719 90.5342 73.8719Z" fill="url(#paint28_linear_1_518)"/>
<path d="M57.0456 71.8761C57.0456 71.8761 55.499 73.6948 54.1339 73.6948" stroke="#263238" stroke-linecap="round" stroke-linejoin="round"/>
<path d="M60.4109 78.0234C60.4109 78.0234 58.7477 81.5572 56.0909 82.3434" stroke="#263238" stroke-linecap="round" stroke-linejoin="round"/>
<path d="M57.456 98.7335C57.456 98.7335 61.2187 97.1092 61.8148 94.3746" stroke="#263238" stroke-linecap="round" stroke-linejoin="round"/>
<path d="M76.6929 69.0811C76.6929 69.0811 75.7512 70.2777 75.7512 71.2411" stroke="#263238" stroke-linecap="round" stroke-linejoin="round"/>
<path d="M48.6086 5.84924C48.6086 5.84924 54.4752 30.1147 58.1558 36.288C60.4287 40.115 62.3974 44.1147 64.044 48.25C67.1457 51.4987 68.8435 58.7001 69.3576 65.003L76.7016 69.0984C82.3392 70.6363 90.5256 73.8849 90.5256 73.8849C90.5256 73.8849 86.0846 102.254 81.4536 106.013C76.8225 109.771 67.824 109.927 64.368 107.024C60.912 104.121 56.16 102.578 53.7753 100.699C51.3907 98.82 51.382 92.1542 49.8441 86.5123C48.3062 80.8704 46.0814 80.7019 45.5716 75.0643C45.0619 69.4267 43.0056 52.1683 39.2904 47.3774C35.5752 42.5865 35.4888 38.8324 33.9508 33.9595C32.4129 29.0865 21.168 11.4652 21.168 11.4652" stroke="#263238" stroke-linecap="round" stroke-linejoin="round"/>
<path d="M100.924 72.0316L55.5681 141.847L66.2731 143.039L98.7984 144.392L102.129 82.2916L100.924 72.0316Z" fill="#263238" stroke="#263238" stroke-linecap="round" stroke-linejoin="round"/>
<path d="M100.924 72.0273L96.7334 143.199L55.5681 141.847L58.8168 87.3115L59.8276 70.3771L77.7643 71.0985L100.924 72.0273Z" fill="#757575"/>
<mask id="mask2_1_518" style="mask-type:luminance" maskUnits="userSpaceOnUse" x="55" y="70" width="46" height="74">
<path d="M100.924 72.0273L96.7334 143.199L55.5681 141.847L58.8168 87.3115L59.8276 70.3771L77.7643 71.0985L100.924 72.0273Z" fill="white"/>
</mask>
<g mask="url(#mask2_1_518)">
<path d="M90.5731 135.004C93.3407 135.004 95.5843 132.761 95.5843 129.993C95.5843 127.226 93.3407 124.982 90.5731 124.982C87.8055 124.982 85.5619 127.226 85.5619 129.993C85.5619 132.761 87.8055 135.004 90.5731 135.004Z" fill="#BFBFBF" stroke="#263238" stroke-miterlimit="10"/>
<path d="M89.1604 126.667L92.556 127.112" stroke="#263238" stroke-linecap="round" stroke-linejoin="round"/>
<path d="M88.2489 127.492L93.3509 127.989" stroke="#263238" stroke-linecap="round" stroke-linejoin="round"/>
<path d="M87.683 132.52L92.7893 133.017" stroke="#263238" stroke-linecap="round" stroke-linejoin="round"/>
<path d="M89.9165 128.628C90.0567 128.663 90.205 128.642 90.3305 128.571C90.456 128.499 90.5491 128.382 90.5904 128.243L90.9705 128.282L90.5861 131.889L90.0201 131.829L90.3139 129.077L89.8819 129.03L89.9165 128.628Z" fill="#263238"/>
<path d="M91.8043 128.779C92.0289 128.779 92.1326 128.948 92.1067 129.185V129.228L91.8864 129.207V129.168C91.8864 129.064 91.8604 129.017 91.787 129.008C91.7136 129 91.666 129.038 91.6574 129.142C91.6488 129.246 91.6833 129.336 91.8216 129.483C91.8917 129.543 91.9467 129.618 91.9821 129.703C92.0174 129.788 92.0319 129.88 92.0246 129.971C91.9987 130.209 91.8691 130.33 91.6401 130.304C91.4112 130.278 91.3118 130.131 91.3334 129.898V129.807L91.5494 129.829V129.937C91.5494 130.041 91.5796 130.084 91.6531 130.092C91.7265 130.101 91.7784 130.067 91.787 129.963C91.7956 129.859 91.7611 129.768 91.6228 129.622C91.5527 129.562 91.4976 129.487 91.4623 129.402C91.427 129.317 91.4124 129.225 91.4198 129.133C91.45 128.874 91.584 128.736 91.8043 128.779Z" fill="#263238"/>
<path d="M92.2104 128.84L92.9275 128.913L92.9016 129.125L92.6596 129.099L92.5257 130.36L92.2968 130.339L92.4307 129.073L92.1888 129.047L92.2104 128.84Z" fill="#263238"/>
<path d="M80.0661 75.1867L72.0299 73.433C71.8224 73.3878 71.6176 73.5193 71.5723 73.7267L70.479 78.7367C70.4338 78.9441 70.5652 79.149 70.7727 79.1943L78.8089 80.9479C79.0163 80.9932 79.2212 80.8617 79.2665 80.6542L80.3597 75.6443C80.405 75.4368 80.2735 75.232 80.0661 75.1867Z" fill="white" stroke="#263238" stroke-linecap="round" stroke-linejoin="round"/>
<path d="M73.44 78.3734L73.4097 78.3432C73.4097 78.3432 73.4097 78.2914 73.3881 78.2698C73.3676 78.2504 73.3514 78.2268 73.3406 78.2006C73.3387 78.1921 73.3387 78.1833 73.3406 78.1747C73.3406 78.1747 73.3622 78.1747 73.3752 78.1445C73.3858 78.138 73.3948 78.1292 73.4016 78.1187C73.4083 78.1082 73.4126 78.0964 73.4141 78.084C73.4124 78.0769 73.4124 78.0695 73.4141 78.0624H73.44C73.44 77.9803 73.3881 77.9198 73.3363 77.855C73.211 77.6995 73.1851 77.6218 73.211 77.5181C73.2369 77.4144 73.2801 77.3842 73.3536 77.3971C73.427 77.4101 73.4573 77.4619 73.4357 77.5656V77.6261L73.6517 77.6736V77.6261C73.6808 77.5497 73.6796 77.465 73.6483 77.3895C73.617 77.3139 73.5579 77.2533 73.4832 77.22L73.5091 77.1163L73.3233 77.0731L73.3017 77.1811C73.1332 77.1811 73.0253 77.2891 72.9821 77.4835C72.9656 77.5704 72.9716 77.6601 72.9996 77.7441C73.0275 77.828 73.0765 77.9034 73.1419 77.963C73.2672 78.1142 73.2931 78.2006 73.2672 78.3C73.2413 78.3994 73.1937 78.4339 73.1203 78.4166C73.0468 78.3994 73.0123 78.3518 73.0339 78.2525L73.0598 78.1358L72.8438 78.0883V78.1877C72.826 78.227 72.8162 78.2696 72.815 78.3127C72.8139 78.3559 72.8214 78.3989 72.8371 78.4392C72.8527 78.4794 72.8763 78.5161 72.9064 78.5471C72.9365 78.5781 72.9725 78.6028 73.0123 78.6197V78.7234L73.1981 78.7666L73.2197 78.6586H73.332C73.366 78.6467 73.3969 78.6275 73.4227 78.6024C73.4491 78.5759 73.4709 78.5452 73.4875 78.5117C73.44 78.3994 73.44 78.3864 73.44 78.3734Z" fill="#263238"/>
<path d="M74.628 78.3043C74.626 78.2698 74.6172 78.236 74.6021 78.205C74.5978 78.1879 74.5978 78.1701 74.6021 78.1531C74.6087 78.1401 74.6193 78.1295 74.6323 78.1229C74.7489 78.0192 74.6064 77.881 74.4941 77.855C74.4552 77.8454 74.4146 77.8459 74.376 77.8565C74.3374 77.8671 74.3022 77.8874 74.2737 77.9155L74.3645 77.5786L74.7619 77.665L74.8051 77.4576L74.2089 77.328C74.1963 77.357 74.1876 77.3875 74.183 77.4187C74.183 77.449 74.2219 77.4576 74.2219 77.4922C74.2219 77.5267 74.2219 77.5224 74.2219 77.5397C74.2298 77.565 74.2467 77.5865 74.2694 77.6002C74.291 77.6002 74.3126 77.639 74.3083 77.665C74.3113 77.6733 74.3113 77.6825 74.3083 77.6909C74.2919 77.7306 74.2631 77.7639 74.2262 77.7859C74.2092 77.7892 74.1939 77.7984 74.183 77.8118V77.8378C74.183 77.868 74.1485 77.8853 74.1225 77.9026C74.0966 77.9198 74.0318 78.0581 74.0059 78.1531L74.2219 78.2006V78.1574C74.2435 78.0538 74.2997 78.0278 74.3688 78.0408C74.4379 78.0538 74.4811 78.1056 74.4552 78.2093L74.3861 78.529C74.3861 78.6283 74.3126 78.6586 74.2392 78.6413C74.1657 78.624 74.1312 78.5808 74.1528 78.4771L74.183 78.3432L73.967 78.2957L73.9411 78.4166C73.9244 78.4635 73.9178 78.5134 73.9219 78.563C73.926 78.6126 73.9406 78.6608 73.9648 78.7043C73.989 78.7478 74.0221 78.7857 74.0621 78.8153C74.1021 78.845 74.1479 78.8658 74.1966 78.8763C74.2452 78.8868 74.2956 78.8869 74.3442 78.8764C74.3929 78.8659 74.4387 78.8452 74.4788 78.8156C74.5188 78.786 74.552 78.7482 74.5762 78.7047C74.6005 78.6613 74.6152 78.6131 74.6193 78.5635C74.6347 78.478 74.6376 78.3907 74.628 78.3043Z" fill="#263238"/>
<path d="M77.4489 78.9091C77.4449 78.8749 77.4362 78.8415 77.423 78.8097C77.4188 78.7927 77.4188 78.7749 77.423 78.7579C77.4296 78.7448 77.4402 78.7343 77.4532 78.7276C77.5655 78.6239 77.423 78.4857 77.315 78.4598C77.2762 78.4501 77.2355 78.4506 77.1969 78.4612C77.1583 78.4718 77.1231 78.4921 77.0947 78.5203L77.1854 78.1833L77.5828 78.2697L77.626 78.0623L77.0299 77.9327C77.0154 77.961 77.0066 77.9918 77.004 78.0235C77.004 78.0537 77.0385 78.0623 77.0428 78.0969C77.0472 78.1315 77.0428 78.1271 77.0428 78.1444C77.0507 78.1697 77.0676 78.1913 77.0904 78.2049C77.112 78.2049 77.1335 78.2438 77.1292 78.2697C77.1249 78.2956 77.1292 78.2697 77.1292 78.2956C77.1126 78.3366 77.082 78.3703 77.0428 78.3907C77.0275 78.3951 77.0139 78.4042 77.004 78.4166C77.004 78.4166 77.004 78.4166 77.004 78.4425C77.004 78.4684 76.9737 78.49 76.9478 78.5073C76.9219 78.5246 76.8571 78.6628 76.8312 78.7579L77.0472 78.8054V78.7622C77.0688 78.6585 77.1249 78.6326 77.194 78.6455C77.2632 78.6585 77.302 78.7103 77.2804 78.814L77.2113 79.1337C77.2113 79.2331 77.1379 79.2633 77.0644 79.246C76.991 79.2287 76.9564 79.1855 76.978 79.0819L77.0083 78.9479L76.7923 78.9004L76.7664 79.0214C76.7533 79.0668 76.7497 79.1145 76.7558 79.1613C76.7619 79.2082 76.7776 79.2533 76.8018 79.2939C76.826 79.3345 76.8584 79.3697 76.8967 79.3973C76.9351 79.4249 76.9787 79.4444 77.0249 79.4544C77.0711 79.4645 77.1189 79.465 77.1653 79.4558C77.2117 79.4467 77.2557 79.4282 77.2946 79.4013C77.3335 79.3745 77.3666 79.34 77.3916 79.2999C77.4167 79.2598 77.4332 79.215 77.4403 79.1683C77.4576 79.0829 77.4605 78.9953 77.4489 78.9091Z" fill="#263238"/>
<path d="M75.1205 77.8766C75.1421 77.773 75.1982 77.7427 75.2673 77.76C75.2895 77.763 75.3099 77.7738 75.3249 77.7904C75.3399 77.807 75.3486 77.8284 75.3494 77.8507H75.4229C75.4254 77.8633 75.4305 77.8752 75.438 77.8856C75.4454 77.896 75.455 77.9047 75.4661 77.9112C75.492 77.9328 75.5265 77.9458 75.5568 77.9674C75.571 77.9219 75.5755 77.874 75.5699 77.8268C75.5643 77.7795 75.5487 77.734 75.5242 77.6931C75.4997 77.6523 75.4669 77.6172 75.4278 77.59C75.3887 77.5628 75.3444 77.5442 75.2976 77.5354C75.25 77.5194 75.1993 77.5145 75.1495 77.5212C75.0997 77.5279 75.0521 77.5459 75.0104 77.5739C74.9687 77.6018 74.9339 77.639 74.9088 77.6825C74.8837 77.726 74.8689 77.7747 74.8656 77.8248C74.8636 77.8521 74.8636 77.8795 74.8656 77.9069C74.8656 77.976 74.8656 77.9544 74.9347 77.9803C75.0038 78.0062 75.0254 78.0408 74.9649 78.0624H75.0038C75.0038 78.0624 75.0038 78.0926 75.0038 78.1056C75.0038 78.1186 75.0038 78.1272 74.9822 78.1445C74.9862 78.1557 74.9862 78.1679 74.9822 78.179C74.9822 78.179 74.9477 78.2352 74.939 78.2438C74.9264 78.2652 74.9086 78.2831 74.8872 78.2957C74.831 78.3302 74.8051 78.2957 74.7878 78.3821C74.7705 78.4685 74.7662 78.4771 74.7576 78.5203C74.741 78.5676 74.7346 78.6179 74.7389 78.6678C74.7432 78.7178 74.758 78.7662 74.7824 78.81C74.8068 78.8538 74.8402 78.8919 74.8804 78.9218C74.9206 78.9517 74.9667 78.9728 75.0157 78.9835C75.0646 78.9943 75.1153 78.9946 75.1644 78.9843C75.2134 78.974 75.2598 78.9535 75.3003 78.924C75.3408 78.8945 75.3746 78.8568 75.3995 78.8132C75.4243 78.7697 75.4397 78.7214 75.4445 78.6715L75.5136 78.3691H75.4877C75.4364 78.346 75.3873 78.3186 75.3408 78.287L75.3019 78.2525L75.2155 78.6413C75.2155 78.745 75.1377 78.7752 75.0686 78.7579C74.9995 78.7406 74.9606 78.6931 74.9822 78.5894L75.1075 78.0019C75.1047 77.9655 75.1138 77.9291 75.1334 77.8982L75.1205 77.8766Z" fill="#263238"/>
<path d="M76.1832 78.5894H76.2048C76.2048 78.5678 76.2048 78.5462 76.2048 78.5159H76.2998L76.3732 78.1833C76.3898 78.136 76.3962 78.0857 76.3919 78.0358C76.3876 77.9858 76.3728 77.9374 76.3484 77.8936C76.324 77.8498 76.2906 77.8117 76.2504 77.7818C76.2102 77.7519 76.1641 77.7308 76.1151 77.7201C76.0662 77.7093 76.0155 77.709 75.9664 77.7193C75.9174 77.7296 75.8711 77.7501 75.8305 77.7796C75.79 77.8091 75.7562 77.8468 75.7313 77.8904C75.7065 77.9339 75.6912 77.9822 75.6864 78.0321V78.0926C75.7166 78.1185 75.7339 78.1617 75.7641 78.1833C75.7944 78.2049 75.8419 78.1833 75.8289 78.2567C75.816 78.3302 75.803 78.3172 75.8289 78.3388C75.8548 78.3604 75.8592 78.3388 75.8635 78.3691C75.8687 78.3759 75.8716 78.3842 75.8716 78.3928C75.8716 78.4014 75.8687 78.4098 75.8635 78.4166C75.8635 78.4166 75.8332 78.4166 75.8289 78.4554C75.8246 78.4943 75.8289 78.5202 75.803 78.5289C75.7771 78.5375 75.7209 78.477 75.6734 78.4814C75.6564 78.4863 75.641 78.4958 75.6288 78.5087C75.6167 78.5216 75.6082 78.5375 75.6043 78.5548C75.5823 78.6282 75.5664 78.7034 75.5568 78.7794C75.541 78.8251 75.5355 78.8738 75.5407 78.9218C75.5459 78.9699 75.5617 79.0162 75.5869 79.0575C75.612 79.0987 75.646 79.1339 75.6864 79.1606C75.7267 79.1872 75.7724 79.2045 75.8203 79.2114C75.8694 79.2246 75.9208 79.2268 75.9708 79.2178C76.0208 79.2089 76.0683 79.189 76.1097 79.1596C76.148 79.1266 76.1801 79.0871 76.2048 79.043C76.2242 79.0209 76.2349 78.9925 76.2349 78.9631C76.2349 78.9336 76.2242 78.9052 76.2048 78.8831H76.1832L76.1529 78.7794C76.1529 78.7794 76.1529 78.7794 76.1832 78.7535C76.2134 78.7276 76.1832 78.6714 76.2264 78.6412C76.2696 78.611 76.1745 78.598 76.1832 78.5894ZM76.0017 78.8831C75.9801 78.9868 75.924 79.017 75.8505 78.9998C75.7771 78.9825 75.7425 78.935 75.7641 78.8313L75.9369 78.0537C75.9585 77.95 76.0104 77.9198 76.0838 77.9371C76.1572 77.9543 76.1918 78.0018 76.1702 78.1055L76.0017 78.8831Z" fill="#263238"/>
<path d="M76.5676 79.125L76.5201 79.3454L76.2998 79.2978L76.3473 79.0775L76.5676 79.125Z" fill="#263238"/>
<path d="M78.3734 78.7406C78.3993 78.7406 78.3993 78.6412 78.408 78.6066C78.4246 78.5593 78.4309 78.5091 78.4267 78.4591C78.4224 78.4092 78.4075 78.3607 78.3832 78.3169C78.3588 78.2732 78.3253 78.2351 78.2851 78.2051C78.2449 78.1752 78.1988 78.1542 78.1499 78.1434C78.1009 78.1326 78.0502 78.1324 78.0012 78.1426C77.9521 78.1529 77.9058 78.1735 77.8653 78.2029C77.8247 78.2324 77.7909 78.2702 77.7661 78.3137C77.7412 78.3572 77.7259 78.4055 77.7211 78.4554L77.6563 78.7449C77.7125 78.7967 77.6563 78.8788 77.6822 78.9393C77.7081 78.9997 77.6822 78.9393 77.6822 78.9652C77.6822 78.9911 77.6174 79.0041 77.6174 79.0386C77.6174 79.0386 77.5829 79.0905 77.5613 79.1164C77.5476 79.1369 77.5401 79.1609 77.5397 79.1855C77.5231 79.2328 77.5167 79.2831 77.521 79.333C77.5253 79.383 77.5401 79.4314 77.5645 79.4752C77.5889 79.519 77.6223 79.5571 77.6625 79.587C77.7027 79.6169 77.7488 79.6379 77.7978 79.6487C77.8467 79.6595 77.8974 79.6598 77.9465 79.6495C77.9955 79.6392 78.0418 79.6187 78.0824 79.5892C78.1229 79.5597 78.1567 79.5219 78.1815 79.4784C78.2064 79.4349 78.2217 79.3866 78.2265 79.3367L78.2784 79.0991C78.2784 79.0386 78.3561 78.8788 78.2784 78.8313C78.2006 78.7837 78.2438 78.8313 78.2352 78.801C78.2299 78.7911 78.2271 78.7799 78.2271 78.7686C78.2271 78.7573 78.2299 78.7462 78.2352 78.7362C78.287 78.693 78.3259 78.7665 78.3734 78.7406ZM78.1099 79.1207C78.1099 79.1466 78.0667 79.1553 78.0451 79.1898C78.0285 79.2327 78.0183 79.2779 78.0149 79.3237C77.9933 79.4274 77.9371 79.4534 77.868 79.4404C77.7989 79.4274 77.7557 79.3756 77.7816 79.2719C77.7816 79.2417 77.8205 79.1553 77.8118 79.1293C77.8032 79.1034 77.7686 79.1294 77.7513 79.0775C77.7384 79.0323 77.7384 78.9844 77.7513 78.9393C77.7534 78.9293 77.7534 78.919 77.7513 78.909C77.7513 78.909 77.7297 78.8701 77.7513 78.8529C77.7513 78.8529 77.7513 78.7967 77.7513 78.7578C77.8896 78.8097 77.8853 78.598 77.9069 78.5116C77.9285 78.4252 77.9846 78.3777 78.0537 78.395C78.1229 78.4122 78.1617 78.4598 78.1401 78.5591C78.1108 78.6471 78.0934 78.7386 78.0883 78.8313C78.1063 78.8341 78.1229 78.8428 78.1355 78.8561C78.148 78.8694 78.1557 78.8865 78.1574 78.9047C78.1531 78.9275 78.1531 78.951 78.1574 78.9738C78.1574 78.9738 78.1574 79.0127 78.1574 79.03C78.1574 79.0473 78.1315 79.03 78.1142 79.03C78.1023 79.0347 78.0917 79.0423 78.0834 79.0521C78.0751 79.0619 78.0694 79.0736 78.0667 79.0862L78.1099 79.1207Z" fill="#263238"/>
<path d="M75.9585 75.6L77.4187 75.9197" stroke="#263238" stroke-linecap="round" stroke-linejoin="round"/>
<path d="M72.6407 74.8741L75.2327 75.4444" stroke="#263238" stroke-linecap="round" stroke-linejoin="round"/>
<path d="M72.4247 75.8765L74.1355 76.248" stroke="#263238" stroke-linecap="round" stroke-linejoin="round"/>
<path opacity="0.4" d="M57.456 141.216C59.7261 140.623 62.0605 140.309 64.4068 140.283C68.6232 140.18 71.3188 140.979 74.7748 139.268C78.2308 137.557 80.4729 140.637 83.7777 138.927C87.0825 137.216 88.6161 134.477 90.5256 134.538C92.435 134.598 95.2776 104 96.1934 98.7335C97.1092 93.4674 99.0576 78.7881 99.7272 75.8073L95.9644 142.149L57.456 141.216Z" fill="white"/>
<path d="M57.6374 128.161L68.1739 140.979L57.0456 140.288L57.6374 128.161Z" fill="url(#paint29_linear_1_518)" stroke="#263238" stroke-linecap="round" stroke-linejoin="round"/>
<path d="M85.6008 102.816L85.4323 107.693C85.4089 108.374 85.2516 109.043 84.9695 109.663C84.6873 110.282 84.2859 110.841 83.788 111.305C83.2902 111.77 82.7057 112.132 82.0679 112.37C81.4302 112.609 80.7517 112.719 80.0712 112.696L75.06 112.519C74.3775 112.495 73.7065 112.337 73.0853 112.054C72.4641 111.77 71.905 111.367 71.4402 110.867C70.9754 110.367 70.6139 109.78 70.3766 109.139C70.1393 108.499 70.0308 107.818 70.0574 107.136L70.282 100.786C70.3305 99.4119 70.9224 98.1138 71.9278 97.1765C72.9331 96.2392 74.2695 95.7395 75.6432 95.7873L80.6544 95.9601C80.7926 95.9601 80.9308 95.9601 81.0864 95.9904C80.3851 96.6649 79.9425 97.5638 79.8355 98.5309C79.7284 99.498 79.9637 100.472 80.5005 101.284C81.0372 102.095 81.8415 102.693 82.7733 102.973C83.7051 103.253 84.7056 103.197 85.6008 102.816Z" fill="url(#paint30_linear_1_518)" stroke="#263238" stroke-linecap="round" stroke-linejoin="round"/>
<path d="M86.5036 98.6039C86.488 99.0728 86.3336 99.5265 86.0601 99.9076C85.7865 100.289 85.4061 100.58 84.9669 100.745C84.5277 100.91 84.0494 100.941 83.5926 100.834C83.1358 100.727 82.721 100.487 82.4007 100.144C82.0803 99.8016 81.8688 99.3715 81.7929 98.9086C81.7169 98.4456 81.78 97.9705 81.9741 97.5434C82.1683 97.1163 82.4847 96.7564 82.8834 96.5092C83.2821 96.2619 83.7452 96.1385 84.214 96.1545C84.842 96.177 85.4355 96.4474 85.8646 96.9064C86.2937 97.3655 86.5235 97.9758 86.5036 98.6039Z" fill="url(#paint31_linear_1_518)" stroke="#263238" stroke-linecap="round" stroke-linejoin="round"/>
<path opacity="0.4" d="M71.483 107.741L78.8486 101.442C78.8486 101.442 77.9155 98.0683 78.8486 97.0012H75.3105C74.4585 96.9984 73.6375 97.321 73.0152 97.9031C72.393 98.4852 72.0165 99.2829 71.9625 100.133L71.483 107.741Z" fill="white"/>
<path opacity="0.4" d="M83.1297 98.7336L84.7065 97.0056C84.7065 97.0056 83.7259 96.3446 83.1297 97.0056C82.5335 97.6665 83.1297 98.7336 83.1297 98.7336Z" fill="white"/>
<path d="M82.3607 136.365L94.2364 136.879" stroke="#263238" stroke-linecap="round" stroke-linejoin="round"/>
<path d="M78.2481 137.562L94.2364 138.417" stroke="#263238" stroke-linecap="round" stroke-linejoin="round"/>
<path d="M90.0504 140.979H94.2364" stroke="#263238" stroke-linecap="round" stroke-linejoin="round"/>
<path opacity="0.2" d="M75.4963 97.3598C69.3705 100.306 62.735 89.9856 60.4109 88.5643C59.8379 88.2025 59.3037 87.7827 58.8168 87.3115L59.8277 70.3771L77.76 71.0985C77.6433 73.6214 77.6822 76.4078 78.2438 78.0105C79.4534 81.5054 81.6177 94.4179 75.4963 97.3598Z" fill="black" fill-opacity="0.7"/>
<path opacity="0.4" d="M68.6318 97.8868C68.6318 97.8868 73.5307 100.012 75.7512 98.7508C77.9717 97.4894 80.3649 95.0788 80.7062 89.7263C80.7062 89.7263 83.6222 97.2647 77.7427 99.5241C71.8632 101.783 68.6318 97.8868 68.6318 97.8868Z" fill="white"/>
<path opacity="0.4" d="M66.7224 100.902C66.7224 100.902 76.6583 103.572 80.9092 98.7422C80.9092 98.7422 80.339 101.425 75.7512 102.198C71.1633 102.971 66.7224 100.902 66.7224 100.902Z" fill="white"/>
<path opacity="0.4" d="M82.702 83.6438C81.946 82.3003 82.8748 94.3747 82.8748 94.3747C82.8748 94.3747 84.2399 86.3999 82.702 83.6438Z" fill="white"/>
</g>
<path d="M100.924 72.0273L96.7334 143.199L55.5681 141.847L58.8168 87.3115L59.8276 70.3771L77.7643 71.0985L100.924 72.0273Z" stroke="#263238" stroke-linecap="round" stroke-linejoin="round"/>
<path opacity="0.4" d="M98.8416 143.579L97.3425 143.199L100.924 78.0234L101.559 82.3262L98.8416 143.579Z" fill="white"/>
<path d="M75.4963 97.3598C74.9298 97.6608 74.2999 97.8229 73.6584 97.8327C73.017 97.8424 72.3824 97.6996 71.807 97.4159C70.8112 96.8934 70.0077 96.0672 69.5131 95.0572C67.8067 91.9814 63.1886 84.9743 62.3376 82.9612C61.4865 80.9481 59.603 75.2543 57.7238 72.8654C55.8446 70.4764 54.8164 66.8822 54.8164 66.8822L54.1339 32.0198C55.1577 37.0612 57.9787 42.7852 57.9787 42.7852C60.4296 44.0605 62.512 45.9437 64.0267 48.2543C64.4676 48.7239 64.8625 49.2345 65.206 49.7793C67.9968 54.0993 69.3489 61.8753 69.4958 67.9233C69.6686 74.7619 71.8891 77.8593 75.479 83.8166C79.0689 89.7739 77.8291 96.0335 75.4963 97.3598Z" fill="white"/>
<path opacity="0.4" d="M75.4963 97.3598C74.9275 97.6536 74.2983 97.8115 73.6582 97.8213C73.0181 97.831 72.3845 97.6923 71.807 97.416C73.7683 96.8803 76.343 95.8737 75.7512 94.392C74.8224 92.0246 72.1051 95.5368 70.74 94.392C69.3748 93.2472 64.4155 86.6808 67.5648 83.7907C70.714 80.9006 69.7248 76.0536 67.5648 74.6885C65.4048 73.3233 66.8088 70.0704 67.4913 64.9512C67.9233 61.8537 66.4416 54.8381 65.2233 49.775C68.014 54.095 69.3662 61.871 69.5131 67.919C69.6859 74.7576 71.9064 77.855 75.4963 83.8123C79.0862 89.7696 77.8291 96.1157 75.4963 97.3598Z" fill="url(#paint32_linear_1_518)"/>
<path d="M54.1339 31.9982C55.1577 37.0396 57.9787 42.7636 57.9787 42.7636C60.4296 44.0389 62.512 45.9221 64.0267 48.2327C67.6166 51.9911 69.3273 61.0502 69.4958 67.8844C69.6643 74.7186 71.8891 77.8204 75.479 83.7777C79.0689 89.735 78.071 95.9471 75.479 97.3598C73.6732 98.349 71.2065 98.1331 69.4958 95.0572C67.7851 91.9814 63.1713 84.9743 62.3203 82.9612C61.4692 80.9481 59.5857 75.2543 57.7065 72.8654C55.8273 70.4764 54.7992 66.8822 54.7992 66.8822" stroke="#263238" stroke-linecap="round" stroke-linejoin="round"/>
<path d="M65.232 82.3263C65.232 82.3263 68.0227 82.0757 69.3014 81.0303" stroke="#263238" stroke-linecap="round" stroke-linejoin="round"/>
<path d="M53.7926 67.5691C53.7926 67.5691 53.2483 68.8651 56.0995 70.1611" stroke="#263238" stroke-linecap="round" stroke-linejoin="round"/>
<defs>
<linearGradient id="paint0_linear_1_518" x1="21.5377" y1="121.944" x2="187.793" y2="122.275" gradientUnits="userSpaceOnUse">
<stop stop-color="#1D498D"/>
<stop offset="1" stop-color="#3C65A4"/>
</linearGradient>
<linearGradient id="paint1_linear_1_518" x1="117.272" y1="125.719" x2="149.065" y2="125.743" gradientUnits="userSpaceOnUse">
<stop stop-color="#1D498D"/>
<stop offset="1" stop-color="#3C65A4"/>
</linearGradient>
<linearGradient id="paint2_linear_1_518" x1="127.49" y1="135.257" x2="132.223" y2="135.276" gradientUnits="userSpaceOnUse">
<stop stop-color="#1D498D"/>
<stop offset="1" stop-color="#3C65A4"/>
</linearGradient>
<linearGradient id="paint3_linear_1_518" x1="127.783" y1="138.219" x2="132.149" y2="138.234" gradientUnits="userSpaceOnUse">
<stop stop-color="#1D498D"/>
<stop offset="1" stop-color="#3C65A4"/>
</linearGradient>
<linearGradient id="paint4_linear_1_518" x1="128.313" y1="140.974" x2="132.305" y2="140.988" gradientUnits="userSpaceOnUse">
<stop stop-color="#1D498D"/>
<stop offset="1" stop-color="#3C65A4"/>
</linearGradient>
<linearGradient id="paint5_linear_1_518" x1="128.247" y1="143.655" x2="132.076" y2="143.668" gradientUnits="userSpaceOnUse">
<stop stop-color="#1D498D"/>
<stop offset="1" stop-color="#3C65A4"/>
</linearGradient>
<linearGradient id="paint6_linear_1_518" x1="128.605" y1="146.857" x2="132.807" y2="146.869" gradientUnits="userSpaceOnUse">
<stop stop-color="#1D498D"/>
<stop offset="1" stop-color="#3C65A4"/>
</linearGradient>
<linearGradient id="paint7_linear_1_518" x1="128.88" y1="150.209" x2="132.433" y2="150.219" gradientUnits="userSpaceOnUse">
<stop stop-color="#1D498D"/>
<stop offset="1" stop-color="#3C65A4"/>
</linearGradient>
<linearGradient id="paint8_linear_1_518" x1="132.215" y1="89.4153" x2="133.613" y2="89.4159" gradientUnits="userSpaceOnUse">
<stop stop-color="#1D498D"/>
<stop offset="1" stop-color="#3C65A4"/>
</linearGradient>
<linearGradient id="paint9_linear_1_518" x1="140.771" y1="158.913" x2="166.313" y2="158.927" gradientUnits="userSpaceOnUse">
<stop stop-color="#1D498D"/>
<stop offset="1" stop-color="#3C65A4"/>
</linearGradient>
<linearGradient id="paint10_linear_1_518" x1="172.706" y1="166.329" x2="177.297" y2="166.329" gradientUnits="userSpaceOnUse">
<stop stop-color="#1D498D"/>
<stop offset="1" stop-color="#3C65A4"/>
</linearGradient>
<linearGradient id="paint11_linear_1_518" x1="125.116" y1="120.335" x2="172.804" y2="120.39" gradientUnits="userSpaceOnUse">
<stop stop-color="#1D498D"/>
<stop offset="1" stop-color="#3C65A4"/>
</linearGradient>
<linearGradient id="paint12_linear_1_518" x1="139.553" y1="116.681" x2="153.754" y2="116.702" gradientUnits="userSpaceOnUse">
<stop stop-color="#1D498D"/>
<stop offset="1" stop-color="#3C65A4"/>
</linearGradient>
<linearGradient id="paint13_linear_1_518" x1="161.473" y1="89.9996" x2="166.325" y2="90.0145" gradientUnits="userSpaceOnUse">
<stop stop-color="#1D498D"/>
<stop offset="1" stop-color="#3C65A4"/>
</linearGradient>
<linearGradient id="paint14_linear_1_518" x1="160.624" y1="93.2588" x2="165.163" y2="93.2697" gradientUnits="userSpaceOnUse">
<stop stop-color="#1D498D"/>
<stop offset="1" stop-color="#3C65A4"/>
</linearGradient>
<linearGradient id="paint15_linear_1_518" x1="160.03" y1="95.6794" x2="164.48" y2="95.6947" gradientUnits="userSpaceOnUse">
<stop stop-color="#1D498D"/>
<stop offset="1" stop-color="#3C65A4"/>
</linearGradient>
<linearGradient id="paint16_linear_1_518" x1="159.522" y1="98.2741" x2="163.024" y2="98.2823" gradientUnits="userSpaceOnUse">
<stop stop-color="#1D498D"/>
<stop offset="1" stop-color="#3C65A4"/>
</linearGradient>
<linearGradient id="paint17_linear_1_518" x1="158.716" y1="101.564" x2="162.607" y2="101.574" gradientUnits="userSpaceOnUse">
<stop stop-color="#1D498D"/>
<stop offset="1" stop-color="#3C65A4"/>
</linearGradient>
<linearGradient id="paint18_linear_1_518" x1="157.444" y1="104.636" x2="161.4" y2="104.647" gradientUnits="userSpaceOnUse">
<stop stop-color="#1D498D"/>
<stop offset="1" stop-color="#3C65A4"/>
</linearGradient>
<linearGradient id="paint19_linear_1_518" x1="151.693" y1="89.047" x2="154.224" y2="89.0489" gradientUnits="userSpaceOnUse">
<stop stop-color="#1D498D"/>
<stop offset="1" stop-color="#3C65A4"/>
</linearGradient>
<linearGradient id="paint20_linear_1_518" x1="134.665" y1="125.49" x2="139.441" y2="125.506" gradientUnits="userSpaceOnUse">
<stop stop-color="#1D498D"/>
<stop offset="1" stop-color="#3C65A4"/>
</linearGradient>
<linearGradient id="paint21_linear_1_518" x1="134.07" y1="128.763" x2="138.547" y2="128.774" gradientUnits="userSpaceOnUse">
<stop stop-color="#1D498D"/>
<stop offset="1" stop-color="#3C65A4"/>
</linearGradient>
<linearGradient id="paint22_linear_1_518" x1="133.688" y1="131.32" x2="138.072" y2="131.335" gradientUnits="userSpaceOnUse">
<stop stop-color="#1D498D"/>
<stop offset="1" stop-color="#3C65A4"/>
</linearGradient>
<linearGradient id="paint23_linear_1_518" x1="133.289" y1="133.907" x2="136.914" y2="133.917" gradientUnits="userSpaceOnUse">
<stop stop-color="#1D498D"/>
<stop offset="1" stop-color="#3C65A4"/>
</linearGradient>
<linearGradient id="paint24_linear_1_518" x1="132.813" y1="137.229" x2="136.781" y2="137.24" gradientUnits="userSpaceOnUse">
<stop stop-color="#1D498D"/>
<stop offset="1" stop-color="#3C65A4"/>
</linearGradient>
<linearGradient id="paint25_linear_1_518" x1="131.893" y1="140.409" x2="135.735" y2="140.42" gradientUnits="userSpaceOnUse">
<stop stop-color="#1D498D"/>
<stop offset="1" stop-color="#3C65A4"/>
</linearGradient>
<linearGradient id="paint26_linear_1_518" x1="142.125" y1="142.842" x2="144.569" y2="142.844" gradientUnits="userSpaceOnUse">
<stop stop-color="#1D498D"/>
<stop offset="1" stop-color="#3C65A4"/>
</linearGradient>
<linearGradient id="paint27_linear_1_518" x1="141.119" y1="144.102" x2="149.629" y2="144.104" gradientUnits="userSpaceOnUse">
<stop stop-color="#1D498D"/>
<stop offset="1" stop-color="#3C65A4"/>
</linearGradient>
<linearGradient id="paint28_linear_1_518" x1="53.0111" y1="75.0623" x2="90.5371" y2="75.0937" gradientUnits="userSpaceOnUse">
<stop stop-color="#1D498D"/>
<stop offset="1" stop-color="#3C65A4"/>
</linearGradient>
<linearGradient id="paint29_linear_1_518" x1="56.813" y1="135.727" x2="68.1747" y2="135.746" gradientUnits="userSpaceOnUse">
<stop stop-color="#1D498D"/>
<stop offset="1" stop-color="#3C65A4"/>
</linearGradient>
<linearGradient id="paint30_linear_1_518" x1="69.7286" y1="105.769" x2="85.6019" y2="105.796" gradientUnits="userSpaceOnUse">
<stop stop-color="#1D498D"/>
<stop offset="1" stop-color="#3C65A4"/>
</linearGradient>
<linearGradient id="paint31_linear_1_518" x1="81.6625" y1="98.953" x2="86.5052" y2="98.9621" gradientUnits="userSpaceOnUse">
<stop stop-color="#1D498D"/>
<stop offset="1" stop-color="#3C65A4"/>
</linearGradient>
<linearGradient id="paint32_linear_1_518" x1="64.9617" y1="78.1359" x2="77.7428" y2="78.1422" gradientUnits="userSpaceOnUse">
<stop stop-color="#1D498D"/>
<stop offset="1" stop-color="#3C65A4"/>
</linearGradient>
</defs>
</svg>
