<svg width="366" height="366" viewBox="0 0 366 366" fill="none" xmlns="http://www.w3.org/2000/svg">
<path d="M310.046 106.14C310.046 106.14 292.236 72.6876 252.913 67.732C213.59 62.7763 186.126 86.9396 157.19 99.3324C142.03 105.825 124.726 103.307 108.636 106.447C57.1912 116.49 37.8078 179.413 59.2408 215.208C77.7897 246.186 110.437 262.298 160.154 266.016C209.872 269.735 244.744 274.068 289.272 243.712C333.799 213.356 330.82 150.141 310.046 106.14Z" fill="url(#paint0_linear_1_1123)"/>
<path opacity="0.8" d="M310.046 106.14C310.046 106.14 292.236 72.6876 252.913 67.732C213.59 62.7763 186.126 86.9396 157.19 99.3324C142.03 105.825 124.726 103.307 108.636 106.447C57.1912 116.49 37.8078 179.413 59.2408 215.208C77.7897 246.186 110.437 262.298 160.154 266.016C209.872 269.735 244.744 274.068 289.272 243.712C333.799 213.356 330.82 150.141 310.046 106.14Z" fill="#8C8C8C"/>
<path d="M178.754 310.331C259.326 310.331 324.642 303.852 324.642 295.86C324.642 287.867 259.326 281.388 178.754 281.388C98.1829 281.388 32.8668 287.867 32.8668 295.86C32.8668 303.852 98.1829 310.331 178.754 310.331Z" fill="url(#paint1_linear_1_1123)"/>
<path opacity="0.5" d="M178.754 310.331C259.326 310.331 324.642 303.852 324.642 295.86C324.642 287.867 259.326 281.388 178.754 281.388C98.1829 281.388 32.8668 287.867 32.8668 295.86C32.8668 303.852 98.1829 310.331 178.754 310.331Z" fill="white"/>
<path d="M323.302 220.603H50.9984V223.084H323.302V220.603Z" fill="#263238"/>
<path d="M242.446 190.32C242.981 190.458 243.533 190.518 244.085 190.496C244.085 190.496 243.837 189.764 243.815 189.69C243.558 189.163 242.753 188.285 242.102 188.373C241.993 188.389 241.888 188.429 241.796 188.489C241.703 188.549 241.625 188.628 241.565 188.721C241.505 188.814 241.466 188.918 241.45 189.027C241.434 189.136 241.442 189.248 241.472 189.354C241.555 189.576 241.684 189.777 241.853 189.944C242.021 190.111 242.223 190.239 242.446 190.32Z" fill="#263238"/>
<path d="M257.664 186.345C257.005 186.272 256.2 187.172 255.988 187.707C255.988 187.758 255.724 188.519 255.739 188.519L255.344 188.988C255.08 189.303 254.795 189.661 254.509 190.071C254.196 190.513 253.907 190.973 253.645 191.447C253.354 191.976 253.109 192.53 252.913 193.102C252.913 192.904 252.913 192.37 252.913 192.326C252.833 191.74 252.342 190.649 251.698 190.532C251.59 190.515 251.479 190.52 251.373 190.548C251.267 190.577 251.169 190.627 251.084 190.696C250.998 190.765 250.929 190.852 250.88 190.95C250.831 191.047 250.803 191.155 250.798 191.264C250.804 191.502 250.863 191.734 250.971 191.946C251.079 192.157 251.232 192.342 251.42 192.487C251.871 192.786 252.365 193.015 252.884 193.168C252.695 193.754 252.548 194.353 252.445 194.961C252.386 195.312 252.328 195.693 252.284 196.03C252.284 195.861 252.284 195.715 252.284 195.693C252.203 195.107 251.713 194.024 251.069 193.907C250.96 193.89 250.85 193.897 250.744 193.925C250.638 193.954 250.539 194.004 250.454 194.073C250.368 194.142 250.298 194.228 250.248 194.325C250.197 194.423 250.168 194.529 250.161 194.639C250.171 194.876 250.233 195.108 250.341 195.319C250.45 195.53 250.603 195.715 250.79 195.861C251.243 196.155 251.736 196.379 252.254 196.527C252.254 196.659 252.218 196.798 252.203 196.937C252.123 197.603 252.05 198.262 251.954 198.906C251.954 199.141 251.881 199.36 251.837 199.587C251.843 199.49 251.843 199.392 251.837 199.294C251.764 198.709 251.274 197.618 250.622 197.501C250.514 197.483 250.403 197.489 250.297 197.517C250.191 197.545 250.093 197.595 250.007 197.665C249.922 197.734 249.853 197.82 249.804 197.918C249.754 198.016 249.727 198.123 249.722 198.233C249.731 198.47 249.793 198.703 249.902 198.914C250.01 199.125 250.164 199.31 250.351 199.455C250.778 199.744 251.247 199.964 251.742 200.107C251.698 200.334 251.647 200.561 251.588 200.78C251.557 200.929 251.518 201.075 251.471 201.22C251.42 201.366 251.376 201.512 251.325 201.659C251.23 201.93 251.127 202.215 251.025 202.479L250.812 203.006C250.849 202.779 250.908 202.339 250.908 202.274C250.904 201.759 250.766 201.254 250.505 200.81C250.512 200.751 250.512 200.692 250.505 200.634C250.492 200.525 250.455 200.421 250.399 200.328C250.342 200.234 250.267 200.154 250.177 200.092C250.087 200.029 249.985 199.987 249.877 199.967C249.77 199.947 249.66 199.95 249.553 199.975C248.917 200.143 248.507 201.263 248.477 201.849C248.477 201.886 248.477 202.266 248.521 202.501C248.485 202.369 248.455 202.23 248.419 202.091C248.353 201.805 248.28 201.527 248.199 201.227L248.067 200.788C248.024 200.641 247.965 200.495 247.914 200.341C247.789 199.997 247.643 199.653 247.489 199.309C248.003 199.203 248.497 199.018 248.953 198.76C249.153 198.629 249.322 198.457 249.448 198.255C249.574 198.053 249.655 197.825 249.685 197.589C249.689 197.479 249.669 197.37 249.627 197.268C249.586 197.166 249.523 197.075 249.444 196.999C249.364 196.923 249.27 196.864 249.166 196.827C249.063 196.79 248.953 196.775 248.843 196.784C248.185 196.857 247.614 197.904 247.496 198.482C247.496 198.518 247.453 198.943 247.431 199.17C247.335 198.965 247.248 198.76 247.145 198.555C246.852 197.969 246.538 197.377 246.223 196.791L245.937 196.249C246.472 196.137 246.988 195.947 247.467 195.686C247.668 195.554 247.837 195.381 247.963 195.177C248.09 194.974 248.17 194.745 248.199 194.507C248.202 194.398 248.181 194.289 248.139 194.189C248.097 194.088 248.034 193.997 247.955 193.922C247.876 193.847 247.782 193.789 247.679 193.752C247.576 193.716 247.466 193.701 247.357 193.709C246.699 193.782 246.128 194.829 246.011 195.407C246.011 195.451 245.945 196.059 245.937 196.213C245.732 195.817 245.527 195.415 245.344 195.019C245.095 194.477 244.88 193.92 244.7 193.351C245.238 193.241 245.756 193.051 246.237 192.787C246.438 192.655 246.607 192.482 246.734 192.278C246.86 192.075 246.941 191.846 246.969 191.608C246.972 191.498 246.951 191.389 246.909 191.288C246.866 191.187 246.803 191.095 246.723 191.02C246.643 190.945 246.548 190.887 246.444 190.851C246.34 190.815 246.23 190.801 246.12 190.81C245.469 190.884 244.898 191.93 244.781 192.509C244.781 192.553 244.708 193.241 244.708 193.329C244.699 193.293 244.686 193.259 244.671 193.226C244.507 192.652 244.397 192.064 244.342 191.469C244.305 191.14 244.283 190.825 244.276 190.518C244.81 190.471 245.334 190.34 245.828 190.13C246.037 190.02 246.221 189.866 246.366 189.679C246.511 189.493 246.615 189.277 246.669 189.046C246.684 188.939 246.676 188.83 246.646 188.726C246.616 188.622 246.566 188.525 246.497 188.441C246.428 188.357 246.343 188.289 246.247 188.239C246.151 188.19 246.045 188.16 245.937 188.153C245.279 188.153 244.598 189.134 244.415 189.691C244.415 189.691 244.342 190.042 244.298 190.276C244.298 190.137 244.298 189.998 244.298 189.866C244.298 189.361 244.298 188.907 244.356 188.505C244.356 188.27 244.4 188.065 244.422 187.868C244.872 187.58 245.274 187.225 245.615 186.814C245.752 186.619 245.845 186.397 245.886 186.163C245.928 185.929 245.918 185.689 245.857 185.46C245.821 185.356 245.763 185.261 245.687 185.181C245.611 185.102 245.519 185.039 245.418 184.998C245.316 184.956 245.207 184.937 245.097 184.941C244.987 184.944 244.879 184.972 244.781 185.02C244.195 185.32 244.049 186.484 244.137 187.085C244.137 187.136 244.371 187.904 244.378 187.904C244.378 188.095 244.327 188.292 244.305 188.512C244.261 188.915 244.217 189.376 244.21 189.874C244.19 190.415 244.202 190.958 244.246 191.499C244.292 192.102 244.393 192.7 244.547 193.285C244.444 193.116 244.137 192.67 244.107 192.64C243.719 192.194 242.717 191.557 242.109 191.821C242.009 191.865 241.919 191.93 241.846 192.012C241.773 192.094 241.718 192.19 241.685 192.294C241.652 192.399 241.641 192.509 241.654 192.618C241.666 192.727 241.702 192.832 241.758 192.926C241.897 193.119 242.076 193.279 242.283 193.395C242.491 193.512 242.721 193.581 242.958 193.599C243.504 193.597 244.047 193.513 244.568 193.351C244.736 193.943 244.946 194.523 245.198 195.085C245.337 195.415 245.491 195.744 245.652 196.066C245.557 195.927 245.469 195.81 245.454 195.795C245.066 195.349 244.063 194.712 243.456 194.968C243.356 195.014 243.266 195.08 243.193 195.162C243.12 195.244 243.065 195.341 243.032 195.446C242.998 195.551 242.988 195.662 243 195.771C243.013 195.881 243.048 195.986 243.104 196.081C243.245 196.273 243.424 196.432 243.631 196.548C243.839 196.665 244.068 196.735 244.305 196.754C244.836 196.755 245.365 196.673 245.871 196.513C245.93 196.637 245.989 196.762 246.054 196.886C246.355 197.486 246.655 198.079 246.933 198.672C247.028 198.877 247.123 199.089 247.211 199.294L247.043 199.053C246.655 198.614 245.645 197.977 245.037 198.233C244.937 198.279 244.848 198.346 244.776 198.428C244.704 198.511 244.65 198.608 244.617 198.713C244.585 198.818 244.575 198.928 244.588 199.037C244.601 199.146 244.637 199.251 244.693 199.346C244.832 199.538 245.012 199.698 245.219 199.814C245.426 199.931 245.656 200 245.893 200.019C246.409 200.019 246.922 199.942 247.416 199.792C247.497 200.004 247.584 200.224 247.658 200.436C247.731 200.649 247.76 200.722 247.797 200.868L247.921 201.315C247.987 201.593 248.06 201.886 248.119 202.164C248.177 202.442 248.199 202.537 248.236 202.72L247.928 202.076C247.614 201.578 246.713 200.795 246.069 200.963C245.964 200.992 245.865 201.043 245.781 201.113C245.697 201.183 245.629 201.27 245.581 201.369C245.533 201.467 245.507 201.574 245.504 201.684C245.501 201.793 245.522 201.902 245.564 202.003C245.669 202.215 245.821 202.401 246.007 202.548C246.193 202.695 246.409 202.799 246.64 202.852C247.179 202.934 247.727 202.934 248.265 202.852C248.324 203.159 248.382 203.452 248.426 203.738C248.602 204.718 248.712 205.538 248.777 206.117C248.777 206.219 248.777 206.314 248.777 206.395H246.684L247.416 220.559H250.798L251.53 206.395H249.678L249.722 206.314C249.978 205.787 250.329 205.026 250.71 204.118L251.076 203.189C251.607 203.307 252.151 203.349 252.694 203.313C252.925 203.278 253.146 203.195 253.343 203.069C253.54 202.943 253.707 202.776 253.836 202.581C253.884 202.483 253.912 202.376 253.916 202.266C253.921 202.157 253.902 202.048 253.861 201.946C253.82 201.844 253.759 201.753 253.68 201.677C253.601 201.601 253.507 201.542 253.404 201.505C252.774 201.293 251.823 202.003 251.471 202.479C251.471 202.479 251.259 202.837 251.142 203.042L251.296 202.64C251.391 202.369 251.486 202.098 251.581 201.798L251.713 201.366C251.76 201.214 251.799 201.06 251.83 200.905C251.918 200.546 251.984 200.173 252.05 199.814C252.538 200.009 253.054 200.128 253.579 200.165C253.817 200.165 254.052 200.113 254.267 200.011C254.482 199.91 254.672 199.763 254.824 199.58C254.887 199.49 254.93 199.388 254.951 199.28C254.972 199.172 254.97 199.061 254.945 198.954C254.92 198.847 254.873 198.746 254.807 198.659C254.74 198.571 254.656 198.498 254.56 198.445C253.975 198.145 252.921 198.701 252.503 199.119C252.503 199.119 252.211 199.477 252.071 199.66C252.108 199.441 252.137 199.214 252.167 198.987C252.247 198.335 252.313 197.669 252.379 197.011C252.379 196.806 252.416 196.601 252.437 196.396C252.944 196.602 253.48 196.728 254.026 196.769C254.263 196.769 254.497 196.717 254.712 196.617C254.927 196.517 255.117 196.372 255.27 196.191C255.333 196.101 255.377 195.998 255.397 195.891C255.418 195.783 255.416 195.672 255.391 195.565C255.367 195.458 255.319 195.357 255.253 195.269C255.187 195.182 255.103 195.109 255.007 195.056C254.421 194.749 253.367 195.312 252.95 195.722C252.95 195.722 252.533 196.235 252.445 196.359C252.489 195.913 252.54 195.473 252.613 195.034C252.697 194.445 252.824 193.862 252.994 193.292C253.502 193.495 254.037 193.621 254.582 193.665C254.819 193.665 255.054 193.614 255.269 193.514C255.483 193.414 255.674 193.268 255.827 193.087C255.89 192.997 255.933 192.895 255.954 192.787C255.975 192.679 255.973 192.568 255.948 192.461C255.923 192.354 255.876 192.253 255.81 192.166C255.743 192.078 255.659 192.005 255.563 191.952C254.978 191.645 253.931 192.209 253.506 192.619C253.506 192.655 253.067 193.168 252.994 193.27C252.996 193.236 252.996 193.202 252.994 193.168C253.176 192.598 253.406 192.044 253.682 191.513C253.836 191.22 253.997 190.95 254.158 190.686C254.631 190.939 255.139 191.119 255.666 191.22C255.902 191.245 256.141 191.218 256.366 191.141C256.591 191.063 256.797 190.938 256.969 190.774C257.04 190.691 257.093 190.594 257.125 190.489C257.157 190.384 257.166 190.274 257.153 190.165C257.14 190.056 257.105 189.951 257.049 189.857C256.993 189.763 256.918 189.681 256.83 189.617C256.28 189.259 255.175 189.698 254.714 190.064C254.714 190.064 254.451 190.313 254.289 190.481L254.509 190.137C254.787 189.72 255.065 189.354 255.314 189.032L255.717 188.541C256.25 188.55 256.781 188.476 257.291 188.322C257.512 188.235 257.712 188.101 257.876 187.929C258.04 187.757 258.165 187.551 258.242 187.326C258.273 187.224 258.282 187.116 258.269 187.01C258.256 186.904 258.222 186.801 258.167 186.709C258.113 186.617 258.04 186.537 257.954 186.475C257.867 186.412 257.768 186.368 257.664 186.345ZM250.344 203.986C249.941 204.894 249.612 205.641 249.319 206.182L249.173 206.461H249.129C249.129 206.368 249.114 206.258 249.085 206.131C249.004 205.546 248.88 204.718 248.682 203.73C248.624 203.423 248.551 203.086 248.47 202.749C248.78 202.625 249.084 202.483 249.378 202.325C249.776 202.667 250.219 202.953 250.695 203.174C250.593 203.437 250.476 203.723 250.344 203.986Z" fill="#263238"/>
<path d="M254.172 190.547C254.172 190.547 254.385 189.771 254.392 189.72C254.472 189.141 254.289 187.963 253.66 187.678C253.56 187.632 253.452 187.608 253.342 187.607C253.233 187.607 253.124 187.629 253.024 187.673C252.924 187.718 252.834 187.783 252.761 187.864C252.687 187.946 252.632 188.042 252.599 188.146C252.545 188.378 252.542 188.618 252.592 188.851C252.641 189.084 252.741 189.303 252.884 189.493C253.261 189.904 253.695 190.259 254.172 190.547Z" fill="#263238"/>
<path d="M85.344 191.784C85.8498 191.919 86.3727 191.978 86.8958 191.96C86.8958 191.96 86.6542 191.228 86.6396 191.191C86.398 190.686 85.6294 189.852 85.0072 189.939C84.904 189.955 84.8052 189.993 84.7177 190.05C84.6301 190.106 84.5558 190.181 84.4996 190.27C84.4434 190.358 84.4068 190.457 84.3921 190.56C84.3774 190.663 84.3849 190.769 84.4143 190.869C84.4927 191.08 84.6166 191.272 84.7773 191.43C84.9379 191.588 85.1314 191.709 85.344 191.784Z" fill="#263238"/>
<path d="M99.7789 188.029C99.1567 187.963 98.4101 188.812 98.1832 189.325C98.1832 189.376 97.9343 190.1 97.9489 190.1C97.8245 190.232 97.7001 190.379 97.5683 190.54C97.3267 190.84 97.0486 191.184 96.7777 191.572C96.5069 191.96 96.2214 192.399 95.9579 192.875C95.6701 193.38 95.4253 193.909 95.2259 194.456C95.2259 194.273 95.2259 193.76 95.2259 193.724C95.1527 193.168 94.6842 192.135 94.0693 192.026C93.9633 192.007 93.8546 192.013 93.7509 192.041C93.6472 192.07 93.551 192.121 93.4692 192.191C93.3875 192.26 93.3221 192.347 93.2778 192.445C93.2335 192.543 93.2113 192.65 93.2129 192.758C93.2217 192.983 93.2792 193.204 93.3816 193.405C93.484 193.606 93.6287 193.782 93.8058 193.921C94.2409 194.207 94.7174 194.425 95.2186 194.566C95.0409 195.124 94.9015 195.694 94.8013 196.271C94.7428 196.608 94.6915 196.952 94.6476 197.289C94.6476 197.128 94.6476 196.989 94.6476 196.967C94.5744 196.41 94.1059 195.378 93.4911 195.268C93.3881 195.251 93.2825 195.255 93.1813 195.281C93.0802 195.308 92.9859 195.355 92.9047 195.421C92.8236 195.487 92.7575 195.57 92.7109 195.663C92.6643 195.757 92.6383 195.859 92.6346 195.964C92.6434 196.189 92.701 196.41 92.8033 196.611C92.9057 196.812 93.0504 196.988 93.2275 197.128C93.648 197.408 94.1099 197.62 94.5964 197.757C94.5964 197.889 94.5598 198.021 94.5451 198.152C94.4719 198.782 94.3987 199.411 94.3109 200.026L94.2011 200.671C94.2011 200.524 94.2011 200.407 94.2011 200.392C94.1279 199.836 93.6594 198.804 93.0445 198.687C92.9385 198.669 92.8298 198.674 92.7261 198.702C92.6224 198.731 92.5262 198.782 92.4444 198.852C92.3627 198.922 92.2973 199.009 92.253 199.107C92.2087 199.205 92.1865 199.311 92.1881 199.419C92.1974 199.643 92.2553 199.862 92.3576 200.062C92.46 200.262 92.6045 200.437 92.781 200.575C93.1895 200.847 93.636 201.057 94.1059 201.198C94.062 201.41 94.0181 201.629 93.9595 201.834C93.9283 201.976 93.8892 202.115 93.8424 202.252L93.7107 202.669C93.6155 202.925 93.5203 203.196 93.4252 203.445C93.33 203.694 93.2861 203.789 93.2202 203.95C93.2568 203.738 93.3154 203.313 93.3154 203.276C93.3076 202.785 93.1741 202.304 92.9274 201.878C92.9311 201.822 92.9311 201.766 92.9274 201.71C92.916 201.606 92.8823 201.505 92.8288 201.416C92.7752 201.326 92.703 201.248 92.617 201.188C92.5309 201.129 92.4331 201.088 92.3301 201.07C92.227 201.051 92.1212 201.055 92.0197 201.08C91.4122 201.241 91.0242 202.31 90.9949 202.867C90.9949 202.903 90.9949 203.262 90.9949 203.489L90.9071 203.093C90.8412 202.823 90.768 202.559 90.6948 202.274C90.6509 202.135 90.6143 201.995 90.5704 201.856C90.5265 201.717 90.4679 201.571 90.424 201.432C90.2995 201.102 90.1678 200.773 90.0214 200.451C90.5441 200.327 91.0434 200.119 91.5 199.836C91.6864 199.71 91.8437 199.546 91.9611 199.354C92.0785 199.162 92.1534 198.947 92.1808 198.723C92.1813 198.621 92.1602 198.519 92.1189 198.425C92.0777 198.331 92.0171 198.247 91.9412 198.178C91.8653 198.109 91.7757 198.057 91.6782 198.025C91.5808 197.992 91.4777 197.981 91.3756 197.991C90.7534 198.057 90.2117 199.053 90.1019 199.602C90.1019 199.638 90.0507 200.041 90.036 200.261C89.9482 200.07 89.8603 199.873 89.7652 199.675C89.487 199.111 89.1869 198.555 88.8868 197.991L88.6233 197.479C89.1349 197.374 89.6282 197.194 90.0873 196.945C90.2745 196.818 90.4323 196.652 90.5498 196.459C90.6672 196.266 90.7417 196.049 90.768 195.825C90.7685 195.722 90.7475 195.621 90.7062 195.527C90.6649 195.433 90.6043 195.348 90.5284 195.279C90.4525 195.21 90.3629 195.158 90.2655 195.126C90.168 195.094 90.0649 195.082 89.9628 195.093C89.3406 195.166 88.7989 196.161 88.6818 196.71C88.6818 196.747 88.6233 197.333 88.6159 197.479C88.4183 197.098 88.228 196.747 88.0523 196.337C87.8149 195.824 87.6119 195.296 87.4447 194.756C87.957 194.649 88.4504 194.467 88.9087 194.214C89.0975 194.091 89.2566 193.927 89.3743 193.735C89.492 193.542 89.5655 193.326 89.5895 193.102C89.59 192.999 89.5689 192.897 89.5277 192.804C89.4864 192.71 89.4258 192.625 89.3499 192.556C89.274 192.487 89.1844 192.435 89.0869 192.403C88.9895 192.371 88.8864 192.359 88.7843 192.37C88.1621 192.436 87.6204 193.431 87.5106 193.98C87.5106 194.024 87.4447 194.646 87.4447 194.763C87.4417 194.732 87.4417 194.7 87.4447 194.668C87.2897 194.122 87.1843 193.564 87.13 192.999C87.13 192.684 87.0787 192.384 87.0641 192.091C87.5682 192.047 88.0622 191.923 88.5281 191.725C88.7289 191.621 88.9043 191.474 89.0421 191.294C89.18 191.115 89.2768 190.907 89.326 190.686C89.3419 190.581 89.3348 190.474 89.3052 190.372C89.2757 190.27 89.2243 190.176 89.1546 190.096C89.085 190.016 88.9988 189.952 88.902 189.908C88.8052 189.865 88.7001 189.843 88.594 189.844C87.9645 189.844 87.313 190.774 87.13 191.308C87.13 191.308 87.0568 191.638 87.0129 191.865C87.0129 191.733 87.0129 191.594 87.0129 191.469C87.0129 190.993 87.0129 190.562 87.0714 190.174C87.0714 189.954 87.1153 189.756 87.1373 189.573C87.5631 189.3 87.9435 188.962 88.2646 188.571C88.3965 188.387 88.486 188.176 88.5265 187.953C88.567 187.73 88.5576 187.501 88.4988 187.282C88.4649 187.184 88.4104 187.094 88.339 187.018C88.2675 186.942 88.1808 186.883 88.0845 186.843C87.9882 186.804 87.8846 186.785 87.7806 186.789C87.6766 186.793 87.5746 186.819 87.4813 186.865C86.9177 187.15 86.7493 188.278 86.8665 188.827C86.8665 188.878 87.0861 189.61 87.0934 189.603C87.0934 189.778 87.0421 189.969 87.0202 190.181C87.0202 190.562 86.9397 191.001 86.9323 191.477C86.9002 191.988 86.9002 192.502 86.9323 193.014C86.9727 193.588 87.0683 194.156 87.2178 194.712L86.8006 194.104C86.4346 193.68 85.4757 193.072 84.8974 193.321C84.8015 193.363 84.7158 193.425 84.646 193.503C84.5762 193.581 84.5239 193.673 84.4927 193.773C84.4615 193.873 84.452 193.979 84.465 194.082C84.478 194.186 84.5131 194.286 84.568 194.375C84.6994 194.558 84.869 194.709 85.0649 194.819C85.2609 194.929 85.4785 194.995 85.7026 195.012C86.2216 195.013 86.7376 194.934 87.2325 194.778C87.4 195.338 87.6005 195.888 87.8327 196.425C87.9645 196.74 88.1109 197.054 88.2646 197.362L88.0816 197.098C87.7156 196.674 86.7567 196.074 86.1784 196.315C86.0825 196.357 85.9968 196.419 85.927 196.497C85.8572 196.575 85.8049 196.667 85.7737 196.767C85.7425 196.867 85.733 196.972 85.746 197.076C85.759 197.18 85.7941 197.28 85.849 197.369C85.98 197.553 86.1494 197.705 86.3453 197.816C86.5412 197.928 86.759 197.995 86.9836 198.013C87.48 198.009 87.9731 197.933 88.4476 197.786C88.5135 197.904 88.5647 198.021 88.6233 198.138C88.9087 198.709 89.2015 199.272 89.4651 199.836L89.7286 200.429L89.5675 200.202C89.2015 199.777 88.2426 199.17 87.6643 199.419C87.5685 199.461 87.4828 199.523 87.4129 199.601C87.3431 199.679 87.2908 199.771 87.2596 199.871C87.2284 199.971 87.219 200.076 87.232 200.18C87.245 200.284 87.2801 200.384 87.3349 200.473C87.466 200.656 87.6353 200.809 87.8312 200.92C88.0272 201.031 88.245 201.098 88.4695 201.117C88.966 201.121 89.46 201.047 89.9335 200.897C90.0141 201.102 90.0946 201.307 90.1678 201.512C90.241 201.717 90.2629 201.783 90.2995 201.93C90.3361 202.076 90.3801 202.208 90.4167 202.347C90.4825 202.61 90.5484 202.888 90.607 203.152L90.7168 203.686C90.6289 203.489 90.4386 203.108 90.424 203.071C90.1239 202.603 89.2674 201.856 88.6599 202.01C88.5578 202.036 88.4627 202.084 88.381 202.151C88.2992 202.217 88.2328 202.301 88.1863 202.395C88.1397 202.49 88.1141 202.593 88.1112 202.699C88.1083 202.804 88.1281 202.909 88.1694 203.006C88.2728 203.207 88.4187 203.383 88.5969 203.522C88.7751 203.661 88.9814 203.759 89.2015 203.811C89.7109 203.89 90.2294 203.89 90.7387 203.811C90.7973 204.096 90.8559 204.382 90.8998 204.653C91.0681 205.582 91.1633 206.365 91.2292 206.914C91.2292 207.017 91.2292 207.097 91.2292 207.185H89.3406L90.0287 220.647H93.2495L93.9888 207.156H92.232V207.076C92.4736 206.57 92.8103 205.846 93.169 204.96C93.2861 204.682 93.4032 204.382 93.5203 204.067C94.023 204.189 94.5418 204.231 95.0575 204.191C95.2807 204.156 95.4933 204.072 95.6805 203.946C95.8677 203.819 96.0248 203.653 96.1409 203.459C96.1886 203.366 96.2158 203.264 96.2206 203.16C96.2255 203.055 96.2079 202.951 96.1691 202.854C96.1302 202.757 96.071 202.669 95.9955 202.597C95.9199 202.524 95.8297 202.469 95.731 202.435C95.1381 202.237 94.2304 202.91 93.8937 203.364L93.5862 203.899C93.6301 203.774 93.6814 203.65 93.7253 203.518C93.8205 203.262 93.9083 202.998 94.0035 202.72C94.0474 202.581 94.084 202.442 94.1279 202.303C94.1718 202.164 94.2011 202.017 94.2377 201.871C94.3182 201.527 94.3841 201.183 94.4427 200.832C94.9112 201.015 95.4048 201.126 95.9067 201.161C96.1321 201.16 96.3547 201.11 96.5592 201.015C96.7638 200.921 96.9457 200.783 97.0925 200.612C97.1553 200.527 97.1989 200.43 97.2204 200.326C97.2419 200.223 97.2408 200.116 97.2172 200.013C97.1936 199.91 97.1479 199.814 97.0834 199.73C97.019 199.646 96.9371 199.578 96.8436 199.529C96.2873 199.243 95.2845 199.777 94.8892 200.173C94.8892 200.173 94.611 200.509 94.4719 200.685C94.5085 200.473 94.5378 200.261 94.5671 200.048C94.6476 199.426 94.7062 198.789 94.7647 198.16C94.7647 197.969 94.8013 197.779 94.8233 197.581C95.3052 197.774 95.8137 197.893 96.3312 197.933C96.5567 197.932 96.7792 197.882 96.9838 197.787C97.1884 197.693 97.3703 197.555 97.5171 197.384C97.5785 197.299 97.6211 197.202 97.6419 197.1C97.6627 196.997 97.6612 196.891 97.6377 196.789C97.6141 196.687 97.5689 196.591 97.5051 196.508C97.4414 196.425 97.3606 196.357 97.2682 196.308C96.7045 196.015 95.709 196.549 95.3064 196.945C95.3064 196.945 94.9185 197.428 94.8306 197.545C94.8745 197.12 94.9185 196.703 94.9843 196.286C95.0702 195.727 95.1924 195.174 95.3503 194.632C95.8346 194.825 96.3456 194.944 96.8656 194.983C97.09 194.982 97.3114 194.932 97.5148 194.837C97.7182 194.742 97.8987 194.605 98.0441 194.434C98.1069 194.349 98.1505 194.251 98.172 194.148C98.1935 194.045 98.1924 193.938 98.1688 193.835C98.1452 193.732 98.0995 193.635 98.035 193.552C97.9706 193.468 97.8888 193.4 97.7952 193.351C97.2389 193.065 96.2361 193.599 95.8408 193.995C95.8408 193.995 95.4162 194.514 95.3577 194.61V194.507C95.5313 193.967 95.7518 193.443 96.0165 192.941C96.1555 192.662 96.3093 192.399 96.463 192.15C96.9196 192.398 97.4144 192.569 97.927 192.655C98.1512 192.682 98.3785 192.658 98.5925 192.586C98.8065 192.514 99.0017 192.395 99.1641 192.238C99.2345 192.16 99.2875 192.068 99.3193 191.968C99.3512 191.869 99.3612 191.763 99.3487 191.659C99.3362 191.555 99.3015 191.454 99.2469 191.365C99.1923 191.275 99.1191 191.199 99.0323 191.14C98.5126 190.789 97.4585 191.206 97.0193 191.557L96.6167 191.96C96.6899 191.85 96.7558 191.733 96.829 191.63C97.0925 191.235 97.356 190.898 97.561 190.584C97.7001 190.408 97.8245 190.254 97.9489 190.115C98.4447 190.117 98.9381 190.045 99.4129 189.903C99.6229 189.819 99.8126 189.692 99.9692 189.529C100.126 189.366 100.246 189.172 100.321 188.959C100.35 188.862 100.36 188.76 100.348 188.66C100.336 188.559 100.304 188.462 100.253 188.375C100.202 188.288 100.134 188.212 100.052 188.152C99.9707 188.093 99.8776 188.051 99.7789 188.029ZM92.8689 204.799C92.4882 205.67 92.1369 206.38 91.8953 206.871C91.8441 206.973 91.7928 207.061 91.7562 207.141H91.7123C91.7123 207.039 91.7123 206.936 91.6684 206.819C91.5952 206.263 91.4781 205.48 91.2877 204.543C91.2292 204.243 91.1633 203.928 91.0901 203.606C91.3832 203.489 91.6692 203.354 91.9465 203.203C92.3264 203.526 92.7473 203.796 93.1983 204.008C93.0909 204.287 92.9811 204.55 92.8689 204.799Z" fill="#263238"/>
<path d="M96.4923 192.018C96.4923 192.018 96.6899 191.286 96.6973 191.242C96.7705 190.686 96.5948 189.566 96.0311 189.295C95.9364 189.251 95.8332 189.227 95.7285 189.226C95.6238 189.225 95.5201 189.246 95.4244 189.288C95.3286 189.331 95.2431 189.393 95.1735 189.471C95.1039 189.55 95.0519 189.642 95.021 189.742C94.969 189.962 94.9657 190.19 95.0112 190.411C95.0567 190.633 95.15 190.841 95.2845 191.023C95.6351 191.413 96.0422 191.749 96.4923 192.018Z" fill="#263238"/>
<path d="M259.86 222.067V84.568" stroke="#263238" stroke-linecap="round" stroke-linejoin="round"/>
<path d="M136.884 222.067V85.4244" stroke="#263238" stroke-linecap="round" stroke-linejoin="round"/>
<path d="M58.3771 154.569H313.472" stroke="#263238" stroke-linecap="round" stroke-linejoin="round"/>
<path d="M96.8875 93.3959H101.902C102.546 93.3959 103.164 93.652 103.62 94.1077C104.076 94.5635 104.332 95.1816 104.332 95.8262V101.382H94.428V95.8262C94.428 95.5046 94.4918 95.1861 94.6157 94.8893C94.7397 94.5926 94.9213 94.3234 95.1501 94.0973C95.3789 93.8712 95.6503 93.6928 95.9485 93.5725C96.2467 93.4521 96.5659 93.3921 96.8875 93.3959Z" fill="#263238"/>
<path d="M103.863 108.746C103.863 109.655 103.594 110.544 103.089 111.3C102.584 112.056 101.866 112.645 101.026 112.993C100.186 113.341 99.2614 113.432 98.3697 113.255C97.478 113.077 96.6589 112.639 96.016 111.996C95.3731 111.354 94.9353 110.534 94.7579 109.643C94.5805 108.751 94.6715 107.827 95.0195 106.987C95.3674 106.147 95.9566 105.429 96.7126 104.924C97.4686 104.419 98.3573 104.149 99.2665 104.149C100.486 104.149 101.655 104.633 102.517 105.495C103.379 106.358 103.863 107.527 103.863 108.746Z" fill="white"/>
<path d="M118.943 108.958H79.8466L94.5085 100.972H104.244L118.943 108.958Z" fill="#263238"/>
<path d="M100.218 78.5143H98.5638V94.4939H100.218V78.5143Z" fill="#263238"/>
<path d="M284.616 93.3959H289.623C290.268 93.3959 290.886 93.6519 291.342 94.1077C291.797 94.5634 292.053 95.1816 292.053 95.8261V101.382H282.186V95.8261C282.186 95.1816 282.442 94.5634 282.898 94.1077C283.354 93.6519 283.972 93.3959 284.616 93.3959Z" fill="#263238"/>
<path d="M286.995 113.343C289.534 113.343 291.592 111.285 291.592 108.746C291.592 106.207 289.534 104.149 286.995 104.149C284.456 104.149 282.398 106.207 282.398 108.746C282.398 111.285 284.456 113.343 286.995 113.343Z" fill="white"/>
<path d="M306.671 108.958H267.575L282.237 100.972H291.973L306.671 108.958Z" fill="#263238"/>
<path d="M287.947 78.5143H286.292V94.4939H287.947V78.5143Z" fill="#263238"/>
<path d="M172.781 129.315L169.604 131.27" stroke="#263238" stroke-width="0.5" stroke-linecap="round" stroke-linejoin="round"/>
<path d="M226.408 96.2653L177.056 126.68" stroke="#263238" stroke-width="0.5" stroke-linecap="round" stroke-linejoin="round"/>
<path d="M232.922 98.3223L193.38 122.683" stroke="#263238" stroke-width="0.5" stroke-linecap="round" stroke-linejoin="round"/>
<path d="M250.19 87.679L238.244 95.0356" stroke="#263238" stroke-width="0.5" stroke-linecap="round" stroke-linejoin="round"/>
<path d="M188.373 215.457C188.373 215.457 187.099 223.897 187.992 228.369C188.885 232.842 192.209 254.721 193.116 263.659C194.024 272.597 198.357 286.153 198.614 286.798C198.87 287.442 198.233 289.221 198.233 289.989C198.233 290.758 198.489 292.551 198.489 292.551C198.489 292.551 194.778 294.974 192.86 296.131C190.942 297.287 191.843 297.792 193.629 298.041C195.415 298.29 220.713 298.041 220.713 298.041C220.713 298.041 221.35 297.917 220.581 296.767C219.812 295.618 214.571 292.039 214.571 292.039C214.47 291.189 214.428 290.333 214.447 289.477C214.447 287.691 212.91 284.492 212.91 284.492C212.91 284.492 215.728 264.04 215.106 258.667C214.483 253.294 214.213 247.804 215.237 242.943C216.262 238.083 214.725 216.482 214.981 215.457C215.112 214.716 215.023 213.952 214.725 213.261C214.725 213.261 206.673 216.452 199.895 216.965C195.99 217.322 192.054 216.807 188.373 215.457Z" fill="#263238" stroke="#263238" stroke-miterlimit="10" stroke-linecap="round"/>
<path d="M220.588 296.767C219.82 295.618 214.579 292.039 214.579 292.039C214.579 292.039 214.579 291.944 214.579 291.782C211.433 292.82 208.494 294.404 205.897 296.46C205.897 296.46 206.314 295.904 203.957 293.964C202.389 292.782 200.423 292.257 198.475 292.5C198.475 292.5 194.763 294.923 192.845 296.079C190.928 297.236 191.828 297.741 193.614 297.99C195.4 298.239 220.698 297.99 220.698 297.99C220.698 297.99 221.357 297.924 220.588 296.767Z" fill="white" stroke="#263238" stroke-linecap="round" stroke-linejoin="round"/>
<path d="M193.021 296.921C193.021 296.921 197.728 297.265 199.675 296.694" stroke="#263238" stroke-width="0.75" stroke-linecap="round" stroke-linejoin="round"/>
<path d="M186.989 180.167C186.989 180.167 183.329 199.931 182.385 202.903C181.441 205.875 181.807 212.785 184.581 211.98C187.355 211.175 188.241 207.039 188.483 205.89C188.724 204.74 188.944 184.662 188.944 181.192C188.944 177.722 186.989 180.167 186.989 180.167Z" fill="url(#paint2_linear_1_1123)" stroke="#263238" stroke-linecap="round" stroke-linejoin="round"/>
<path d="M200.319 172.547C200.319 172.547 190.876 175.321 189.339 175.643C187.802 175.965 187.041 178.264 186.96 180.167C186.88 182.07 187.202 201.505 187.121 207.302C187.041 213.1 186.25 215.076 188.863 217.214C191.477 219.351 198.863 219.754 205.604 219.278C212.346 218.802 215.369 216.738 215.369 213.729C215.369 210.721 214.893 196.432 214.893 196.432C214.893 196.432 215.625 188.102 217.272 184.53C218.919 180.958 219.886 179.845 218.619 178.579C217.353 177.312 209.491 172.789 206.402 171.91C204.36 171.447 202.222 171.671 200.319 172.547Z" fill="url(#paint3_linear_1_1123)" stroke="#263238" stroke-linecap="round" stroke-linejoin="round"/>
<path d="M198.496 178.103L199.368 183.659L205.714 179.926L202.94 175.402C202.94 175.402 199.053 176.595 198.496 178.103Z" fill="#263238" stroke="#263238" stroke-linecap="round" stroke-linejoin="round"/>
<path d="M200.817 169.67C199.564 170.761 198.564 172.113 197.889 173.63C197.003 175.878 195.159 179.428 195.913 179.625C196.667 179.823 198.914 177.927 199.39 177.927C199.865 177.927 200.817 180.24 201.095 180.314C202.074 180.045 203.03 179.702 203.957 179.289C203.957 179.289 204.367 182.217 205.253 182.29C206.139 182.363 209.14 177.788 209.689 174.377C210.238 170.966 208.459 170.424 208.115 170.351C207.771 170.278 203.752 168.514 200.817 169.67Z" fill="url(#paint4_linear_1_1123)" stroke="#263238" stroke-linecap="round" stroke-linejoin="round"/>
<path d="M200.341 158.551C200.341 158.551 200.209 155.418 200.209 153.508C200.209 151.597 200.48 150.58 201.637 150.162C202.793 149.745 203.137 151.531 203.101 152.483C203.064 153.435 200.341 158.551 200.341 158.551Z" fill="#263238" stroke="#263238" stroke-linecap="round" stroke-linejoin="round"/>
<path d="M200.341 157.805C200.341 157.805 200.275 155.484 199.455 156.714C198.636 157.944 198.914 160.806 199.455 160.535C199.997 160.264 200.341 157.805 200.341 157.805Z" fill="white" stroke="#263238" stroke-linecap="round" stroke-linejoin="round"/>
<path d="M200.48 169.539C200.48 169.539 200.275 175.058 200.136 177.239C199.997 179.421 200.751 180.65 202.047 180.167C203.342 179.684 206.483 175.526 207.434 173.894C208.069 172.763 208.593 171.575 209.001 170.344C209.001 170.344 204.301 171.786 200.48 169.539Z" fill="white" stroke="#263238" stroke-linecap="round" stroke-linejoin="round"/>
<path d="M202.032 151.802C202.032 151.802 199.58 159.92 198.899 162.848C198.218 165.776 198.555 168.243 199.785 170.168C200.361 171.055 201.165 171.77 202.113 172.239C203.061 172.708 204.118 172.913 205.172 172.833C207.368 172.759 210.084 172.218 211.716 168.807C212.584 166.921 213.337 164.985 213.971 163.009C214.308 162.328 215.537 158.778 216.218 156.531C216.899 154.284 215.552 151.575 212.946 150.053C212.156 149.562 206.827 146.195 202.032 151.802Z" fill="white" stroke="#263238" stroke-linecap="round" stroke-linejoin="round"/>
<path d="M214.476 162.24C214.476 162.24 216.182 160.872 216.672 161.896C217.163 162.921 216.262 164.759 215.106 165.373C214.827 165.558 214.508 165.672 214.175 165.708C213.843 165.744 213.507 165.699 213.195 165.578C213.195 165.578 213.744 162.987 214.476 162.24Z" fill="white" stroke="#263238" stroke-linecap="round" stroke-linejoin="round"/>
<path d="M216.709 148.94L215.977 148.12C215.977 148.12 215.911 147.571 213.722 146.759C211.533 145.946 209.015 146.071 208.13 144.98C207.244 143.889 206.219 143.618 203.628 144.028C201.037 144.438 199.968 147.095 199.968 149.277C199.968 151.458 204.675 154.532 207.947 155.008C211.219 155.484 214.432 154.459 213.744 155.074C213.056 155.689 211.087 157.87 211.768 158.624C212.448 159.378 212.858 159.847 212.858 160.74C212.858 161.347 212.734 162.753 212.763 163.602C212.5 164.136 211.797 165.564 211.636 165.798C211.475 166.032 209.52 164.436 208.357 163.822C207.818 163.489 207.213 163.279 206.585 163.207C206.585 163.207 206.519 164.231 206.043 164.363C205.568 164.495 203.928 164.502 203.445 164.027C203.295 163.817 203.187 163.58 203.13 163.328C203.072 163.077 203.064 162.817 203.108 162.563C201.44 162.622 199.855 163.31 198.672 164.488C198.397 166.447 198.808 168.441 199.836 170.131C200.412 171.018 201.217 171.733 202.165 172.202C203.113 172.671 204.169 172.876 205.224 172.796C207.42 172.723 210.135 172.181 211.768 168.77C212.564 167.103 213.225 165.375 213.744 163.602C213.959 163.285 214.128 162.94 214.249 162.577C214.881 161.153 215.706 159.823 216.701 158.624C218.03 156.802 218.747 154.606 218.751 152.351C218.768 151.648 218.585 150.954 218.224 150.35C217.862 149.746 217.337 149.257 216.709 148.94Z" fill="#263238" stroke="#263238" stroke-linecap="round" stroke-linejoin="round"/>
<path d="M210.45 149.328C210.45 149.328 206.058 147.681 205.326 150.792C204.594 153.903 211.914 154.818 217.953 153.72" stroke="white" stroke-width="0.75" stroke-linecap="round" stroke-linejoin="round"/>
<path d="M212.646 157.38C212.646 157.38 213.927 157.746 216.855 156.831" stroke="white" stroke-width="0.75" stroke-linecap="round" stroke-linejoin="round"/>
<path d="M204.638 157.805L204.367 159.371C204.367 159.371 202.596 163.331 203.072 163.807C203.547 164.283 206.073 164.832 206.278 164.012C206.387 163.632 206.456 163.242 206.483 162.848L205.663 162.643" stroke="#263238" stroke-linecap="round" stroke-linejoin="round"/>
<path d="M207.507 158.419C207.507 158.419 210.026 157.805 210.64 159.92" stroke="#263238" stroke-linecap="round" stroke-linejoin="round"/>
<path d="M204.096 157.124C203.801 156.84 203.421 156.661 203.014 156.612C202.608 156.563 202.196 156.648 201.842 156.853" stroke="#263238" stroke-linecap="round" stroke-linejoin="round"/>
<path d="M208.525 160.798C208.466 161.208 208.225 161.53 207.983 161.479C207.742 161.428 207.588 161.084 207.646 160.674C207.705 160.264 207.939 159.942 208.188 159.993C208.437 160.044 208.576 160.388 208.525 160.798Z" fill="#263238"/>
<path d="M202.83 159.093C202.771 159.503 202.53 159.825 202.288 159.774C202.047 159.722 201.893 159.386 201.952 158.968C202.01 158.551 202.244 158.236 202.493 158.288C202.742 158.339 202.881 158.683 202.83 159.093Z" fill="#263238"/>
<path d="M207.844 165.849C204.989 169.238 202.72 166.442 202.522 165.717L207.844 165.849Z" fill="white"/>
<path d="M199.368 183.659C199.368 183.659 196.037 196.908 195.4 203.254C195.023 206.839 194.837 210.44 194.844 214.044L196.513 216.972L198.972 214.044C198.972 214.044 198.892 199.924 198.892 195.4C198.892 190.876 199.368 183.659 199.368 183.659Z" fill="#263238" stroke="#263238" stroke-linecap="round" stroke-linejoin="round"/>
<path d="M215.091 186.184C215.091 186.184 213.049 190.788 213.817 193.087C214.586 195.385 221.101 204.975 221.737 205.363C222.374 205.751 227.367 206.892 228.003 203.957C228.64 201.022 223.275 183.63 221.613 181.075C219.951 178.52 218.685 178.769 218.034 179.281" fill="url(#paint5_linear_1_1123)"/>
<path d="M215.091 186.184C215.091 186.184 213.049 190.788 213.817 193.087C214.586 195.385 221.101 204.975 221.737 205.363C222.374 205.751 227.367 206.892 228.003 203.957C228.64 201.022 223.275 183.63 221.613 181.075C219.951 178.52 218.685 178.769 218.034 179.281" stroke="#263238" stroke-linecap="round" stroke-linejoin="round"/>
<path d="M197.45 195.773L198.218 216.225L213.817 215.464L213.429 195.393L197.45 195.773Z" fill="white" stroke="#263238" stroke-linecap="round" stroke-linejoin="round"/>
<path d="M224.936 200.378C224.936 200.378 220.976 200.758 218.67 202.039C216.365 203.32 207.42 205.231 207.42 205.231L207.932 210.216C211.964 210.731 216.044 210.731 220.076 210.216C225.829 209.323 229.153 209.579 229.409 207.917C229.665 206.256 227.491 199.99 227.491 199.99" fill="url(#paint6_linear_1_1123)"/>
<path d="M224.936 200.378C224.936 200.378 220.976 200.758 218.67 202.039C216.365 203.32 207.42 205.231 207.42 205.231L207.932 210.216C211.964 210.731 216.044 210.731 220.076 210.216C225.829 209.323 229.153 209.579 229.409 207.917C229.665 206.256 227.491 199.99 227.491 199.99" stroke="#263238" stroke-linecap="round" stroke-linejoin="round"/>
<path d="M210.75 204.718L210.999 210.472" stroke="#263238" stroke-linecap="round" stroke-linejoin="round"/>
<path d="M207.808 205.743L203.496 202.295C203.496 202.295 200.568 200.758 199.917 200.758C198.586 200.899 197.264 201.112 195.956 201.395C195.444 201.527 195.7 202.164 196.593 202.552C197.161 202.784 197.766 202.913 198.379 202.932C198.379 202.932 194.295 203.825 194.295 204.85C194.295 205.875 196.081 206.38 196.081 206.38C196.081 206.38 195.568 208.81 196.718 209.711C197.867 210.611 199.024 210.984 201.066 210.443C203.108 209.901 207.969 210.186 207.969 210.186L207.808 205.743Z" fill="white" stroke="#263238" stroke-linecap="round" stroke-linejoin="round"/>
<path d="M186.287 203.591C186.287 203.591 183.3 200.034 182.385 197.274C181.47 194.514 179.399 189.222 179.399 189.222L176.068 189.105C176.068 189.105 176.412 199.441 178.264 205.304C180.116 211.167 182.51 214.147 183.776 213.576C185.042 213.005 186.88 210.245 186.88 210.245" fill="url(#paint7_linear_1_1123)"/>
<path d="M186.287 203.591C186.287 203.591 183.3 200.034 182.385 197.274C181.47 194.514 179.399 189.222 179.399 189.222L176.068 189.105C176.068 189.105 176.412 199.441 178.264 205.304C180.116 211.167 182.51 214.147 183.776 213.576C185.042 213.005 186.88 210.245 186.88 210.245" stroke="#263238" stroke-linecap="round" stroke-linejoin="round"/>
<path d="M182.846 176.258C181.981 176.892 181.402 177.842 181.236 178.901C181.002 179.816 180.548 180.16 179.04 180.05C178.777 180.01 178.51 180.023 178.252 180.087C177.995 180.151 177.752 180.265 177.539 180.423C177.481 180.183 177.446 179.938 177.437 179.691C177.437 178.871 178.835 177.071 179.472 176.551C180.109 176.031 181.038 175.27 180.936 174.575C180.833 173.879 178.205 175.387 177.451 175.914C176.697 176.441 176.288 178.586 176.288 178.586C175.899 179.905 175.863 181.304 176.185 182.641C176.105 182.817 176.031 182.985 175.951 183.183C174.919 185.708 176.068 189.156 176.068 189.156L179.399 189.273C179.399 189.273 179.055 187.553 179.625 186.858C180.196 185.956 180.85 185.111 181.58 184.332C182.495 183.527 182.956 181.119 182.956 180.54C183.061 179.473 183.332 178.428 183.761 177.444C184.222 176.368 183.878 175.57 182.846 176.258Z" fill="white" stroke="#263238" stroke-linecap="round" stroke-linejoin="round"/>
<path d="M175.417 180.753C175.417 180.753 175.826 178.608 176.58 178.081C177.334 177.554 179.955 176.046 180.065 176.749C180.175 177.451 179.252 178.213 178.601 178.718C177.949 179.223 176.566 181.046 176.566 181.858C176.621 182.537 176.779 183.203 177.034 183.834C177.034 183.834 176.302 185.174 175.753 185.342C175.204 185.511 174.78 182.905 175.417 180.753Z" fill="white" stroke="#263238" stroke-linecap="round" stroke-linejoin="round"/>
<path d="M175.534 182.034C175.534 182.034 175.944 179.882 176.697 179.362C177.451 178.842 180.065 177.327 180.182 178.022C180.299 178.718 179.369 179.486 178.718 179.999C178.066 180.511 176.683 182.327 176.683 183.139C176.738 183.818 176.896 184.484 177.151 185.115C177.151 185.115 176.419 186.448 175.87 186.623C175.321 186.799 174.897 184.186 175.534 182.034Z" fill="white" stroke="#263238" stroke-linecap="round" stroke-linejoin="round"/>
<path d="M175.68 187.787C175.68 187.787 174.75 184.588 174.868 183.315C174.985 182.041 175.446 180.928 176.09 180.87C176.734 180.811 179.457 179.823 179.457 180.577C179.457 181.331 176.961 182.151 176.961 182.151C176.961 182.151 178.528 184.186 178.469 185.225C178.407 185.969 178.272 186.704 178.066 187.421" fill="white"/>
<path d="M175.68 187.787C175.68 187.787 174.75 184.588 174.868 183.315C174.985 182.041 175.446 180.928 176.09 180.87C176.734 180.811 179.457 179.823 179.457 180.577C179.457 181.331 176.961 182.151 176.961 182.151C176.961 182.151 178.528 184.186 178.469 185.225C178.407 185.969 178.272 186.704 178.066 187.421" stroke="#263238" stroke-linecap="round" stroke-linejoin="round"/>
<path d="M196.301 227.476L199.177 229.584L205.89 295.552" stroke="white" stroke-width="0.75" stroke-linecap="round" stroke-linejoin="round"/>
<path d="M105.818 195.283C105.818 195.283 108.087 201 108.19 203.05C108.292 205.099 107.765 204.77 108.621 207.442C109.478 210.113 111.967 216.496 113.372 221.672C114.486 225.894 115.03 230.247 114.99 234.613H99.0249C99.0249 234.613 100.211 231.378 96.9753 222.323C93.7399 213.268 92.4516 207.888 92.4516 205.311C92.4516 202.735 91.0461 200.136 90.5044 197.223C89.9628 194.309 91.6903 194.632 91.6903 194.632L104.742 194.741C104.742 194.741 105.606 194.632 105.818 195.283Z" fill="#263238" stroke="#263238" stroke-linecap="round" stroke-linejoin="round"/>
<path d="M90.4166 195.927C90.5411 194.419 91.6903 194.632 91.6903 194.632L104.742 194.741C104.742 194.741 105.606 194.632 105.818 195.283C105.818 195.283 108.087 201 108.19 203.05C108.222 203.589 108.207 204.13 108.146 204.667L107.868 205.092C107.868 205.092 107.436 208.869 102.26 209.089C97.0851 209.308 94.2084 206.929 93.0957 204.66C91.9831 202.391 91.5878 198.731 90.7241 196.608C90.6362 196.359 90.5264 196.176 90.4166 195.927Z" fill="white" stroke="#263238" stroke-linecap="round" stroke-linejoin="round"/>
<path d="M92.4516 205.311C92.4516 202.72 91.0462 200.136 90.5045 197.223C90.1312 195.21 90.8412 194.741 91.317 194.646C91.5 194.712 92.1661 195.1 92.986 197.655C93.9595 200.671 93.4178 204.66 93.9595 207.903C94.5012 211.145 97.195 218.261 99.1348 223.546C100.731 227.894 101.089 232.095 100.438 234.65H99.025C99.025 234.65 100.211 231.415 96.9754 222.36C93.7399 213.305 92.4516 207.888 92.4516 205.311Z" fill="white" stroke="#263238" stroke-linecap="round" stroke-linejoin="round"/>
<path d="M172.335 234.452H159.349C159.114 234.432 158.895 234.323 158.736 234.149C158.576 233.975 158.488 233.748 158.488 233.512C158.488 233.276 158.576 233.048 158.736 232.874C158.895 232.7 159.114 232.592 159.349 232.571H172.335C172.68 232.577 173.021 232.502 173.331 232.352C173.642 232.201 173.912 231.98 174.121 231.705C174.33 231.431 174.471 231.111 174.533 230.772C174.596 230.433 174.577 230.084 174.479 229.753L169.868 213.246C169.801 213.006 169.832 212.75 169.954 212.533C170.076 212.316 170.28 212.157 170.519 212.09C170.759 212.023 171.016 212.054 171.233 212.176C171.449 212.298 171.609 212.501 171.676 212.741L176.287 229.248C176.457 229.857 176.483 230.498 176.364 231.119C176.244 231.74 175.983 232.326 175.601 232.829C175.218 233.333 174.724 233.742 174.158 234.023C173.591 234.305 172.967 234.452 172.335 234.452Z" fill="white" stroke="#263238" stroke-linecap="round" stroke-linejoin="round"/>
<path d="M170.71 191.542L167.766 191.189L163.206 229.208L166.15 229.561L170.71 191.542Z" fill="white" stroke="#263238" stroke-linecap="round" stroke-linejoin="round"/>
<path d="M170.724 191.528C173.604 204.349 171.994 217.771 166.164 229.548L170.724 191.528Z" fill="white" stroke="#263238" stroke-linecap="round" stroke-linejoin="round"/>
<path d="M180.87 234.365H52.4038V290.363H180.87V234.365Z" fill="#263238"/>
<mask id="mask0_1_1123" style="mask-type:luminance" maskUnits="userSpaceOnUse" x="52" y="234" width="129" height="57">
<path d="M180.87 234.365H52.4038V290.363H180.87V234.365Z" fill="white"/>
</mask>
<g mask="url(#mask0_1_1123)">
<path opacity="0.72" d="M180.87 234.365H52.4038V290.363H180.87V234.365Z" fill="white"/>
</g>
<path d="M180.87 234.365H52.4038V290.363H180.87V234.365Z" stroke="#263238" stroke-linecap="round" stroke-linejoin="round"/>
<path d="M180.899 235.953H52.4185V237.812H180.899V235.953Z" fill="#263238"/>
<path d="M181.968 233.266H49.1099V236.194H181.968V233.266Z" fill="white" stroke="#263238" stroke-linecap="round" stroke-linejoin="round"/>
<path d="M309.373 190.379L294.938 190.503C294.938 190.503 293.986 190.379 293.744 191.096C293.744 191.096 291.241 197.42 291.116 199.69C290.992 201.959 291.6 201.593 290.641 204.579C289.682 207.566 286.944 214.6 285.392 220.332C283.306 228.033 282.764 236.202 282.633 244.144C282.633 245.418 281.849 256.39 283.833 256.39C285.48 256.39 300.669 258.403 300.852 255.475C301.584 243.807 299.476 232.403 303.531 221.071C305.105 216.679 306.906 212.009 308.245 207.398C309.585 202.786 309.812 197.991 310.683 193.27C311.283 190.02 309.373 190.379 309.373 190.379Z" fill="#263238" stroke="#263238" stroke-linecap="round" stroke-linejoin="round"/>
<path d="M310.785 191.784C310.646 190.122 309.373 190.357 309.373 190.357L294.938 190.481C294.938 190.481 293.986 190.357 293.744 191.074C293.744 191.074 291.241 197.398 291.116 199.668C291.086 200.266 291.103 200.866 291.168 201.461L291.475 201.929C291.475 201.929 291.951 206.109 297.683 206.321C303.414 206.534 306.628 203.935 307.821 201.432C309.014 198.928 309.49 194.844 310.449 192.487C310.544 192.289 310.661 192.047 310.785 191.784Z" fill="white" stroke="#263238" stroke-linecap="round" stroke-linejoin="round"/>
<path d="M307.44 196.469C306.474 199.953 307.052 200.927 306.086 206.929C305.12 212.931 301.635 219.702 300.274 225.902C298.912 232.103 299.542 253.982 299.696 254.948C299.768 255.462 299.797 255.981 299.783 256.5C300.428 256.259 300.823 255.922 300.852 255.468C301.584 243.8 299.476 232.395 303.531 221.064C305.105 216.672 306.906 212.002 308.245 207.39C309.585 202.779 309.812 197.984 310.683 193.263C311.049 191.286 310.471 190.657 309.951 190.474C308.864 192.358 308.02 194.372 307.44 196.469Z" fill="white" stroke="#263238" stroke-linecap="round" stroke-linejoin="round"/>
<path d="M268.124 196.82C265.982 197.789 263.91 198.907 261.924 200.165C260.131 201.476 260.46 204.696 260.46 205.531C260.46 206.365 255.688 214.125 256.522 216.87C257.357 219.615 259.384 226.891 259.509 228.582C259.633 230.272 259.267 235.023 259.267 235.023H281.82C281.763 230.799 281.963 226.574 282.42 222.374C283.152 217.009 284.689 215.098 284.689 206.87C284.689 198.643 275.737 197.084 273.475 196.842C271.694 196.706 269.906 196.698 268.124 196.82Z" fill="white" stroke="#263238" stroke-linecap="round" stroke-linejoin="round"/>
<path d="M256.551 216.87C257.283 219.351 259.04 225.537 259.479 227.93C259.479 226.905 259.479 225.917 259.443 225.097C259.326 221.642 259.443 216.745 262.905 208.752C265.562 202.61 267.092 198.592 267.656 197.04C265.683 197.938 263.777 198.978 261.954 200.151C260.16 201.461 260.49 204.682 260.49 205.516C260.49 206.351 255.717 214.125 256.551 216.87Z" fill="url(#paint8_linear_1_1123)" stroke="#263238" stroke-linecap="round" stroke-linejoin="round"/>
<path d="M238.537 234.05C238.537 234.05 236.978 236.407 235.88 237.907C234.782 239.408 233.01 242.299 234.24 242.424C235.47 242.548 236.839 241.333 238.207 240.645C239.136 240.065 239.854 239.203 240.257 238.185C240.257 238.185 239.847 240.784 240.806 240.235C241.765 239.686 241.765 237.776 241.765 236.538C241.798 235.488 241.888 234.439 242.036 233.398C242.036 233.398 240.235 231.824 238.537 234.05Z" fill="white" stroke="#263238" stroke-linecap="round" stroke-linejoin="round"/>
<path d="M239.269 237.095C239.269 237.095 232.615 237.095 231.532 237.717C230.448 238.339 226.737 255.812 223.648 262.927C223.648 262.927 221.174 269.112 219.161 272.055C218.429 273.087 215.135 274.376 212.814 274.983C210.494 275.591 209.572 276.066 209.886 276.689C210.201 277.311 215.01 278.387 217.155 278.702C219.3 279.016 220.713 278.387 221.335 278.387C221.957 278.387 222.726 279.163 223.963 278.702C225.2 278.241 224.424 274.983 224.424 273.131C224.424 271.279 226.744 264.625 229.372 261.836C232 259.047 237.109 248.382 238.193 245.132C239.276 241.882 239.584 241.113 239.584 241.113" fill="white"/>
<path d="M239.269 237.095C239.269 237.095 232.615 237.095 231.532 237.717C230.448 238.339 226.737 255.812 223.648 262.927C223.648 262.927 221.174 269.112 219.161 272.055C218.429 273.087 215.135 274.376 212.814 274.983C210.494 275.591 209.572 276.066 209.886 276.689C210.201 277.311 215.01 278.387 217.155 278.702C219.3 279.016 220.713 278.387 221.335 278.387C221.957 278.387 222.726 279.163 223.963 278.702C225.2 278.241 224.424 274.983 224.424 273.131C224.424 271.279 226.744 264.625 229.372 261.836C232 259.047 237.109 248.382 238.193 245.132C239.276 241.882 239.584 241.113 239.584 241.113" stroke="#263238" stroke-linecap="round" stroke-linejoin="round"/>
<path d="M237.666 240.828C236.46 241.338 235.437 242.203 234.733 243.307C234.03 244.412 233.679 245.705 233.728 247.013C233.728 251.801 240.762 282.186 240.762 283.87C240.846 285.356 240.585 286.841 239.998 288.209C239.411 289.577 238.515 290.79 237.38 291.753C236.875 292.214 233.94 294.279 234.277 295.23C234.833 296.797 238.764 295.274 239.723 294.864C241.458 294.132 243.383 291.072 245.264 291.204C247.262 291.321 247.511 290.362 247.511 288.386C247.511 286.41 245.315 283.943 245.052 281.125C244.788 278.306 243.873 268.373 244.715 263.622C245.491 259.23 241.604 248.155 241.604 248.155C241.604 248.155 253.55 255.475 264.084 252.921C274.617 250.366 254.26 245.908 251.171 243.653C248.082 241.399 240.199 239.122 237.666 240.828Z" fill="white" stroke="#263238" stroke-linecap="round" stroke-linejoin="round"/>
<path d="M234.006 240.499C234.006 240.499 239.269 246.223 245.952 248.88L248.272 237.592C248.272 237.592 238.369 235.887 231.561 237.746" fill="white"/>
<path d="M234.006 240.499C234.006 240.499 239.269 246.223 245.952 248.88L248.272 237.592C248.272 237.592 238.369 235.887 231.561 237.746" stroke="#263238" stroke-linecap="round" stroke-linejoin="round"/>
<path d="M281.82 234.972C281.763 230.747 281.963 226.523 282.42 222.323C283.152 216.957 284.689 215.047 284.689 206.819C284.689 199.155 276.938 197.303 274.039 196.864C273.363 197.968 272.813 199.144 272.399 200.37C272.158 201.564 267.026 211.943 265.811 219.702C264.86 225.903 265.657 232.549 266.016 234.972H259.252L259.567 237.402L246.904 236.846L243.756 249.473C243.756 249.473 250.578 252.401 255.512 254.421C260.446 256.442 270.371 258.33 276.323 256.456C281.227 254.919 284.88 252.269 284.214 246.743C283.715 242.764 282.914 238.829 281.82 234.972Z" fill="url(#paint9_linear_1_1123)" stroke="#263238" stroke-linecap="round" stroke-linejoin="round"/>
<path d="M267.627 197.054L261.441 206.007L262.159 208.034L260.131 210.304L259.772 216.87" stroke="#263238" stroke-linecap="round" stroke-linejoin="round"/>
<path d="M273.373 200.4L273.014 207.559L270.511 209.11L271.462 211.021L266.573 220.208" stroke="#263238" stroke-linecap="round" stroke-linejoin="round"/>
<path d="M263.11 175.68C263.11 175.68 261.697 178.857 261.814 179.801C261.932 180.745 261.705 181.858 260.79 182.217C259.875 182.575 258.879 183.293 259.326 184.076C259.645 184.552 260.081 184.937 260.592 185.196C260.592 185.196 259.992 189.119 260.358 190.152C260.724 191.184 261.448 193.145 262.634 192.999C263.82 192.853 266.792 192.604 266.792 192.604C267.423 194.538 267.522 196.606 267.078 198.592C266.346 202.054 263.74 205.275 266.602 205.985C269.464 206.695 271.14 203.006 272.458 200.378C273.775 197.75 274.463 194.309 275.056 192.326C275.649 190.342 276.52 188.3 276.52 188.3C275.234 187.903 274.063 187.199 273.109 186.249C272.155 185.299 271.447 184.131 271.045 182.846C269.391 178.242 269.486 175.102 267.004 174.45C266.307 174.237 265.561 174.24 264.866 174.46C264.171 174.679 263.558 175.105 263.11 175.68Z" fill="white" stroke="#263238" stroke-linecap="round" stroke-linejoin="round"/>
<path d="M265.277 189.324C265.277 189.324 265.526 191.337 267.788 190.217" stroke="#263238" stroke-linecap="round" stroke-linejoin="round"/>
<path d="M267.985 172.283C267.985 172.283 265.438 172.115 263.74 171.961C262.041 171.808 261.368 174.157 261.763 175.453C262.159 176.749 262.546 176.917 262.546 176.917C262.546 176.917 264.904 175.548 265.138 176.478C265.372 177.407 263.191 179.245 264.34 180.789C265.489 182.334 267.326 183.542 266.382 184.625C265.438 185.708 265.914 186.726 266.748 186.623C267.583 186.521 268.703 184.94 269.156 186.682C269.61 188.424 267.495 189.771 267.949 190.562C268.402 191.352 272.743 192.37 273.958 191.498C275.173 190.627 278.197 189.778 279.624 184.793C281.051 179.808 279.624 176.258 276.623 173.14C273.622 170.022 268.49 172.459 268.49 172.459L267.985 172.283Z" fill="#263238" stroke="#263238" stroke-linecap="round" stroke-linejoin="round"/>
<path d="M272.626 176.288C273.101 176.517 273.546 176.805 273.951 177.144" stroke="white" stroke-width="0.75" stroke-linecap="round" stroke-linejoin="round"/>
<path d="M265.167 175.497C267.262 175.128 269.414 175.236 271.462 175.812" stroke="white" stroke-width="0.75" stroke-linecap="round" stroke-linejoin="round"/>
<path d="M238.537 234.05L238.896 233.215C239.254 232.381 243.083 231.671 246.867 231.129C252.994 230.258 255.988 229.277 259.538 228.56C263.93 227.667 268.6 226.532 268.6 226.532C268.6 226.532 276.476 228.318 275.188 230.924C273.9 233.53 270.291 234.028 270.291 234.028H240.382C240.449 234.383 240.383 234.752 240.195 235.061C240.007 235.371 239.711 235.6 239.364 235.704" fill="white"/>
<path d="M238.537 234.05L238.896 233.215C239.254 232.381 243.083 231.671 246.867 231.129C252.994 230.258 255.988 229.277 259.538 228.56C263.93 227.667 268.6 226.532 268.6 226.532C268.6 226.532 276.476 228.318 275.188 230.924C273.9 233.53 270.291 234.028 270.291 234.028H240.382C240.449 234.383 240.383 234.752 240.195 235.061C240.007 235.371 239.711 235.6 239.364 235.704" stroke="#263238" stroke-linecap="round" stroke-linejoin="round"/>
<path d="M273.497 212.331C273.497 212.331 271.945 219.256 270.986 221.042C270.027 222.828 268.007 222.235 268.124 223.311C268.227 224.05 268.429 224.771 268.724 225.456C268.724 225.456 267.26 225.456 267.26 226.056C267.26 226.656 268.929 228.801 271.082 229.87C273.234 230.939 274.778 232.139 275.73 230.946C276.681 229.753 277.64 227.484 277.523 227.008C277.406 226.532 278.358 227.367 279.192 226.276C279.496 225.893 279.717 225.452 279.843 224.979C279.969 224.507 279.997 224.014 279.924 223.531C279.924 222.579 283.02 214.827 283.379 214.11" fill="url(#paint10_linear_1_1123)"/>
<path d="M273.497 212.331C273.497 212.331 271.945 219.256 270.986 221.042C270.027 222.828 268.007 222.235 268.124 223.311C268.227 224.05 268.429 224.771 268.724 225.456C268.724 225.456 267.26 225.456 267.26 226.056C267.26 226.656 268.929 228.801 271.082 229.87C273.234 230.939 274.778 232.139 275.73 230.946C276.681 229.753 277.64 227.484 277.523 227.008C277.406 226.532 278.358 227.367 279.192 226.276C279.496 225.893 279.717 225.452 279.843 224.979C279.969 224.507 279.997 224.014 279.924 223.531C279.924 222.579 283.02 214.827 283.379 214.11" stroke="#263238" stroke-linecap="round" stroke-linejoin="round"/>
<path d="M271.213 224.614C273.27 224.935 275.287 225.473 277.23 226.217" stroke="#263238" stroke-width="0.75" stroke-linecap="round" stroke-linejoin="round"/>
<path d="M269.413 224.212C269.413 224.212 271.609 227.82 275.027 228.421" stroke="#263238" stroke-width="0.75" stroke-linecap="round" stroke-linejoin="round"/>
<path d="M278.072 180.57C278.072 180.57 278.306 184.149 275.21 189.756C272.114 195.363 267.81 206.102 270.913 211.943C274.017 217.785 282.486 216.599 284.872 211.35C287.259 206.102 285.707 192.736 283.203 187.128C280.7 181.521 279.624 179.494 279.624 179.494C279.624 179.494 278.16 178.776 278.072 180.57Z" fill="#263238" stroke="#263238" stroke-linecap="round" stroke-linejoin="round"/>
<path d="M279.214 212.712C280.369 212.7 281.483 212.289 282.369 211.548" stroke="white" stroke-width="0.75" stroke-linecap="round" stroke-linejoin="round"/>
<path d="M278.709 182.817C279.359 189.848 278.613 196.938 276.513 203.679C275.173 207.764 275.371 210.552 277.033 211.907" stroke="white" stroke-width="0.75" stroke-linecap="round" stroke-linejoin="round"/>
<path d="M278.343 187.209C278.343 187.209 274.683 196.542 271.755 202.947C268.827 209.352 271.389 213.378 275.781 214.293" stroke="white" stroke-width="0.75" stroke-linecap="round" stroke-linejoin="round"/>
<path d="M266.06 234.972C266.06 234.972 265.518 241.062 266.646 241.904C267.773 242.746 275.927 245.286 281.286 243.595" stroke="#263238" stroke-linecap="round" stroke-linejoin="round"/>
<path d="M259.611 237.431L264.677 238.281" stroke="#263238" stroke-linecap="round" stroke-linejoin="round"/>
<path d="M239.723 294.85C241.457 294.118 243.383 291.058 245.264 291.19C247.262 291.307 247.511 290.348 247.511 288.371C247.451 287.556 247.224 286.761 246.845 286.036C246.794 286.124 246.743 286.205 246.691 286.3C245.527 288.594 243.536 290.362 241.121 291.248C240.125 291.622 239.027 291.622 238.032 291.248L237.797 291.343C237.666 291.482 237.527 291.614 237.38 291.753C236.875 292.214 233.94 294.279 234.277 295.23C234.833 296.782 238.764 295.259 239.723 294.85Z" fill="url(#paint11_linear_1_1123)" stroke="#263238" stroke-linecap="round" stroke-linejoin="round"/>
<path d="M214.93 274.332C214.198 274.595 213.466 274.822 212.814 274.99C210.494 275.613 209.572 276.074 209.886 276.696C210.201 277.318 215.01 278.394 217.155 278.709C219.3 279.024 220.713 278.394 221.335 278.394C221.957 278.394 222.726 279.17 223.963 278.709C225.002 278.314 224.622 275.971 224.475 274.134C222.851 274.655 221.174 274.997 219.476 275.151C216.328 275.4 215.208 274.632 214.93 274.332Z" fill="url(#paint12_linear_1_1123)" stroke="#263238" stroke-linecap="round" stroke-linejoin="round"/>
<path d="M279.558 284.572L279.463 284.499V271.023H281.395V262.503H274.229V271.023H276.169V284.748L259.033 290.209V291.57C259.06 291.962 259.235 292.33 259.522 292.598C259.809 292.866 260.188 293.016 260.581 293.016C260.974 293.016 261.353 292.866 261.64 292.598C261.927 292.33 262.102 291.962 262.129 291.57V291.336L276.462 289.667V291.724C276.462 292.083 276.604 292.428 276.858 292.682C277.112 292.935 277.457 293.078 277.816 293.078C278.175 293.078 278.52 292.935 278.774 292.682C279.027 292.428 279.17 292.083 279.17 291.724V289.601L294.081 291.336V291.534C294.108 291.926 294.283 292.293 294.57 292.561C294.858 292.83 295.236 292.979 295.629 292.979C296.022 292.979 296.401 292.83 296.688 292.561C296.976 292.293 297.15 291.926 297.177 291.534V290.172L279.558 284.572Z" fill="#263238" stroke="#263238" stroke-linecap="round" stroke-linejoin="round"/>
<path d="M299.022 254.187H258.396C256.779 254.187 255.468 255.498 255.468 257.115V261.141C255.468 262.758 256.779 264.069 258.396 264.069H299.022C300.639 264.069 301.95 262.758 301.95 261.141V257.115C301.95 255.498 300.639 254.187 299.022 254.187Z" fill="#263238" stroke="#263238" stroke-linecap="round" stroke-linejoin="round"/>
<path d="M217.221 232.242H237.322V209.023H217.221V232.242Z" fill="white" stroke="#263238" stroke-linecap="round" stroke-linejoin="round"/>
<path d="M238.881 233.281H216.182V212.317H226.927L238.881 233.281Z" fill="white" stroke="#263238" stroke-linecap="round" stroke-linejoin="round"/>
<path d="M211.314 234.452H224.299C224.535 234.431 224.753 234.323 224.913 234.149C225.072 233.975 225.161 233.748 225.161 233.512C225.161 233.276 225.072 233.048 224.913 232.874C224.753 232.7 224.535 232.592 224.299 232.571H211.314C211.004 232.569 210.697 232.503 210.414 232.377C210.13 232.251 209.876 232.068 209.667 231.839C209.412 231.561 209.234 231.223 209.148 230.856C209.062 230.49 209.072 230.107 209.176 229.745L213.781 213.239C213.848 212.999 213.817 212.743 213.694 212.526C213.572 212.309 213.369 212.149 213.129 212.082C212.889 212.015 212.633 212.046 212.416 212.169C212.199 212.291 212.04 212.494 211.973 212.734L207.361 229.24C207.192 229.85 207.166 230.49 207.285 231.112C207.404 231.733 207.665 232.318 208.048 232.822C208.43 233.326 208.924 233.735 209.491 234.016C210.057 234.297 210.681 234.444 211.314 234.445V234.452Z" fill="white" stroke="#263238" stroke-linecap="round" stroke-linejoin="round"/>
<path d="M217.462 229.565L220.406 229.212L215.845 191.194L212.902 191.547L217.462 229.565Z" fill="white" stroke="#263238" stroke-linecap="round" stroke-linejoin="round"/>
<path d="M212.924 191.528C210.042 204.349 211.649 217.77 217.477 229.548L212.924 191.528Z" fill="white" stroke="#263238" stroke-linecap="round" stroke-linejoin="round"/>
<path d="M319.02 234.364H200.253V301.342H319.02V234.364Z" fill="#263238"/>
<mask id="mask1_1_1123" style="mask-type:luminance" maskUnits="userSpaceOnUse" x="200" y="234" width="120" height="68">
<path d="M319.02 234.364H200.253V301.342H319.02V234.364Z" fill="white"/>
</mask>
<g mask="url(#mask1_1_1123)">
<path opacity="0.72" d="M319.02 234.364H200.253V301.342H319.02V234.364Z" fill="white"/>
</g>
<path d="M319.02 234.364H200.253V301.342H319.02V234.364Z" stroke="#263238" stroke-linecap="round" stroke-linejoin="round"/>
<path d="M318.932 235.975H200.312V237.827H318.932V235.975Z" fill="#263238"/>
<path d="M319.884 233.266H197.662V236.194H319.884V233.266Z" fill="white" stroke="#263238" stroke-linecap="round" stroke-linejoin="round"/>
<path d="M124.652 227.689L122.822 229.153C122.822 229.153 117.61 231.898 116.6 232.717C115.59 233.537 116.329 234.364 116.878 235.375C117.427 236.385 120.077 237.475 120.992 237.475C121.907 237.475 126.116 235.462 126.76 234.277C127.405 233.091 128.041 228.874 128.041 228.874L124.652 227.689Z" fill="white" stroke="#263238" stroke-linecap="round" stroke-linejoin="round"/>
<path d="M123.708 231.802L123.437 233.998C123.437 233.998 119.682 236.194 120.048 236.839C120.414 237.483 120.78 237.292 122.976 236.656C125.172 236.019 126.636 234.826 126.731 234.277" stroke="#263238" stroke-linecap="round" stroke-linejoin="round"/>
<path d="M119.711 231.349L120.626 235.645" stroke="#263238" stroke-linecap="round" stroke-linejoin="round"/>
<path d="M117.698 232.351L119.623 237.022" stroke="#263238" stroke-linecap="round" stroke-linejoin="round"/>
<path d="M116.878 233.083C116.878 233.083 117.332 235.645 118.43 236.473" stroke="#263238" stroke-linecap="round" stroke-linejoin="round"/>
<path d="M125.296 224.761L124.564 228.055L128.041 228.874L129.593 225.214L125.296 224.761Z" fill="url(#paint13_linear_1_1123)" stroke="#263238" stroke-linecap="round" stroke-linejoin="round"/>
<path d="M120.048 187.655C119.749 189.805 119.846 191.99 120.333 194.104C121.153 196.945 124.63 211.036 125.091 212.038C125.553 213.041 125.457 214.6 125.179 216.247C124.901 217.894 126.006 221.833 126.006 222.103C126.006 222.374 124.447 223.48 124.359 224.578C124.272 225.676 126.094 226.408 127.741 226.591C129.388 226.774 130.486 226.591 131.496 222.016C132.507 217.441 129.571 211.306 127.741 204.082C125.911 196.857 123.444 191.542 123.078 190.078C122.712 188.614 120.604 185.965 120.048 187.655Z" fill="url(#paint14_linear_1_1123)" stroke="#263238" stroke-linecap="round" stroke-linejoin="round"/>
<path d="M139.204 287.559C139.204 287.559 141.034 289.996 140.668 290.728C140.302 291.46 136.518 292.558 135.786 293.173C134.709 294.246 133.36 295.005 131.884 295.369C129.564 295.977 123.95 296.95 124.564 295.977C125.179 295.003 132.126 289.996 132.126 289.996C134.442 289.062 136.804 288.249 139.204 287.559Z" fill="white" stroke="#263238" stroke-linecap="round" stroke-linejoin="round"/>
<path d="M140.207 290.179C140.207 290.179 136.101 291.643 134.783 292.668C134.004 293.281 133.171 293.823 132.294 294.286" stroke="#263238" stroke-width="0.75" stroke-linecap="round" stroke-linejoin="round"/>
<path d="M135.661 279.873L139.204 287.559C139.204 287.559 139.08 288.049 136.884 289.023C135.37 289.634 133.758 289.964 132.126 289.996L130.537 284.265L135.661 279.873Z" fill="#263238" stroke="#263238" stroke-linecap="round" stroke-linejoin="round"/>
<path d="M129.688 222.901C129.688 222.901 126.878 224.607 126.76 225.339C126.802 226.41 126.964 227.473 127.244 228.508C127.244 228.508 121.512 240.469 119.806 243.514C118.101 246.56 115.656 252.54 118.094 256.324C120.531 260.109 127.858 277.918 127.858 277.918L125.414 291.585L131.636 293.173C131.636 293.173 135.42 282.925 136.76 279.141C138.099 275.356 141.276 265.599 141.766 262.18C142.257 258.762 142.616 253.887 142.74 253.521C142.864 253.155 153.478 237.658 154.942 234.123C156.406 230.587 156.282 223.143 155.55 221.554C154.818 219.966 129.688 222.901 129.688 222.901Z" fill="#263238" stroke="#263238" stroke-linecap="round" stroke-linejoin="round"/>
<path d="M137.008 227.044L133.714 228.633L137.25 230.946L131.76 230.214L137.492 232.41" stroke="white" stroke-width="0.75" stroke-linecap="round" stroke-linejoin="round"/>
<path d="M146.034 228.633L139.322 231.312C139.322 231.312 147.74 229.724 151.524 229.848" stroke="#263238" stroke-linecap="round" stroke-linejoin="round"/>
<path d="M138.348 233.025C138.348 233.025 129.93 251.449 129.93 254.86C129.93 258.272 128.708 277.069 128.708 277.069" stroke="white" stroke-width="0.75" stroke-linecap="round" stroke-linejoin="round"/>
<path d="M131.57 180.95C131.57 180.95 120.319 186.499 120.07 187.655C119.821 188.812 121.146 192.121 121.146 192.121C121.146 192.121 128.093 214.718 128.671 216.54C129.249 218.363 129.498 218.773 128.92 219.68C128.342 220.588 127.595 222.25 128.422 223.157C129.249 224.065 134.798 225.727 138.355 225.727C141.913 225.727 148.289 224.651 152.424 223.655C156.56 222.66 156.399 220.844 156.231 218.941C156.062 217.038 153.669 184.427 153.669 183.183C153.669 181.939 144.885 180.123 141.913 179.955C138.941 179.786 132.565 179.955 131.57 180.95Z" fill="url(#paint15_linear_1_1123)" stroke="#263238" stroke-linecap="round" stroke-linejoin="round"/>
<path d="M132.785 186.587L135.632 194.639L140.207 186.477C140.207 186.477 138.97 182.524 135.632 182.773C132.294 183.022 132.785 186.587 132.785 186.587Z" fill="#263238" stroke="#263238" stroke-linecap="round" stroke-linejoin="round"/>
<path d="M135.632 194.624C135.632 194.624 134.168 217.001 134.168 218.114C134.168 219.227 133.056 222.813 133.056 222.813L135.53 225.654C135.53 225.654 139.483 222.813 140.105 220.713C140.727 218.612 135.632 194.624 135.632 194.624Z" fill="#263238" stroke="#263238" stroke-linecap="round" stroke-linejoin="round"/>
<path d="M131.57 180.204C131.57 180.204 130.991 183.681 131.321 185.174C131.65 186.667 130.245 190.056 130.911 190.466C131.577 190.876 133.802 186.411 133.802 186.411L136.291 190.635L137.945 186.162C137.945 186.162 140.258 190.715 140.925 190.305C141.591 189.895 140.507 187.077 141.503 185.672C142.025 184.8 142.359 183.829 142.485 182.821C142.611 181.813 142.526 180.789 142.235 179.816C141.649 177.583 139.256 177.583 137.265 177.825C135.274 178.066 132.975 178.052 131.57 180.204Z" fill="url(#paint16_linear_1_1123)" stroke="#263238" stroke-linecap="round" stroke-linejoin="round"/>
<path d="M131.57 180.95C131.57 180.95 134.22 184.61 134.717 186.331C135.215 188.051 135.954 191.711 136.291 190.635C136.628 189.559 136.452 185.423 138.443 183.103C140.434 180.782 139.907 179.128 139.907 179.128C139.907 179.128 137.367 182.268 131.57 180.95Z" fill="white" stroke="#263238" stroke-linecap="round" stroke-linejoin="round"/>
<path d="M126.277 174.333C126.277 174.333 129.498 180.702 132.814 182.385C136.13 184.069 139.6 182.305 140.507 179.743C141.415 177.181 140.588 173.887 140.588 173.887C140.588 173.887 142.411 172.811 142.66 171.405C142.908 170 143.157 169.502 141.254 168.426C140.523 167.958 139.745 167.568 138.934 167.262C138.934 167.262 138.853 164.451 137.199 163.543C135.544 162.636 132.075 163.126 129.996 165.359C127.917 167.591 126.277 174.333 126.277 174.333Z" fill="white" stroke="#263238" stroke-linecap="round" stroke-linejoin="round"/>
<path d="M131.76 173.667C132.337 174.489 132.809 175.379 133.165 176.317C133.334 177.144 132.668 178.14 133.663 178.14C133.957 178.139 134.247 178.08 134.518 177.966C134.788 177.851 135.033 177.684 135.237 177.473" stroke="#263238" stroke-linecap="round" stroke-linejoin="round"/>
<path d="M133.634 171.156C133.634 171.156 134.051 169.692 135.984 169.978" stroke="#263238" stroke-linecap="round" stroke-linejoin="round"/>
<path d="M130.45 172.467C130.45 172.467 128.986 172.057 127.609 173.784" stroke="#263238" stroke-linecap="round" stroke-linejoin="round"/>
<path d="M134.322 178.147L134.878 179.794C135.673 179.638 136.406 179.259 136.993 178.702C137.581 178.144 137.997 177.431 138.194 176.646" stroke="#263238" stroke-linecap="round" stroke-linejoin="round"/>
<path d="M132.148 175.365C132.148 175.816 132.014 176.256 131.764 176.63C131.514 177.004 131.159 177.296 130.743 177.468C130.327 177.641 129.869 177.686 129.427 177.598C128.986 177.51 128.58 177.293 128.262 176.975C127.943 176.657 127.726 176.251 127.639 175.809C127.551 175.368 127.596 174.91 127.768 174.494C127.94 174.078 128.232 173.723 128.607 173.472C128.981 173.222 129.421 173.089 129.871 173.089C130.17 173.089 130.466 173.148 130.743 173.262C131.019 173.376 131.27 173.544 131.481 173.756C131.693 173.967 131.86 174.218 131.975 174.494C132.089 174.77 132.148 175.066 132.148 175.365Z" stroke="#263238" stroke-width="0.5" stroke-linecap="round" stroke-linejoin="round"/>
<path d="M137.858 172.262L140.346 170.029" stroke="#263238" stroke-width="0.5" stroke-linecap="round" stroke-linejoin="round"/>
<path d="M137.945 172.964C137.945 173.415 137.812 173.855 137.562 174.229C137.312 174.603 136.956 174.895 136.54 175.068C136.124 175.24 135.666 175.285 135.225 175.197C134.783 175.109 134.377 174.892 134.059 174.574C133.741 174.256 133.524 173.85 133.436 173.408C133.348 172.967 133.393 172.509 133.566 172.093C133.738 171.677 134.03 171.322 134.404 171.071C134.778 170.821 135.219 170.688 135.669 170.688C136.273 170.688 136.852 170.928 137.279 171.355C137.706 171.781 137.945 172.36 137.945 172.964Z" stroke="#263238" stroke-width="0.5" stroke-linecap="round" stroke-linejoin="round"/>
<path d="M136.342 172.708C136.459 172.964 136.416 173.242 136.24 173.323C136.064 173.403 135.83 173.25 135.713 172.986C135.596 172.723 135.64 172.452 135.815 172.371C135.991 172.291 136.225 172.445 136.342 172.708Z" fill="#263238"/>
<path d="M131.248 174.75C131.365 175.014 131.321 175.292 131.145 175.365C130.969 175.438 130.735 175.299 130.618 175.036C130.501 174.772 130.545 174.501 130.721 174.421C130.896 174.34 131.131 174.487 131.248 174.75Z" fill="#263238"/>
<path d="M131.76 174.494C131.76 174.494 132.668 173.338 133.495 173.835" stroke="#263238" stroke-width="0.5" stroke-linecap="round" stroke-linejoin="round"/>
<path d="M133.143 166.896C133.143 166.896 130.333 169.956 128.18 172.752C127.402 173.861 126.544 174.91 125.611 175.892C125.1 174.949 124.657 173.971 124.286 172.964C124.023 172.176 123.72 171.401 123.379 170.644L122.647 172.298C122.647 172.298 120.494 164.246 122.815 160.55C125.135 156.853 130.376 155.879 134.351 157.285C138.326 158.69 138.868 162.372 139.614 164.275C140.361 166.179 141.02 168.572 141.02 168.572L139.944 170.893C139.944 170.893 137.96 169.158 136.964 168.243C136.345 167.652 135.888 166.91 135.64 166.091C135.64 166.091 133.985 168.082 133.487 168.66C133.22 168.982 132.879 169.233 132.492 169.392L133.143 166.896Z" fill="#263238" stroke="#263238" stroke-linecap="round" stroke-linejoin="round"/>
<path d="M133.912 159.086C133.013 162.78 131.146 166.169 128.503 168.902" stroke="white" stroke-width="0.75" stroke-linecap="round" stroke-linejoin="round"/>
<path d="M134.915 159.686C135.108 161.809 134.763 163.946 133.912 165.9" stroke="white" stroke-width="0.75" stroke-linecap="round" stroke-linejoin="round"/>
<path d="M152.988 182.378C152.988 182.378 156.179 183.212 157.292 184.742C158.405 186.272 165.9 207.376 166.179 210.984C166.457 214.593 165.344 222.089 165.622 222.923C165.9 223.758 166.735 224.87 165.9 225.288C165.141 225.756 164.441 226.314 163.814 226.949C162.002 226.861 160.197 226.675 158.405 226.393C157.57 226.115 156.458 224.314 157.292 223.201C157.896 222.453 158.238 221.528 158.266 220.566C158.266 220.01 156.531 213.18 156.531 211.782C156.536 210.511 156.467 209.24 156.326 207.976C155.837 205.941 155.236 203.935 154.525 201.966C152.297 197.921 151.19 193.355 151.319 188.739" fill="url(#paint17_linear_1_1123)"/>
<path d="M152.988 182.378C152.988 182.378 156.179 183.212 157.292 184.742C158.405 186.272 165.9 207.376 166.179 210.984C166.457 214.593 165.344 222.089 165.622 222.923C165.9 223.758 166.735 224.87 165.9 225.288C165.141 225.756 164.441 226.314 163.814 226.949C162.002 226.861 160.197 226.675 158.405 226.393C157.57 226.115 156.458 224.314 157.292 223.201C157.896 222.453 158.238 221.528 158.266 220.566C158.266 220.01 156.531 213.18 156.531 211.782C156.536 210.511 156.467 209.24 156.326 207.976C155.837 205.941 155.236 203.935 154.525 201.966C152.297 197.921 151.19 193.355 151.319 188.739" stroke="#263238" stroke-linecap="round" stroke-linejoin="round"/>
<path d="M158.434 226.393L158.156 229.035L162.738 229.724L163.844 226.949L158.434 226.393Z" fill="url(#paint18_linear_1_1123)" stroke="#263238" stroke-linecap="round" stroke-linejoin="round"/>
<path d="M158.156 229.036C158.156 229.036 152.878 231.393 152.461 232.088C152.044 232.783 151.209 236.114 150.653 236.531C150.097 236.948 149.548 237.505 151.07 237.366C152.593 237.227 153.017 236.392 153.017 236.392C152.945 236.904 152.945 237.424 153.017 237.937C154.161 238.075 155.313 238.146 156.465 238.149C156.81 238.194 157.159 238.194 157.504 238.149C157.504 238.149 157.226 238.815 157.746 239.035C158.266 239.254 158.236 238.756 158.573 238.303C158.978 237.548 159.323 236.762 159.605 235.953C159.775 235.541 159.898 235.111 159.971 234.672C160.807 234.221 161.569 233.646 162.233 232.966C162.965 232.081 162.57 229.519 162.57 229.519L158.156 229.036Z" fill="white" stroke="#263238" stroke-linecap="round" stroke-linejoin="round"/>
<path d="M153.017 236.392L153.295 232.9" stroke="#263238" stroke-linecap="round" stroke-linejoin="round"/>
<path d="M154.393 238.12L154.847 233.179" stroke="#263238" stroke-linecap="round" stroke-linejoin="round"/>
<path d="M156.128 238.024L156.86 233.449" stroke="#263238" stroke-linecap="round" stroke-linejoin="round"/>
<path d="M157.534 238.12C157.534 238.12 158.141 234.181 158.266 233.728" stroke="#263238" stroke-linecap="round" stroke-linejoin="round"/>
<path d="M125.414 291.585C125.414 291.585 123.342 293.415 122.976 293.656C122.61 293.898 115.898 297.565 116.022 298.539C116.146 299.512 123.1 299.029 127.002 298.048C130.904 297.068 131.152 296.709 131.27 296.101C131.387 295.494 131.636 293.173 131.636 293.173L125.414 291.585Z" fill="white" stroke="#263238" stroke-linecap="round" stroke-linejoin="round"/>
<path d="M117.347 298.092C117.347 298.092 126.577 297.946 130.245 295.604" stroke="#263238" stroke-width="0.75" stroke-linecap="round" stroke-linejoin="round"/>
<path d="M75.7326 292.756C75.7326 292.756 83.5211 294.857 85.3804 296.467C87.2397 298.078 81.6692 298.568 78.2068 298.444C74.7444 298.319 74.3784 297.331 71.9043 297.331C69.4301 297.331 67.2048 298.444 66.8315 296.218C66.4582 293.993 69.5546 293.129 71.6554 292.632C73.0047 292.344 74.4034 292.387 75.7326 292.756Z" fill="white" stroke="#263238" stroke-linecap="round" stroke-linejoin="round"/>
<path d="M73.4855 296.336C73.4855 296.336 77.2992 298.824 84.0409 297.36" stroke="#263238" stroke-width="0.75" stroke-linecap="round" stroke-linejoin="round"/>
<path d="M67.9443 293.993C69.8355 295.219 71.8205 296.293 73.8808 297.207C76.6038 298.319 78.5802 298.671 77.3431 299.681C76.1061 300.691 75.7327 300.793 72.6437 301.408C69.5547 302.023 63.3693 300.42 62.7544 300.42C62.1395 300.42 61.5173 301.152 59.8264 300.545C58.1355 299.937 57.85 299.081 58.4649 297.082C59.0797 295.084 66.9561 293.371 67.9443 293.993Z" fill="white" stroke="#263238" stroke-linecap="round" stroke-linejoin="round"/>
<path d="M61.6198 299.117C66.2922 300.77 71.3641 300.924 76.128 299.556" stroke="#263238" stroke-width="0.75" stroke-linecap="round" stroke-linejoin="round"/>
<path d="M85.1316 208.32L86.5956 223.897C86.5956 223.897 84.4874 246.274 81.8962 253.565C79.3049 260.856 76.9478 268.893 76.0841 271.865C75.2203 274.837 74.3566 286.454 75.0959 288.796C75.5128 289.902 75.7213 291.076 75.7108 292.258V292.756C75.7108 292.756 76.2085 293.129 74.4737 294.118C73.2331 294.768 71.9 295.225 70.5209 295.472L67.9223 294.008C67.9223 294.008 64.2184 296.724 62.8568 297.47C61.4282 298.059 59.934 298.475 58.4063 298.707C57.8381 297.812 57.5057 296.787 57.44 295.728V290.911C57.44 289.177 56.203 280.663 56.3274 275.459C56.4518 270.254 57.44 264.574 58.4282 261.983C59.4164 259.392 62.7544 251.471 62.7544 251.471C62.5927 248.117 62.0524 244.793 61.144 241.56C59.5409 235.257 59.1676 232.044 57.0667 225.244C54.9659 218.443 59.1676 208.408 59.1676 208.408C59.1676 208.408 68.9324 210.135 74.2541 209.872C77.9168 209.658 81.5552 209.139 85.1316 208.32Z" fill="#263238" stroke="#263238" stroke-linecap="round" stroke-linejoin="round"/>
<path d="M66.6119 221.672C67.1524 222.629 67.7719 223.54 68.4639 224.395" stroke="white" stroke-width="0.75" stroke-linecap="round" stroke-linejoin="round"/>
<path d="M73.2659 212.156L77.3431 212.28L77.2187 211.284" stroke="white" stroke-width="0.75" stroke-linecap="round" stroke-linejoin="round"/>
<path d="M78.8291 211.548V212.536C78.8291 212.536 82.2841 213.407 85.0072 211.921" stroke="white" stroke-width="0.75" stroke-linecap="round" stroke-linejoin="round"/>
<path d="M82.7818 213.744L81.7936 217.58L83.3967 219.776C83.3967 219.776 81.0543 223.853 81.0543 224.226" stroke="white" stroke-width="0.75" stroke-linecap="round" stroke-linejoin="round"/>
<path d="M83.5211 225.009L79.4439 228.384C79.4439 228.384 76.9697 249.4 75.6082 254.838C74.2467 260.277 69.1812 277.955 68.5664 281.922C68.2215 283.843 67.9772 285.781 67.8344 287.727C67.8344 288.101 68.5664 289.462 68.5664 290.201V293.049" stroke="white" stroke-width="0.75" stroke-linecap="round" stroke-linejoin="round"/>
<path d="M71.4066 210.545C71.4066 210.545 78.8291 211.533 82.167 211.277C85.5049 211.021 85.9954 209.674 86.3687 208.437C86.742 207.2 81.9181 177.781 81.6692 176.046C81.4204 174.311 81.7937 171.471 79.4732 170.483C77.1528 169.495 72.1532 171.215 71.3114 174.567C70.4696 177.92 73.1707 197.311 72.4241 201.512C71.9274 204.503 71.5878 207.518 71.4066 210.545Z" fill="white" stroke="#263238" stroke-linecap="round" stroke-linejoin="round"/>
<path d="M77.8335 176.302L79.6928 179.64L80.3077 207.332L82.5329 212.646L84.3849 206.095L80.8054 179.391L81.2959 175.438L79.8172 172.225L77.8335 176.302Z" fill="#263238" stroke="#263238" stroke-linecap="round" stroke-linejoin="round"/>
<path d="M80.3077 174.941L82.533 178.776L81.4203 171.727L79.1951 173.089L80.3077 174.941Z" fill="white" stroke="#263238" stroke-linecap="round" stroke-linejoin="round"/>
<path d="M74.8689 164.063L74.254 166.903L79.3195 175.929C79.3195 175.929 80.8347 172.562 81.4203 171.727C82.0059 170.893 84.3483 167.225 84.3483 167.225C84.3483 167.225 80.5931 167.526 79.9563 165.3C79.3195 163.075 79.9563 159.986 77.6066 159.737C75.2569 159.488 74.8689 164.063 74.8689 164.063Z" fill="white" stroke="#263238" stroke-linecap="round" stroke-linejoin="round"/>
<path d="M77.3285 162.314L77.5701 163.148C77.4372 163.559 77.3985 163.995 77.4568 164.424C77.5151 164.852 77.6689 165.261 77.9068 165.622C78.7266 166.669 83.3309 169.194 85.3439 168.602C87.3569 168.009 87.9718 162.167 87.9718 162.167C87.9718 162.167 89.8969 162.123 89.6993 161.018C89.5017 159.913 88.3817 158.705 88.2353 157.446C88.0889 156.187 88.7989 155.865 88.5061 154.408C88.3209 152.959 87.5679 151.642 86.4126 150.748C85.0804 149.723 77.797 153.01 75.6376 155.316C73.4782 157.622 73.0317 160.066 73.566 161.457C74.1004 162.848 77.3285 162.314 77.3285 162.314Z" fill="white" stroke="#263238" stroke-linecap="round" stroke-linejoin="round"/>
<path d="M86.6395 158.002C86.6395 158.456 86.4418 158.807 86.2588 158.8C86.0758 158.793 85.9587 158.412 85.988 157.966C86.0173 157.519 86.1856 157.16 86.3686 157.168C86.5516 157.175 86.6688 157.556 86.6395 158.002Z" fill="#263238"/>
<path d="M87.1519 155.916C87.1519 155.916 86.2296 155.067 85.2926 156.458" stroke="#263238" stroke-linecap="round" stroke-linejoin="round"/>
<path d="M85.461 163.968C85.0046 163.844 84.6058 163.564 84.3337 163.177" stroke="#263238" stroke-linecap="round" stroke-linejoin="round"/>
<path d="M78.2288 157.029L77.9873 159.291L79.4147 158.873C79.4147 158.873 78.6827 160.645 79.6928 159.825C80.703 159.005 82.1304 156.275 82.5769 156.018C83.0234 155.762 85.5049 153.354 87.2324 151.692C88.9599 150.031 89.692 147.762 89.1064 146.642C88.5208 145.522 81.435 140.639 74.9641 144.072C68.4932 147.505 66.7437 152.527 67.4245 155.294C68.1053 158.061 73.2805 165.293 74.2394 165.403C75.1983 165.513 77.3285 162.314 77.3285 162.314C77.3285 162.314 74.5395 161.582 75.1325 160.389C75.7254 159.195 78.2288 157.029 78.2288 157.029Z" fill="#263238" stroke="#263238" stroke-linecap="round" stroke-linejoin="round"/>
<path d="M74.0052 157.643C73.1591 158.245 72.2683 158.781 71.3407 159.247" stroke="white" stroke-width="0.75" stroke-linecap="round" stroke-linejoin="round"/>
<path d="M85.5489 145.705C82.9444 149.277 79.976 152.569 76.6917 155.528" stroke="white" stroke-width="0.75" stroke-linecap="round" stroke-linejoin="round"/>
<path d="M72.0508 155.799C71.7726 156.055 71.4871 156.319 71.187 156.582" stroke="white" stroke-width="0.75" stroke-linecap="round" stroke-linejoin="round"/>
<path d="M80.2125 146.012C78.3033 149.073 76.0405 151.898 73.4708 154.43" stroke="white" stroke-width="0.75" stroke-linecap="round" stroke-linejoin="round"/>
<path d="M74.0051 165.915L80.3076 174.941L75.7326 179.516L72.5192 167.152L74.0051 165.915Z" fill="white" stroke="#263238" stroke-linecap="round" stroke-linejoin="round"/>
<path d="M70.7917 167.899L62.1394 170.739C62.1394 170.739 55.3392 203.13 54.8194 203.994C54.2997 204.857 45.4279 220.83 46.5405 222.535C47.6532 224.241 58.2525 229.958 59.1456 229.584C60.0386 229.211 66.3192 217.221 70.1256 213.759C73.932 210.296 77.8335 205.97 78.324 201.154L74.986 186.931L74.6127 178.03L70.7917 167.899Z" fill="url(#paint19_linear_1_1123)" stroke="#263238" stroke-linecap="round" stroke-linejoin="round"/>
<path d="M73.2658 167.152L70.7916 167.899L70.1694 180.013L74.3784 182.363L71.9043 186.067L78.3312 201.154L75.7326 177.788L73.2658 167.152Z" fill="url(#paint20_linear_1_1123)" stroke="#263238" stroke-linecap="round" stroke-linejoin="round"/>
<path d="M65.2651 219.432L55.3904 228.025C55.3904 228.025 56.3639 229.197 59.1675 229.584C59.1675 229.584 63.5595 223.582 65.2651 219.432Z" fill="url(#paint21_linear_1_1123)" stroke="#263238" stroke-linecap="round" stroke-linejoin="round"/>
<path d="M66.8316 212.28C68.4866 212.308 70.1387 212.43 71.7799 212.646C72.6437 212.895 75.9816 216.357 75.9816 216.357C75.9816 216.357 75.9816 216.731 74.7445 217.089C73.5074 217.448 71.2821 215.852 71.2821 215.852L66.4656 220.427L63.4937 216.723L66.8316 212.28Z" fill="white" stroke="#263238" stroke-linecap="round" stroke-linejoin="round"/>
<path d="M66.4655 210.918L67.5782 212.397L63.4936 216.723L63.0032 215.12L66.4655 210.918Z" fill="white" stroke="#263238" stroke-linecap="round" stroke-linejoin="round"/>
<path d="M69.54 168.887C69.54 168.887 57.9159 168.887 57.0521 169.875C56.1883 170.863 47.0383 198.555 47.0383 200.158C47.0383 201.761 62.7397 216.482 62.7397 216.482L67.1903 211.043L58.3038 197.069L65.353 181.865" fill="url(#paint22_linear_1_1123)"/>
<path d="M69.54 168.887C69.54 168.887 57.9159 168.887 57.0521 169.875C56.1883 170.863 47.0383 198.555 47.0383 200.158C47.0383 201.761 62.7397 216.482 62.7397 216.482L67.1903 211.043L58.3038 197.069L65.353 181.865" stroke="#263238" stroke-linecap="round" stroke-linejoin="round"/>
<defs>
<linearGradient id="paint0_linear_1_1123" x1="44.9094" y1="186.05" x2="324.631" y2="186.767" gradientUnits="userSpaceOnUse">
<stop stop-color="#1D498D"/>
<stop offset="1" stop-color="#3C65A4"/>
</linearGradient>
<linearGradient id="paint1_linear_1_1123" x1="26.77" y1="298.473" x2="324.557" y2="304.132" gradientUnits="userSpaceOnUse">
<stop stop-color="#1D498D"/>
<stop offset="1" stop-color="#3C65A4"/>
</linearGradient>
<linearGradient id="paint2_linear_1_1123" x1="181.77" y1="198.641" x2="188.944" y2="198.644" gradientUnits="userSpaceOnUse">
<stop stop-color="#1D498D"/>
<stop offset="1" stop-color="#3C65A4"/>
</linearGradient>
<linearGradient id="paint3_linear_1_1123" x1="186.273" y1="199.88" x2="219.202" y2="199.921" gradientUnits="userSpaceOnUse">
<stop stop-color="#1D498D"/>
<stop offset="1" stop-color="#3C65A4"/>
</linearGradient>
<linearGradient id="paint4_linear_1_1123" x1="195.442" y1="176.959" x2="209.794" y2="176.989" gradientUnits="userSpaceOnUse">
<stop stop-color="#1D498D"/>
<stop offset="1" stop-color="#3C65A4"/>
</linearGradient>
<linearGradient id="paint5_linear_1_1123" x1="213.343" y1="194.862" x2="228.057" y2="194.877" gradientUnits="userSpaceOnUse">
<stop stop-color="#1D498D"/>
<stop offset="1" stop-color="#3C65A4"/>
</linearGradient>
<linearGradient id="paint6_linear_1_1123" x1="206.96" y1="206.254" x2="229.431" y2="206.342" gradientUnits="userSpaceOnUse">
<stop stop-color="#1D498D"/>
<stop offset="1" stop-color="#3C65A4"/>
</linearGradient>
<linearGradient id="paint7_linear_1_1123" x1="175.842" y1="203.59" x2="186.88" y2="203.599" gradientUnits="userSpaceOnUse">
<stop stop-color="#1D498D"/>
<stop offset="1" stop-color="#3C65A4"/>
</linearGradient>
<linearGradient id="paint8_linear_1_1123" x1="256.219" y1="215.274" x2="267.657" y2="215.281" gradientUnits="userSpaceOnUse">
<stop stop-color="#1D498D"/>
<stop offset="1" stop-color="#3C65A4"/>
</linearGradient>
<linearGradient id="paint9_linear_1_1123" x1="242.901" y1="232.494" x2="284.693" y2="232.548" gradientUnits="userSpaceOnUse">
<stop stop-color="#1D498D"/>
<stop offset="1" stop-color="#3C65A4"/>
</linearGradient>
<linearGradient id="paint10_linear_1_1123" x1="266.924" y1="223.612" x2="283.38" y2="223.638" gradientUnits="userSpaceOnUse">
<stop stop-color="#1D498D"/>
<stop offset="1" stop-color="#3C65A4"/>
</linearGradient>
<linearGradient id="paint11_linear_1_1123" x1="233.973" y1="291.866" x2="247.512" y2="291.9" gradientUnits="userSpaceOnUse">
<stop stop-color="#1D498D"/>
<stop offset="1" stop-color="#3C65A4"/>
</linearGradient>
<linearGradient id="paint12_linear_1_1123" x1="209.517" y1="276.921" x2="224.666" y2="277.011" gradientUnits="userSpaceOnUse">
<stop stop-color="#1D498D"/>
<stop offset="1" stop-color="#3C65A4"/>
</linearGradient>
<linearGradient id="paint13_linear_1_1123" x1="124.459" y1="227.189" x2="129.594" y2="227.201" gradientUnits="userSpaceOnUse">
<stop stop-color="#1D498D"/>
<stop offset="1" stop-color="#3C65A4"/>
</linearGradient>
<linearGradient id="paint14_linear_1_1123" x1="119.631" y1="210.441" x2="131.703" y2="210.448" gradientUnits="userSpaceOnUse">
<stop stop-color="#1D498D"/>
<stop offset="1" stop-color="#3C65A4"/>
</linearGradient>
<linearGradient id="paint15_linear_1_1123" x1="119.281" y1="206.95" x2="156.299" y2="207.005" gradientUnits="userSpaceOnUse">
<stop stop-color="#1D498D"/>
<stop offset="1" stop-color="#3C65A4"/>
</linearGradient>
<linearGradient id="paint16_linear_1_1123" x1="130.482" y1="185.343" x2="142.543" y2="185.364" gradientUnits="userSpaceOnUse">
<stop stop-color="#1D498D"/>
<stop offset="1" stop-color="#3C65A4"/>
</linearGradient>
<linearGradient id="paint17_linear_1_1123" x1="150.997" y1="208.687" x2="166.263" y2="208.697" gradientUnits="userSpaceOnUse">
<stop stop-color="#1D498D"/>
<stop offset="1" stop-color="#3C65A4"/>
</linearGradient>
<linearGradient id="paint18_linear_1_1123" x1="158.037" y1="228.359" x2="163.844" y2="228.378" gradientUnits="userSpaceOnUse">
<stop stop-color="#1D498D"/>
<stop offset="1" stop-color="#3C65A4"/>
</linearGradient>
<linearGradient id="paint19_linear_1_1123" x1="45.7779" y1="204.321" x2="78.3264" y2="204.352" gradientUnits="userSpaceOnUse">
<stop stop-color="#1D498D"/>
<stop offset="1" stop-color="#3C65A4"/>
</linearGradient>
<linearGradient id="paint20_linear_1_1123" x1="69.9989" y1="187.222" x2="78.3319" y2="187.226" gradientUnits="userSpaceOnUse">
<stop stop-color="#1D498D"/>
<stop offset="1" stop-color="#3C65A4"/>
</linearGradient>
<linearGradient id="paint21_linear_1_1123" x1="55.184" y1="225.425" x2="65.2658" y2="225.443" gradientUnits="userSpaceOnUse">
<stop stop-color="#1D498D"/>
<stop offset="1" stop-color="#3C65A4"/>
</linearGradient>
<linearGradient id="paint22_linear_1_1123" x1="46.5681" y1="196.981" x2="69.5418" y2="197.002" gradientUnits="userSpaceOnUse">
<stop stop-color="#1D498D"/>
<stop offset="1" stop-color="#3C65A4"/>
</linearGradient>
</defs>
</svg>
