<svg width="222" height="222" viewBox="0 0 222 222" fill="none" xmlns="http://www.w3.org/2000/svg">
<path d="M181.654 45.732C170.607 20.5439 144.091 11.06 123.17 27.972C115 34.5698 109.903 45.0704 99.9 49.284C90.5139 53.2356 78.6236 52.0723 68.4737 54.2124C46.8598 58.7412 17.76 75.924 19.98 102.4C20.9524 113.997 28.7757 126.877 32.6429 137.729C37.0829 150.214 39.7469 165.834 51.4996 173.298C71.6483 186.111 95.9529 175.638 114.104 165.306C123.872 159.751 129.248 156.337 139.767 158.242C149.504 160.018 158.273 166.234 167.788 158.859C174.932 153.322 175.522 142.102 181.521 135.513C188.278 128.09 195.129 127.552 198.641 116.395C202.899 102.857 196.625 94.3988 192.385 82.3043C188.145 70.2097 186.857 57.5824 181.654 45.732Z" fill="url(#paint0_linear_1_2851)"/>
<g opacity="0.7">
<path d="M181.654 45.732C170.607 20.5439 144.091 11.06 123.17 27.972C115 34.5698 109.903 45.0704 99.9 49.284C90.5139 53.2356 78.6236 52.0723 68.4737 54.2124C46.8598 58.7412 17.76 75.924 19.98 102.4C20.9524 113.997 28.7757 126.877 32.6429 137.729C37.0829 150.214 39.7469 165.834 51.4996 173.298C71.6483 186.111 95.9529 175.638 114.104 165.306C123.872 159.751 129.248 156.337 139.767 158.242C149.504 160.018 158.273 166.234 167.788 158.859C174.932 153.322 175.522 142.102 181.521 135.513C188.278 128.09 195.129 127.552 198.641 116.395C202.899 102.857 196.625 94.3988 192.385 82.3043C188.145 70.2097 186.857 57.5824 181.654 45.732Z" fill="white"/>
</g>
<path d="M97.5957 194.33C135.501 194.33 166.229 192.416 166.229 190.054C166.229 187.693 135.501 185.778 97.5957 185.778C59.6904 185.778 28.9622 187.693 28.9622 190.054C28.9622 192.416 59.6904 194.33 97.5957 194.33Z" fill="url(#paint1_linear_1_2851)"/>
<path opacity="0.8" d="M97.5957 194.33C135.501 194.33 166.229 192.416 166.229 190.054C166.229 187.693 135.501 185.778 97.5957 185.778C59.6904 185.778 28.9622 187.693 28.9622 190.054C28.9622 192.416 59.6904 194.33 97.5957 194.33Z" fill="white"/>
<path d="M149.171 27.4658H80.1598C75.3952 27.4658 71.5328 31.3282 71.5328 36.0927V181.787C71.5328 186.551 75.3952 190.414 80.1598 190.414H149.171C153.935 190.414 157.798 186.551 157.798 181.787V36.0927C157.798 31.3282 153.935 27.4658 149.171 27.4658Z" fill="#263238"/>
<path d="M153.961 45.359H75.3645V172.521H153.961V45.359Z" fill="white" stroke="#263238" stroke-width="1.33739" stroke-miterlimit="10"/>
<path d="M126.712 96.8504C133.365 90.1973 133.365 79.4106 126.712 72.7575C120.058 66.1044 109.272 66.1044 102.619 72.7575C95.9655 79.4106 95.9655 90.1973 102.619 96.8504C109.272 103.504 120.058 103.503 126.712 96.8504Z" fill="url(#paint2_linear_1_2851)"/>
<path d="M137.032 164.524H92.3032C92.2025 164.525 92.1027 164.506 92.0096 164.467C91.9164 164.429 91.8317 164.373 91.7603 164.302C91.6889 164.231 91.6323 164.147 91.5936 164.054C91.5549 163.961 91.535 163.861 91.535 163.761C91.5345 163.66 91.5539 163.559 91.5923 163.466C91.6307 163.372 91.6873 163.288 91.7587 163.216C91.8302 163.145 91.9151 163.088 92.0085 163.05C92.102 163.011 92.2021 162.992 92.3032 162.992H137.032C137.132 162.992 137.232 163.012 137.325 163.051C137.418 163.09 137.502 163.146 137.573 163.218C137.644 163.289 137.7 163.374 137.739 163.467C137.777 163.56 137.796 163.66 137.795 163.761C137.795 163.963 137.715 164.157 137.572 164.301C137.429 164.444 137.234 164.524 137.032 164.524Z" fill="url(#paint3_linear_1_2851)"/>
<path d="M138.488 111.417H90.8425C89.8591 111.417 89.062 112.214 89.062 113.198V118.814C89.062 119.798 89.8591 120.595 90.8425 120.595H138.488C139.471 120.595 140.269 119.798 140.269 118.814V113.198C140.269 112.214 139.471 111.417 138.488 111.417Z" fill="url(#paint4_linear_1_2851)"/>
<path d="M138.488 128.582H90.8425C89.8591 128.582 89.062 129.38 89.062 130.363V135.979C89.062 136.963 89.8591 137.76 90.8425 137.76H138.488C139.471 137.76 140.269 136.963 140.269 135.979V130.363C140.269 129.38 139.471 128.582 138.488 128.582Z" fill="url(#paint5_linear_1_2851)"/>
<path d="M123.148 93.3021L118.135 90.4161V88.0319C118.861 87.1537 119.387 86.128 119.676 85.026C119.848 85.0873 120.03 85.1188 120.213 85.1192C120.835 85.1192 121.23 83.1923 121.296 81.8159C122.02 80.2841 121.034 79.3872 121.034 79.3872C121.034 79.3872 121.443 78.9787 121.714 77.3403C121.985 75.702 120.759 76.3857 119.804 74.885C118.85 73.3843 118.166 71.7504 115.031 71.7504C114.168 71.722 113.315 71.9541 112.585 72.4165C111.855 72.8789 111.281 73.5503 110.938 74.3433C110.158 74.3461 109.38 74.437 108.62 74.6142C107.661 74.885 107.39 78.0241 108.207 79.254C108.573 79.9261 108.768 80.6777 108.776 81.4429C108.558 81.1765 108.332 81.1055 108.207 81.7093C107.936 83.0724 109.029 84.9816 109.029 84.9816L109.592 84.8217C109.877 85.9994 110.425 87.0971 111.195 88.0319V90.4161L106.183 93.3021C105.597 93.6401 105.111 94.1261 104.773 94.7114C104.435 95.2967 104.256 95.9606 104.256 96.6366V98.2882C107.237 100.591 110.898 101.841 114.665 101.841C118.433 101.841 122.093 100.591 125.075 98.2882V96.6366C125.075 95.9604 124.897 95.2961 124.559 94.7107C124.221 94.1253 123.734 93.6394 123.148 93.3021Z" fill="#263238"/>
<path d="M95.5488 135.478C95.4339 135.476 95.3241 135.43 95.2425 135.349C95.1988 135.31 95.1639 135.262 95.1402 135.208C95.1165 135.155 95.1044 135.097 95.1048 135.038C95.1062 134.958 95.1292 134.88 95.1714 134.812L95.9706 133.533L94.4122 133.582C94.3535 133.585 94.2946 133.577 94.2395 133.556C94.1844 133.535 94.1343 133.503 94.0925 133.462C94.0201 133.381 93.9801 133.276 93.9801 133.167C93.9801 133.058 94.0201 132.953 94.0925 132.871C94.1334 132.829 94.1833 132.795 94.2385 132.774C94.2937 132.752 94.353 132.743 94.4122 132.747L95.9484 132.805L95.1581 131.531C95.1151 131.461 95.0921 131.381 95.0915 131.3C95.0911 131.241 95.1031 131.183 95.1269 131.129C95.1506 131.076 95.1855 131.028 95.2291 130.989C95.3107 130.908 95.4206 130.862 95.5355 130.86C95.6112 130.861 95.6851 130.883 95.7488 130.923C95.8125 130.964 95.8632 131.022 95.8951 131.091L96.6544 132.463L97.4047 131.1C97.4403 131.027 97.4951 130.966 97.5632 130.922C97.6313 130.878 97.7101 130.853 97.791 130.851C97.8471 130.852 97.9026 130.864 97.9538 130.886C98.005 130.909 98.0509 130.943 98.0885 130.984C98.17 131.069 98.2147 131.182 98.2128 131.3C98.2126 131.376 98.1927 131.451 98.1551 131.517L97.3515 132.805L98.9099 132.747C98.969 132.743 99.0283 132.752 99.0836 132.774C99.1388 132.795 99.1887 132.829 99.2296 132.871C99.3053 132.95 99.3468 133.055 99.345 133.164C99.3447 133.274 99.3036 133.38 99.2296 133.462C99.1878 133.503 99.1377 133.535 99.0826 133.556C99.0275 133.577 98.9686 133.585 98.9099 133.582L97.3426 133.533L98.124 134.798C98.1678 134.869 98.1909 134.951 98.1906 135.034C98.1906 135.151 98.1438 135.264 98.0606 135.348C97.9773 135.431 97.8644 135.478 97.7466 135.478C97.6705 135.477 97.5963 135.453 97.5332 135.411C97.4701 135.368 97.4208 135.308 97.3914 135.238L96.6499 133.906L95.9129 135.238C95.8802 135.308 95.8289 135.367 95.7647 135.409C95.7004 135.451 95.6257 135.475 95.5488 135.478Z" fill="#263238"/>
<path d="M102.75 135.478C102.635 135.476 102.526 135.43 102.444 135.349C102.4 135.31 102.366 135.262 102.342 135.208C102.318 135.155 102.306 135.097 102.306 135.038C102.308 134.958 102.331 134.88 102.373 134.812L103.172 133.533L101.618 133.582C101.559 133.584 101.5 133.575 101.444 133.555C101.388 133.534 101.337 133.503 101.294 133.462C101.235 133.401 101.196 133.324 101.181 133.241C101.167 133.157 101.178 133.071 101.213 132.994C101.248 132.917 101.305 132.852 101.377 132.808C101.45 132.764 101.534 132.743 101.618 132.747L103.15 132.805L102.36 131.531C102.317 131.461 102.294 131.381 102.293 131.3C102.293 131.241 102.305 131.183 102.328 131.129C102.352 131.076 102.387 131.028 102.431 130.989C102.512 130.908 102.622 130.862 102.737 130.86C102.813 130.861 102.887 130.883 102.95 130.923C103.014 130.964 103.065 131.022 103.097 131.091L103.856 132.463L104.606 131.1C104.642 131.027 104.697 130.966 104.765 130.922C104.833 130.878 104.912 130.853 104.993 130.851C105.049 130.851 105.104 130.863 105.156 130.886C105.207 130.909 105.253 130.942 105.29 130.984C105.331 131.026 105.364 131.075 105.386 131.129C105.408 131.183 105.419 131.241 105.419 131.3C105.417 131.376 105.396 131.451 105.357 131.517L104.553 132.805L106.116 132.756C106.174 132.752 106.233 132.761 106.288 132.783C106.342 132.804 106.391 132.837 106.431 132.88C106.507 132.959 106.548 133.064 106.547 133.173C106.546 133.283 106.505 133.389 106.431 133.471C106.39 133.512 106.341 133.544 106.287 133.565C106.232 133.585 106.174 133.594 106.116 133.591L104.544 133.542L105.326 134.807C105.369 134.878 105.392 134.959 105.392 135.043C105.392 135.16 105.345 135.273 105.262 135.357C105.179 135.44 105.066 135.487 104.948 135.487C104.872 135.486 104.798 135.462 104.735 135.42C104.672 135.377 104.622 135.317 104.593 135.247L103.852 133.915L103.115 135.247C103.081 135.315 103.029 135.372 102.965 135.413C102.9 135.454 102.826 135.476 102.75 135.478Z" fill="#263238"/>
<path d="M109.957 135.478C109.84 135.477 109.729 135.431 109.646 135.349C109.602 135.31 109.567 135.262 109.544 135.208C109.52 135.155 109.508 135.097 109.508 135.038C109.51 134.958 109.533 134.88 109.575 134.812L110.374 133.533L108.82 133.582C108.736 133.585 108.654 133.563 108.582 133.52C108.511 133.476 108.454 133.412 108.419 133.335C108.385 133.259 108.373 133.174 108.387 133.092C108.401 133.009 108.438 132.932 108.496 132.871C108.538 132.829 108.588 132.795 108.644 132.774C108.7 132.752 108.76 132.743 108.82 132.747L110.352 132.805L109.561 131.531C109.518 131.461 109.495 131.381 109.495 131.3C109.496 131.241 109.509 131.184 109.533 131.131C109.556 131.077 109.59 131.029 109.632 130.989C109.715 130.907 109.827 130.861 109.943 130.86C110.018 130.861 110.091 130.884 110.154 130.925C110.217 130.965 110.267 131.023 110.298 131.091L111.058 132.463L111.808 131.1C111.844 131.027 111.898 130.966 111.967 130.922C112.035 130.878 112.113 130.853 112.194 130.851C112.251 130.851 112.306 130.863 112.357 130.886C112.409 130.909 112.455 130.942 112.492 130.984C112.533 131.026 112.566 131.075 112.588 131.129C112.61 131.183 112.621 131.241 112.621 131.3C112.619 131.376 112.598 131.451 112.558 131.517L111.755 132.805L113.318 132.747C113.375 132.741 113.433 132.748 113.488 132.767C113.543 132.785 113.593 132.815 113.635 132.855C113.677 132.894 113.71 132.942 113.732 132.996C113.754 133.049 113.764 133.107 113.762 133.164C113.763 133.274 113.723 133.38 113.651 133.462C113.609 133.503 113.559 133.535 113.504 133.556C113.449 133.577 113.39 133.585 113.331 133.582L111.764 133.533L112.541 134.798C112.584 134.869 112.608 134.951 112.607 135.034C112.606 135.092 112.593 135.149 112.569 135.203C112.546 135.256 112.512 135.304 112.47 135.344C112.431 135.386 112.384 135.419 112.332 135.442C112.281 135.465 112.224 135.477 112.168 135.478C112.092 135.476 112.019 135.453 111.956 135.41C111.894 135.368 111.846 135.308 111.817 135.238L111.071 133.906L110.334 135.238C110.301 135.31 110.247 135.371 110.181 135.413C110.114 135.456 110.036 135.478 109.957 135.478Z" fill="#263238"/>
<path d="M117.158 135.478C117.042 135.477 116.93 135.431 116.847 135.349C116.764 135.267 116.716 135.155 116.714 135.038C116.713 134.958 116.734 134.88 116.776 134.812L117.576 133.533L116.022 133.582C115.962 133.584 115.903 133.575 115.847 133.555C115.792 133.534 115.741 133.503 115.697 133.462C115.625 133.381 115.585 133.276 115.585 133.167C115.585 133.058 115.625 132.953 115.697 132.871C115.74 132.83 115.791 132.798 115.847 132.776C115.903 132.755 115.962 132.745 116.022 132.747L117.558 132.805L116.772 131.531C116.729 131.461 116.706 131.381 116.705 131.3C116.707 131.241 116.72 131.184 116.743 131.131C116.767 131.077 116.801 131.029 116.843 130.989C116.926 130.907 117.037 130.861 117.154 130.86C117.229 130.861 117.303 130.883 117.367 130.923C117.431 130.964 117.482 131.022 117.513 131.091L118.268 132.463L119.019 131.1C119.054 131.027 119.109 130.966 119.177 130.922C119.245 130.878 119.324 130.853 119.405 130.851C119.461 130.851 119.517 130.863 119.568 130.886C119.619 130.909 119.665 130.942 119.702 130.984C119.744 131.026 119.776 131.075 119.798 131.129C119.82 131.183 119.831 131.241 119.831 131.3C119.83 131.376 119.808 131.451 119.769 131.517L118.965 132.805L120.528 132.747C120.586 132.741 120.644 132.748 120.698 132.767C120.753 132.785 120.803 132.815 120.845 132.855C120.887 132.894 120.92 132.942 120.942 132.996C120.964 133.049 120.974 133.107 120.972 133.164C120.973 133.274 120.934 133.38 120.861 133.462C120.819 133.503 120.769 133.535 120.714 133.556C120.659 133.577 120.6 133.585 120.542 133.582L118.974 133.533L119.751 134.798C119.795 134.869 119.818 134.951 119.818 135.034C119.818 135.092 119.806 135.15 119.782 135.204C119.759 135.257 119.724 135.305 119.68 135.344C119.642 135.386 119.595 135.419 119.543 135.442C119.491 135.465 119.435 135.477 119.378 135.478C119.303 135.476 119.229 135.453 119.167 135.41C119.105 135.368 119.056 135.308 119.027 135.238L118.282 133.906L117.545 135.238C117.511 135.311 117.456 135.373 117.387 135.416C117.319 135.458 117.239 135.48 117.158 135.478Z" fill="#263238"/>
<path d="M124.36 135.478C124.243 135.477 124.132 135.431 124.049 135.349C123.98 135.279 123.936 135.189 123.924 135.092C123.912 134.994 123.933 134.896 123.982 134.812L124.777 133.533L123.223 133.582C123.164 133.584 123.105 133.575 123.049 133.555C122.993 133.534 122.942 133.503 122.899 133.462C122.827 133.381 122.787 133.276 122.787 133.167C122.787 133.058 122.827 132.953 122.899 132.871C122.942 132.83 122.993 132.798 123.049 132.776C123.104 132.755 123.164 132.745 123.223 132.747L124.759 132.805L123.969 131.531C123.926 131.461 123.903 131.381 123.903 131.3C123.904 131.183 123.952 131.071 124.036 130.989C124.118 130.907 124.23 130.861 124.347 130.86C124.422 130.861 124.496 130.883 124.56 130.923C124.624 130.964 124.674 131.022 124.706 131.091L125.461 132.463L126.211 131.1C126.247 131.027 126.302 130.966 126.37 130.922C126.438 130.878 126.517 130.853 126.598 130.851C126.655 130.851 126.711 130.863 126.763 130.886C126.815 130.909 126.861 130.942 126.9 130.984C126.981 131.069 127.026 131.182 127.024 131.3C127.022 131.376 127.001 131.451 126.962 131.517L126.158 132.805L127.721 132.747C127.778 132.741 127.836 132.748 127.891 132.767C127.946 132.785 127.996 132.815 128.038 132.855C128.08 132.894 128.113 132.942 128.135 132.996C128.157 133.049 128.167 133.107 128.165 133.164C128.166 133.274 128.126 133.38 128.054 133.462C128.012 133.503 127.962 133.535 127.907 133.556C127.852 133.577 127.793 133.585 127.734 133.582L126.167 133.533L126.944 134.798C126.988 134.869 127.011 134.951 127.011 135.034C127.011 135.092 126.999 135.15 126.975 135.204C126.951 135.257 126.917 135.305 126.873 135.344C126.834 135.386 126.788 135.419 126.736 135.442C126.684 135.465 126.628 135.477 126.571 135.478C126.496 135.476 126.422 135.453 126.36 135.41C126.297 135.368 126.249 135.308 126.22 135.238L125.474 133.906L124.737 135.238C124.704 135.31 124.651 135.371 124.584 135.413C124.517 135.456 124.439 135.478 124.36 135.478Z" fill="#263238"/>
<path d="M131.562 135.478C131.447 135.476 131.337 135.43 131.255 135.349C131.212 135.31 131.177 135.262 131.153 135.208C131.129 135.155 131.117 135.097 131.118 135.038C131.119 134.958 131.142 134.88 131.184 134.812L131.979 133.533L130.425 133.582C130.368 133.586 130.31 133.578 130.256 133.559C130.202 133.54 130.153 133.51 130.111 133.471C130.069 133.432 130.036 133.384 130.014 133.331C129.991 133.279 129.98 133.222 129.981 133.164C129.981 133.11 129.991 133.056 130.012 133.006C130.032 132.956 130.063 132.91 130.101 132.871C130.142 132.829 130.192 132.795 130.247 132.774C130.302 132.752 130.361 132.743 130.421 132.747L131.957 132.805L131.166 131.531C131.123 131.461 131.1 131.381 131.1 131.3C131.102 131.183 131.149 131.071 131.233 130.989C131.316 130.907 131.427 130.861 131.544 130.86C131.62 130.861 131.693 130.883 131.757 130.923C131.821 130.964 131.872 131.022 131.904 131.091L132.658 132.463L133.413 131.1C133.448 131.028 133.502 130.967 133.57 130.923C133.637 130.879 133.715 130.854 133.795 130.851C133.852 130.851 133.908 130.863 133.96 130.886C134.012 130.909 134.059 130.942 134.097 130.984C134.178 131.069 134.223 131.182 134.221 131.3C134.221 131.376 134.201 131.451 134.163 131.517L133.36 132.805L134.918 132.747C134.977 132.743 135.037 132.752 135.092 132.774C135.147 132.795 135.197 132.829 135.238 132.871C135.314 132.95 135.355 133.055 135.353 133.164C135.353 133.274 135.312 133.38 135.238 133.462C135.196 133.503 135.146 133.535 135.091 133.556C135.036 133.577 134.977 133.585 134.918 133.582L133.351 133.533L134.128 134.798C134.172 134.869 134.195 134.951 134.195 135.034C134.193 135.151 134.145 135.263 134.061 135.344C133.98 135.427 133.871 135.475 133.755 135.478C133.679 135.476 133.606 135.453 133.544 135.41C133.481 135.368 133.433 135.308 133.404 135.238L132.658 133.906L131.921 135.238C131.889 135.307 131.839 135.366 131.775 135.409C131.712 135.451 131.638 135.475 131.562 135.478Z" fill="#263238"/>
<g style="mix-blend-mode:multiply">
<path d="M153.961 45.5277H75.3645V50.4517H153.961V45.5277Z" fill="url(#paint6_linear_1_2851)"/>
</g>
<path d="M123.21 36.4568H106.116C105.808 36.4568 105.512 36.3342 105.293 36.1161C105.075 35.8979 104.953 35.602 104.953 35.2935C104.953 34.985 105.075 34.6891 105.293 34.471C105.512 34.2528 105.808 34.1302 106.116 34.1302H123.21C123.519 34.1302 123.814 34.2528 124.033 34.471C124.251 34.6891 124.373 34.985 124.373 35.2935C124.373 35.602 124.251 35.8979 124.033 36.1161C123.814 36.3342 123.519 36.4568 123.21 36.4568Z" fill="url(#paint7_linear_1_2851)" stroke="#263238" stroke-width="1.33739" stroke-linecap="round" stroke-linejoin="round"/>
<path d="M119.325 179.705C119.326 178.782 119.053 177.88 118.541 177.113C118.029 176.345 117.301 175.747 116.449 175.394C115.597 175.04 114.659 174.948 113.755 175.127C112.85 175.307 112.019 175.751 111.366 176.404C110.714 177.056 110.27 177.887 110.09 178.792C109.911 179.696 110.003 180.634 110.357 181.486C110.71 182.338 111.308 183.066 112.076 183.578C112.843 184.09 113.745 184.363 114.667 184.362C115.902 184.361 117.086 183.87 117.96 182.997C118.833 182.123 119.324 180.939 119.325 179.705Z" fill="url(#paint8_linear_1_2851)"/>
<path d="M117.03 177.342H112.305V182.067H117.03V177.342Z" fill="url(#paint9_linear_1_2851)" stroke="#263238" stroke-width="1.33739" stroke-linecap="round" stroke-linejoin="round"/>
<path d="M170.94 126.096C170.94 126.096 164.751 110.37 170.261 108.5C175.997 106.551 175.744 116.936 175.522 121.998C175.056 132.814 173.862 134.825 172.969 132.183L170.94 126.096ZM169.08 138.364C170.78 140.584 171.26 138.284 168.192 127.899C166.753 123.015 163.627 113.136 158.832 116.843C154.228 120.395 165.186 133.271 165.186 133.271L169.08 138.364ZM165.794 147.377C167.415 148.816 167.446 147 163.596 139.5C161.789 135.988 157.966 128.88 154.836 132.396C151.83 135.789 162.073 144.034 162.073 144.034L165.794 147.377ZM162.242 158.095C163.863 159.538 163.894 157.718 160.044 150.223C158.237 146.711 154.414 139.598 151.284 143.119C148.296 146.52 158.508 154.765 158.508 154.765L162.242 158.095ZM172.498 136.277C169.906 137.289 171.966 138.39 182.795 138.359C187.874 138.359 198.246 138.128 196.035 132.485C193.917 127.064 178.492 133.968 178.492 133.968L172.498 136.277ZM169.546 143.488C166.802 143.963 168.605 145.454 179.225 147.577C184.202 148.576 194.41 150.418 193.367 144.469C192.368 138.732 175.877 142.435 175.877 142.435L169.546 143.488ZM166.243 152.292C163.907 152.629 165.399 153.93 174.328 155.973C178.515 156.932 187.106 158.73 186.36 153.655C185.65 148.771 171.619 151.533 171.619 151.533L166.243 152.292ZM163.734 160.448C161.447 161.03 163.068 162.167 172.17 163.25C176.432 163.756 185.166 164.635 183.892 159.667C182.662 154.898 169.004 159.121 169.004 159.121L163.734 160.448ZM177.116 127.428C175.784 130.412 178.55 129.959 187.954 121.754C192.359 117.904 201.194 109.85 194.197 105.841C187.479 101.987 180.255 120.582 180.255 120.582L177.116 127.428ZM164.08 171.073C162.673 171.895 164.054 172.214 170.509 170.927C173.537 170.327 179.696 168.995 177.613 166.367C175.598 163.836 167.339 169.164 167.339 169.164L164.08 171.073Z" fill="url(#paint10_linear_1_2851)"/>
<path opacity="0.3" d="M170.94 126.096C170.94 126.096 164.751 110.37 170.261 108.5C175.997 106.551 175.744 116.936 175.522 121.998C175.056 132.814 173.862 134.825 172.969 132.183L170.94 126.096ZM169.08 138.364C170.78 140.584 171.26 138.284 168.192 127.899C166.753 123.015 163.627 113.136 158.832 116.843C154.228 120.395 165.186 133.271 165.186 133.271L169.08 138.364ZM165.794 147.377C167.415 148.816 167.446 147 163.596 139.5C161.789 135.988 157.966 128.88 154.836 132.396C151.83 135.789 162.073 144.034 162.073 144.034L165.794 147.377ZM162.242 158.095C163.863 159.538 163.894 157.718 160.044 150.223C158.237 146.711 154.414 139.598 151.284 143.119C148.296 146.52 158.508 154.765 158.508 154.765L162.242 158.095ZM172.498 136.277C169.906 137.289 171.966 138.39 182.795 138.359C187.874 138.359 198.246 138.128 196.035 132.485C193.917 127.064 178.492 133.968 178.492 133.968L172.498 136.277ZM169.546 143.488C166.802 143.963 168.605 145.454 179.225 147.577C184.202 148.576 194.41 150.418 193.367 144.469C192.368 138.732 175.877 142.435 175.877 142.435L169.546 143.488ZM166.243 152.292C163.907 152.629 165.399 153.93 174.328 155.973C178.515 156.932 187.106 158.73 186.36 153.655C185.65 148.771 171.619 151.533 171.619 151.533L166.243 152.292ZM163.734 160.448C161.447 161.03 163.068 162.167 172.17 163.25C176.432 163.756 185.166 164.635 183.892 159.667C182.662 154.898 169.004 159.121 169.004 159.121L163.734 160.448ZM177.116 127.428C175.784 130.412 178.55 129.959 187.954 121.754C192.359 117.904 201.194 109.85 194.197 105.841C187.479 101.987 180.255 120.582 180.255 120.582L177.116 127.428ZM164.08 171.073C162.673 171.895 164.054 172.214 170.509 170.927C173.537 170.327 179.696 168.995 177.613 166.367C175.598 163.836 167.339 169.164 167.339 169.164L164.08 171.073Z" fill="white"/>
<path d="M173.671 133.418L172.592 115.467L173.671 133.418ZM170.256 139.341L163.436 123.903L170.256 139.341ZM187.856 134.852L171.513 137.196L187.856 134.852ZM166.722 147.661L157.873 136.308L166.722 147.661ZM168.276 144.18L180.468 144.793L168.276 144.18ZM165.39 152.887L174.714 153.81L165.39 152.887ZM163.139 158.419L158.508 151.453L163.139 158.419ZM162.606 160.879L173.568 160.981L162.606 160.879ZM160.386 181.445C160.46 181.439 160.528 181.405 160.576 181.349C160.624 181.294 160.649 181.221 160.644 181.148C159.947 170.678 163.996 153.531 170.492 139.456C174.643 130.461 190.916 112.78 191.089 112.603C191.141 112.55 191.17 112.479 191.17 112.405C191.17 112.331 191.141 112.26 191.089 112.208C191.063 112.182 191.033 112.161 190.999 112.147C190.966 112.134 190.93 112.126 190.893 112.126C190.857 112.126 190.821 112.134 190.788 112.147C190.754 112.161 190.724 112.182 190.698 112.208C190.534 112.385 174.195 130.132 170.008 139.207C163.392 153.624 159.396 170.46 160.106 181.183C160.112 181.254 160.144 181.32 160.195 181.368C160.247 181.417 160.315 181.444 160.386 181.445ZM173.666 133.693C173.74 133.688 173.808 133.655 173.857 133.6C173.906 133.545 173.932 133.473 173.928 133.4L172.867 115.44C172.865 115.403 172.856 115.368 172.841 115.335C172.825 115.301 172.803 115.272 172.775 115.247C172.748 115.223 172.716 115.204 172.682 115.192C172.647 115.181 172.61 115.176 172.574 115.178C172.5 115.183 172.432 115.216 172.383 115.271C172.334 115.326 172.308 115.398 172.312 115.471L173.391 133.422C173.394 133.493 173.425 133.559 173.476 133.608C173.527 133.657 173.595 133.684 173.666 133.684V133.693ZM170.354 139.594C170.42 139.563 170.473 139.509 170.499 139.44C170.526 139.372 170.525 139.297 170.496 139.23L163.672 123.792C163.642 123.725 163.587 123.672 163.519 123.645C163.451 123.619 163.375 123.62 163.308 123.65C163.241 123.679 163.188 123.734 163.161 123.802C163.135 123.87 163.136 123.947 163.166 124.014L169.985 139.452C170.007 139.501 170.042 139.543 170.087 139.573C170.132 139.603 170.185 139.62 170.238 139.62C170.284 139.623 170.33 139.613 170.372 139.594H170.354ZM171.535 137.462L187.87 135.127C187.909 135.126 187.948 135.117 187.984 135.1C188.019 135.083 188.051 135.059 188.077 135.029C188.102 134.999 188.121 134.964 188.132 134.926C188.143 134.888 188.146 134.848 188.141 134.809C188.136 134.77 188.122 134.733 188.101 134.699C188.08 134.666 188.053 134.637 188.02 134.615C187.987 134.593 187.95 134.578 187.911 134.572C187.872 134.565 187.832 134.567 187.794 134.576L171.459 136.912C171.386 136.917 171.318 136.95 171.27 137.005C171.222 137.06 171.197 137.132 171.202 137.205C171.207 137.278 171.24 137.346 171.295 137.394C171.35 137.443 171.422 137.467 171.495 137.462H171.535ZM166.877 147.883C166.935 147.838 166.973 147.771 166.982 147.698C166.991 147.625 166.971 147.551 166.926 147.492L158.073 136.117C158.028 136.058 157.961 136.02 157.887 136.01C157.813 136.001 157.739 136.021 157.68 136.066C157.621 136.111 157.583 136.178 157.573 136.252C157.563 136.326 157.584 136.4 157.629 136.459L166.5 147.852C166.526 147.885 166.559 147.912 166.596 147.93C166.634 147.949 166.676 147.959 166.718 147.959C166.784 147.955 166.847 147.929 166.895 147.883H166.877ZM180.712 144.806C180.715 144.733 180.688 144.661 180.638 144.607C180.589 144.553 180.519 144.521 180.446 144.518L168.276 143.9C168.208 143.905 168.143 143.935 168.095 143.984C168.047 144.033 168.019 144.098 168.016 144.166C168.012 144.235 168.034 144.302 168.078 144.355C168.121 144.409 168.182 144.444 168.249 144.455L180.442 145.073C180.515 145.075 180.587 145.048 180.641 144.999C180.695 144.949 180.727 144.88 180.73 144.806H180.712ZM174.972 153.837C174.976 153.801 174.973 153.764 174.963 153.728C174.952 153.693 174.935 153.66 174.912 153.631C174.889 153.603 174.86 153.579 174.828 153.562C174.795 153.545 174.759 153.534 174.723 153.531L165.399 152.612C165.363 152.608 165.326 152.612 165.291 152.622C165.257 152.633 165.224 152.65 165.196 152.673C165.168 152.696 165.145 152.725 165.128 152.757C165.111 152.789 165.1 152.824 165.097 152.86C165.091 152.933 165.113 153.006 165.16 153.062C165.206 153.118 165.273 153.154 165.346 153.162L174.67 154.086H174.696C174.768 154.091 174.839 154.067 174.893 154.021C174.948 153.975 174.982 153.909 174.989 153.837H174.972ZM163.272 158.65C163.334 158.609 163.377 158.546 163.392 158.473C163.407 158.401 163.392 158.326 163.352 158.264L158.743 151.297C158.701 151.237 158.637 151.196 158.565 151.182C158.493 151.168 158.419 151.182 158.357 151.222C158.295 151.263 158.252 151.326 158.237 151.399C158.222 151.471 158.237 151.546 158.277 151.608L162.886 158.575C162.912 158.613 162.947 158.644 162.988 158.666C163.029 158.687 163.075 158.699 163.121 158.699C163.181 158.702 163.241 158.685 163.29 158.65H163.272ZM173.848 160.981C173.847 160.908 173.818 160.838 173.767 160.786C173.715 160.734 173.646 160.704 173.573 160.701L162.611 160.599C162.538 160.599 162.468 160.628 162.416 160.68C162.364 160.731 162.335 160.802 162.335 160.875C162.334 160.911 162.34 160.948 162.354 160.982C162.367 161.016 162.387 161.047 162.413 161.073C162.439 161.1 162.469 161.12 162.503 161.134C162.537 161.148 162.574 161.155 162.611 161.154L173.573 161.256C173.61 161.258 173.648 161.252 173.683 161.239C173.718 161.226 173.75 161.207 173.778 161.181C173.805 161.155 173.827 161.124 173.842 161.09C173.857 161.056 173.865 161.019 173.866 160.981H173.848ZM159.138 177.374C159.161 177.325 161.03 172.174 166.651 170.944C166.723 170.929 166.786 170.884 166.826 170.822C166.866 170.76 166.88 170.684 166.864 170.611C166.846 170.54 166.801 170.479 166.739 170.44C166.677 170.401 166.603 170.388 166.531 170.403C160.604 171.699 158.637 177.138 158.615 177.192C158.592 177.262 158.597 177.338 158.629 177.404C158.662 177.47 158.718 177.522 158.788 177.547H158.877C158.936 177.552 158.995 177.538 159.045 177.507C159.095 177.475 159.134 177.429 159.156 177.374H159.138ZM160.386 181.445C160.46 181.439 160.528 181.405 160.576 181.349C160.624 181.294 160.649 181.221 160.644 181.148C159.947 170.678 163.996 153.531 170.492 139.456C174.643 130.461 190.916 112.78 191.089 112.603C191.141 112.55 191.17 112.479 191.17 112.405C191.17 112.331 191.141 112.26 191.089 112.208C191.063 112.182 191.033 112.161 190.999 112.147C190.966 112.134 190.93 112.126 190.893 112.126C190.857 112.126 190.821 112.134 190.788 112.147C190.754 112.161 190.724 112.182 190.698 112.208C190.534 112.385 174.195 130.132 170.008 139.207C163.392 153.624 159.396 170.46 160.106 181.183C160.112 181.254 160.144 181.32 160.195 181.368C160.247 181.417 160.315 181.444 160.386 181.445ZM173.666 133.693C173.74 133.688 173.808 133.655 173.857 133.6C173.906 133.545 173.932 133.473 173.928 133.4L172.867 115.44C172.865 115.403 172.856 115.368 172.841 115.335C172.825 115.301 172.803 115.272 172.775 115.247C172.748 115.223 172.716 115.204 172.682 115.192C172.647 115.181 172.61 115.176 172.574 115.178C172.5 115.183 172.432 115.216 172.383 115.271C172.334 115.326 172.308 115.398 172.312 115.471L173.391 133.422C173.394 133.493 173.425 133.559 173.476 133.608C173.527 133.657 173.595 133.684 173.666 133.684V133.693ZM170.354 139.594C170.42 139.563 170.473 139.509 170.499 139.44C170.526 139.372 170.525 139.297 170.496 139.23L163.672 123.792C163.642 123.725 163.587 123.672 163.519 123.645C163.451 123.619 163.375 123.62 163.308 123.65C163.241 123.679 163.188 123.734 163.161 123.802C163.135 123.87 163.136 123.947 163.166 124.014L169.985 139.452C170.007 139.501 170.042 139.543 170.087 139.573C170.132 139.603 170.185 139.62 170.238 139.62C170.284 139.623 170.33 139.613 170.372 139.594H170.354ZM171.535 137.462L187.87 135.127C187.909 135.126 187.948 135.117 187.984 135.1C188.019 135.083 188.051 135.059 188.077 135.029C188.102 134.999 188.121 134.964 188.132 134.926C188.143 134.888 188.146 134.848 188.141 134.809C188.136 134.77 188.122 134.733 188.101 134.699C188.08 134.666 188.053 134.637 188.02 134.615C187.987 134.593 187.95 134.578 187.911 134.572C187.872 134.565 187.832 134.567 187.794 134.576L171.459 136.912C171.386 136.917 171.318 136.95 171.27 137.005C171.222 137.06 171.197 137.132 171.202 137.205C171.207 137.278 171.24 137.346 171.295 137.394C171.35 137.443 171.422 137.467 171.495 137.462H171.535ZM166.877 147.883C166.935 147.838 166.973 147.771 166.982 147.698C166.991 147.625 166.971 147.551 166.926 147.492L158.073 136.117C158.05 136.088 158.022 136.063 157.991 136.045C157.959 136.027 157.923 136.015 157.887 136.01C157.85 136.005 157.813 136.008 157.778 136.018C157.742 136.027 157.709 136.044 157.68 136.066C157.651 136.088 157.626 136.116 157.608 136.148C157.59 136.18 157.578 136.215 157.573 136.252C157.568 136.288 157.571 136.325 157.58 136.361C157.59 136.397 157.606 136.43 157.629 136.459L166.5 147.852C166.526 147.885 166.559 147.912 166.596 147.93C166.634 147.949 166.676 147.959 166.718 147.959C166.784 147.955 166.847 147.929 166.895 147.883H166.877ZM180.712 144.806C180.715 144.733 180.688 144.661 180.638 144.607C180.589 144.553 180.519 144.521 180.446 144.518L168.276 143.9C168.208 143.905 168.143 143.935 168.095 143.984C168.047 144.033 168.019 144.098 168.016 144.166C168.012 144.235 168.034 144.302 168.078 144.355C168.121 144.409 168.182 144.444 168.249 144.455L180.442 145.073C180.515 145.075 180.587 145.048 180.641 144.999C180.695 144.949 180.727 144.88 180.73 144.806H180.712ZM174.972 153.837C174.976 153.801 174.973 153.764 174.963 153.728C174.952 153.693 174.935 153.66 174.912 153.631C174.889 153.603 174.86 153.579 174.828 153.562C174.795 153.545 174.759 153.534 174.723 153.531L165.399 152.612C165.363 152.608 165.326 152.612 165.291 152.622C165.257 152.633 165.224 152.65 165.196 152.673C165.168 152.696 165.145 152.725 165.128 152.757C165.111 152.789 165.1 152.824 165.097 152.86C165.091 152.933 165.113 153.006 165.16 153.062C165.206 153.118 165.273 153.154 165.346 153.162L174.67 154.086H174.696C174.768 154.091 174.839 154.067 174.893 154.021C174.948 153.975 174.982 153.909 174.989 153.837H174.972ZM163.272 158.65C163.334 158.609 163.377 158.546 163.392 158.473C163.407 158.401 163.392 158.326 163.352 158.264L158.743 151.297C158.701 151.237 158.637 151.196 158.565 151.182C158.493 151.168 158.419 151.182 158.357 151.222C158.295 151.263 158.252 151.326 158.237 151.399C158.222 151.471 158.237 151.546 158.277 151.608L162.886 158.575C162.912 158.613 162.947 158.644 162.988 158.666C163.029 158.687 163.075 158.699 163.121 158.699C163.181 158.702 163.241 158.685 163.29 158.65H163.272ZM173.848 160.981C173.847 160.908 173.818 160.838 173.767 160.786C173.715 160.734 173.646 160.704 173.573 160.701L162.611 160.599C162.538 160.599 162.468 160.628 162.416 160.68C162.364 160.731 162.335 160.802 162.335 160.875C162.334 160.911 162.34 160.948 162.354 160.982C162.367 161.016 162.387 161.047 162.413 161.073C162.439 161.1 162.469 161.12 162.503 161.134C162.537 161.148 162.574 161.155 162.611 161.154L173.573 161.256C173.61 161.258 173.648 161.252 173.683 161.239C173.718 161.226 173.75 161.207 173.778 161.181C173.805 161.155 173.827 161.124 173.842 161.09C173.857 161.056 173.865 161.019 173.866 160.981H173.848ZM159.138 177.374C159.161 177.325 161.03 172.174 166.651 170.944C166.723 170.929 166.786 170.884 166.826 170.822C166.866 170.76 166.88 170.684 166.864 170.611C166.846 170.54 166.801 170.479 166.739 170.44C166.677 170.401 166.603 170.388 166.531 170.403C160.604 171.699 158.637 177.138 158.615 177.192C158.592 177.262 158.597 177.338 158.629 177.404C158.662 177.47 158.718 177.522 158.788 177.547H158.877C158.936 177.552 158.995 177.538 159.045 177.507C159.095 177.475 159.134 177.429 159.156 177.374H159.138Z" fill="url(#paint11_linear_1_2851)"/>
<path opacity="0.2" d="M173.671 133.418L172.592 115.467L173.671 133.418ZM170.256 139.341L163.436 123.903L170.256 139.341ZM187.856 134.852L171.513 137.196L187.856 134.852ZM166.722 147.661L157.873 136.308L166.722 147.661ZM168.276 144.18L180.468 144.793L168.276 144.18ZM165.39 152.887L174.714 153.81L165.39 152.887ZM163.139 158.419L158.508 151.453L163.139 158.419ZM162.606 160.879L173.568 160.981L162.606 160.879ZM160.386 181.445C160.46 181.439 160.528 181.405 160.576 181.349C160.624 181.294 160.649 181.221 160.644 181.148C159.947 170.678 163.996 153.531 170.492 139.456C174.643 130.461 190.916 112.78 191.089 112.603C191.141 112.55 191.17 112.479 191.17 112.405C191.17 112.331 191.141 112.26 191.089 112.208C191.063 112.182 191.033 112.161 190.999 112.147C190.966 112.134 190.93 112.126 190.893 112.126C190.857 112.126 190.821 112.134 190.788 112.147C190.754 112.161 190.724 112.182 190.698 112.208C190.534 112.385 174.195 130.132 170.008 139.207C163.392 153.624 159.396 170.46 160.106 181.183C160.112 181.254 160.144 181.32 160.195 181.368C160.247 181.417 160.315 181.444 160.386 181.445ZM173.666 133.693C173.74 133.688 173.808 133.655 173.857 133.6C173.906 133.545 173.932 133.473 173.928 133.4L172.867 115.44C172.865 115.403 172.856 115.368 172.841 115.335C172.825 115.301 172.803 115.272 172.775 115.247C172.748 115.223 172.716 115.204 172.682 115.192C172.647 115.181 172.61 115.176 172.574 115.178C172.5 115.183 172.432 115.216 172.383 115.271C172.334 115.326 172.308 115.398 172.312 115.471L173.391 133.422C173.394 133.493 173.425 133.559 173.476 133.608C173.527 133.657 173.595 133.684 173.666 133.684V133.693ZM170.354 139.594C170.42 139.563 170.473 139.509 170.499 139.44C170.526 139.372 170.525 139.297 170.496 139.23L163.672 123.792C163.642 123.725 163.587 123.672 163.519 123.645C163.451 123.619 163.375 123.62 163.308 123.65C163.241 123.679 163.188 123.734 163.161 123.802C163.135 123.87 163.136 123.947 163.166 124.014L169.985 139.452C170.007 139.501 170.042 139.543 170.087 139.573C170.132 139.603 170.185 139.62 170.238 139.62C170.284 139.623 170.33 139.613 170.372 139.594H170.354ZM171.535 137.462L187.87 135.127C187.909 135.126 187.948 135.117 187.984 135.1C188.019 135.083 188.051 135.059 188.077 135.029C188.102 134.999 188.121 134.964 188.132 134.926C188.143 134.888 188.146 134.848 188.141 134.809C188.136 134.77 188.122 134.733 188.101 134.699C188.08 134.666 188.053 134.637 188.02 134.615C187.987 134.593 187.95 134.578 187.911 134.572C187.872 134.565 187.832 134.567 187.794 134.576L171.459 136.912C171.386 136.917 171.318 136.95 171.27 137.005C171.222 137.06 171.197 137.132 171.202 137.205C171.207 137.278 171.24 137.346 171.295 137.394C171.35 137.443 171.422 137.467 171.495 137.462H171.535ZM166.877 147.883C166.935 147.838 166.973 147.771 166.982 147.698C166.991 147.625 166.971 147.551 166.926 147.492L158.073 136.117C158.028 136.058 157.961 136.02 157.887 136.01C157.813 136.001 157.739 136.021 157.68 136.066C157.621 136.111 157.583 136.178 157.573 136.252C157.563 136.326 157.584 136.4 157.629 136.459L166.5 147.852C166.526 147.885 166.559 147.912 166.596 147.93C166.634 147.949 166.676 147.959 166.718 147.959C166.784 147.955 166.847 147.929 166.895 147.883H166.877ZM180.712 144.806C180.715 144.733 180.688 144.661 180.638 144.607C180.589 144.553 180.519 144.521 180.446 144.518L168.276 143.9C168.208 143.905 168.143 143.935 168.095 143.984C168.047 144.033 168.019 144.098 168.016 144.166C168.012 144.235 168.034 144.302 168.078 144.355C168.121 144.409 168.182 144.444 168.249 144.455L180.442 145.073C180.515 145.075 180.587 145.048 180.641 144.999C180.695 144.949 180.727 144.88 180.73 144.806H180.712ZM174.972 153.837C174.976 153.801 174.973 153.764 174.963 153.728C174.952 153.693 174.935 153.66 174.912 153.631C174.889 153.603 174.86 153.579 174.828 153.562C174.795 153.545 174.759 153.534 174.723 153.531L165.399 152.612C165.363 152.608 165.326 152.612 165.291 152.622C165.257 152.633 165.224 152.65 165.196 152.673C165.168 152.696 165.145 152.725 165.128 152.757C165.111 152.789 165.1 152.824 165.097 152.86C165.091 152.933 165.113 153.006 165.16 153.062C165.206 153.118 165.273 153.154 165.346 153.162L174.67 154.086H174.696C174.768 154.091 174.839 154.067 174.893 154.021C174.948 153.975 174.982 153.909 174.989 153.837H174.972ZM163.272 158.65C163.334 158.609 163.377 158.546 163.392 158.473C163.407 158.401 163.392 158.326 163.352 158.264L158.743 151.297C158.701 151.237 158.637 151.196 158.565 151.182C158.493 151.168 158.419 151.182 158.357 151.222C158.295 151.263 158.252 151.326 158.237 151.399C158.222 151.471 158.237 151.546 158.277 151.608L162.886 158.575C162.912 158.613 162.947 158.644 162.988 158.666C163.029 158.687 163.075 158.699 163.121 158.699C163.181 158.702 163.241 158.685 163.29 158.65H163.272ZM173.848 160.981C173.847 160.908 173.818 160.838 173.767 160.786C173.715 160.734 173.646 160.704 173.573 160.701L162.611 160.599C162.538 160.599 162.468 160.628 162.416 160.68C162.364 160.731 162.335 160.802 162.335 160.875C162.334 160.911 162.34 160.948 162.354 160.982C162.367 161.016 162.387 161.047 162.413 161.073C162.439 161.1 162.469 161.12 162.503 161.134C162.537 161.148 162.574 161.155 162.611 161.154L173.573 161.256C173.61 161.258 173.648 161.252 173.683 161.239C173.718 161.226 173.75 161.207 173.778 161.181C173.805 161.155 173.827 161.124 173.842 161.09C173.857 161.056 173.865 161.019 173.866 160.981H173.848ZM159.138 177.374C159.161 177.325 161.03 172.174 166.651 170.944C166.723 170.929 166.786 170.884 166.826 170.822C166.866 170.76 166.88 170.684 166.864 170.611C166.846 170.54 166.801 170.479 166.739 170.44C166.677 170.401 166.603 170.388 166.531 170.403C160.604 171.699 158.637 177.138 158.615 177.192C158.592 177.262 158.597 177.338 158.629 177.404C158.662 177.47 158.718 177.522 158.788 177.547H158.877C158.936 177.552 158.995 177.538 159.045 177.507C159.095 177.475 159.134 177.429 159.156 177.374H159.138ZM160.386 181.445C160.46 181.439 160.528 181.405 160.576 181.349C160.624 181.294 160.649 181.221 160.644 181.148C159.947 170.678 163.996 153.531 170.492 139.456C174.643 130.461 190.916 112.78 191.089 112.603C191.141 112.55 191.17 112.479 191.17 112.405C191.17 112.331 191.141 112.26 191.089 112.208C191.063 112.182 191.033 112.161 190.999 112.147C190.966 112.134 190.93 112.126 190.893 112.126C190.857 112.126 190.821 112.134 190.788 112.147C190.754 112.161 190.724 112.182 190.698 112.208C190.534 112.385 174.195 130.132 170.008 139.207C163.392 153.624 159.396 170.46 160.106 181.183C160.112 181.254 160.144 181.32 160.195 181.368C160.247 181.417 160.315 181.444 160.386 181.445ZM173.666 133.693C173.74 133.688 173.808 133.655 173.857 133.6C173.906 133.545 173.932 133.473 173.928 133.4L172.867 115.44C172.865 115.403 172.856 115.368 172.841 115.335C172.825 115.301 172.803 115.272 172.775 115.247C172.748 115.223 172.716 115.204 172.682 115.192C172.647 115.181 172.61 115.176 172.574 115.178C172.5 115.183 172.432 115.216 172.383 115.271C172.334 115.326 172.308 115.398 172.312 115.471L173.391 133.422C173.394 133.493 173.425 133.559 173.476 133.608C173.527 133.657 173.595 133.684 173.666 133.684V133.693ZM170.354 139.594C170.42 139.563 170.473 139.509 170.499 139.44C170.526 139.372 170.525 139.297 170.496 139.23L163.672 123.792C163.642 123.725 163.587 123.672 163.519 123.645C163.451 123.619 163.375 123.62 163.308 123.65C163.241 123.679 163.188 123.734 163.161 123.802C163.135 123.87 163.136 123.947 163.166 124.014L169.985 139.452C170.007 139.501 170.042 139.543 170.087 139.573C170.132 139.603 170.185 139.62 170.238 139.62C170.284 139.623 170.33 139.613 170.372 139.594H170.354ZM171.535 137.462L187.87 135.127C187.909 135.126 187.948 135.117 187.984 135.1C188.019 135.083 188.051 135.059 188.077 135.029C188.102 134.999 188.121 134.964 188.132 134.926C188.143 134.888 188.146 134.848 188.141 134.809C188.136 134.77 188.122 134.733 188.101 134.699C188.08 134.666 188.053 134.637 188.02 134.615C187.987 134.593 187.95 134.578 187.911 134.572C187.872 134.565 187.832 134.567 187.794 134.576L171.459 136.912C171.386 136.917 171.318 136.95 171.27 137.005C171.222 137.06 171.197 137.132 171.202 137.205C171.207 137.278 171.24 137.346 171.295 137.394C171.35 137.443 171.422 137.467 171.495 137.462H171.535ZM166.877 147.883C166.935 147.838 166.973 147.771 166.982 147.698C166.991 147.625 166.971 147.551 166.926 147.492L158.073 136.117C158.05 136.088 158.022 136.063 157.991 136.045C157.959 136.027 157.923 136.015 157.887 136.01C157.85 136.005 157.813 136.008 157.778 136.018C157.742 136.027 157.709 136.044 157.68 136.066C157.651 136.088 157.626 136.116 157.608 136.148C157.59 136.18 157.578 136.215 157.573 136.252C157.568 136.288 157.571 136.325 157.58 136.361C157.59 136.397 157.606 136.43 157.629 136.459L166.5 147.852C166.526 147.885 166.559 147.912 166.596 147.93C166.634 147.949 166.676 147.959 166.718 147.959C166.784 147.955 166.847 147.929 166.895 147.883H166.877ZM180.712 144.806C180.715 144.733 180.688 144.661 180.638 144.607C180.589 144.553 180.519 144.521 180.446 144.518L168.276 143.9C168.208 143.905 168.143 143.935 168.095 143.984C168.047 144.033 168.019 144.098 168.016 144.166C168.012 144.235 168.034 144.302 168.078 144.355C168.121 144.409 168.182 144.444 168.249 144.455L180.442 145.073C180.515 145.075 180.587 145.048 180.641 144.999C180.695 144.949 180.727 144.88 180.73 144.806H180.712ZM174.972 153.837C174.976 153.801 174.973 153.764 174.963 153.728C174.952 153.693 174.935 153.66 174.912 153.631C174.889 153.603 174.86 153.579 174.828 153.562C174.795 153.545 174.759 153.534 174.723 153.531L165.399 152.612C165.363 152.608 165.326 152.612 165.291 152.622C165.257 152.633 165.224 152.65 165.196 152.673C165.168 152.696 165.145 152.725 165.128 152.757C165.111 152.789 165.1 152.824 165.097 152.86C165.091 152.933 165.113 153.006 165.16 153.062C165.206 153.118 165.273 153.154 165.346 153.162L174.67 154.086H174.696C174.768 154.091 174.839 154.067 174.893 154.021C174.948 153.975 174.982 153.909 174.989 153.837H174.972ZM163.272 158.65C163.334 158.609 163.377 158.546 163.392 158.473C163.407 158.401 163.392 158.326 163.352 158.264L158.743 151.297C158.701 151.237 158.637 151.196 158.565 151.182C158.493 151.168 158.419 151.182 158.357 151.222C158.295 151.263 158.252 151.326 158.237 151.399C158.222 151.471 158.237 151.546 158.277 151.608L162.886 158.575C162.912 158.613 162.947 158.644 162.988 158.666C163.029 158.687 163.075 158.699 163.121 158.699C163.181 158.702 163.241 158.685 163.29 158.65H163.272ZM173.848 160.981C173.847 160.908 173.818 160.838 173.767 160.786C173.715 160.734 173.646 160.704 173.573 160.701L162.611 160.599C162.538 160.599 162.468 160.628 162.416 160.68C162.364 160.731 162.335 160.802 162.335 160.875C162.334 160.911 162.34 160.948 162.354 160.982C162.367 161.016 162.387 161.047 162.413 161.073C162.439 161.1 162.469 161.12 162.503 161.134C162.537 161.148 162.574 161.155 162.611 161.154L173.573 161.256C173.61 161.258 173.648 161.252 173.683 161.239C173.718 161.226 173.75 161.207 173.778 161.181C173.805 161.155 173.827 161.124 173.842 161.09C173.857 161.056 173.865 161.019 173.866 160.981H173.848ZM159.138 177.374C159.161 177.325 161.03 172.174 166.651 170.944C166.723 170.929 166.786 170.884 166.826 170.822C166.866 170.76 166.88 170.684 166.864 170.611C166.846 170.54 166.801 170.479 166.739 170.44C166.677 170.401 166.603 170.388 166.531 170.403C160.604 171.699 158.637 177.138 158.615 177.192C158.592 177.262 158.597 177.338 158.629 177.404C158.662 177.47 158.718 177.522 158.788 177.547H158.877C158.936 177.552 158.995 177.538 159.045 177.507C159.095 177.475 159.134 177.429 159.156 177.374H159.138Z" fill="black"/>
<path d="M167.637 173.617H155.067V176.219H156.164L158.433 190.414H164.271L166.54 176.219H167.637V173.617Z" fill="url(#paint12_linear_1_2851)"/>
<path opacity="0.3" d="M167.637 173.617H155.067V176.219H156.164L158.433 190.414H164.271L166.54 176.219H167.637V173.617Z" fill="white"/>
<path d="M54.47 94.9406L39.8491 90.1676L38.5481 86.731L35.5778 86.6378L30.1876 85.6166L30.8359 86.731L37.6202 91.655L39.2941 92.4897L54.5854 100.477L54.47 94.9406Z" fill="white" stroke="#263238" stroke-width="1.00396" stroke-miterlimit="10"/>
<path d="M38.548 86.731L37.1539 85.8962L34.37 86.9174L34.8318 87.4724L38.548 86.731Z" fill="white" stroke="#263238" stroke-width="1.00396" stroke-linejoin="round"/>
<path d="M54.47 94.9406L39.8491 90.1676L38.5481 86.731L35.5778 86.6378L30.1876 85.6166L30.8359 86.731L37.6202 91.655L39.2941 92.4897L54.5854 100.477L54.47 94.9406Z" fill="white"/>
<mask id="mask0_1_2851" style="mask-type:luminance" maskUnits="userSpaceOnUse" x="30" y="85" width="25" height="16">
<path d="M54.47 94.9406L39.8491 90.1676L38.5481 86.731L35.5778 86.6378L30.1876 85.6166L30.8359 86.731L37.6202 91.655L39.2941 92.4897L54.5854 100.477L54.47 94.9406Z" fill="white"/>
</mask>
<g mask="url(#mask0_1_2851)">
<path opacity="0.5" d="M54.47 94.9406L39.8491 90.1676L38.5481 86.731L35.5778 86.6378L30.1876 85.6166L30.8359 86.731L37.6202 91.655L39.2941 92.4897L54.5854 100.477L54.47 94.9406Z" fill="url(#paint13_linear_1_2851)" stroke="#263238" stroke-width="1.00396" stroke-miterlimit="10"/>
</g>
<path d="M54.47 94.9406L39.8491 90.1676L38.5481 86.731L35.5778 86.6378L30.1876 85.6166L30.8359 86.731L37.6202 91.655L39.2941 92.4897L54.5854 100.477L54.47 94.9406Z" stroke="#263238" stroke-width="1.00396" stroke-miterlimit="10"/>
<path d="M38.548 86.731L37.1539 85.8962L34.37 86.9174L34.8318 87.4724L38.548 86.731Z" fill="white"/>
<mask id="mask1_1_2851" style="mask-type:luminance" maskUnits="userSpaceOnUse" x="34" y="85" width="5" height="3">
<path d="M38.548 86.731L37.1539 85.8962L34.37 86.9174L34.8318 87.4724L38.548 86.731Z" fill="white"/>
</mask>
<g mask="url(#mask1_1_2851)">
<path opacity="0.5" d="M38.548 86.731L37.1539 85.8962L34.37 86.9174L34.8318 87.4724L38.548 86.731Z" fill="url(#paint14_linear_1_2851)" stroke="#263238" stroke-width="1.00396" stroke-linejoin="round"/>
</g>
<path d="M38.548 86.731L37.1539 85.8962L34.37 86.9174L34.8318 87.4724L38.548 86.731Z" stroke="#263238" stroke-width="1.00396" stroke-linejoin="round"/>
<path d="M57.5734 63.9626C57.5734 63.9626 57.347 65.9606 57.9109 67.2438C58.4748 68.5269 61.605 72.8737 61.605 72.8737L55.7619 77.5579C55.7619 77.5579 53.3377 72.6739 52.8759 71.8836C52.4142 71.0932 51.8592 67.6922 53.3643 65.2546C54.8695 62.8171 57.0362 62.16 57.5734 63.9626Z" fill="white"/>
<mask id="mask2_1_2851" style="mask-type:luminance" maskUnits="userSpaceOnUse" x="52" y="62" width="10" height="16">
<path d="M57.5734 63.9626C57.5734 63.9626 57.347 65.9606 57.9109 67.2438C58.4748 68.5269 61.605 72.8737 61.605 72.8737L55.7619 77.5579C55.7619 77.5579 53.3377 72.6739 52.8759 71.8836C52.4142 71.0932 51.8592 67.6922 53.3643 65.2546C54.8695 62.8171 57.0362 62.16 57.5734 63.9626Z" fill="white"/>
</mask>
<g mask="url(#mask2_1_2851)">
<g style="mix-blend-mode:multiply" opacity="0.5">
<path d="M54.5721 70.3828L57.1073 75.6398L55.7575 77.5623L53.209 73.0113L54.5721 70.3828Z" fill="url(#paint15_linear_1_2851)"/>
</g>
</g>
<path d="M57.5734 63.9626C57.5734 63.9626 57.347 65.9606 57.9109 67.2438C58.4748 68.5269 61.605 72.8737 61.605 72.8737L55.7619 77.5579C55.7619 77.5579 53.3377 72.6739 52.8759 71.8836C52.4142 71.0932 51.8592 67.6922 53.3643 65.2546C54.8695 62.8171 57.0362 62.16 57.5734 63.9626Z" stroke="#263238" stroke-width="1.00396" stroke-miterlimit="10"/>
<path d="M59.385 60.3041C59.0254 58.0841 56.4813 53.5686 52.4453 53.7418C49.8257 53.8572 48.6003 54.3856 47.4636 55.0294C46.5371 55.5753 45.6735 56.2215 44.8884 56.9563C42.9171 59.3229 42.2244 59.9711 42.6063 61.7826C42.5749 62.5052 42.6882 63.2267 42.9393 63.9049C43.5431 65.5167 43.956 66.5689 44.4799 67.3371C44.3201 68.0874 43.9028 70.0677 43.8806 70.5205C43.8584 70.9734 45.2126 70.6582 45.8963 70.485C47.1662 73.3266 49.4927 75.298 50.2164 75.5244C51.4774 75.9196 53.4709 73.8461 54.5277 72.2388C55.5844 70.6315 54.7852 68.8245 54.7896 68.1052C54.7941 67.3859 57.165 65.8053 58.0441 65.3035C58.9233 64.8018 59.7402 62.5197 59.385 60.3041Z" fill="white"/>
<mask id="mask3_1_2851" style="mask-type:luminance" maskUnits="userSpaceOnUse" x="42" y="53" width="18" height="23">
<path d="M59.385 60.3041C59.0254 58.0841 56.4813 53.5686 52.4453 53.7418C49.8257 53.8572 48.6003 54.3856 47.4636 55.0294C46.5371 55.5753 45.6735 56.2215 44.8884 56.9563C42.9171 59.3229 42.2244 59.9711 42.6063 61.7826C42.5749 62.5052 42.6882 63.2267 42.9393 63.9049C43.5431 65.5167 43.956 66.5689 44.4799 67.3371C44.3201 68.0874 43.9028 70.0677 43.8806 70.5205C43.8584 70.9734 45.2126 70.6582 45.8963 70.485C47.1662 73.3266 49.4927 75.298 50.2164 75.5244C51.4774 75.9196 53.4709 73.8461 54.5277 72.2388C55.5844 70.6315 54.7852 68.8245 54.7896 68.1052C54.7941 67.3859 57.165 65.8053 58.0441 65.3035C58.9233 64.8018 59.7402 62.5197 59.385 60.3041Z" fill="white"/>
</mask>
<g mask="url(#mask3_1_2851)">
<g style="mix-blend-mode:multiply" opacity="0.5">
<path d="M42.624 61.7827C42.5927 62.5052 42.7059 63.2267 42.957 63.905C43.5608 65.5167 43.9738 66.569 44.4977 67.3371C44.3378 68.0875 43.9205 70.0677 43.8983 70.5206C43.8761 70.9735 45.2303 70.6582 45.914 70.4851C47.1839 73.3267 49.5104 75.298 50.2342 75.5245C51.4951 75.9196 53.4887 73.8461 54.5454 72.2389C54.8094 71.8376 54.9808 71.3826 55.0471 70.9069C54.9894 70.6982 54.9494 70.5694 54.9494 70.5694C54.9494 70.5694 54.3545 72.856 53.1734 72.5585C51.9924 72.2611 50.1853 69.8945 49.1774 69.0776C48.1696 68.2606 48.5825 67.1861 48.3827 65.9696C48.1829 64.753 45.1992 63.683 44.9994 62.9859C44.7996 62.2888 45.4967 59.4028 45.4967 59.4028C45.4967 59.4028 46.6289 57.8932 46.3847 58.5148C46.2121 59.0538 46.1495 59.6219 46.2006 60.1856C46.2517 60.7492 46.4154 61.2968 46.6822 61.796C46.8693 62.1898 47.1662 62.5213 47.5372 62.7505C47.9082 62.9797 48.3374 63.0969 48.7734 63.088L49.8568 57.7201L47.5702 55.8286L44.9062 56.9386C42.917 59.3229 42.2377 59.9711 42.624 61.7827Z" fill="url(#paint16_linear_1_2851)"/>
</g>
</g>
<path d="M59.385 60.3041C59.0254 58.0841 56.4813 53.5686 52.4453 53.7418C49.8257 53.8572 48.6003 54.3856 47.4636 55.0294C46.5371 55.5753 45.6735 56.2215 44.8884 56.9563C42.9171 59.3229 42.2244 59.9711 42.6063 61.7826C42.5749 62.5052 42.6882 63.2267 42.9393 63.9049C43.5431 65.5167 43.956 66.5689 44.4799 67.3371C44.3201 68.0874 43.9028 70.0677 43.8806 70.5205C43.8584 70.9734 45.2126 70.6582 45.8963 70.485C47.1662 73.3266 49.4927 75.298 50.2164 75.5244C51.4774 75.9196 53.4709 73.8461 54.5277 72.2388C55.5844 70.6315 54.7852 68.8245 54.7896 68.1052C54.7941 67.3859 57.165 65.8053 58.0441 65.3035C58.9233 64.8018 59.7402 62.5197 59.385 60.3041Z" stroke="#263238" stroke-miterlimit="10"/>
<path d="M45.0305 65.9962L45.4745 67.2661C45.4745 67.2661 46.4291 67.5813 47.5924 66.3115" stroke="#263238" stroke-miterlimit="10" stroke-linecap="round"/>
<path d="M48.3116 71.928C48.3116 71.928 49.3684 71.8215 49.7946 70.3385" stroke="#263238" stroke-miterlimit="10" stroke-linecap="round"/>
<path d="M44.2891 64.9349C44.2891 64.9349 44.6043 63.9803 46.5091 63.9803" stroke="#263238" stroke-miterlimit="10" stroke-linecap="round"/>
<path d="M54.0526 51.9746C52.6685 51.7756 51.2728 51.6688 49.8745 51.655C49.8745 51.655 45.6921 49.244 41.6739 51.8148C37.6557 54.3856 39.5871 58.8877 39.5871 60.011C39.5871 61.1344 38.2995 61.1388 39.1031 62.5862C39.9067 64.0337 42.624 63.2345 42.624 63.2345C42.6527 62.6886 42.797 62.1549 43.0473 61.6689C43.2976 61.1829 43.6482 60.7555 44.0759 60.4151C45.5233 59.2918 46.6777 59.0476 47.1573 59.3717C47.1573 59.3717 46.8376 61.7826 47.3171 62.7461C47.3171 62.7461 48.9244 63.5497 49.4083 63.5497C49.8923 63.5497 49.0931 64.229 50.6959 64.8329C50.9879 64.9378 51.3003 64.9735 51.6085 64.9373C51.9166 64.9011 52.2122 64.7939 52.4719 64.6242C52.7073 63.6474 53.2223 62.1778 54.1813 62.5196C55.5888 63.0214 56.872 66.4846 54.9672 67.6656C57.2583 68.083 60.0333 64.0292 60.1975 60.3352C60.3618 56.6411 56.4324 52.392 54.0526 51.9746Z" fill="#263238"/>
<path d="M47.2283 57.7866C47.2283 57.7866 48.4093 57.1517 49.8568 58.5103C51.3042 59.869 54.1191 61.6849 57.8487 60.6859" stroke="white" stroke-width="0.5" stroke-linecap="round" stroke-linejoin="round"/>
<path d="M47.064 56.6988C47.064 56.6988 47.8765 55.429 49.2351 55.429C50.5938 55.429 53.7684 57.3337 56.3036 57.3337" stroke="white" stroke-width="0.5" stroke-linecap="round" stroke-linejoin="round"/>
<path d="M46.1404 59.1453C46.1404 59.1453 44.5998 57.2449 43.1523 58.7856C41.7049 60.3263 42.624 61.7826 42.624 61.7826" stroke="white" stroke-width="0.5" stroke-linecap="round" stroke-linejoin="round"/>
<path d="M39.9822 60.4151C40.8651 59.6188 41.4139 58.518 41.5184 57.3337C41.7005 55.3401 44.4222 53.6174 46.1405 55.2513" stroke="white" stroke-width="0.5" stroke-linecap="round" stroke-linejoin="round"/>
<path d="M42.7883 53.1645C42.7883 53.1645 45.51 50.536 47.7744 53.8882" stroke="white" stroke-width="0.5" stroke-linecap="round" stroke-linejoin="round"/>
<path d="M64.9395 182.4C64.9395 182.4 66.6133 185.002 66.4269 186.675L66.2448 188.349C66.2448 188.349 60.1043 190.032 58.8034 190.032C57.5025 190.032 50.616 189.379 50.616 189.379L50.3185 188.198C50.2977 188.111 50.3075 188.019 50.3463 187.938C50.3851 187.858 50.4506 187.793 50.5317 187.754L56.6722 184.891L58.608 182.773L64.9395 182.4Z" fill="white" stroke="#263238" stroke-width="1.00396" stroke-miterlimit="10"/>
<path d="M59.7357 188.722C61.4007 188.851 64.562 187.834 66.3957 187.186L66.267 188.349C66.267 188.349 60.1042 190.032 58.8033 190.032C57.5024 190.032 50.616 189.379 50.616 189.379L50.4028 188.536C51.504 188.54 57.5335 188.553 59.7357 188.722Z" fill="url(#paint17_linear_1_2851)" stroke="#263238" stroke-width="1.00396" stroke-miterlimit="10"/>
<path d="M56.6811 184.89L47.7433 188.78C47.7433 188.78 46.9797 190.694 47.7433 191.075C48.507 191.457 65.157 191.075 65.157 191.075C65.157 191.075 66.307 188.052 64.491 186.023C62.6751 183.994 56.6811 184.89 56.6811 184.89Z" fill="white" stroke="#263238" stroke-width="1.00396" stroke-miterlimit="10"/>
<path d="M65.157 191.075C65.157 191.075 48.507 191.457 47.7433 191.075C47.3748 190.889 47.3615 190.352 47.4458 189.841H65.45C65.3912 190.261 65.2931 190.674 65.157 191.075Z" fill="url(#paint18_linear_1_2851)" stroke="#263238" stroke-width="1.00396" stroke-miterlimit="10"/>
<path d="M52.4542 117.309C52.4542 117.309 50.1187 127.659 49.2352 134.132C48.3516 140.606 47.8321 153.575 48.0186 155.063C48.2051 156.55 57.5024 181.472 57.5024 181.472L58.4304 183.692L64.9394 182.391C64.9394 182.391 61.9646 172.907 60.8502 167.699C59.7358 162.491 57.2982 153.935 57.2982 152.447C57.2982 150.96 63.0702 122.553 63.4831 120.688C63.896 118.823 65.7697 115.96 65.7697 115.96L53.3066 115.706L52.4542 117.309Z" fill="url(#paint19_linear_1_2851)" stroke="#263238" stroke-width="1.00396" stroke-miterlimit="10"/>
<path d="M52.4541 117.309C52.4541 117.309 51.0866 126.762 51.6505 133.333C52.2144 139.904 53.4265 153.895 53.4265 155.977C53.4265 158.06 56.7876 170.496 56.9785 174.403C57.276 180.046 56.8586 182.839 56.8586 182.839L56.6588 184.886C56.6588 184.886 60.5793 185.445 61.4363 185.69C62.426 185.945 63.4474 186.055 64.4688 186.018C64.4688 186.018 65.894 179.744 65.894 174.399C65.894 169.053 64.7085 158.051 64.118 153.593C63.5275 149.135 65.3879 131.939 66.4446 128.729C67.5013 125.519 69.8101 118.721 68.2561 115.249C66.7021 111.777 52.4541 117.309 52.4541 117.309Z" fill="url(#paint20_linear_1_2851)" stroke="#263238" stroke-width="1.00396" stroke-miterlimit="10"/>
<path d="M69.9833 113.509L69.8412 117.735C69.8412 117.735 67.3104 118.237 63.9005 118.828C61.0855 119.316 54.0171 118.699 51.6372 118.468C51.4204 118.449 51.2199 118.345 51.0793 118.178C50.9388 118.012 50.8696 117.797 50.8869 117.58L51.1178 113.762L69.9833 113.509Z" fill="#263238"/>
<path d="M60.091 71.373C60.091 71.373 56.095 75.6932 54.5898 78.3794C53.0847 81.0656 52.4897 85.1814 51.9258 88.4226C51.3619 91.6638 52.8893 99.274 52.4586 102.768L51.0955 113.775C51.0955 113.775 50.8025 114.521 51.7837 115.338C52.765 116.155 57.5557 116.452 61.8847 116.67C63.4654 116.75 68.1851 115.733 68.9577 115.684C69.8901 115.627 69.9211 114.441 69.9611 113.509C70.1476 109.126 70.9379 97.4447 71.4574 92.3565C72.5274 81.9802 66.6711 71.9636 60.091 71.373Z" fill="white" stroke="#263238" stroke-width="1.00396" stroke-miterlimit="10"/>
<g style="mix-blend-mode:multiply">
<path d="M70.969 98.2571C71.1466 95.9528 71.3242 93.8615 71.4796 92.3564C71.524 91.9124 71.5506 91.4684 71.5728 91.0244L60.9568 92.8004L51.837 89.6924C51.838 91.5794 51.9448 93.465 52.1567 95.3401L61.1033 97.8442L70.969 98.2571Z" fill="url(#paint21_linear_1_2851)"/>
</g>
<g style="mix-blend-mode:multiply">
<path d="M59.6958 71.8081C59.092 72.4785 57.8932 73.8416 56.7521 75.2891L63.492 82.14L65.712 81.252L59.6958 71.8081Z" fill="url(#paint22_linear_1_2851)"/>
</g>
<path d="M60.0909 71.373C60.0909 71.373 56.0949 75.6932 54.5898 78.3794C54.1435 79.1957 53.7819 80.0557 53.5109 80.9457L61.5473 71.6616C61.0725 71.5178 60.5847 71.4212 60.0909 71.373Z" fill="#263238"/>
<g style="mix-blend-mode:multiply">
<path d="M52.2366 86.6732L60.9567 89.5415L71.5461 88.3249C71.3802 85.687 70.7941 83.0924 69.8101 80.6393L61.272 84.0625L53.6396 80.6038C53.0155 82.5875 52.5464 84.6168 52.2366 86.6732Z" fill="url(#paint23_linear_1_2851)"/>
</g>
<g style="mix-blend-mode:multiply">
<path d="M67.2483 109.126C62.8254 109.869 58.2873 109.498 54.0437 108.047L51.9169 107.319L51.2554 112.647L53.6796 113.327C58.2882 114.615 63.105 114.986 67.8565 114.419L69.8146 114.183C69.9165 113.968 69.9738 113.734 69.9833 113.495C70.0366 112.31 70.1298 110.587 70.2497 108.611L67.2483 109.126Z" fill="url(#paint24_linear_1_2851)"/>
</g>
<g style="mix-blend-mode:multiply">
<path d="M68.4337 101.871C64.0107 102.617 59.4715 102.244 55.2291 100.788L52.5207 99.86C52.5879 100.827 52.5745 101.799 52.4808 102.764L52.1655 105.326L54.865 106.08C59.4719 107.37 64.2871 107.743 69.0375 107.177L70.3695 107.017C70.4805 105.241 70.6093 103.35 70.7469 101.481L68.4337 101.871Z" fill="url(#paint25_linear_1_2851)"/>
</g>
<path d="M26.7783 83.0955L35.3632 89.9979L35.7332 89.5377L27.1483 82.6353L26.7783 83.0955Z" fill="#263238"/>
<path d="M64.2246 76.1638C64.2246 76.1638 67.3725 78.3083 67.4436 83.3744C67.4747 85.5944 67.2438 87.6679 66.7332 91.3042C66.2226 94.9406 63.0524 106.782 60.5838 108.221C58.1151 109.659 54.2834 106.942 54.2834 106.942L35.7509 94.6387L31.2709 91.0201L29.0509 86.8287L29.748 85.4967L35.2136 89.6881L32.2699 86.9663L32.8471 86.2337L33.9127 86.9752L37.0207 88.1385L37.7 92.5785L38.6591 93.2356L56.388 99.7136C56.388 99.7136 56.166 90.172 56.3303 88.3472C56.4945 86.5223 56.721 81.9358 58.6746 78.6103" fill="white"/>
<mask id="mask4_1_2851" style="mask-type:luminance" maskUnits="userSpaceOnUse" x="29" y="76" width="39" height="33">
<path d="M64.2246 76.1638C64.2246 76.1638 67.3725 78.3083 67.4436 83.3744C67.4747 85.5944 67.2438 87.6679 66.7332 91.3042C66.2226 94.9406 63.0524 106.782 60.5838 108.221C58.1151 109.659 54.2834 106.942 54.2834 106.942L35.7509 94.6387L31.2709 91.0201L29.0509 86.8287L29.748 85.4967L35.2136 89.6881L32.2699 86.9663L32.8471 86.2337L33.9127 86.9752L37.0207 88.1385L37.7 92.5785L38.6591 93.2356L56.388 99.7136C56.388 99.7136 56.166 90.172 56.3303 88.3472C56.4945 86.5223 56.721 81.9358 58.6746 78.6103" fill="white"/>
</mask>
<g mask="url(#mask4_1_2851)">
<g style="mix-blend-mode:multiply" opacity="0.5">
<path d="M56.2637 92.503C56.2637 95.7975 56.3747 99.7136 56.3747 99.7136L38.6635 93.2623L37.7045 92.6051L37.0251 88.1651L33.9171 87.0019L32.856 86.2471L32.2788 86.9797L35.2136 89.6881L29.748 85.4967L29.0864 86.8065L31.3064 90.9979L35.7864 94.6387L36.9141 95.389L61.4007 103.279L56.2637 92.503Z" fill="url(#paint26_linear_1_2851)"/>
</g>
</g>
<path d="M64.2246 76.1638C64.2246 76.1638 67.3725 78.3083 67.4436 83.3744C67.4747 85.5944 67.2438 87.6679 66.7332 91.3042C66.2226 94.9406 63.0524 106.782 60.5838 108.221C58.1151 109.659 54.2834 106.942 54.2834 106.942L35.7509 94.6387L31.2709 91.0201L29.0509 86.8287L29.748 85.4967L35.2136 89.6881L32.2699 86.9663L32.8471 86.2337L33.9127 86.9752L37.0207 88.1385L37.7 92.5785L38.6591 93.2356L56.388 99.7136C56.388 99.7136 56.166 90.172 56.3303 88.3472C56.4945 86.5223 56.721 81.9358 58.6746 78.6103" stroke="#263238" stroke-width="1.00396" stroke-miterlimit="10"/>
<path d="M56.388 99.7135L63.1545 104.598L64.9083 101.49C64.9083 101.49 66.1205 100.535 66.2981 99.8156C66.4757 99.0964 66.2492 97.9286 66.4313 97.2094C66.6133 96.4901 67.5191 95.8152 67.6034 94.0747C67.6878 92.3342 67.6034 90.8824 67.6034 90.8824C67.6034 90.8824 69.0686 84.8573 68.9088 82.2377C68.7489 79.6181 66.2226 74.9872 64.1979 74.885C62.1733 74.7829 59.5404 75.0893 57.498 78.1795C55.4556 81.2698 55.8729 90.2918 55.5533 90.8557C55.2336 91.4196 55.6776 94.2035 55.6776 94.2035C55.5001 94.3358 55.3529 94.5045 55.2457 94.6982C55.1386 94.8918 55.0739 95.1061 55.056 95.3268C55.0205 96.0505 55.8019 97.831 55.8019 97.831L56.388 99.7135Z" fill="white" stroke="#263238" stroke-width="1.00396" stroke-miterlimit="10"/>
<g style="mix-blend-mode:multiply">
<path d="M55.7309 88.5381C55.7449 89.3129 55.6869 90.0873 55.5578 90.8513C55.2736 91.3575 55.5977 93.6441 55.6688 94.1103C59.4747 95.2924 63.4991 95.596 67.4392 94.9983C67.5239 94.6895 67.5745 94.3724 67.5902 94.0526C67.679 92.3165 67.5902 90.8602 67.5902 90.8602C67.5902 90.8602 67.7189 90.323 67.8965 89.506C63.8159 89.7654 59.7192 89.4394 55.7309 88.5381Z" fill="url(#paint27_linear_1_2851)"/>
</g>
<g style="mix-blend-mode:multiply">
<path d="M57.2227 78.6724C56.5878 79.9466 56.2326 81.8603 56.0283 83.8006C60.059 85.3388 64.4048 85.8678 68.6868 85.3412C68.8576 84.3144 68.9334 83.274 68.9132 82.2332C68.8363 81.4106 68.6419 80.6032 68.336 79.8356C64.5971 79.9229 60.8624 79.532 57.2227 78.6724Z" fill="url(#paint28_linear_1_2851)"/>
</g>
<path d="M55.8019 97.8798L56.3746 99.7135L63.1412 104.597L64.895 101.489C64.895 101.489 66.1071 100.535 66.2847 99.8156C66.3164 99.6905 66.3357 99.5626 66.3424 99.4338C62.7766 99.3722 59.2337 98.8499 55.8019 97.8798Z" fill="#263238"/>
<path d="M60.6992 185.632C60.6992 185.632 60.8502 181.787 61.5872 176.166C62.3243 170.545 60.5527 162.562 60.2552 161.23C59.9578 159.898 60.4062 156.941 60.1087 155.902C59.8112 154.863 58.3727 150.432 59.2207 145.29C60.0688 140.149 60.757 126.558 60.757 126.558C60.757 126.558 58.6213 124.822 57.9953 122.562C57.3692 120.302 57.8488 119.591 57.8488 119.591" stroke="#263238" stroke-width="1.00396" stroke-miterlimit="10"/>
<path d="M61.6893 119.8L60.8679 124.347" stroke="#263238" stroke-width="1.00396" stroke-miterlimit="10"/>
<defs>
<linearGradient id="paint0_linear_1_2851" x1="16.0948" y1="113.759" x2="200.075" y2="114.15" gradientUnits="userSpaceOnUse">
<stop stop-color="#1D498D"/>
<stop offset="1" stop-color="#3C65A4"/>
</linearGradient>
<linearGradient id="paint1_linear_1_2851" x1="26.0939" y1="190.826" x2="166.112" y2="195.064" gradientUnits="userSpaceOnUse">
<stop stop-color="#1D498D"/>
<stop offset="1" stop-color="#3C65A4"/>
</linearGradient>
<linearGradient id="paint2_linear_1_2851" x1="104.29" y1="99.5289" x2="128.935" y2="74.9771" gradientUnits="userSpaceOnUse">
<stop stop-color="#1D498D"/>
<stop offset="1" stop-color="#3C65A4"/>
</linearGradient>
<linearGradient id="paint3_linear_1_2851" x1="90.5684" y1="163.897" x2="137.646" y2="166.577" gradientUnits="userSpaceOnUse">
<stop stop-color="#1D498D"/>
<stop offset="1" stop-color="#3C65A4"/>
</linearGradient>
<linearGradient id="paint4_linear_1_2851" x1="87.992" y1="116.835" x2="140.267" y2="117.385" gradientUnits="userSpaceOnUse">
<stop stop-color="#1D498D"/>
<stop offset="1" stop-color="#3C65A4"/>
</linearGradient>
<linearGradient id="paint5_linear_1_2851" x1="87.992" y1="134" x2="140.267" y2="134.55" gradientUnits="userSpaceOnUse">
<stop stop-color="#1D498D"/>
<stop offset="1" stop-color="#3C65A4"/>
</linearGradient>
<linearGradient id="paint6_linear_1_2851" x1="73.7222" y1="48.4342" x2="153.895" y2="50.8469" gradientUnits="userSpaceOnUse">
<stop stop-color="#1D498D"/>
<stop offset="1" stop-color="#3C65A4"/>
</linearGradient>
<linearGradient id="paint7_linear_1_2851" x1="104.547" y1="35.5036" x2="124.37" y2="35.8155" gradientUnits="userSpaceOnUse">
<stop stop-color="#1D498D"/>
<stop offset="1" stop-color="#3C65A4"/>
</linearGradient>
<linearGradient id="paint8_linear_1_2851" x1="109.806" y1="180.542" x2="119.326" y2="180.56" gradientUnits="userSpaceOnUse">
<stop stop-color="#1D498D"/>
<stop offset="1" stop-color="#3C65A4"/>
</linearGradient>
<linearGradient id="paint9_linear_1_2851" x1="112.207" y1="180.131" x2="117.03" y2="180.14" gradientUnits="userSpaceOnUse">
<stop stop-color="#1D498D"/>
<stop offset="1" stop-color="#3C65A4"/>
</linearGradient>
<linearGradient id="paint10_linear_1_2851" x1="149.774" y1="144.555" x2="196.805" y2="144.616" gradientUnits="userSpaceOnUse">
<stop stop-color="#1D498D"/>
<stop offset="1" stop-color="#3C65A4"/>
</linearGradient>
<linearGradient id="paint11_linear_1_2851" x1="156.869" y1="153.044" x2="191.173" y2="153.075" gradientUnits="userSpaceOnUse">
<stop stop-color="#1D498D"/>
<stop offset="1" stop-color="#3C65A4"/>
</linearGradient>
<linearGradient id="paint12_linear_1_2851" x1="154.804" y1="183.532" x2="167.638" y2="183.55" gradientUnits="userSpaceOnUse">
<stop stop-color="#1D498D"/>
<stop offset="1" stop-color="#3C65A4"/>
</linearGradient>
<linearGradient id="paint13_linear_1_2851" x1="29.6778" y1="94.3885" x2="54.5871" y2="94.4656" gradientUnits="userSpaceOnUse">
<stop stop-color="#1D498D"/>
<stop offset="1" stop-color="#3C65A4"/>
</linearGradient>
<linearGradient id="paint14_linear_1_2851" x1="34.2827" y1="86.8266" x2="38.5483" y2="86.8479" gradientUnits="userSpaceOnUse">
<stop stop-color="#1D498D"/>
<stop offset="1" stop-color="#3C65A4"/>
</linearGradient>
<linearGradient id="paint15_linear_1_2851" x1="53.1275" y1="74.6207" x2="57.1076" y2="74.6248" gradientUnits="userSpaceOnUse">
<stop stop-color="#1D498D"/>
<stop offset="1" stop-color="#3C65A4"/>
</linearGradient>
<linearGradient id="paint16_linear_1_2851" x1="42.2586" y1="67.4836" x2="55.0481" y2="67.4989" gradientUnits="userSpaceOnUse">
<stop stop-color="#1D498D"/>
<stop offset="1" stop-color="#3C65A4"/>
</linearGradient>
<linearGradient id="paint17_linear_1_2851" x1="50.0687" y1="188.866" x2="66.3951" y2="189.039" gradientUnits="userSpaceOnUse">
<stop stop-color="#1D498D"/>
<stop offset="1" stop-color="#3C65A4"/>
</linearGradient>
<linearGradient id="paint18_linear_1_2851" x1="47.0261" y1="190.67" x2="65.4406" y2="191.116" gradientUnits="userSpaceOnUse">
<stop stop-color="#1D498D"/>
<stop offset="1" stop-color="#3C65A4"/>
</linearGradient>
<linearGradient id="paint19_linear_1_2851" x1="47.6091" y1="155.837" x2="65.7711" y2="155.846" gradientUnits="userSpaceOnUse">
<stop stop-color="#1D498D"/>
<stop offset="1" stop-color="#3C65A4"/>
</linearGradient>
<linearGradient id="paint20_linear_1_2851" x1="51.1534" y1="156.558" x2="68.7796" y2="156.565" gradientUnits="userSpaceOnUse">
<stop stop-color="#1D498D"/>
<stop offset="1" stop-color="#3C65A4"/>
</linearGradient>
<linearGradient id="paint21_linear_1_2851" x1="51.4246" y1="94.748" x2="71.574" y2="94.8355" gradientUnits="userSpaceOnUse">
<stop stop-color="#1D498D"/>
<stop offset="1" stop-color="#3C65A4"/>
</linearGradient>
<linearGradient id="paint22_linear_1_2851" x1="56.5649" y1="77.9068" x2="65.7127" y2="77.9217" gradientUnits="userSpaceOnUse">
<stop stop-color="#1D498D"/>
<stop offset="1" stop-color="#3C65A4"/>
</linearGradient>
<linearGradient id="paint23_linear_1_2851" x1="51.8331" y1="85.8795" x2="71.5473" y2="85.9598" gradientUnits="userSpaceOnUse">
<stop stop-color="#1D498D"/>
<stop offset="1" stop-color="#3C65A4"/>
</linearGradient>
<linearGradient id="paint24_linear_1_2851" x1="50.8585" y1="111.662" x2="70.2507" y2="111.757" gradientUnits="userSpaceOnUse">
<stop stop-color="#1D498D"/>
<stop offset="1" stop-color="#3C65A4"/>
</linearGradient>
<linearGradient id="paint25_linear_1_2851" x1="51.7773" y1="104.33" x2="70.748" y2="104.418" gradientUnits="userSpaceOnUse">
<stop stop-color="#1D498D"/>
<stop offset="1" stop-color="#3C65A4"/>
</linearGradient>
<linearGradient id="paint26_linear_1_2851" x1="28.4112" y1="95.9931" x2="61.4029" y2="96.1062" gradientUnits="userSpaceOnUse">
<stop stop-color="#1D498D"/>
<stop offset="1" stop-color="#3C65A4"/>
</linearGradient>
<linearGradient id="paint27_linear_1_2851" x1="55.1828" y1="92.5274" x2="67.8974" y2="92.5715" gradientUnits="userSpaceOnUse">
<stop stop-color="#1D498D"/>
<stop offset="1" stop-color="#3C65A4"/>
</linearGradient>
<linearGradient id="paint28_linear_1_2851" x1="55.759" y1="82.7256" x2="68.9172" y2="82.7721" gradientUnits="userSpaceOnUse">
<stop stop-color="#1D498D"/>
<stop offset="1" stop-color="#3C65A4"/>
</linearGradient>
</defs>
</svg>
