<svg width="37" height="37" viewBox="0 0 37 37" fill="none" xmlns="http://www.w3.org/2000/svg">
<path d="M17.6853 9.82294C17.724 9.82294 17.7619 9.83446 17.7941 9.85603C17.8263 9.87761 17.8514 9.90827 17.8662 9.94415C17.881 9.98003 17.8849 10.0195 17.8773 10.0576C17.8698 10.0957 17.8511 10.1307 17.8237 10.1581C17.7964 10.1856 17.7615 10.2043 17.7235 10.2119C17.6855 10.2194 17.6462 10.2155 17.6104 10.2007C17.5746 10.1858 17.5441 10.1607 17.5225 10.1284C17.501 10.0961 17.4895 10.0581 17.4895 10.0193C17.4895 9.96721 17.5102 9.91727 17.5469 9.88045C17.5836 9.84363 17.6334 9.82294 17.6853 9.82294ZM29.3109 28.8925C29.3503 28.8925 29.3889 28.9043 29.4216 28.9263C29.4544 28.9484 29.4798 28.9797 29.4948 29.0163C29.5097 29.0529 29.5135 29.0931 29.5056 29.1319C29.4977 29.1706 29.4784 29.2061 29.4503 29.2339C29.4222 29.2617 29.3865 29.2804 29.3478 29.2878C29.309 29.2951 29.269 29.2907 29.2327 29.2752C29.1964 29.2596 29.1656 29.2336 29.1441 29.2004C29.1226 29.1672 29.1115 29.1284 29.1121 29.0888C29.1129 29.0365 29.1342 28.9866 29.1714 28.9498C29.2086 28.9131 29.2587 28.8925 29.3109 28.8925ZM36.0724 24.9837V30.6233C36.0716 30.817 35.9945 31.0024 35.858 31.1394C35.7215 31.2763 35.5366 31.3536 35.3435 31.3543H24.9076C24.7146 31.3536 24.5296 31.2763 24.3931 31.1394C24.2566 31.0024 24.1796 30.817 24.1788 30.6233V24.9898C24.3772 25.0277 24.5794 25.0419 24.7811 25.0321V30.6233C24.7811 30.657 24.7944 30.6893 24.8182 30.7131C24.8419 30.7368 24.8741 30.7502 24.9076 30.7502H28.2598V27.2039C28.2598 27.0603 28.288 26.9181 28.3427 26.7855C28.3975 26.6528 28.4778 26.5323 28.5791 26.4307C28.6803 26.3292 28.8005 26.2486 28.9328 26.1937C29.0651 26.1387 29.2068 26.1104 29.35 26.1104H31.1571C31.4458 26.112 31.7222 26.2278 31.9263 26.4325C32.1304 26.6372 32.2458 26.9144 32.2474 27.2039V30.7502H35.3495C35.3826 30.7487 35.4139 30.7349 35.4373 30.7114C35.4608 30.6879 35.4746 30.6565 35.476 30.6233V25.0019C35.6768 25.0215 35.8792 25.0154 36.0784 24.9837H36.0724ZM28.7657 30.7502H31.7324V27.2039C31.7316 27.0488 31.6698 26.9002 31.5604 26.7904C31.4509 26.6807 31.3028 26.6187 31.1481 26.6179H29.341C29.1863 26.6187 29.0381 26.6807 28.9287 26.7904C28.8193 26.9002 28.7575 27.0488 28.7567 27.2039V30.7502H28.7657ZM35.1236 24.2829C34.9125 24.2215 34.7101 24.1332 34.5213 24.0201C34.4262 23.925 34.346 23.8161 34.2834 23.6969C34.2218 23.8167 34.1414 23.9258 34.0454 24.0201C33.7142 24.2727 33.3095 24.4095 32.8934 24.4095C32.4773 24.4095 32.0726 24.2727 31.7414 24.0201C31.6463 23.925 31.5661 23.8161 31.5035 23.6969C31.443 23.8166 31.3636 23.9257 31.2685 24.0201C30.9373 24.2727 30.5326 24.4095 30.1165 24.4095C29.7004 24.4095 29.2958 24.2727 28.9645 24.0201C28.8685 23.9258 28.7882 23.8167 28.7266 23.6969C28.6639 23.8161 28.5837 23.925 28.4886 24.0201C28.1574 24.2727 27.7527 24.4095 27.3366 24.4095C26.9205 24.4095 26.5159 24.2727 26.1846 24.0201C26.0895 23.925 26.0093 23.8161 25.9467 23.6969C25.8862 23.8166 25.8069 23.9257 25.7118 24.0201C25.4705 24.1824 25.2007 24.2972 24.9167 24.3585C24.6897 24.4008 24.4563 24.3925 24.2329 24.334C24.0096 24.2755 23.8019 24.1684 23.6246 24.0201C23.3768 23.7718 23.2371 23.4351 23.2361 23.0837V22.5702C23.2381 22.542 23.2452 22.5143 23.2572 22.4887L24.1878 19.4982C24.2284 19.3672 24.3122 19.2539 24.4256 19.1771C24.5389 19.1002 24.6749 19.0643 24.8112 19.0753H35.3525C35.4866 19.0738 35.618 19.1131 35.7293 19.1881C35.8406 19.2631 35.9266 19.3701 35.976 19.4952C36.2199 20.2201 36.8795 21.9117 37 22.5551C37 22.7001 37 22.9297 37 23.0837C37.0002 23.2578 36.9659 23.4302 36.8992 23.5909C36.8325 23.7517 36.7347 23.8976 36.6115 24.0201C36.223 24.4098 35.6296 24.4007 35.1206 24.2829H35.1236ZM6.06277 28.8925C6.10234 28.8919 6.14118 28.9032 6.17433 28.9248C6.20747 28.9465 6.23342 28.9776 6.24883 29.0142C6.26425 29.0507 6.26844 29.091 6.26087 29.13C6.25329 29.1689 6.2343 29.2047 6.20632 29.2328C6.17834 29.2609 6.14265 29.2799 6.10381 29.2875C6.06497 29.2951 6.02476 29.2909 5.98831 29.2754C5.95187 29.26 5.92086 29.234 5.89925 29.2007C5.87764 29.1675 5.86641 29.1285 5.86701 29.0888C5.86778 29.037 5.88866 28.9875 5.92521 28.9509C5.96175 28.9142 6.0111 28.8933 6.06277 28.8925ZM12.8243 24.9837V30.6233C12.8235 30.817 12.7464 31.0024 12.6099 31.1394C12.4734 31.2763 12.2885 31.3536 12.0954 31.3543H1.65952C1.46646 31.3536 1.28153 31.2763 1.14502 31.1394C1.0085 31.0024 0.931457 30.817 0.930664 30.6233V24.9898C1.12908 25.0277 1.33128 25.0419 1.53302 25.0321V30.6233C1.53302 30.657 1.54635 30.6893 1.57007 30.7131C1.5938 30.7368 1.62597 30.7502 1.65952 30.7502H5.01165V27.2039C5.01165 26.9139 5.12652 26.6358 5.33099 26.4307C5.53545 26.2257 5.81277 26.1104 6.10193 26.1104H7.90901C8.19817 26.1104 8.47548 26.2257 8.67995 26.4307C8.88441 26.6358 8.99928 26.9139 8.99928 27.2039V30.7502H12.1014C12.1347 30.7494 12.1665 30.7358 12.19 30.7122C12.2136 30.6886 12.2272 30.6568 12.2279 30.6233V25.0019C12.4287 25.0215 12.6311 25.0155 12.8303 24.9837H12.8243ZM5.51764 30.7502H8.48727V27.2039C8.48648 27.0488 8.42467 26.9002 8.31526 26.7904C8.20586 26.6807 8.0577 26.6187 7.90298 26.6179H6.0959C5.94118 26.6187 5.79303 26.6807 5.68362 26.7904C5.57422 26.9002 5.51241 27.0488 5.51161 27.2039V30.7502H5.51764ZM11.8786 24.2829C11.6675 24.2213 11.4651 24.133 11.2762 24.0201C11.1811 23.9257 11.1018 23.8166 11.0413 23.6969C10.9786 23.8161 10.8984 23.925 10.8033 24.0201C10.4721 24.2727 10.0674 24.4095 9.65133 24.4095C9.23522 24.4095 8.83057 24.2727 8.49932 24.0201C8.40332 23.9258 8.32299 23.8167 8.26139 23.6969C8.19979 23.8167 8.11946 23.9258 8.02346 24.0201C7.69221 24.2727 7.28756 24.4095 6.87144 24.4095C6.45533 24.4095 6.05068 24.2727 5.71943 24.0201C5.62435 23.925 5.54414 23.8161 5.4815 23.6969C5.42099 23.8166 5.34167 23.9257 5.24658 24.0201C4.91533 24.2727 4.51068 24.4095 4.09456 24.4095C3.67845 24.4095 3.2738 24.2727 2.94255 24.0201C2.84869 23.9254 2.77041 23.8163 2.71064 23.6969C2.648 23.8161 2.56778 23.925 2.47271 24.0201C2.23281 24.1829 1.96387 24.2978 1.6806 24.3585C1.45369 24.4013 1.22014 24.3931 0.996737 24.3346C0.773333 24.2761 0.565624 24.1687 0.38854 24.0201C0.265285 23.8976 0.167485 23.7517 0.100797 23.5909C0.0341085 23.4302 -0.000145004 23.2578 1.74869e-05 23.0837V22.5702C-0.00037404 22.542 0.00581396 22.5141 0.0180883 22.4887L0.948735 19.4982C0.989441 19.3666 1.07375 19.253 1.18769 19.1761C1.30162 19.0991 1.43834 19.0636 1.57519 19.0753H12.1165C12.2506 19.0738 12.3819 19.1131 12.4932 19.1881C12.6046 19.2631 12.6906 19.3701 12.7399 19.4952C12.9839 20.2201 13.6435 21.9117 13.764 22.5551C13.764 22.7001 13.764 22.9297 13.764 23.0837C13.7641 23.4347 13.6254 23.7715 13.3784 24.0201C12.9869 24.4098 12.3936 24.4007 11.8725 24.2829H11.8786ZM5.07189 15.671C5.01533 15.79 4.93596 15.8967 4.8383 15.9849C4.74064 16.0731 4.6266 16.1412 4.50271 16.1852C4.37881 16.2293 4.24748 16.2484 4.11622 16.2415C3.98495 16.2347 3.85632 16.202 3.73766 16.1452C3.49803 16.0307 3.31359 15.8253 3.22491 15.5744C3.181 15.4501 3.16193 15.3184 3.16877 15.1867C3.17562 15.0551 3.20825 14.9261 3.26481 14.8071C3.78746 13.7069 4.43203 12.6693 5.18634 11.7139C5.93929 10.7569 6.79475 9.88576 7.73734 9.1161C7.94262 8.94867 8.20582 8.86988 8.46903 8.89707C8.59935 8.91053 8.72576 8.94961 8.84103 9.01207C8.9563 9.07453 9.05817 9.15915 9.14083 9.2611C9.2235 9.36304 9.28533 9.48032 9.3228 9.60624C9.36027 9.73215 9.37265 9.86423 9.35923 9.99494C9.3458 10.1257 9.30684 10.2524 9.24456 10.368C9.18229 10.4837 9.09792 10.5858 8.99627 10.6687C7.33437 12.0235 5.99385 13.7322 5.07189 15.671ZM28.4886 10.8953C28.3824 10.8128 28.2939 10.7096 28.2285 10.592C28.163 10.4743 28.1219 10.3446 28.1077 10.2106C28.0935 10.0766 28.1064 9.94112 28.1457 9.81227C28.185 9.68342 28.2498 9.56387 28.3364 9.46079C28.4229 9.35772 28.5293 9.27324 28.6492 9.21245C28.7691 9.15165 28.9 9.11579 29.0341 9.10701C29.1681 9.09824 29.3026 9.11673 29.4293 9.16137C29.5561 9.20602 29.6725 9.2759 29.7717 9.36682C29.9735 9.53598 30.1301 9.66889 30.2506 9.78065C30.371 9.89242 30.5517 10.0586 30.7114 10.2187C31.3131 10.8098 31.8679 11.447 32.3709 12.1247C32.8769 12.8027 33.332 13.5176 33.7322 14.2633C33.7971 14.38 33.838 14.5086 33.8527 14.6414C33.8673 14.7742 33.8554 14.9086 33.8175 15.0367C33.7797 15.1648 33.7167 15.284 33.6322 15.3874C33.5478 15.4907 33.4436 15.5761 33.3258 15.6385C33.208 15.7009 33.0789 15.739 32.9462 15.7507C32.8135 15.7624 32.6798 15.7473 32.553 15.7065C32.4261 15.6656 32.3087 15.5997 32.2076 15.5127C32.1065 15.4257 32.0238 15.3193 31.9643 15.1998C31.6202 14.5448 31.2244 13.9185 30.7806 13.3269C30.3384 12.7305 29.851 12.169 29.3229 11.6474C29.2055 11.5266 29.0669 11.4028 28.9193 11.2638C28.7718 11.1249 28.6182 10.9829 28.5007 10.8953H28.4886ZM23.2361 34.2451C23.362 34.197 23.4963 34.1748 23.6309 34.18C23.7656 34.1852 23.8978 34.2176 24.0196 34.2754C24.1414 34.3331 24.2504 34.4149 24.3399 34.5159C24.4294 34.6169 24.4976 34.7351 24.5405 34.8632C24.5833 34.9913 24.5999 35.1268 24.5893 35.2615C24.5786 35.3962 24.5409 35.5274 24.4784 35.6471C24.4159 35.7669 24.33 35.8727 24.2257 35.9583C24.1214 36.0439 24.0009 36.1074 23.8716 36.1451C23.0317 36.4304 22.1693 36.6436 21.2935 36.7825C20.4154 36.9276 19.527 37.0004 18.637 37C17.7289 37.0003 16.8223 36.9256 15.9264 36.7765C15.0339 36.6293 14.1554 36.407 13.3001 36.1119C13.1757 36.0693 13.0609 36.0025 12.9623 35.9153C12.8636 35.8282 12.7831 35.7224 12.7252 35.6041C12.6083 35.365 12.5908 35.0891 12.6767 34.8372C12.7626 34.5852 12.9447 34.3778 13.1831 34.2605C13.3011 34.2025 13.4294 34.1683 13.5605 34.16C13.6917 34.1516 13.8233 34.1693 13.9477 34.2119C14.7022 34.4711 15.4769 34.6671 16.2637 34.7979C17.0513 34.9276 17.848 34.9923 18.6461 34.9912C19.4279 34.9927 20.2086 34.9301 20.9802 34.804C21.7507 34.6827 22.5094 34.4958 23.2481 34.2451H23.2361ZM24.4408 5.91418V11.5508C24.44 11.7444 24.363 11.9299 24.2264 12.0668C24.0899 12.2037 23.905 12.281 23.7119 12.2818H13.2821C13.089 12.281 12.9041 12.2037 12.7676 12.0668C12.631 11.9299 12.554 11.7444 12.5532 11.5508V5.92023C12.7519 5.95564 12.9539 5.96881 13.1556 5.95949V11.5508C13.1556 11.5844 13.1689 11.6167 13.1926 11.6405C13.2163 11.6643 13.2485 11.6776 13.2821 11.6776H16.6342V8.13136C16.6366 7.84157 16.7526 7.56436 16.9572 7.35971C17.1618 7.15507 17.4385 7.03945 17.7275 7.03788H19.5346C19.8232 7.03946 20.0996 7.15518 20.3038 7.3599C20.5079 7.56463 20.6233 7.84184 20.6248 8.13136V11.6776H23.721C23.7543 11.6769 23.786 11.6633 23.8096 11.6396C23.8331 11.616 23.8467 11.5842 23.8475 11.5508V5.93231C24.0483 5.94874 24.2503 5.94266 24.4498 5.91418H24.4408ZM17.1432 11.6776H20.1098V8.13136C20.1067 7.97777 20.0438 7.83148 19.9347 7.7237C19.8255 7.61591 19.6787 7.55517 19.5255 7.55441H17.7184C17.6417 7.55439 17.5658 7.56959 17.495 7.59914C17.4242 7.62869 17.3599 7.67201 17.3058 7.72659C17.251 7.78049 17.2075 7.84491 17.178 7.91601C17.1486 7.9871 17.1336 8.06342 17.1342 8.14042V11.6776H17.1432ZM23.4921 5.21339C23.2811 5.15019 23.0787 5.0609 22.8897 4.94757C22.7937 4.85326 22.7134 4.74414 22.6518 4.62435C22.5891 4.74349 22.5089 4.85245 22.4138 4.94757C22.0826 5.20015 21.6779 5.33691 21.2618 5.33691C20.8457 5.33691 20.4411 5.20015 20.1098 4.94757C20.0169 4.85203 19.9387 4.74309 19.8779 4.62435C19.8174 4.74403 19.7381 4.85317 19.643 4.94757C19.3117 5.20015 18.9071 5.33691 18.491 5.33691C18.0749 5.33691 17.6702 5.20015 17.339 4.94757C17.243 4.85326 17.1626 4.74414 17.101 4.62435C17.0393 4.74329 16.9601 4.85224 16.8661 4.94757C16.5349 5.20015 16.1302 5.33691 15.7141 5.33691C15.298 5.33691 14.8933 5.20015 14.5621 4.94757C14.467 4.85245 14.3868 4.74349 14.3241 4.62435C14.2625 4.74414 14.1822 4.85326 14.0862 4.94757C13.8472 5.11259 13.578 5.22859 13.2941 5.2889C13.067 5.33046 12.8335 5.32143 12.6102 5.26244C12.3869 5.20346 12.1793 5.09596 12.002 4.94757C11.8791 4.82478 11.7814 4.67887 11.7148 4.51818C11.6481 4.3575 11.6137 4.1852 11.6135 4.01116V3.49764C11.6159 3.46946 11.623 3.44188 11.6346 3.41608L12.5653 0.425609C12.6062 0.292956 12.6914 0.178487 12.8066 0.101465C12.9218 0.0244432 13.0599 -0.0104302 13.1977 0.00271368H23.739C23.8729 0.00204924 24.0039 0.0417153 24.1151 0.116575C24.2262 0.191436 24.3124 0.298041 24.3625 0.422588C24.6034 1.14755 25.266 2.83913 25.3835 3.48254C25.3835 3.62753 25.3835 3.8571 25.3835 4.01116C25.3837 4.18499 25.3498 4.35716 25.2836 4.51783C25.2175 4.67851 25.1204 4.82453 24.998 4.94757C24.6064 5.34025 24.0161 5.32817 23.4921 5.21339Z" fill="white"/>
</svg>
